<?xml version="1.0" encoding="UTF-8" standalone="no"?>
<!-- Created with Inkscape (http://www.inkscape.org/) -->

<svg
   width="160.7648mm"
   height="77.365746mm"
   viewBox="0 0 160.7648 77.365746"
   version="1.1"
   id="svg5"
   xml:space="preserve"
   inkscape:version="1.2.2 (b0a8486541, 2022-12-01)"
   sodipodi:docname="instruction_tuning_2.svg"
   xmlns:inkscape="http://www.inkscape.org/namespaces/inkscape"
   xmlns:sodipodi="http://sodipodi.sourceforge.net/DTD/sodipodi-0.dtd"
   xmlns="http://www.w3.org/2000/svg"
   xmlns:svg="http://www.w3.org/2000/svg"><sodipodi:namedview
     id="namedview7"
     pagecolor="#ffffff"
     bordercolor="#000000"
     borderopacity="0.25"
     inkscape:showpageshadow="2"
     inkscape:pageopacity="0.0"
     inkscape:pagecheckerboard="0"
     inkscape:deskcolor="#d1d1d1"
     inkscape:document-units="mm"
     showgrid="false"
     inkscape:zoom="1.829812"
     inkscape:cx="402.22711"
     inkscape:cy="144.00386"
     inkscape:window-width="2560"
     inkscape:window-height="1440"
     inkscape:window-x="1920"
     inkscape:window-y="0"
     inkscape:window-maximized="1"
     inkscape:current-layer="layer1"><inkscape:grid
       type="xygrid"
       id="grid6424"
       originx="-5.7336845"
       originy="-73.823556" /></sodipodi:namedview><defs
     id="defs2"><marker
       style="overflow:visible"
       id="RoundedArrow"
       refX="0"
       refY="0"
       orient="auto-start-reverse"
       inkscape:stockid="RoundedArrow"
       markerWidth="6.1347523"
       markerHeight="5.9304953"
       viewBox="0 0 6.1347524 5.9304951"
       inkscape:isstock="true"
       inkscape:collect="always"
       preserveAspectRatio="xMidYMid"><path
         transform="scale(0.7)"
         d="m -0.21114562,-4.1055728 6.42229122,3.21114561 a 1,1 90 0 1 0,1.78885438 L -0.21114562,4.1055728 A 1.236068,1.236068 31.717474 0 1 -2,3 v -6 a 1.236068,1.236068 148.28253 0 1 1.78885438,-1.1055728 z"
         style="fill:context-stroke;fill-rule:evenodd;stroke:none"
         id="path1367" /></marker><marker
       style="overflow:visible"
       id="RoundedArrow-6"
       refX="0"
       refY="0"
       orient="auto-start-reverse"
       inkscape:stockid="RoundedArrow"
       markerWidth="6.1347523"
       markerHeight="5.9304953"
       viewBox="0 0 6.1347524 5.9304951"
       inkscape:isstock="true"
       inkscape:collect="always"
       preserveAspectRatio="xMidYMid"><path
         transform="scale(0.7)"
         d="m -0.21114562,-4.1055728 6.42229122,3.21114561 a 1,1 90 0 1 0,1.78885438 L -0.21114562,4.1055728 A 1.236068,1.236068 31.717474 0 1 -2,3 v -6 a 1.236068,1.236068 148.28253 0 1 1.78885438,-1.1055728 z"
         style="fill:context-stroke;fill-rule:evenodd;stroke:none"
         id="path1367-7" /></marker></defs><g
     inkscape:label="Layer 1"
     inkscape:groupmode="layer"
     id="layer1"
     transform="translate(-5.7336845,-73.823556)"><rect
       style="opacity:0.5;fill:none;stroke:#b4b4b4;stroke-width:1;stroke-linecap:round;stroke-linejoin:round;stroke-dasharray:none;stroke-opacity:1"
       id="rect234"
       width="41.148151"
       height="31.377708"
       x="6.3887181"
       y="86.702347"
       ry="3.0100114" /><g
       display="none"
       id="g238"
       transform="matrix(0.26458333,0,0,0.26458333,76.766801,82.832903)"><rect
         x="-136.577"
         y="-133.02699"
         display="inline"
         fill="#000000"
         stroke="#000000"
         stroke-width="4"
         stroke-miterlimit="10"
         width="1243.174"
         height="368.98199"
         id="rect236" /></g><g
       id="g242"
       transform="matrix(0.3769109,0,0,0.3769109,59.180635,84.460265)"
       style="stroke-width:0.70831;stroke-dasharray:none"><path
         d="M 43.79,85.801 H 56.21 71.123 95 V 63.948 c 0,-5.609 -3.137,-10.498 -7.748,-13.007 1.341,-2.124 2.129,-4.631 2.129,-7.324 0,-6.294 -4.247,-11.603 -10.022,-13.243 0.138,-0.781 0.223,-1.58 0.223,-2.399 0,-7.596 -6.18,-13.776 -13.776,-13.776 -5.716,0 -10.628,3.501 -12.71,8.47 -0.999,-0.211 -2.034,-0.327 -3.095,-0.327 -1.13,0 -2.227,0.137 -3.286,0.376 -2.176,-4.749 -6.963,-8.063 -12.52,-8.063 -7.596,0 -13.776,6.18 -13.776,13.776 0,0.667 0.064,1.318 0.156,1.96 -5.741,1.662 -9.955,6.956 -9.955,13.226 0,2.693 0.788,5.199 2.129,7.323 C 8.137,53.45 5,58.339 5,63.948 V 85.8 H 28.877 43.79 Z M 56.21,81.573 H 43.79 V 63.948 c 0,-5.573 -3.099,-10.432 -7.662,-12.955 1.104,-1.127 2.459,-2.001 3.972,-2.547 2.639,2.343 6.101,3.78 9.899,3.78 3.798,0 7.26,-1.437 9.899,-3.78 1.513,0.546 2.868,1.42 3.972,2.547 -4.563,2.523 -7.662,7.382 -7.662,12.955 V 81.573 Z M 90.772,63.948 V 81.573 H 66.896 60.438 V 63.948 c 0,-4.349 2.642,-8.091 6.404,-9.711 2.383,1.97 5.438,3.155 8.764,3.155 3.326,0 6.38,-1.185 8.764,-3.155 3.761,1.621 6.402,5.362 6.402,9.711 z M 85.153,43.617 c 0,5.264 -4.283,9.548 -9.548,9.548 -5.265,0 -9.548,-4.283 -9.548,-9.548 0,-5.265 4.283,-9.548 9.548,-9.548 5.265,0 9.548,4.283 9.548,9.548 z M 65.806,18.427 c 5.265,0 9.548,4.283 9.548,9.548 0,0.647 -0.066,1.278 -0.189,1.888 -4.217,0.134 -7.957,2.165 -10.395,5.275 -0.69,-4.763 -3.618,-8.809 -7.696,-11.011 1.483,-3.352 4.836,-5.7 8.732,-5.7 z M 50,26.57 c 5.908,0 10.714,4.807 10.714,10.715 0,5.908 -4.806,10.714 -10.714,10.714 -5.908,0 -10.714,-4.806 -10.714,-10.714 C 39.286,31.377 44.092,26.57 50,26.57 Z M 34.195,18.883 c 3.755,0 7.001,2.185 8.56,5.345 -3.987,2.222 -6.844,6.217 -7.524,10.911 -2.452,-3.127 -6.219,-5.166 -10.466,-5.279 -0.071,-0.467 -0.119,-0.942 -0.119,-1.429 0,-5.265 4.284,-9.548 9.549,-9.548 z m -9.8,15.186 c 5.264,0 9.548,4.283 9.548,9.548 0,5.264 -4.283,9.548 -9.548,9.548 -5.265,0 -9.548,-4.283 -9.548,-9.548 0,-5.265 4.284,-9.548 9.548,-9.548 z M 9.228,63.948 c 0,-4.349 2.642,-8.091 6.404,-9.711 2.383,1.97 5.438,3.155 8.764,3.155 3.326,0 6.38,-1.185 8.764,-3.155 3.762,1.62 6.404,5.361 6.404,9.711 V 81.573 H 33.106 9.228 Z"
         id="path240"
         style="stroke-width:0.70831;stroke-dasharray:none" /></g><text
       xml:space="preserve"
       style="font-size:4.23333px;line-height:1.3;font-family:Arial;-inkscape-font-specification:Arial;text-align:center;text-anchor:middle;opacity:1;fill:#000000;fill-opacity:1;stroke:none;stroke-width:0.25;stroke-linecap:round;stroke-linejoin:round"
       x="26.877182"
       y="77.359093"
       id="text430"><tspan
         sodipodi:role="line"
         id="tspan428"
         style="font-size:4.23333px;fill:#000000;fill-opacity:1;stroke:none;stroke-width:0.25"
         x="26.877182"
         y="77.359093">list with instructions</tspan><tspan
         sodipodi:role="line"
         style="font-size:4.23333px;fill:#000000;fill-opacity:1;stroke:none;stroke-width:0.25"
         x="26.877182"
         y="82.862419"
         id="tspan382">(prompts)</tspan></text><text
       xml:space="preserve"
       style="font-size:4.93889px;line-height:1.3;font-family:Arial;-inkscape-font-specification:Arial;text-align:center;text-anchor:middle;opacity:1;fill:#000000;fill-opacity:1;stroke:none;stroke-width:0.25;stroke-linecap:round;stroke-linejoin:round"
       x="26.877182"
       y="99.940926"
       id="text1714"><tspan
         sodipodi:role="line"
         style="font-style:italic;font-size:4.93889px;fill:#000000;fill-opacity:1;stroke:none;stroke-width:0.25"
         x="26.877182"
         y="99.940926"
         id="tspan1718">Explain step</tspan><tspan
         sodipodi:role="line"
         style="font-style:italic;font-size:4.93889px;fill:#000000;fill-opacity:1;stroke:none;stroke-width:0.25"
         x="26.877182"
         y="106.37348"
         id="tspan464">by step ...</tspan></text><rect
       style="opacity:1;fill:#cce2ba;fill-opacity:1;stroke:#9fcb81;stroke-width:1.15608;stroke-linecap:round;stroke-linejoin:round;stroke-dasharray:none;stroke-opacity:1"
       id="rect2545"
       width="57.238003"
       height="41.820042"
       x="108.6824"
       y="82.39579"
       ry="4.0117273" /><text
       xml:space="preserve"
       style="font-size:4.23333px;line-height:1.3;font-family:Arial;-inkscape-font-specification:Arial;text-align:center;text-anchor:middle;opacity:1;fill:#000000;fill-opacity:1;stroke:none;stroke-width:0.25;stroke-linecap:round;stroke-linejoin:round"
       x="137.29659"
       y="76.853859"
       id="text2549"><tspan
         sodipodi:role="line"
         id="tspan2547"
         style="font-size:4.23333px;fill:#000000;fill-opacity:1;stroke:none;stroke-width:0.25"
         x="137.29659"
         y="76.853859">training data</tspan></text><path
       style="opacity:1;fill:#cce2ba;fill-opacity:1;stroke:#9fcb81;stroke-width:1;stroke-linecap:round;stroke-linejoin:round;stroke-dasharray:none;stroke-opacity:1"
       d="m 137.30141,82.39579 -1e-5,41.85108"
       id="path4885"
       sodipodi:nodetypes="cc" /><text
       xml:space="preserve"
       style="font-size:3.52778px;line-height:1.3;font-family:Arial;-inkscape-font-specification:Arial;text-align:center;text-anchor:middle;opacity:1;fill:#000000;fill-opacity:1;stroke:none;stroke-width:1;stroke-linecap:round;stroke-linejoin:round;stroke-dasharray:none;stroke-opacity:1"
       x="122.6109"
       y="89.701836"
       id="text4941"><tspan
         sodipodi:role="line"
         id="tspan4939"
         style="font-size:3.52778px;fill:#000000;fill-opacity:1;stroke:none;stroke-width:1"
         x="122.6109"
         y="89.701836">prompt</tspan></text><text
       xml:space="preserve"
       style="font-size:3.52778px;line-height:1.3;font-family:Arial;-inkscape-font-specification:Arial;text-align:center;text-anchor:middle;opacity:1;fill:#000000;fill-opacity:1;stroke:none;stroke-width:1;stroke-linecap:round;stroke-linejoin:round;stroke-dasharray:none;stroke-opacity:1"
       x="151.74557"
       y="87.585167"
       id="text5567"><tspan
         sodipodi:role="line"
         id="tspan5565"
         style="font-size:3.52778px;fill:#000000;fill-opacity:1;stroke:none;stroke-width:1"
         x="151.74557"
         y="87.585167">human</tspan><tspan
         sodipodi:role="line"
         style="font-size:3.52778px;fill:#000000;fill-opacity:1;stroke:none;stroke-width:1"
         x="151.74557"
         y="92.17128"
         id="tspan6295">outputs</tspan></text><path
       style="opacity:1;fill:#cce2ba;fill-opacity:1;stroke:#9fcb81;stroke-width:1;stroke-linecap:round;stroke-linejoin:round;stroke-dasharray:none;stroke-opacity:1"
       d="m 108.60432,93.230565 h 57.39417"
       id="path6297"
       sodipodi:nodetypes="cc" /><text
       xml:space="preserve"
       style="font-size:3.52777px;line-height:1.6;font-family:Arial;-inkscape-font-specification:Arial;text-align:start;text-anchor:start;opacity:1;fill:#000000;fill-opacity:1;stroke:none;stroke-width:1;stroke-linecap:round;stroke-linejoin:round;stroke-dasharray:none;stroke-opacity:1"
       x="111.90599"
       y="98.118805"
       id="text6350"><tspan
         sodipodi:role="line"
         id="tspan6348"
         style="text-align:start;text-anchor:start;stroke-width:1"
         x="111.90599"
         y="98.118805">explain ...</tspan><tspan
         sodipodi:role="line"
         style="text-align:start;text-anchor:start;stroke-width:1"
         x="111.90599"
         y="103.76324"
         id="tspan6352">tell me ...</tspan><tspan
         sodipodi:role="line"
         style="text-align:start;text-anchor:start;stroke-width:1"
         x="111.90599"
         y="109.40767"
         id="tspan6354"></tspan><tspan
         sodipodi:role="line"
         style="text-align:start;text-anchor:start;stroke-width:1"
         x="111.90599"
         y="115.0521"
         id="tspan612">enumerate ...</tspan></text><text
       xml:space="preserve"
       style="font-size:3.52777px;line-height:1.6;font-family:Arial;-inkscape-font-specification:Arial;text-align:start;text-anchor:start;opacity:1;fill:#000000;fill-opacity:1;stroke:none;stroke-width:1;stroke-linecap:round;stroke-linejoin:round;stroke-dasharray:none;stroke-opacity:1"
       x="139.29712"
       y="98.118988"
       id="text6362"><tspan
         sodipodi:role="line"
         id="tspan6356"
         style="text-align:start;text-anchor:start;stroke-width:1"
         x="139.29712"
         y="98.118988">First, ...</tspan><tspan
         sodipodi:role="line"
         style="text-align:start;text-anchor:start;stroke-width:1"
         x="139.29712"
         y="103.76342"
         id="tspan6358">Once upon a </tspan><tspan
         style="text-align:start;text-anchor:start;stroke-width:1"
         sodipodi:role="line"
         id="tspan506"
         x="139.29712"
         y="109.40785">time...</tspan><tspan
         style="text-align:start;text-anchor:start;stroke-width:1"
         sodipodi:role="line"
         id="tspan508"
         x="139.29712"
         y="115.05228">1. ...</tspan><tspan
         style="text-align:start;text-anchor:start;stroke-width:1"
         sodipodi:role="line"
         id="tspan510"
         x="139.29712"
         y="120.69672">2. ...</tspan></text><path
       style="opacity:1;fill:#cce2ba;fill-opacity:1;stroke:#9fcb81;stroke-width:0.5;stroke-linecap:round;stroke-linejoin:round;stroke-dasharray:none;stroke-opacity:1"
       d="m 108.60432,99.997513 h 57.39417"
       id="path6366"
       sodipodi:nodetypes="cc" /><path
       style="opacity:1;fill:#cce2ba;fill-opacity:1;stroke:#9fcb81;stroke-width:0.5;stroke-linecap:round;stroke-linejoin:round;stroke-dasharray:none;stroke-opacity:1"
       d="m 108.60432,111.11008 h 57.39417"
       id="path6368"
       sodipodi:nodetypes="cc" /><path
       style="opacity:1;fill:#000000;fill-opacity:1;stroke:#000002;stroke-width:0.5;stroke-linecap:round;stroke-linejoin:round;stroke-dasharray:none;stroke-opacity:1;marker-end:url(#RoundedArrow)"
       d="m 51.064582,104.51042 h 6.614584"
       id="path6426" /><path
       style="opacity:1;fill:#000000;fill-opacity:1;stroke:#000002;stroke-width:0.5;stroke-linecap:round;stroke-linejoin:round;stroke-dasharray:none;stroke-opacity:1;marker-end:url(#RoundedArrow)"
       d="m 97.353838,104.51042 h 6.614592"
       id="path7349" /><path
       style="fill:#000000;fill-opacity:1;stroke:#000002;stroke-width:0.5;stroke-linecap:round;stroke-linejoin:round;stroke-dasharray:none;stroke-opacity:1;marker-end:url(#RoundedArrow-6)"
       d="m 105.50376,141.55192 h 6.6146"
       id="path7349-5" /><text
       xml:space="preserve"
       style="font-size:4.23333px;line-height:1.3;font-family:Arial;-inkscape-font-specification:Arial;text-align:center;text-anchor:middle;opacity:1;fill:#000000;fill-opacity:1;stroke:none;stroke-width:0.25;stroke-linecap:round;stroke-linejoin:round"
       x="78.021355"
       y="77.35891"
       id="text436"><tspan
         sodipodi:role="line"
         style="font-size:4.23333px;fill:#000000;fill-opacity:1;stroke:none;stroke-width:0.25"
         x="78.021355"
         y="77.35891"
         id="tspan438">humans produce</tspan><tspan
         sodipodi:role="line"
         style="font-size:4.23333px;fill:#000000;fill-opacity:1;stroke:none;stroke-width:0.25"
         x="78.021355"
         y="82.862236"
         id="tspan468">text as output</tspan></text><rect
       style="opacity:1;fill:#cce2ba;fill-opacity:1;stroke:#9fcb81;stroke-width:1.094;stroke-linecap:round;stroke-linejoin:round;stroke-dasharray:none;stroke-opacity:1"
       id="rect642"
       width="41.36422"
       height="19.18248"
       x="6.2806845"
       y="131.45982"
       ry="1.8401433" /><rect
       style="opacity:1;fill:#cce2ba;fill-opacity:1;stroke:#9fcb81;stroke-width:1.094;stroke-linecap:round;stroke-linejoin:round;stroke-dasharray:none;stroke-opacity:1"
       id="rect1205"
       width="41.36422"
       height="19.18248"
       x="59.808601"
       y="131.45982"
       ry="1.8401433" /><text
       xml:space="preserve"
       style="font-size:4.23333px;line-height:1.3;font-family:Arial;-inkscape-font-specification:Arial;text-align:center;text-anchor:middle;opacity:1;fill:#000013;fill-opacity:1;stroke:none;stroke-width:1.094;stroke-linejoin:round;stroke-dasharray:none;stroke-opacity:1"
       x="27.041342"
       y="140.2906"
       id="text1261"><tspan
         sodipodi:role="line"
         style="text-align:center;text-anchor:middle;fill:#000013;fill-opacity:1;stroke:none;stroke-width:1.094"
         x="27.041342"
         y="140.2906"
         id="tspan1831">preceding</tspan><tspan
         sodipodi:role="line"
         style="text-align:center;text-anchor:middle;fill:#000013;fill-opacity:1;stroke:none;stroke-width:1.094"
         x="27.041342"
         y="145.79393"
         id="tspan472">conversation</tspan></text><text
       xml:space="preserve"
       style="font-size:4.23333px;line-height:1.3;font-family:Arial;-inkscape-font-specification:Arial;text-align:center;text-anchor:middle;opacity:1;fill:#000013;fill-opacity:1;stroke:none;stroke-width:1.094;stroke-linejoin:round;stroke-dasharray:none;stroke-opacity:1"
       x="80.56926"
       y="142.14557"
       id="text1837"><tspan
         sodipodi:role="line"
         style="text-align:center;text-anchor:middle;fill:#000013;fill-opacity:1;stroke:none;stroke-width:1.094"
         x="80.56926"
         y="142.14557"
         id="tspan1835">prompt</tspan></text><text
       xml:space="preserve"
       style="font-size:8.46667px;line-height:1.3;font-family:Arial;-inkscape-font-specification:Arial;text-align:center;text-anchor:middle;opacity:1;fill:#000013;fill-opacity:1;stroke:none;stroke-width:1.094;stroke-linejoin:round;stroke-dasharray:none;stroke-opacity:1"
       x="53.726753"
       y="144.53468"
       id="text1843"><tspan
         sodipodi:role="line"
         id="tspan1841"
         style="font-size:8.46667px;stroke-width:1.094"
         x="53.726753"
         y="144.53468">+</tspan></text><rect
       style="opacity:1;fill:#f1ae95;fill-opacity:1;stroke:#e4684b;stroke-width:1.094;stroke-linecap:round;stroke-linejoin:round;stroke-dasharray:none;stroke-opacity:1"
       id="rect1899"
       width="41.36422"
       height="19.18248"
       x="119.49182"
       y="131.45982"
       ry="1.8401433" /><text
       xml:space="preserve"
       style="font-size:4.23333px;line-height:1.3;font-family:Arial;-inkscape-font-specification:Arial;text-align:center;text-anchor:middle;opacity:1;fill:#000013;fill-opacity:1;stroke:none;stroke-width:1.094;stroke-linejoin:round;stroke-dasharray:none;stroke-opacity:1"
       x="140.88689"
       y="140.29086"
       id="text3407"><tspan
         sodipodi:role="line"
         style="text-align:center;text-anchor:middle;fill:#000013;fill-opacity:1;stroke:none;stroke-width:1.094"
         x="140.88689"
         y="140.29086"
         id="tspan3405">generated</tspan><tspan
         sodipodi:role="line"
         style="text-align:center;text-anchor:middle;fill:#000013;fill-opacity:1;stroke:none;stroke-width:1.094"
         x="140.88689"
         y="145.79419"
         id="tspan3461">output sequence</tspan></text></g></svg>
