<?xml version="1.0" encoding="UTF-8" standalone="no"?>
<!-- Created with Inkscape (http://www.inkscape.org/) -->

<svg
   width="198.41609mm"
   height="49.278404mm"
   viewBox="0 0 198.41609 49.278404"
   version="1.1"
   id="svg5"
   sodipodi:docname="attention_illustration_1.svg"
   inkscape:version="1.2.2 (b0a8486541, 2022-12-01)"
   xmlns:inkscape="http://www.inkscape.org/namespaces/inkscape"
   xmlns:sodipodi="http://sodipodi.sourceforge.net/DTD/sodipodi-0.dtd"
   xmlns="http://www.w3.org/2000/svg"
   xmlns:svg="http://www.w3.org/2000/svg">
  <sodipodi:namedview
     id="namedview7"
     pagecolor="#ffffff"
     bordercolor="#666666"
     borderopacity="1.0"
     inkscape:pageshadow="2"
     inkscape:pageopacity="0.0"
     inkscape:pagecheckerboard="0"
     inkscape:document-units="mm"
     showgrid="false"
     fit-margin-top="0"
     fit-margin-left="0"
     fit-margin-right="0"
     fit-margin-bottom="0"
     inkscape:zoom="3.1108586"
     inkscape:cx="117.33095"
     inkscape:cy="119.74186"
     inkscape:window-width="2560"
     inkscape:window-height="1440"
     inkscape:window-x="0"
     inkscape:window-y="0"
     inkscape:window-maximized="1"
     inkscape:current-layer="layer1"
     inkscape:showpageshadow="2"
     inkscape:deskcolor="#d1d1d1">
    <inkscape:grid
       type="xygrid"
       id="grid9654"
       originx="30.07311"
       originy="-213.55533" />
  </sodipodi:namedview>
  <defs
     id="defs2">
    <marker
       style="overflow:visible"
       id="Arrow2Mend"
       refX="0"
       refY="0"
       orient="auto"
       inkscape:stockid="Arrow2Mend"
       inkscape:isstock="true">
      <path
         transform="scale(-0.6)"
         d="M 8.7185878,4.0337352 -2.2072895,0.01601326 8.7185884,-4.0017078 c -1.7454984,2.3720609 -1.7354408,5.6174519 -6e-7,8.035443 z"
         style="fill:context-stroke;fill-rule:evenodd;stroke:context-stroke;stroke-width:0.625;stroke-linejoin:round"
         id="path9718" />
    </marker>
    <marker
       style="overflow:visible"
       id="Arrow2Lend"
       refX="0"
       refY="0"
       orient="auto"
       inkscape:stockid="Arrow2Lend"
       inkscape:isstock="true">
      <path
         transform="matrix(-1.1,0,0,-1.1,-1.1,0)"
         d="M 8.7185878,4.0337352 -2.2072895,0.01601326 8.7185884,-4.0017078 c -1.7454984,2.3720609 -1.7354408,5.6174519 -6e-7,8.035443 z"
         style="fill:context-stroke;fill-rule:evenodd;stroke:context-stroke;stroke-width:0.625;stroke-linejoin:round"
         id="path9712" />
    </marker>
    <defs
       id="id-f98c2cc7-dbcc-40f4-8ab7-638702385a78">
      <g
         id="id-0622f16e-3e16-47c8-94d1-6b0df22cbda6">
        <symbol
           overflow="visible"
           id="id-e5f761e2-4ab2-4bfd-aac6-01410a4f270a">
          <path
             style="stroke:none;stroke-width:0"
             d=""
             id="id-65a9e579-3344-4b9a-8c8a-916d61e4bed3" />
        </symbol>
        <symbol
           overflow="visible"
           id="id-4d733f2a-c7f1-4d75-b2d1-aaea1c1a384b">
          <path
             style="stroke:none;stroke-width:0"
             d="M 3.453125,-2.453125 4.609375,-3.75 C 4.75,-3.890625 4.8125,-3.953125 5.625,-3.953125 v -0.46875 c -0.34375,0.015625 -0.859375,0.03125 -0.90625,0.03125 -0.25,0 -0.75,-0.03125 -1.03125,-0.03125 v 0.46875 c 0.140625,0 0.265625,0.015625 0.375,0.078125 -0.03125,0.0625 -0.03125,0.09375 -0.078125,0.125 L 3.15625,-2.8125 2.171875,-3.953125 h 0.40625 v -0.46875 c -0.265625,0 -0.890625,0.03125 -1.21875,0.03125 -0.3125,0 -0.765625,-0.03125 -1.09375,-0.03125 v 0.46875 h 0.71875 L 2.53125,-2.125 1.21875,-0.65625 c -0.15625,0.1875 -0.515625,0.1875 -1,0.1875 V 0 c 0.34375,-0.015625 0.875,-0.03125 0.921875,-0.03125 0.25,0 0.828125,0.015625 1.015625,0.03125 v -0.46875 c -0.171875,0 -0.359375,-0.046875 -0.359375,-0.109375 0,-0.015625 0,-0.015625 0.0625,-0.09375 l 0.96875,-1.09375 1.09375,1.296875 H 3.53125 V 0 c 0.265625,-0.015625 0.875,-0.03125 1.203125,-0.03125 0.3125,0 0.765625,0.015625 1.09375,0.03125 V -0.46875 H 5.125 Z m 0,0"
             id="id-5616aaff-0096-4e2e-9788-3ae1143b239c" />
        </symbol>
        <symbol
           overflow="visible"
           id="id-bfc495f6-4ad3-45cd-b579-8154fe4e90de">
          <path
             style="stroke:none;stroke-width:0"
             d="m 5.046875,-3.75 c 0.0625,-0.140625 0.09375,-0.203125 0.734375,-0.203125 v -0.46875 C 5.546875,-4.40625 5.25,-4.390625 5,-4.390625 c -0.25,0 -0.703125,-0.03125 -0.90625,-0.03125 v 0.46875 c 0.015625,0 0.46875,0 0.46875,0.109375 0,0.015625 -0.046875,0.109375 -0.0625,0.125 L 3.359375,-1.265625 2.09375,-3.953125 H 2.625 v -0.46875 c -0.328125,0.015625 -1.21875,0.03125 -1.234375,0.03125 -0.28125,0 -0.71875,-0.03125 -1.125,-0.03125 v 0.46875 h 0.625 L 2.765625,0 2.53125,0.484375 C 2.3125,0.953125 2,1.640625 1.28125,1.640625 1.140625,1.640625 1.125,1.625 1.046875,1.59375 1.140625,1.5625 1.359375,1.421875 1.359375,1.0625 1.359375,0.734375 1.125,0.5 0.78125,0.5 0.515625,0.5 0.21875,0.6875 0.21875,1.078125 0.21875,1.578125 0.6875,2 1.28125,2 2.046875,2 2.625,1.375 2.90625,0.8125 Z m 0,0"
             id="id-ff04a5ff-8c3a-4360-8a79-8f158af9bbfb" />
        </symbol>
        <symbol
           overflow="visible"
           id="id-186fc656-ea4b-4af0-8eed-3311ef80edb1">
          <path
             style="stroke:none;stroke-width:0"
             d=""
             id="id-20878b91-0c2e-476d-967a-a4429d588e6b" />
        </symbol>
        <symbol
           overflow="visible"
           id="id-63f20991-b481-48ef-b1af-227ec5b5f09b">
          <path
             style="stroke:none;stroke-width:0"
             d="m 2.328125,-4.4375 c 0,-0.1875 0,-0.1875 -0.203125,-0.1875 -0.453125,0.4375 -1.078125,0.4375 -1.359375,0.4375 v 0.25 c 0.15625,0 0.625,0 1,-0.1875 v 3.546875 c 0,0.234375 0,0.328125 -0.6875,0.328125 H 0.8125 V 0 c 0.125,0 0.984375,-0.03125 1.234375,-0.03125 0.21875,0 1.09375,0.03125 1.25,0.03125 V -0.25 H 3.03125 c -0.703125,0 -0.703125,-0.09375 -0.703125,-0.328125 z m 0,0"
             id="id-c15e591f-06e5-476c-888e-229abb533f90" />
        </symbol>
        <symbol
           overflow="visible"
           id="id-8b3417c7-e5dd-4f37-aa9f-6ebcdb0a0ce6">
          <path
             style="stroke:none;stroke-width:0"
             d="M 3.515625,-1.265625 H 3.28125 c -0.015625,0.15625 -0.09375,0.5625 -0.1875,0.625 C 3.046875,-0.59375 2.515625,-0.59375 2.40625,-0.59375 H 1.125 c 0.734375,-0.640625 0.984375,-0.84375 1.390625,-1.171875 0.515625,-0.40625 1,-0.84375 1,-1.5 0,-0.84375 -0.734375,-1.359375 -1.625,-1.359375 -0.859375,0 -1.453125,0.609375 -1.453125,1.25 0,0.34375 0.296875,0.390625 0.375,0.390625 0.15625,0 0.359375,-0.125 0.359375,-0.375 0,-0.125 -0.046875,-0.375 -0.40625,-0.375 C 0.984375,-4.21875 1.453125,-4.375 1.78125,-4.375 c 0.703125,0 1.0625,0.546875 1.0625,1.109375 0,0.609375 -0.4375,1.078125 -0.65625,1.328125 L 0.515625,-0.265625 C 0.4375,-0.203125 0.4375,-0.1875 0.4375,0 h 2.875 z m 0,0"
             id="id-9f9e8735-2861-4e42-b26f-fff37ebaec31" />
        </symbol>
        <symbol
           overflow="visible"
           id="id-816c9e94-017a-424e-839b-f19cc55998c2">
          <path
             style="stroke:none;stroke-width:0"
             d="m 1.90625,-2.328125 c 0.546875,0 0.9375,0.375 0.9375,1.125 0,0.859375 -0.515625,1.125 -0.90625,1.125 -0.28125,0 -0.90625,-0.078125 -1.1875,-0.5 0.328125,0 0.40625,-0.234375 0.40625,-0.390625 0,-0.21875 -0.171875,-0.375 -0.390625,-0.375 -0.1875,0 -0.390625,0.125 -0.390625,0.40625 0,0.65625 0.71875,1.078125 1.5625,1.078125 0.96875,0 1.640625,-0.65625 1.640625,-1.34375 0,-0.546875 -0.4375,-1.09375 -1.203125,-1.25 0.71875,-0.265625 0.984375,-0.78125 0.984375,-1.21875 0,-0.546875 -0.625,-0.953125 -1.40625,-0.953125 -0.765625,0 -1.359375,0.375 -1.359375,0.9375 0,0.234375 0.15625,0.359375 0.359375,0.359375 0.21875,0 0.359375,-0.15625 0.359375,-0.34375 0,-0.203125 -0.140625,-0.359375 -0.359375,-0.375 0.25,-0.296875 0.71875,-0.375 0.984375,-0.375 0.3125,0 0.75,0.15625 0.75,0.75 0,0.296875 -0.09375,0.625 -0.28125,0.828125 -0.21875,0.265625 -0.421875,0.28125 -0.765625,0.3125 -0.171875,0.015625 -0.1875,0.015625 -0.21875,0.015625 -0.015625,0 -0.078125,0.015625 -0.078125,0.09375 0,0.09375 0.0625,0.09375 0.1875,0.09375 z m 0,0"
             id="id-eff8f28c-f819-4bc0-8f95-987628374a25" />
        </symbol>
        <symbol
           overflow="visible"
           id="id-41a20723-7c96-41bf-804b-2a7d68966a6a">
          <path
             style="stroke:none;stroke-width:0"
             d="m 3.6875,-1.140625 v -0.25 H 2.90625 V -4.5 c 0,-0.140625 0,-0.203125 -0.140625,-0.203125 -0.09375,0 -0.125,0 -0.1875,0.109375 l -2.3125,3.203125 v 0.25 h 2.0625 v 0.5625 c 0,0.25 0,0.328125 -0.578125,0.328125 H 1.5625 V 0 C 1.921875,-0.015625 2.359375,-0.03125 2.609375,-0.03125 2.875,-0.03125 3.3125,-0.015625 3.671875,0 v -0.25 h -0.1875 C 2.90625,-0.25 2.90625,-0.328125 2.90625,-0.578125 v -0.5625 z M 2.375,-3.9375 v 2.546875 H 0.53125 Z m 0,0"
             id="id-fd85da8a-0067-4370-acaf-a93734e1a52c" />
        </symbol>
        <symbol
           overflow="visible"
           id="id-a244a624-a5e9-495b-8230-05f0410dbba3">
          <path
             style="stroke:none;stroke-width:0"
             d="m 1.078125,-3.890625 c 0.359375,0.09375 0.5625,0.09375 0.671875,0.09375 0.921875,0 1.46875,-0.625 1.46875,-0.734375 0,-0.078125 -0.046875,-0.09375 -0.078125,-0.09375 -0.015625,0 -0.03125,0 -0.0625,0.015625 -0.171875,0.0625 -0.53125,0.203125 -1.046875,0.203125 -0.203125,0 -0.5625,-0.015625 -1.015625,-0.1875 C 0.9375,-4.625 0.921875,-4.625 0.921875,-4.625 c -0.09375,0 -0.09375,0.078125 -0.09375,0.1875 v 2.046875 c 0,0.125 0,0.203125 0.109375,0.203125 0.0625,0 0.078125,0 0.140625,-0.09375 0.296875,-0.375 0.734375,-0.4375 0.96875,-0.4375 0.421875,0 0.609375,0.328125 0.640625,0.390625 0.125,0.234375 0.171875,0.5 0.171875,0.90625 0,0.203125 0,0.609375 -0.21875,0.921875 -0.171875,0.25 -0.46875,0.421875 -0.8125,0.421875 -0.453125,0 -0.921875,-0.25 -1.09375,-0.71875 0.265625,0.015625 0.40625,-0.15625 0.40625,-0.34375 0,-0.296875 -0.265625,-0.34375 -0.359375,-0.34375 0,0 -0.34375,0 -0.34375,0.375 0,0.625 0.578125,1.25 1.40625,1.25 0.890625,0 1.671875,-0.65625 1.671875,-1.546875 0,-0.78125 -0.59375,-1.5 -1.453125,-1.5 -0.3125,0 -0.671875,0.0625 -0.984375,0.328125 z m 0,0"
             id="id-59d7b698-a971-4479-8512-85dd546ad857" />
        </symbol>
        <symbol
           overflow="visible"
           id="id-91e5582b-d174-4d53-bd77-a68380b6a9e9">
          <path
             style="stroke:none;stroke-width:0"
             d="m 1.046875,-2.28125 c 0,-0.5625 0.046875,-1.078125 0.3125,-1.515625 0.234375,-0.375 0.609375,-0.625 1.0625,-0.625 0.203125,0 0.484375,0.046875 0.625,0.234375 C 2.875,-4.171875 2.71875,-4.046875 2.71875,-3.84375 c 0,0.171875 0.125,0.328125 0.328125,0.328125 0.21875,0 0.34375,-0.140625 0.34375,-0.34375 0,-0.40625 -0.296875,-0.765625 -0.984375,-0.765625 -1,0 -2.03125,0.921875 -2.03125,2.421875 0,1.796875 0.84375,2.34375 1.625,2.34375 0.84375,0 1.578125,-0.65625 1.578125,-1.5625 0,-0.890625 -0.703125,-1.546875 -1.515625,-1.546875 -0.5625,0 -0.859375,0.375 -1.015625,0.6875 z M 2,-0.078125 c -0.359375,0 -0.625,-0.203125 -0.78125,-0.515625 C 1.125,-0.796875 1.0625,-1.15625 1.0625,-1.5625 c 0,-0.6875 0.40625,-1.203125 0.96875,-1.203125 0.3125,0 0.53125,0.125 0.703125,0.375 0.171875,0.265625 0.171875,0.5625 0.171875,0.96875 0,0.390625 0,0.6875 -0.1875,0.96875 -0.15625,0.234375 -0.390625,0.375 -0.71875,0.375 z m 0,0"
             id="id-fef05f3f-308c-4c0f-9881-5c5c9a8735b4" />
        </symbol>
        <symbol
           overflow="visible"
           id="id-df01f89f-9d1e-4482-8aa3-10954ee06b8e">
          <path
             style="stroke:none;stroke-width:0"
             d="m 3.734375,-4.203125 c 0.0625,-0.09375 0.0625,-0.109375 0.0625,-0.28125 H 1.96875 C 1.6875,-4.484375 1.609375,-4.5 1.359375,-4.515625 1,-4.546875 0.984375,-4.59375 0.96875,-4.703125 H 0.734375 l -0.25,1.484375 H 0.71875 c 0.015625,-0.109375 0.09375,-0.5625 0.203125,-0.640625 0.046875,-0.03125 0.625,-0.03125 0.71875,-0.03125 H 3.15625 c -0.21875,0.28125 -0.578125,0.71875 -0.71875,0.921875 -0.90625,1.1875 -1,2.296875 -1,2.703125 0,0.078125 0,0.40625 0.328125,0.40625 0.34375,0 0.34375,-0.3125 0.34375,-0.40625 v -0.28125 c 0,-1.34375 0.28125,-1.96875 0.578125,-2.34375 z m 0,0"
             id="id-674500ee-288d-4309-a0c9-35446e40a9ff" />
        </symbol>
        <symbol
           overflow="visible"
           id="id-b2c4d04a-4933-4c78-b6bf-d826eb75bb29">
          <path
             style="stroke:none;stroke-width:0"
             d="m 2.46875,-2.515625 c 0.546875,-0.265625 0.890625,-0.59375 0.890625,-1.078125 0,-0.671875 -0.703125,-1.03125 -1.375,-1.03125 -0.765625,0 -1.390625,0.5 -1.390625,1.15625 0,0.328125 0.15625,0.5625 0.28125,0.703125 0.125,0.15625 0.171875,0.1875 0.578125,0.421875 C 1.0625,-2.171875 0.375,-1.796875 0.375,-1.0625 c 0,0.765625 0.796875,1.203125 1.59375,1.203125 0.890625,0 1.609375,-0.5625 1.609375,-1.3125 0,-0.46875 -0.265625,-0.859375 -0.671875,-1.09375 -0.09375,-0.0625 -0.328125,-0.1875 -0.4375,-0.25 z m -1.125,-0.65625 c -0.1875,-0.109375 -0.375,-0.296875 -0.375,-0.5625 0,-0.4375 0.5,-0.6875 1,-0.6875 0.546875,0 1.03125,0.34375 1.03125,0.828125 0,0.625 -0.734375,0.9375 -0.734375,0.9375 -0.015625,0 -0.03125,0 -0.078125,-0.03125 z m 0.328125,0.96875 0.96875,0.546875 c 0.171875,0.109375 0.515625,0.3125 0.515625,0.71875 0,0.53125 -0.578125,0.859375 -1.171875,0.859375 -0.640625,0 -1.1875,-0.421875 -1.1875,-0.984375 0,-0.515625 0.375,-0.921875 0.875,-1.140625 z m 0,0"
             id="id-6481cd41-d152-4aa6-bc32-5cef0bf40e99" />
        </symbol>
      </g>
    </defs>
  </defs>
  <g
     inkscape:label="Layer 1"
     inkscape:groupmode="layer"
     id="layer1"
     transform="translate(30.073109,-213.55533)">
    <text
       xml:space="preserve"
       style="font-size:4.93889px;line-height:1.25;font-family:arial;-inkscape-font-specification:arial;letter-spacing:0px;word-spacing:0px;stroke-width:0.264583;fill:#6486b9;fill-opacity:1"
       x="-30.188864"
       y="239.01787"
       id="text20175"><tspan
         sodipodi:role="line"
         id="tspan20173"
         style="font-size:4.93889px;stroke-width:0.264583;fill:#6486b9;fill-opacity:1"
         x="-30.188864"
         y="239.01787">This morning, I had no coffee.</tspan></text>
    <text
       xml:space="preserve"
       style="font-size:4.93889px;line-height:1.25;font-family:arial;-inkscape-font-specification:arial;letter-spacing:0px;word-spacing:0px;fill:#b96464;fill-opacity:1;stroke-width:0.264583"
       x="36.999374"
       y="239.07814"
       id="text20179"><tspan
         sodipodi:role="line"
         id="tspan20177"
         style="font-size:4.93889px;fill:#b96464;fill-opacity:1;stroke-width:0.264583"
         x="36.999374"
         y="239.07814">The </tspan></text>
    <text
       xml:space="preserve"
       style="font-size:4.93889px;line-height:1.25;font-family:arial;-inkscape-font-specification:arial;letter-spacing:0px;word-spacing:0px;stroke-width:0.264583"
       x="-14.401082"
       y="224.45468"
       id="text20179-3"><tspan
         sodipodi:role="line"
         id="tspan20177-6"
         style="font-size:4.93889px;stroke-width:0.264583"
         x="-14.401082"
         y="224.45468">input sequence</tspan></text>
    <text
       xml:space="preserve"
       style="font-size:4.93889px;line-height:1.25;font-family:arial;-inkscape-font-specification:arial;letter-spacing:0px;word-spacing:0px;stroke-width:0.264583"
       x="35.762905"
       y="224.45468"
       id="text1947"><tspan
         sodipodi:role="line"
         id="tspan1945"
         style="font-size:4.93889px;stroke-width:0.264583"
         x="35.762905"
         y="224.45468">output sequence</tspan></text>
  </g>
</svg>
