<?xml version="1.0" encoding="UTF-8" standalone="no"?>
<!-- Created with Inkscape (http://www.inkscape.org/) -->

<svg
   width="146.56799mm"
   height="98.714081mm"
   viewBox="0 0 146.568 98.714081"
   version="1.1"
   id="svg5"
   sodipodi:docname="indicators_1.svg"
   inkscape:version="1.2.2 (b0a8486541, 2022-12-01)"
   xml:space="preserve"
   xmlns:inkscape="http://www.inkscape.org/namespaces/inkscape"
   xmlns:sodipodi="http://sodipodi.sourceforge.net/DTD/sodipodi-0.dtd"
   xmlns="http://www.w3.org/2000/svg"
   xmlns:svg="http://www.w3.org/2000/svg"><sodipodi:namedview
     id="namedview7"
     pagecolor="#ffffff"
     bordercolor="#000000"
     borderopacity="0.25"
     inkscape:showpageshadow="2"
     inkscape:pageopacity="0.0"
     inkscape:pagecheckerboard="0"
     inkscape:deskcolor="#d1d1d1"
     inkscape:document-units="mm"
     showgrid="false"
     inkscape:zoom="1.829812"
     inkscape:cx="257.40349"
     inkscape:cy="111.21361"
     inkscape:window-width="2560"
     inkscape:window-height="1440"
     inkscape:window-x="0"
     inkscape:window-y="0"
     inkscape:window-maximized="1"
     inkscape:current-layer="layer1" /><defs
     id="defs2"><defs
       id="id-05eb1547-26fc-46be-8ef7-248f38a1e20e"><g
         id="id-c98b92a1-93c6-4ee9-ac6c-d3dca013fbf3"><g
           id="id-23f855bd-d6de-4220-8067-6e6f949989b4"><path
             d="m 6.84375,-3.265625 c 0.15625,0 0.34375,0 0.34375,-0.1875 C 7.1875,-3.65625 7,-3.65625 6.859375,-3.65625 h -5.96875 c -0.140625,0 -0.328125,0 -0.328125,0.203125 0,0.1875 0.1875,0.1875 0.328125,0.1875 z m 0.015625,1.9375 c 0.140625,0 0.328125,0 0.328125,-0.203125 0,-0.1875 -0.1875,-0.1875 -0.34375,-0.1875 H 0.890625 c -0.140625,0 -0.328125,0 -0.328125,0.1875 0,0.203125 0.1875,0.203125 0.328125,0.203125 z m 0,0"
             id="id-aa33f8a9-f17d-4555-855c-31f5d14b82dd" /></g><g
           id="id-7a271ad2-2ba4-4a10-95f5-78f69c724994"><path
             d="m 1.640625,-1.40625 c 0,-0.046875 0.171875,-0.671875 0.171875,-0.703125 0.015625,-0.0625 0.21875,-0.40625 0.453125,-0.578125 0.0625,-0.046875 0.25,-0.1875 0.5625,-0.1875 0.0625,0 0.234375,0 0.375,0.09375 -0.21875,0.0625 -0.296875,0.265625 -0.296875,0.390625 0,0.140625 0.109375,0.25 0.265625,0.25 0.171875,0 0.390625,-0.125 0.390625,-0.421875 0,-0.359375 -0.375,-0.515625 -0.734375,-0.515625 -0.359375,0 -0.671875,0.15625 -0.984375,0.5 -0.125,-0.421875 -0.546875,-0.5 -0.71875,-0.5 -0.25,0 -0.421875,0.171875 -0.546875,0.359375 -0.15625,0.265625 -0.25,0.671875 -0.25,0.71875 0,0.078125 0.09375,0.078125 0.125,0.078125 0.09375,0 0.09375,-0.015625 0.140625,-0.203125 0.109375,-0.421875 0.25,-0.75 0.515625,-0.75 0.1875,0 0.234375,0.15625 0.234375,0.34375 0,0.125 -0.0625,0.390625 -0.125,0.578125 -0.046875,0.1875 -0.109375,0.46875 -0.140625,0.625 L 0.84375,-0.4375 C 0.828125,-0.34375 0.78125,-0.171875 0.78125,-0.15625 0.78125,0 0.90625,0.0625 1.015625,0.0625 1.125,0.0625 1.265625,0 1.3125,-0.125 1.328125,-0.171875 1.40625,-0.484375 1.453125,-0.65625 Z m 0,0"
             id="id-acb2da02-fe11-4755-8797-92da33777e7c" /></g><g
           id="id-aa581c26-6347-46e2-af17-f5aee26490fc"><path
             d="M 2.84375,-2.75 H 3.515625 C 3.65625,-2.75 3.75,-2.75 3.75,-2.90625 3.75,-3 3.65625,-3 3.53125,-3 H 2.890625 c 0.15625,-0.890625 0.203125,-1.203125 0.265625,-1.40625 0.03125,-0.15625 0.1875,-0.296875 0.359375,-0.296875 0,0 0.1875,0 0.328125,0.078125 -0.296875,0.09375 -0.3125,0.34375 -0.3125,0.375 0,0.15625 0.125,0.265625 0.28125,0.265625 0.1875,0 0.390625,-0.15625 0.390625,-0.421875 0,-0.328125 -0.328125,-0.5 -0.6875,-0.5 -0.3125,0 -0.65625,0.171875 -0.84375,0.515625 C 2.53125,-4.125 2.484375,-3.8125 2.328125,-3 H 1.78125 c -0.140625,0 -0.234375,0 -0.234375,0.15625 0,0.09375 0.09375,0.09375 0.21875,0.09375 H 2.28125 c 0,0.046875 -0.4375,2.546875 -0.609375,3.296875 -0.03125,0.15625 -0.15625,0.671875 -0.484375,0.671875 -0.015625,0 -0.171875,0 -0.3125,-0.078125 0.28125,-0.09375 0.3125,-0.34375 0.3125,-0.375 C 1.1875,0.609375 1.0625,0.5 0.90625,0.5 c -0.1875,0 -0.390625,0.15625 -0.390625,0.421875 0,0.3125 0.328125,0.5 0.671875,0.5 0.4375,0 0.75,-0.453125 0.828125,-0.609375 0.25,-0.46875 0.421875,-1.328125 0.4375,-1.40625 z m 0,0"
             id="id-a250f7cc-de6d-42c8-ad41-b16dedd8a527" /></g><g
           id="id-705de301-2f29-401f-9c92-fcc09ea52734"><path
             d="M 0.703125,0.578125 C 0.65625,0.71875 0.65625,0.75 0.4375,0.75 c -0.078125,0 -0.15625,0 -0.15625,0.125 0,0.0625 0.03125,0.09375 0.078125,0.09375 0.0625,0 0.15625,-0.015625 0.234375,-0.015625 0.078125,0 0.171875,0 0.25,0 0.109375,0 0.203125,0 0.296875,0 0.078125,0 0.1875,0.015625 0.28125,0.015625 0.0625,0 0.125,-0.03125 0.125,-0.140625 C 1.546875,0.75 1.453125,0.75 1.390625,0.75 c -0.171875,0 -0.28125,0 -0.28125,-0.0625 0,-0.03125 0.078125,-0.34375 0.234375,-0.9375 0.125,0.171875 0.328125,0.3125 0.59375,0.3125 0.703125,0 1.40625,-0.703125 1.40625,-1.390625 0,-0.5 -0.375,-0.875 -0.875,-0.875 -0.390625,0 -0.6875,0.25 -0.796875,0.34375 C 1.578125,-2.125 1.28125,-2.203125 1.09375,-2.203125 c -0.171875,0 -0.328125,0.078125 -0.453125,0.28125 -0.125,0.203125 -0.1875,0.46875 -0.1875,0.484375 0,0.078125 0.078125,0.078125 0.109375,0.078125 0.078125,0 0.09375,-0.03125 0.109375,-0.109375 0.0625,-0.203125 0.15625,-0.5625 0.390625,-0.5625 0.171875,0 0.203125,0.15625 0.203125,0.265625 0,0.0625 0,0.078125 -0.015625,0.125 z m 0.953125,-2.0625 c 0.015625,-0.078125 0.015625,-0.09375 0.109375,-0.1875 0.1875,-0.21875 0.453125,-0.359375 0.6875,-0.359375 0.203125,0 0.4375,0.125 0.4375,0.5 0,0.21875 -0.109375,0.703125 -0.25,0.9375 -0.21875,0.375 -0.515625,0.484375 -0.703125,0.484375 -0.40625,0 -0.515625,-0.40625 -0.515625,-0.453125 0,-0.015625 0.015625,-0.046875 0.015625,-0.078125 z m 0,0"
             id="id-d033462e-1e70-413f-8719-51677e65481a" /></g><g
           id="id-ee90f54f-0956-41e4-bfa8-d49e4e853b56"><path
             d="m 0.96875,-0.484375 c -0.03125,0.125 -0.078125,0.34375 -0.078125,0.359375 0,0.109375 0.09375,0.1875 0.1875,0.1875 0.0625,0 0.171875,-0.046875 0.234375,-0.171875 0,-0.03125 0.0625,-0.265625 0.09375,-0.390625 0.171875,-0.671875 0.171875,-0.6875 0.171875,-0.703125 0.078125,-0.125 0.4375,-0.828125 1.03125,-0.828125 0.25,0 0.359375,0.125 0.359375,0.359375 0,0.28125 -0.21875,0.796875 -0.328125,1.078125 -0.03125,0.0625 -0.046875,0.125 -0.046875,0.203125 0,0.265625 0.25,0.453125 0.546875,0.453125 0.53125,0 0.796875,-0.65625 0.796875,-0.78125 0,-0.0625 -0.078125,-0.0625 -0.09375,-0.0625 -0.09375,0 -0.09375,0.015625 -0.125,0.109375 C 3.625,-0.375 3.390625,-0.109375 3.15625,-0.109375 3.046875,-0.109375 3,-0.1875 3,-0.296875 3,-0.40625 3.03125,-0.453125 3.078125,-0.5625 c 0.078125,-0.203125 0.3125,-0.765625 0.3125,-1.046875 0,-0.375 -0.265625,-0.59375 -0.75,-0.59375 -0.453125,0 -0.765625,0.28125 -0.9375,0.5 -0.015625,-0.421875 -0.421875,-0.5 -0.609375,-0.5 -0.5,0 -0.640625,0.765625 -0.640625,0.765625 0,0.078125 0.078125,0.078125 0.109375,0.078125 0.078125,0 0.09375,-0.03125 0.109375,-0.09375 C 0.75,-1.75 0.859375,-2.03125 1.078125,-2.03125 c 0.15625,0 0.203125,0.15625 0.203125,0.265625 0,0.0625 -0.0625,0.25 -0.078125,0.390625 -0.046875,0.125 -0.09375,0.328125 -0.109375,0.4375 z m 0,0"
             id="id-8068ce7d-2f84-4a5c-94bc-e83cf8faa04e" /></g><g
           id="id-76ddbf48-6601-45c7-8161-54486aecb405"><path
             d="m 3.21875,-1.578125 h 2.140625 c 0.09375,0 0.25,0 0.25,-0.15625 0,-0.1875 -0.15625,-0.1875 -0.25,-0.1875 H 3.21875 V -4.0625 c 0,-0.078125 0,-0.25 -0.15625,-0.25 -0.171875,0 -0.171875,0.15625 -0.171875,0.25 v 2.140625 H 0.75 c -0.09375,0 -0.265625,0 -0.265625,0.171875 0,0.171875 0.15625,0.171875 0.265625,0.171875 H 2.890625 V 0.5625 c 0,0.09375 0,0.265625 0.15625,0.265625 0.171875,0 0.171875,-0.171875 0.171875,-0.265625 z m 0,0"
             id="id-5a755ca1-b2f1-4a25-b323-bf15c1ec442f" /></g></g></defs><inkscape:perspective
       sodipodi:type="inkscape:persp3d"
       inkscape:vp_x="0 : -108.28592 : 1"
       inkscape:vp_y="0 : 999.99996 : 0"
       inkscape:vp_z="180 : -108.28592 : 1"
       inkscape:persp3d-origin="89.999997 : -138.28592 : 1"
       id="perspective69" /><marker
       inkscape:stockid="TriangleInL"
       orient="auto"
       refY="0"
       refX="0"
       id="TriangleInL"
       style="overflow:visible"><path
         id="path8389"
         d="M 5.77,0 -2.88,5 V -5 Z"
         style="fill-rule:evenodd;stroke:#000000;stroke-width:1pt;marker-start:none"
         transform="scale(-0.8)" /></marker><marker
       inkscape:stockid="TriangleOutM"
       orient="auto"
       refY="0"
       refX="0"
       id="TriangleOutM"
       style="overflow:visible"><path
         id="path8377"
         d="M 5.77,0 -2.88,5 V -5 Z"
         style="fill-rule:evenodd;stroke:#000000;stroke-width:1pt;marker-start:none"
         transform="scale(0.4)" /></marker><marker
       inkscape:stockid="TriangleOutS"
       orient="auto"
       refY="0"
       refX="0"
       id="TriangleOutS"
       style="overflow:visible"><path
         id="path8374"
         d="M 5.77,0 -2.88,5 V -5 Z"
         style="fill-rule:evenodd;stroke:#000000;stroke-width:1pt;marker-start:none"
         transform="scale(0.2)" /></marker><marker
       inkscape:stockid="TriangleOutL"
       orient="auto"
       refY="0"
       refX="0"
       id="TriangleOutL"
       style="overflow:visible"><path
         id="path8380"
         d="M 5.77,0 -2.88,5 V -5 Z"
         style="fill-rule:evenodd;stroke:#000000;stroke-width:1pt;marker-start:none"
         transform="scale(0.8)" /></marker><marker
       inkscape:stockid="TriangleInM"
       orient="auto"
       refY="0"
       refX="0"
       id="TriangleInM"
       style="overflow:visible"><path
         id="path8386"
         d="M 5.77,0 -2.88,5 V -5 Z"
         style="fill-rule:evenodd;stroke:#000000;stroke-width:1pt;marker-start:none"
         transform="scale(-0.4)" /></marker><clipPath
       clipPathUnits="userSpaceOnUse"
       id="clipPath5257"><path
         sodipodi:nodetypes="ccccc"
         id="path5259"
         d="m 189.63755,30.105121 -58.00662,-0.01163 -38.956584,130.533889 96.963204,0.004 z"
         style="fill:#ff0000;fill-opacity:1;fill-rule:evenodd;stroke:#000000;stroke-width:0.789547px;stroke-linecap:butt;stroke-linejoin:miter;stroke-opacity:1" /></clipPath><inkscape:perspective
       sodipodi:type="inkscape:persp3d"
       inkscape:vp_x="0 : -108.28592 : 1"
       inkscape:vp_y="0 : 999.99996 : 0"
       inkscape:vp_z="180 : -108.28592 : 1"
       inkscape:persp3d-origin="89.999997 : -138.28592 : 1"
       id="perspective69-7" /><marker
       inkscape:stockid="TriangleInL"
       orient="auto"
       refY="0"
       refX="0"
       id="TriangleInL-5"
       style="overflow:visible"><path
         id="path8389-3"
         d="M 5.77,0 -2.88,5 V -5 Z"
         style="fill-rule:evenodd;stroke:#000000;stroke-width:1pt;marker-start:none"
         transform="scale(-0.8)" /></marker><marker
       inkscape:stockid="TriangleOutM"
       orient="auto"
       refY="0"
       refX="0"
       id="TriangleOutM-5"
       style="overflow:visible"><path
         id="path8377-6"
         d="M 5.77,0 -2.88,5 V -5 Z"
         style="fill-rule:evenodd;stroke:#000000;stroke-width:1pt;marker-start:none"
         transform="scale(0.4)" /></marker><marker
       inkscape:stockid="TriangleOutS"
       orient="auto"
       refY="0"
       refX="0"
       id="TriangleOutS-2"
       style="overflow:visible"><path
         id="path8374-9"
         d="M 5.77,0 -2.88,5 V -5 Z"
         style="fill-rule:evenodd;stroke:#000000;stroke-width:1pt;marker-start:none"
         transform="scale(0.2)" /></marker><marker
       inkscape:stockid="TriangleOutL"
       orient="auto"
       refY="0"
       refX="0"
       id="TriangleOutL-1"
       style="overflow:visible"><path
         id="path8380-2"
         d="M 5.77,0 -2.88,5 V -5 Z"
         style="fill-rule:evenodd;stroke:#000000;stroke-width:1pt;marker-start:none"
         transform="scale(0.8)" /></marker><marker
       inkscape:stockid="TriangleInM"
       orient="auto"
       refY="0"
       refX="0"
       id="TriangleInM-7"
       style="overflow:visible"><path
         id="path8386-0"
         d="M 5.77,0 -2.88,5 V -5 Z"
         style="fill-rule:evenodd;stroke:#000000;stroke-width:1pt;marker-start:none"
         transform="scale(-0.4)" /></marker><clipPath
       clipPathUnits="userSpaceOnUse"
       id="clipPath5257-9"><path
         sodipodi:nodetypes="ccccc"
         id="path5259-3"
         d="m 189.63755,30.105121 -58.00662,-0.01163 -38.956584,130.533889 96.963204,0.004 z"
         style="fill:#ff0000;fill-opacity:1;fill-rule:evenodd;stroke:#000000;stroke-width:0.789547px;stroke-linecap:butt;stroke-linejoin:miter;stroke-opacity:1" /></clipPath><inkscape:perspective
       sodipodi:type="inkscape:persp3d"
       inkscape:vp_x="0 : -108.28592 : 1"
       inkscape:vp_y="0 : 999.99996 : 0"
       inkscape:vp_z="180 : -108.28592 : 1"
       inkscape:persp3d-origin="89.999997 : -138.28592 : 1"
       id="perspective69-0" /><marker
       inkscape:stockid="TriangleInL"
       orient="auto"
       refY="0"
       refX="0"
       id="TriangleInL-6"
       style="overflow:visible"><path
         id="path8389-1"
         d="M 5.77,0 -2.88,5 V -5 Z"
         style="fill-rule:evenodd;stroke:#000000;stroke-width:1pt;marker-start:none"
         transform="scale(-0.8)" /></marker><marker
       inkscape:stockid="TriangleOutM"
       orient="auto"
       refY="0"
       refX="0"
       id="TriangleOutM-55"
       style="overflow:visible"><path
         id="path8377-4"
         d="M 5.77,0 -2.88,5 V -5 Z"
         style="fill-rule:evenodd;stroke:#000000;stroke-width:1pt;marker-start:none"
         transform="scale(0.4)" /></marker><marker
       inkscape:stockid="TriangleOutS"
       orient="auto"
       refY="0"
       refX="0"
       id="TriangleOutS-7"
       style="overflow:visible"><path
         id="path8374-6"
         d="M 5.77,0 -2.88,5 V -5 Z"
         style="fill-rule:evenodd;stroke:#000000;stroke-width:1pt;marker-start:none"
         transform="scale(0.2)" /></marker><marker
       inkscape:stockid="TriangleOutL"
       orient="auto"
       refY="0"
       refX="0"
       id="TriangleOutL-5"
       style="overflow:visible"><path
         id="path8380-6"
         d="M 5.77,0 -2.88,5 V -5 Z"
         style="fill-rule:evenodd;stroke:#000000;stroke-width:1pt;marker-start:none"
         transform="scale(0.8)" /></marker><marker
       inkscape:stockid="TriangleInM"
       orient="auto"
       refY="0"
       refX="0"
       id="TriangleInM-9"
       style="overflow:visible"><path
         id="path8386-3"
         d="M 5.77,0 -2.88,5 V -5 Z"
         style="fill-rule:evenodd;stroke:#000000;stroke-width:1pt;marker-start:none"
         transform="scale(-0.4)" /></marker><clipPath
       clipPathUnits="userSpaceOnUse"
       id="clipPath5257-7"><path
         sodipodi:nodetypes="ccccc"
         id="path5259-4"
         d="m 189.63755,30.105121 -58.00662,-0.01163 -38.956584,130.533889 96.963204,0.004 z"
         style="fill:#ff0000;fill-opacity:1;fill-rule:evenodd;stroke:#000000;stroke-width:0.789547px;stroke-linecap:butt;stroke-linejoin:miter;stroke-opacity:1" /></clipPath></defs><g
     inkscape:label="Layer 1"
     inkscape:groupmode="layer"
     id="layer1"
     transform="translate(-27.836648,-115.23449)"><g
       id="g6386"
       transform="matrix(1.3621291,0,0,1.3621291,-96.598476,-53.102681)"><g
         fill="#000000"
         fill-opacity="1"
         id="id-43376369-e6a1-490c-bbc9-bdfc3a92fbea"
         transform="matrix(0.54253,0,0,0.54253,31.257937,63.325405)"><g
           transform="translate(167.867,129.711)"
           id="g157"><path
             d="m 1.640625,-1.40625 c 0,-0.046875 0.171875,-0.671875 0.171875,-0.703125 0.015625,-0.0625 0.21875,-0.40625 0.453125,-0.578125 0.0625,-0.046875 0.25,-0.1875 0.5625,-0.1875 0.0625,0 0.234375,0 0.375,0.09375 -0.21875,0.0625 -0.296875,0.265625 -0.296875,0.390625 0,0.140625 0.109375,0.25 0.265625,0.25 0.171875,0 0.390625,-0.125 0.390625,-0.421875 0,-0.359375 -0.375,-0.515625 -0.734375,-0.515625 -0.359375,0 -0.671875,0.15625 -0.984375,0.5 -0.125,-0.421875 -0.546875,-0.5 -0.71875,-0.5 -0.25,0 -0.421875,0.171875 -0.546875,0.359375 -0.15625,0.265625 -0.25,0.671875 -0.25,0.71875 0,0.078125 0.09375,0.078125 0.125,0.078125 0.09375,0 0.09375,-0.015625 0.140625,-0.203125 0.109375,-0.421875 0.25,-0.75 0.515625,-0.75 0.1875,0 0.234375,0.15625 0.234375,0.34375 0,0.125 -0.0625,0.390625 -0.125,0.578125 -0.046875,0.1875 -0.109375,0.46875 -0.140625,0.625 L 0.84375,-0.4375 C 0.828125,-0.34375 0.78125,-0.171875 0.78125,-0.15625 0.78125,0 0.90625,0.0625 1.015625,0.0625 1.125,0.0625 1.265625,0 1.3125,-0.125 1.328125,-0.171875 1.40625,-0.484375 1.453125,-0.65625 Z m 0,0"
             id="id-2848630a-32ad-470c-b269-39d5c69b0177" /></g></g><g
         fill="#000000"
         fill-opacity="1"
         id="id-b7fbae4c-73ab-485a-8788-b096fef5e999"
         transform="matrix(0.54253,0,0,0.54253,31.257937,63.325405)"><g
           transform="translate(171.566,130.708)"
           id="g161"><path
             d="M 0.703125,0.578125 C 0.65625,0.71875 0.65625,0.75 0.4375,0.75 c -0.078125,0 -0.15625,0 -0.15625,0.125 0,0.0625 0.03125,0.09375 0.078125,0.09375 0.0625,0 0.15625,-0.015625 0.234375,-0.015625 0.078125,0 0.171875,0 0.25,0 0.109375,0 0.203125,0 0.296875,0 0.078125,0 0.1875,0.015625 0.28125,0.015625 0.0625,0 0.125,-0.03125 0.125,-0.140625 C 1.546875,0.75 1.453125,0.75 1.390625,0.75 c -0.171875,0 -0.28125,0 -0.28125,-0.0625 0,-0.03125 0.078125,-0.34375 0.234375,-0.9375 0.125,0.171875 0.328125,0.3125 0.59375,0.3125 0.703125,0 1.40625,-0.703125 1.40625,-1.390625 0,-0.5 -0.375,-0.875 -0.875,-0.875 -0.390625,0 -0.6875,0.25 -0.796875,0.34375 C 1.578125,-2.125 1.28125,-2.203125 1.09375,-2.203125 c -0.171875,0 -0.328125,0.078125 -0.453125,0.28125 -0.125,0.203125 -0.1875,0.46875 -0.1875,0.484375 0,0.078125 0.078125,0.078125 0.109375,0.078125 0.078125,0 0.09375,-0.03125 0.109375,-0.109375 0.0625,-0.203125 0.15625,-0.5625 0.390625,-0.5625 0.171875,0 0.203125,0.15625 0.203125,0.265625 0,0.0625 0,0.078125 -0.015625,0.125 z m 0.953125,-2.0625 c 0.015625,-0.078125 0.015625,-0.09375 0.109375,-0.1875 0.1875,-0.21875 0.453125,-0.359375 0.6875,-0.359375 0.203125,0 0.4375,0.125 0.4375,0.5 0,0.21875 -0.109375,0.703125 -0.25,0.9375 -0.21875,0.375 -0.515625,0.484375 -0.703125,0.484375 -0.40625,0 -0.515625,-0.40625 -0.515625,-0.453125 0,-0.015625 0.015625,-0.046875 0.015625,-0.078125 z m 0,0"
             id="id-bee12683-cca2-4786-9a83-e17b9666a25a" /></g></g><path
         fill="none"
         stroke-width="0.215927"
         stroke-linecap="butt"
         stroke-linejoin="miter"
         stroke="#000000"
         stroke-opacity="1"
         stroke-miterlimit="10"
         d="m 118.29401,135.08779 h 12.35103"
         id="id-d438d5f1-5463-4a44-ab57-aff3bb67a2d8" /><g
         fill="#000000"
         fill-opacity="1"
         id="id-b65e69f6-aada-4eb6-bf2a-9786d74aba50"
         transform="matrix(0.54253,0,0,0.54253,31.257937,63.325405)"><g
           transform="translate(160.424,138.2)"
           id="g166"><path
             d="m 1.640625,-1.40625 c 0,-0.046875 0.171875,-0.671875 0.171875,-0.703125 0.015625,-0.0625 0.21875,-0.40625 0.453125,-0.578125 0.0625,-0.046875 0.25,-0.1875 0.5625,-0.1875 0.0625,0 0.234375,0 0.375,0.09375 -0.21875,0.0625 -0.296875,0.265625 -0.296875,0.390625 0,0.140625 0.109375,0.25 0.265625,0.25 0.171875,0 0.390625,-0.125 0.390625,-0.421875 0,-0.359375 -0.375,-0.515625 -0.734375,-0.515625 -0.359375,0 -0.671875,0.15625 -0.984375,0.5 -0.125,-0.421875 -0.546875,-0.5 -0.71875,-0.5 -0.25,0 -0.421875,0.171875 -0.546875,0.359375 -0.15625,0.265625 -0.25,0.671875 -0.25,0.71875 0,0.078125 0.09375,0.078125 0.125,0.078125 0.09375,0 0.09375,-0.015625 0.140625,-0.203125 0.109375,-0.421875 0.25,-0.75 0.515625,-0.75 0.1875,0 0.234375,0.15625 0.234375,0.34375 0,0.125 -0.0625,0.390625 -0.125,0.578125 -0.046875,0.1875 -0.109375,0.46875 -0.140625,0.625 L 0.84375,-0.4375 C 0.828125,-0.34375 0.78125,-0.171875 0.78125,-0.15625 0.78125,0 0.90625,0.0625 1.015625,0.0625 1.125,0.0625 1.265625,0 1.3125,-0.125 1.328125,-0.171875 1.40625,-0.484375 1.453125,-0.65625 Z m 0,0"
             id="id-c90592c4-3b69-4999-b127-ba9b8388f093" /></g></g><g
         fill="#000000"
         fill-opacity="1"
         id="id-fb973b1c-a65e-410a-8e96-e9da2d65a018"
         transform="matrix(0.54253,0,0,0.54253,31.257937,63.325405)"><g
           transform="translate(164.123,139.196)"
           id="g170"><path
             d="M 0.703125,0.578125 C 0.65625,0.71875 0.65625,0.75 0.4375,0.75 c -0.078125,0 -0.15625,0 -0.15625,0.125 0,0.0625 0.03125,0.09375 0.078125,0.09375 0.0625,0 0.15625,-0.015625 0.234375,-0.015625 0.078125,0 0.171875,0 0.25,0 0.109375,0 0.203125,0 0.296875,0 0.078125,0 0.1875,0.015625 0.28125,0.015625 0.0625,0 0.125,-0.03125 0.125,-0.140625 C 1.546875,0.75 1.453125,0.75 1.390625,0.75 c -0.171875,0 -0.28125,0 -0.28125,-0.0625 0,-0.03125 0.078125,-0.34375 0.234375,-0.9375 0.125,0.171875 0.328125,0.3125 0.59375,0.3125 0.703125,0 1.40625,-0.703125 1.40625,-1.390625 0,-0.5 -0.375,-0.875 -0.875,-0.875 -0.390625,0 -0.6875,0.25 -0.796875,0.34375 C 1.578125,-2.125 1.28125,-2.203125 1.09375,-2.203125 c -0.171875,0 -0.328125,0.078125 -0.453125,0.28125 -0.125,0.203125 -0.1875,0.46875 -0.1875,0.484375 0,0.078125 0.078125,0.078125 0.109375,0.078125 0.078125,0 0.09375,-0.03125 0.109375,-0.109375 0.0625,-0.203125 0.15625,-0.5625 0.390625,-0.5625 0.171875,0 0.203125,0.15625 0.203125,0.265625 0,0.0625 0,0.078125 -0.015625,0.125 z m 0.953125,-2.0625 c 0.015625,-0.078125 0.015625,-0.09375 0.109375,-0.1875 0.1875,-0.21875 0.453125,-0.359375 0.6875,-0.359375 0.203125,0 0.4375,0.125 0.4375,0.5 0,0.21875 -0.109375,0.703125 -0.25,0.9375 -0.21875,0.375 -0.515625,0.484375 -0.703125,0.484375 -0.40625,0 -0.515625,-0.40625 -0.515625,-0.453125 0,-0.015625 0.015625,-0.046875 0.015625,-0.078125 z m 0,0"
             id="id-a0578581-7859-4c0d-932d-5ec575512839" /></g></g><g
         fill="#000000"
         fill-opacity="1"
         id="id-18a8be17-888f-4eb1-b070-98fdc7290cb5"
         transform="matrix(0.54253,0,0,0.54253,31.257937,63.325405)"><g
           transform="translate(168.306,138.2)"
           id="g174"><path
             d="m 3.21875,-1.578125 h 2.140625 c 0.09375,0 0.25,0 0.25,-0.15625 0,-0.1875 -0.15625,-0.1875 -0.25,-0.1875 H 3.21875 V -4.0625 c 0,-0.078125 0,-0.25 -0.15625,-0.25 -0.171875,0 -0.171875,0.15625 -0.171875,0.25 v 2.140625 H 0.75 c -0.09375,0 -0.265625,0 -0.265625,0.171875 0,0.171875 0.15625,0.171875 0.265625,0.171875 H 2.890625 V 0.5625 c 0,0.09375 0,0.265625 0.15625,0.265625 0.171875,0 0.171875,-0.171875 0.171875,-0.265625 z m 0,0"
             id="id-69b2bdd6-4952-46f3-80a6-7ec05458ef4f" /></g></g><g
         fill="#000000"
         fill-opacity="1"
         id="id-bef29d5b-b90d-4ecf-9404-da1b1b8762ea"
         transform="matrix(0.54253,0,0,0.54253,31.257937,63.325405)"><g
           transform="translate(174.422,138.2)"
           id="g178"><path
             d="M 2.84375,-2.75 H 3.515625 C 3.65625,-2.75 3.75,-2.75 3.75,-2.90625 3.75,-3 3.65625,-3 3.53125,-3 H 2.890625 c 0.15625,-0.890625 0.203125,-1.203125 0.265625,-1.40625 0.03125,-0.15625 0.1875,-0.296875 0.359375,-0.296875 0,0 0.1875,0 0.328125,0.078125 -0.296875,0.09375 -0.3125,0.34375 -0.3125,0.375 0,0.15625 0.125,0.265625 0.28125,0.265625 0.1875,0 0.390625,-0.15625 0.390625,-0.421875 0,-0.328125 -0.328125,-0.5 -0.6875,-0.5 -0.3125,0 -0.65625,0.171875 -0.84375,0.515625 C 2.53125,-4.125 2.484375,-3.8125 2.328125,-3 H 1.78125 c -0.140625,0 -0.234375,0 -0.234375,0.15625 0,0.09375 0.09375,0.09375 0.21875,0.09375 H 2.28125 c 0,0.046875 -0.4375,2.546875 -0.609375,3.296875 -0.03125,0.15625 -0.15625,0.671875 -0.484375,0.671875 -0.015625,0 -0.171875,0 -0.3125,-0.078125 0.28125,-0.09375 0.3125,-0.34375 0.3125,-0.375 C 1.1875,0.609375 1.0625,0.5 0.90625,0.5 c -0.1875,0 -0.390625,0.15625 -0.390625,0.421875 0,0.3125 0.328125,0.5 0.671875,0.5 0.4375,0 0.75,-0.453125 0.828125,-0.609375 0.25,-0.46875 0.421875,-1.328125 0.4375,-1.40625 z m 0,0"
             id="id-57853cb1-72a0-4bd7-ab38-f3a2aeaa4520" /></g></g><g
         fill="#000000"
         fill-opacity="1"
         id="id-796accfc-18d0-4a4c-9527-5cd7990ebfc8"
         transform="matrix(0.54253,0,0,0.54253,31.257937,63.325405)"><g
           transform="translate(178.307,139.196)"
           id="g182"><path
             d="m 0.96875,-0.484375 c -0.03125,0.125 -0.078125,0.34375 -0.078125,0.359375 0,0.109375 0.09375,0.1875 0.1875,0.1875 0.0625,0 0.171875,-0.046875 0.234375,-0.171875 0,-0.03125 0.0625,-0.265625 0.09375,-0.390625 0.171875,-0.671875 0.171875,-0.6875 0.171875,-0.703125 0.078125,-0.125 0.4375,-0.828125 1.03125,-0.828125 0.25,0 0.359375,0.125 0.359375,0.359375 0,0.28125 -0.21875,0.796875 -0.328125,1.078125 -0.03125,0.0625 -0.046875,0.125 -0.046875,0.203125 0,0.265625 0.25,0.453125 0.546875,0.453125 0.53125,0 0.796875,-0.65625 0.796875,-0.78125 0,-0.0625 -0.078125,-0.0625 -0.09375,-0.0625 -0.09375,0 -0.09375,0.015625 -0.125,0.109375 C 3.625,-0.375 3.390625,-0.109375 3.15625,-0.109375 3.046875,-0.109375 3,-0.1875 3,-0.296875 3,-0.40625 3.03125,-0.453125 3.078125,-0.5625 c 0.078125,-0.203125 0.3125,-0.765625 0.3125,-1.046875 0,-0.375 -0.265625,-0.59375 -0.75,-0.59375 -0.453125,0 -0.765625,0.28125 -0.9375,0.5 -0.015625,-0.421875 -0.421875,-0.5 -0.609375,-0.5 -0.5,0 -0.640625,0.765625 -0.640625,0.765625 0,0.078125 0.078125,0.078125 0.109375,0.078125 0.078125,0 0.09375,-0.03125 0.109375,-0.09375 C 0.75,-1.75 0.859375,-2.03125 1.078125,-2.03125 c 0.15625,0 0.203125,0.15625 0.203125,0.265625 0,0.0625 -0.0625,0.25 -0.078125,0.390625 -0.046875,0.125 -0.09375,0.328125 -0.109375,0.4375 z m 0,0"
             id="id-33ebbe77-d44d-48b6-9a59-b19f7917ad31" /></g></g></g><text
       xml:space="preserve"
       style="font-size:4.23333px;line-height:1.3;font-family:Arial;-inkscape-font-specification:Arial;text-align:end;text-anchor:end;fill:#000002;fill-opacity:1;stroke-width:0.15875;stroke-linejoin:round"
       x="60.903336"
       y="130.14874"
       id="text673"><tspan
         sodipodi:role="line"
         style="font-style:normal;font-weight:normal;font-size:4.23333px;text-align:end;text-anchor:end;fill:#000002;fill-opacity:1;stroke-width:0.15875"
         x="60.903336"
         y="130.14874"
         id="tspan10178"><tspan
           id="tspan10180"
           style="font-style:normal;font-weight:bold;font-size:4.23333px;text-align:end;text-anchor:end;fill:#000002;fill-opacity:1;stroke-width:0.15875">Sensitivität</tspan></tspan><tspan
         sodipodi:role="line"
         style="font-style:normal;font-weight:normal;font-size:4.23333px;text-align:end;text-anchor:end;fill:#000002;fill-opacity:1;stroke-width:0.15875"
         x="60.903336"
         y="135.65207"
         id="tspan10182">(sensitivity, recall)</tspan></text><text
       xml:space="preserve"
       style="font-size:4.23333px;line-height:1.3;font-family:Arial;-inkscape-font-specification:Arial;text-align:start;text-anchor:start;fill:#000002;fill-opacity:1;stroke-width:0.15875;stroke-linejoin:round"
       x="85.635765"
       y="123.75749"
       id="text6390"><tspan
         sodipodi:role="line"
         style="font-style:italic;font-size:4.23333px;text-align:start;text-anchor:start;fill:#000002;fill-opacity:1;stroke-width:0.15875"
         x="85.635765"
         y="123.75749"
         id="tspan7118">Die Wahrscheinlichkeit, </tspan><tspan
         sodipodi:role="line"
         style="font-style:italic;font-size:4.23333px;text-align:start;text-anchor:start;fill:#000002;fill-opacity:1;stroke-width:0.15875"
         x="85.635765"
         y="129.2711"
         id="tspan7122">mit der eine positive </tspan><tspan
         sodipodi:role="line"
         style="font-style:italic;font-size:4.23333px;text-align:start;text-anchor:start;fill:#000002;fill-opacity:1;stroke-width:0.15875"
         x="85.635765"
         y="134.78471"
         id="tspan16254">Beobachtung korrekt als </tspan><tspan
         sodipodi:role="line"
         style="font-style:italic;font-size:4.23333px;text-align:start;text-anchor:start;fill:#000002;fill-opacity:1;stroke-width:0.15875"
         x="85.635765"
         y="140.29832"
         id="tspan856">positiv klassifiziert wird.</tspan></text><g
       id="layer1-60"
       inkscape:label="Layer 1"
       transform="matrix(0.16574586,0,0,0.16574586,144.48752,115.32004)"><path
         style="fill:#e0e0e0;fill-opacity:1;fill-rule:evenodd;stroke:#000000;stroke-width:1px;stroke-linecap:butt;stroke-linejoin:miter;stroke-opacity:1"
         d="M 0,0.00908416 112.54159,-0.00759207 67.206307,180.00123 0,179.9956 Z"
         id="path4277-6"
         sodipodi:nodetypes="ccccc" /><ellipse
         style="fill:#b9ffc5;fill-opacity:1;fill-rule:evenodd;stroke:#000000;stroke-width:1px;stroke-linecap:butt;stroke-linejoin:miter;stroke-opacity:1"
         id="path2237-2"
         transform="matrix(1.1632374,0,0,1.3790354,-40.593496,-41.516027)"
         cx="103.10494"
         cy="95.24205"
         rx="51.423267"
         ry="31.009005" /><path
         style="fill:#ffffff;fill-opacity:1;fill-rule:evenodd;stroke:#000000;stroke-width:1px;stroke-linecap:butt;stroke-linejoin:miter;stroke-opacity:1"
         d="M 180,0 112.52452,-0.01603464 67.208769,179.99482 180,180 Z"
         id="path4273-6"
         sodipodi:nodetypes="ccccc" /><ellipse
         transform="matrix(1.1632374,0,0,1.3790354,-40.593496,-41.516027)"
         id="path5248-1"
         style="fill:#ffffff;fill-opacity:1;fill-rule:evenodd;stroke:#000000;stroke-width:1.00036;stroke-linecap:butt;stroke-linejoin:miter;stroke-miterlimit:4;stroke-dasharray:none;stroke-opacity:1"
         clip-path="url(#clipPath5257-9)"
         cx="103.10494"
         cy="95.24205"
         rx="51.423267"
         ry="31.009005" /><ellipse
         transform="matrix(0.343245,0,0,0.373883,-28.561712,76.141449)"
         id="path1291-8"
         style="color:#000000;display:inline;overflow:visible;visibility:visible;fill:#000000;fill-opacity:1;fill-rule:evenodd;stroke:none;stroke-width:1;stroke-linecap:round;stroke-linejoin:miter;stroke-miterlimit:4;stroke-dashoffset:0;stroke-opacity:1;marker:none;marker-start:none;marker-mid:none;marker-end:none"
         cx="129.29292"
         cy="178.6248"
         rx="12.121212"
         ry="11.111111" /><ellipse
         transform="matrix(0.343245,0,0,0.373883,-8.1282328,70.631716)"
         id="use2812-7"
         style="color:#000000;display:inline;overflow:visible;visibility:visible;fill:#000000;fill-opacity:1;fill-rule:evenodd;stroke:none;stroke-width:1;stroke-linecap:round;stroke-linejoin:miter;stroke-miterlimit:4;stroke-dashoffset:0;stroke-opacity:1;marker:none;marker-start:none;marker-mid:none;marker-end:none"
         cx="129.29292"
         cy="178.6248"
         rx="12.121212"
         ry="11.111111" /><ellipse
         transform="matrix(0.343245,0,0,0.373883,-0.171873,105.06097)"
         id="use2814-9"
         style="color:#000000;display:inline;overflow:visible;visibility:visible;fill:#000000;fill-opacity:1;fill-rule:evenodd;stroke:none;stroke-width:1;stroke-linecap:round;stroke-linejoin:miter;stroke-miterlimit:4;stroke-dashoffset:0;stroke-opacity:1;marker:none;marker-start:none;marker-mid:none;marker-end:none"
         cx="129.29292"
         cy="178.6248"
         rx="12.121212"
         ry="11.111111" /><ellipse
         transform="matrix(0.343245,0,0,0.373883,-21.326258,101.10057)"
         id="use2818-2"
         style="color:#000000;display:inline;overflow:visible;visibility:visible;fill:#000000;fill-opacity:1;fill-rule:evenodd;stroke:none;stroke-width:1;stroke-linecap:round;stroke-linejoin:miter;stroke-miterlimit:4;stroke-dashoffset:0;stroke-opacity:1;marker:none;marker-start:none;marker-mid:none;marker-end:none"
         cx="129.29292"
         cy="178.6248"
         rx="12.121212"
         ry="11.111111" /><ellipse
         transform="matrix(0.343245,0,0,0.373883,13.308789,17.787828)"
         id="use2820-0"
         style="color:#000000;display:inline;overflow:visible;visibility:visible;fill:none;fill-opacity:1;fill-rule:evenodd;stroke:#000000;stroke-width:5.5829;stroke-linecap:round;stroke-linejoin:miter;stroke-miterlimit:4;stroke-dasharray:none;stroke-dashoffset:0;stroke-opacity:1;marker:none;marker-start:none;marker-mid:none;marker-end:none"
         cx="129.29292"
         cy="178.6248"
         rx="12.121212"
         ry="11.111111" /><ellipse
         transform="matrix(0.343245,0,0,0.373883,16.519465,34.245825)"
         id="use2822-2"
         style="color:#000000;display:inline;overflow:visible;visibility:visible;fill:none;fill-opacity:1;fill-rule:evenodd;stroke:#000000;stroke-width:5.5829;stroke-linecap:round;stroke-linejoin:miter;stroke-miterlimit:4;stroke-dasharray:none;stroke-dashoffset:0;stroke-opacity:1;marker:none;marker-start:none;marker-mid:none;marker-end:none"
         cx="129.29292"
         cy="178.6248"
         rx="12.121212"
         ry="11.111111" /><ellipse
         transform="matrix(0.343245,0,0,0.373883,0.4055972,48.267812)"
         id="use2824-3"
         style="color:#000000;display:inline;overflow:visible;visibility:visible;fill:none;fill-opacity:1;fill-rule:evenodd;stroke:#000000;stroke-width:5.5829;stroke-linecap:round;stroke-linejoin:miter;stroke-miterlimit:4;stroke-dasharray:none;stroke-dashoffset:0;stroke-opacity:1;marker:none;marker-start:none;marker-mid:none;marker-end:none"
         cx="129.29292"
         cy="178.6248"
         rx="12.121212"
         ry="11.111111" /><ellipse
         transform="matrix(0.343245,0,0,0.373883,33.928538,16.800782)"
         id="use2826-7"
         style="color:#000000;display:inline;overflow:visible;visibility:visible;fill:none;fill-opacity:1;fill-rule:evenodd;stroke:#000000;stroke-width:5.5829;stroke-linecap:round;stroke-linejoin:miter;stroke-miterlimit:4;stroke-dasharray:none;stroke-dashoffset:0;stroke-opacity:1;marker:none;marker-start:none;marker-mid:none;marker-end:none"
         cx="129.29292"
         cy="178.6248"
         rx="12.121212"
         ry="11.111111" /><ellipse
         transform="matrix(0.343245,0,0,0.373883,32.719507,38.848133)"
         id="use2828-5"
         style="color:#000000;display:inline;overflow:visible;visibility:visible;fill:none;fill-opacity:1;fill-rule:evenodd;stroke:#000000;stroke-width:5.5829;stroke-linecap:round;stroke-linejoin:miter;stroke-miterlimit:4;stroke-dasharray:none;stroke-dashoffset:0;stroke-opacity:1;marker:none;marker-start:none;marker-mid:none;marker-end:none"
         cx="129.29292"
         cy="178.6248"
         rx="12.121212"
         ry="11.111111" /><ellipse
         transform="matrix(0.343245,0,0,0.373883,52.427911,107.61738)"
         id="use2830-9"
         style="color:#000000;display:inline;overflow:visible;visibility:visible;fill:#000000;fill-opacity:1;fill-rule:evenodd;stroke:none;stroke-width:1;stroke-linecap:round;stroke-linejoin:miter;stroke-miterlimit:4;stroke-dashoffset:0;stroke-opacity:1;marker:none;marker-start:none;marker-mid:none;marker-end:none"
         cx="129.29292"
         cy="178.6248"
         rx="12.121212"
         ry="11.111111" /><ellipse
         transform="matrix(0.343245,0,0,0.373883,17.418906,76.738815)"
         id="use2832-2"
         style="color:#000000;display:inline;overflow:visible;visibility:visible;fill:#000000;fill-opacity:1;fill-rule:evenodd;stroke:none;stroke-width:1;stroke-linecap:round;stroke-linejoin:miter;stroke-miterlimit:4;stroke-dashoffset:0;stroke-opacity:1;marker:none;marker-start:none;marker-mid:none;marker-end:none"
         cx="129.29292"
         cy="178.6248"
         rx="12.121212"
         ry="11.111111" /><ellipse
         transform="matrix(0.343245,0,0,0.373883,49.696605,78.3876)"
         id="use2834-2"
         style="color:#000000;display:inline;overflow:visible;visibility:visible;fill:#000000;fill-opacity:1;fill-rule:evenodd;stroke:none;stroke-width:1;stroke-linecap:round;stroke-linejoin:miter;stroke-miterlimit:4;stroke-dashoffset:0;stroke-opacity:1;marker:none;marker-start:none;marker-mid:none;marker-end:none"
         cx="129.29292"
         cy="178.6248"
         rx="12.121212"
         ry="11.111111" /><ellipse
         transform="matrix(0.343245,0,0,0.373883,70.057325,0.8368897)"
         id="use2850-8"
         style="color:#000000;display:inline;overflow:visible;visibility:visible;fill:#000000;fill-opacity:1;fill-rule:evenodd;stroke:none;stroke-width:1;stroke-linecap:round;stroke-linejoin:miter;stroke-miterlimit:4;stroke-dashoffset:0;stroke-opacity:1;marker:none;marker-start:none;marker-mid:none;marker-end:none"
         cx="129.29292"
         cy="178.6248"
         rx="12.121212"
         ry="11.111111" /><ellipse
         transform="matrix(0.343245,0,0,0.373883,75.901288,-44.718776)"
         id="use2868-9"
         style="color:#000000;display:inline;overflow:visible;visibility:visible;fill:#000000;fill-opacity:1;fill-rule:evenodd;stroke:none;stroke-width:1;stroke-linecap:round;stroke-linejoin:miter;stroke-miterlimit:4;stroke-dashoffset:0;stroke-opacity:1;marker:none;marker-start:none;marker-mid:none;marker-end:none"
         cx="129.29292"
         cy="178.6248"
         rx="12.121212"
         ry="11.111111" /><ellipse
         transform="matrix(0.343245,0,0,0.373883,37.99405,-48.222517)"
         id="use2870-7"
         style="color:#000000;display:inline;overflow:visible;visibility:visible;fill:#000000;fill-opacity:1;fill-rule:evenodd;stroke:none;stroke-width:1;stroke-linecap:round;stroke-linejoin:miter;stroke-miterlimit:4;stroke-dashoffset:0;stroke-opacity:1;marker:none;marker-start:none;marker-mid:none;marker-end:none"
         cx="129.29292"
         cy="178.6248"
         rx="12.121212"
         ry="11.111111" /><ellipse
         transform="matrix(0.343245,0,0,0.373883,81.319491,-26.843576)"
         id="use2872-3"
         style="color:#000000;display:inline;overflow:visible;visibility:visible;fill:#000000;fill-opacity:1;fill-rule:evenodd;stroke:none;stroke-width:1;stroke-linecap:round;stroke-linejoin:miter;stroke-miterlimit:4;stroke-dashoffset:0;stroke-opacity:1;marker:none;marker-start:none;marker-mid:none;marker-end:none"
         cx="129.29292"
         cy="178.6248"
         rx="12.121212"
         ry="11.111111" /><ellipse
         transform="matrix(0.343245,0,0,0.373883,49.184304,-27.412432)"
         id="use2874-6"
         style="color:#000000;display:inline;overflow:visible;visibility:visible;fill:#000000;fill-opacity:1;fill-rule:evenodd;stroke:none;stroke-width:1;stroke-linecap:round;stroke-linejoin:miter;stroke-miterlimit:4;stroke-dashoffset:0;stroke-opacity:1;marker:none;marker-start:none;marker-mid:none;marker-end:none"
         cx="129.29292"
         cy="178.6248"
         rx="12.121212"
         ry="11.111111" /><ellipse
         transform="matrix(0.343245,0,0,0.373883,32.635303,-11.26777)"
         id="use2876-1"
         style="color:#000000;display:inline;overflow:visible;visibility:visible;fill:none;fill-opacity:1;fill-rule:evenodd;stroke:#000000;stroke-width:5.5829;stroke-linecap:round;stroke-linejoin:miter;stroke-miterlimit:4;stroke-dasharray:none;stroke-dashoffset:0;stroke-opacity:1;marker:none;marker-start:none;marker-mid:none;marker-end:none"
         cx="129.29292"
         cy="178.6248"
         rx="12.121212"
         ry="11.111111" /><ellipse
         transform="matrix(0.343245,0,0,0.373883,58.690504,23.873301)"
         id="path2912-2"
         style="color:#000000;display:inline;overflow:visible;visibility:visible;fill:#000000;fill-opacity:1;fill-rule:evenodd;stroke:none;stroke-width:1;stroke-linecap:round;stroke-linejoin:miter;stroke-miterlimit:4;stroke-dashoffset:0;stroke-opacity:1;marker:none;marker-start:none;marker-mid:none;marker-end:none"
         cx="129.29292"
         cy="178.6248"
         rx="12.121212"
         ry="11.111111" /><ellipse
         transform="matrix(0.343245,0,0,0.373883,84.01267,94.34855)"
         id="path2914-9"
         style="color:#000000;display:inline;overflow:visible;visibility:visible;fill:#000000;fill-opacity:1;fill-rule:evenodd;stroke:none;stroke-width:1;stroke-linecap:round;stroke-linejoin:miter;stroke-miterlimit:4;stroke-dashoffset:0;stroke-opacity:1;marker:none;marker-start:none;marker-mid:none;marker-end:none"
         cx="129.29292"
         cy="178.6248"
         rx="12.121212"
         ry="11.111111" /><ellipse
         transform="matrix(0.343245,0,0,0.373883,78.061199,28.596609)"
         id="path2916-3"
         style="color:#000000;display:inline;overflow:visible;visibility:visible;fill:#000000;fill-opacity:1;fill-rule:evenodd;stroke:none;stroke-width:1;stroke-linecap:round;stroke-linejoin:miter;stroke-miterlimit:4;stroke-dashoffset:0;stroke-opacity:1;marker:none;marker-start:none;marker-mid:none;marker-end:none"
         cx="129.29292"
         cy="178.6248"
         rx="12.121212"
         ry="11.111111" /><ellipse
         transform="matrix(0.343245,0,0,0.373883,110.9092,81.48025)"
         id="path2920-1"
         style="color:#000000;display:inline;overflow:visible;visibility:visible;fill:#000000;fill-opacity:1;fill-rule:evenodd;stroke:none;stroke-width:1;stroke-linecap:round;stroke-linejoin:miter;stroke-miterlimit:4;stroke-dashoffset:0;stroke-opacity:1;marker:none;marker-start:none;marker-mid:none;marker-end:none"
         cx="129.29292"
         cy="178.6248"
         rx="12.121212"
         ry="11.111111" /><ellipse
         transform="matrix(0.343245,0,0,0.373883,84.148802,71.452133)"
         id="path2922-9"
         style="color:#000000;display:inline;overflow:visible;visibility:visible;fill:#000000;fill-opacity:1;fill-rule:evenodd;stroke:none;stroke-width:1;stroke-linecap:round;stroke-linejoin:miter;stroke-miterlimit:4;stroke-dashoffset:0;stroke-opacity:1;marker:none;marker-start:none;marker-mid:none;marker-end:none"
         cx="129.29292"
         cy="178.6248"
         rx="12.121212"
         ry="11.111111" /><ellipse
         transform="matrix(0.343245,0,0,0.373883,117.4101,47.431798)"
         id="path2924-4"
         style="color:#000000;display:inline;overflow:visible;visibility:visible;fill:#000000;fill-opacity:1;fill-rule:evenodd;stroke:none;stroke-width:1;stroke-linecap:round;stroke-linejoin:miter;stroke-miterlimit:4;stroke-dashoffset:0;stroke-opacity:1;marker:none;marker-start:none;marker-mid:none;marker-end:none"
         cx="129.29292"
         cy="178.6248"
         rx="12.121212"
         ry="11.111111" /><ellipse
         transform="matrix(0.343245,0,0,0.373883,65.884585,46.390596)"
         id="path2926-7"
         style="color:#000000;display:inline;overflow:visible;visibility:visible;fill:#000000;fill-opacity:1;fill-rule:evenodd;stroke:none;stroke-width:1;stroke-linecap:round;stroke-linejoin:miter;stroke-miterlimit:4;stroke-dashoffset:0;stroke-opacity:1;marker:none;marker-start:none;marker-mid:none;marker-end:none"
         cx="129.29292"
         cy="178.6248"
         rx="12.121212"
         ry="11.111111" /><ellipse
         transform="matrix(0.343245,0,0,0.373883,101.3834,35.04235)"
         id="path2930-8"
         style="color:#000000;display:inline;overflow:visible;visibility:visible;fill:#000000;fill-opacity:1;fill-rule:evenodd;stroke:none;stroke-width:1;stroke-linecap:round;stroke-linejoin:miter;stroke-miterlimit:4;stroke-dashoffset:0;stroke-opacity:1;marker:none;marker-start:none;marker-mid:none;marker-end:none"
         cx="129.29292"
         cy="178.6248"
         rx="12.121212"
         ry="11.111111" /><ellipse
         transform="matrix(0.343245,0,0,0.373883,119.16169,2.5301956)"
         id="path2932-4"
         style="color:#000000;display:inline;overflow:visible;visibility:visible;fill:#000000;fill-opacity:1;fill-rule:evenodd;stroke:none;stroke-width:1;stroke-linecap:round;stroke-linejoin:miter;stroke-miterlimit:4;stroke-dashoffset:0;stroke-opacity:1;marker:none;marker-start:none;marker-mid:none;marker-end:none"
         cx="129.29292"
         cy="178.6248"
         rx="12.121212"
         ry="11.111111" /><ellipse
         transform="matrix(0.343245,0,0,0.373883,106.67112,-15.914403)"
         id="path2934-5"
         style="color:#000000;display:inline;overflow:visible;visibility:visible;fill:#000000;fill-opacity:1;fill-rule:evenodd;stroke:none;stroke-width:1;stroke-linecap:round;stroke-linejoin:miter;stroke-miterlimit:4;stroke-dashoffset:0;stroke-opacity:1;marker:none;marker-start:none;marker-mid:none;marker-end:none"
         cx="129.29292"
         cy="178.6248"
         rx="12.121212"
         ry="11.111111" /><ellipse
         transform="matrix(0.343245,0,0,0.373883,112.31801,-44.372632)"
         id="path2936-0"
         style="color:#000000;display:inline;overflow:visible;visibility:visible;fill:#000000;fill-opacity:1;fill-rule:evenodd;stroke:none;stroke-width:1;stroke-linecap:round;stroke-linejoin:miter;stroke-miterlimit:4;stroke-dashoffset:0;stroke-opacity:1;marker:none;marker-start:none;marker-mid:none;marker-end:none"
         cx="129.29292"
         cy="178.6248"
         rx="12.121212"
         ry="11.111111" /><ellipse
         transform="matrix(0.343245,0,0,0.373883,-25.226699,46.857723)"
         id="path2938-3"
         style="color:#000000;display:inline;overflow:visible;visibility:visible;fill:#000000;fill-opacity:1;fill-rule:evenodd;stroke:none;stroke-width:1;stroke-linecap:round;stroke-linejoin:miter;stroke-miterlimit:4;stroke-dashoffset:0;stroke-opacity:1;marker:none;marker-start:none;marker-mid:none;marker-end:none"
         cx="129.29292"
         cy="178.6248"
         rx="12.121212"
         ry="11.111111" /><ellipse
         transform="matrix(0.343245,0,0,0.373883,-3.4008,8.18645)"
         id="path2940-6"
         style="color:#000000;display:inline;overflow:visible;visibility:visible;fill:none;fill-opacity:1;fill-rule:evenodd;stroke:#000000;stroke-width:5.5829;stroke-linecap:round;stroke-linejoin:miter;stroke-miterlimit:4;stroke-dasharray:none;stroke-dashoffset:0;stroke-opacity:1;marker:none;marker-start:none;marker-mid:none;marker-end:none"
         cx="129.29292"
         cy="178.6248"
         rx="12.121212"
         ry="11.111111" /><ellipse
         transform="matrix(0.343245,0,0,0.373883,-16.239665,-18.887284)"
         id="path2942-1"
         style="color:#000000;display:inline;overflow:visible;visibility:visible;fill:#000000;fill-opacity:1;fill-rule:evenodd;stroke:none;stroke-width:1;stroke-linecap:round;stroke-linejoin:miter;stroke-miterlimit:4;stroke-dashoffset:0;stroke-opacity:1;marker:none;marker-start:none;marker-mid:none;marker-end:none"
         cx="129.29292"
         cy="178.6248"
         rx="12.121212"
         ry="11.111111" /><ellipse
         transform="matrix(0.343245,0,0,0.373883,-15.72834,23.85235)"
         id="path2944-0"
         style="color:#000000;display:inline;overflow:visible;visibility:visible;fill:none;fill-opacity:1;fill-rule:evenodd;stroke:#000000;stroke-width:5.5829;stroke-linecap:round;stroke-linejoin:miter;stroke-miterlimit:4;stroke-dasharray:none;stroke-dashoffset:0;stroke-opacity:1;marker:none;marker-start:none;marker-mid:none;marker-end:none"
         cx="129.29292"
         cy="178.6248"
         rx="12.121212"
         ry="11.111111" /><ellipse
         transform="matrix(0.343245,0,0,0.373883,16.809133,-44.701783)"
         id="path2946-6"
         style="color:#000000;display:inline;overflow:visible;visibility:visible;fill:#000000;fill-opacity:1;fill-rule:evenodd;stroke:none;stroke-width:1;stroke-linecap:round;stroke-linejoin:miter;stroke-miterlimit:4;stroke-dashoffset:0;stroke-opacity:1;marker:none;marker-start:none;marker-mid:none;marker-end:none"
         cx="129.29292"
         cy="178.6248"
         rx="12.121212"
         ry="11.111111" /><ellipse
         transform="matrix(0.343245,0,0,0.373883,-20.52149,-45.53757)"
         id="path2948-3"
         style="color:#000000;display:inline;overflow:visible;visibility:visible;fill:#000000;fill-opacity:1;fill-rule:evenodd;stroke:none;stroke-width:1;stroke-linecap:round;stroke-linejoin:miter;stroke-miterlimit:4;stroke-dashoffset:0;stroke-opacity:1;marker:none;marker-start:none;marker-mid:none;marker-end:none"
         cx="129.29292"
         cy="178.6248"
         rx="12.121212"
         ry="11.111111" /><ellipse
         transform="matrix(0.343245,0,0,0.373883,-27.40937,5.94855)"
         id="path2950-2"
         style="color:#000000;display:inline;overflow:visible;visibility:visible;fill:#000000;fill-opacity:1;fill-rule:evenodd;stroke:none;stroke-width:1;stroke-linecap:round;stroke-linejoin:miter;stroke-miterlimit:4;stroke-dashoffset:0;stroke-opacity:1;marker:none;marker-start:none;marker-mid:none;marker-end:none"
         cx="129.29292"
         cy="178.6248"
         rx="12.121212"
         ry="11.111111" /></g></g></svg>
