<?xml version="1.0" encoding="UTF-8" standalone="no"?>
<!-- Created with Inkscape (http://www.inkscape.org/) -->

<svg
   width="216.12119mm"
   height="24.999992mm"
   viewBox="0 0 216.12118 24.999992"
   version="1.1"
   id="svg5"
   inkscape:version="1.2.2 (b0a8486541, 2022-12-01)"
   sodipodi:docname="distance_euclid_5.svg"
   xmlns:inkscape="http://www.inkscape.org/namespaces/inkscape"
   xmlns:sodipodi="http://sodipodi.sourceforge.net/DTD/sodipodi-0.dtd"
   xmlns="http://www.w3.org/2000/svg"
   xmlns:svg="http://www.w3.org/2000/svg">
  <sodipodi:namedview
     id="namedview7"
     pagecolor="#ffffff"
     bordercolor="#666666"
     borderopacity="1.0"
     inkscape:pageshadow="2"
     inkscape:pageopacity="0.0"
     inkscape:pagecheckerboard="0"
     inkscape:document-units="mm"
     showgrid="false"
     fit-margin-top="0"
     fit-margin-left="0"
     fit-margin-right="0"
     fit-margin-bottom="0"
     inkscape:zoom="1.4142136"
     inkscape:cx="303.3488"
     inkscape:cy="72.12489"
     inkscape:window-width="636"
     inkscape:window-height="975"
     inkscape:window-x="2560"
     inkscape:window-y="0"
     inkscape:window-maximized="1"
     inkscape:current-layer="layer1"
     inkscape:showpageshadow="2"
     inkscape:deskcolor="#d1d1d1">
    <inkscape:grid
       type="xygrid"
       id="grid857"
       originx="-188.63735"
       originy="-55.794315" />
  </sodipodi:namedview>
  <defs
     id="defs2">
    <rect
       x="792.91125"
       y="153.64169"
       width="304.8515"
       height="184.75491"
       id="rect4938" />
    <marker
       style="overflow:visible"
       id="Arrow2Mstart"
       refX="0"
       refY="0"
       orient="auto"
       inkscape:stockid="Arrow2Mstart"
       inkscape:isstock="true">
      <path
         transform="scale(0.6)"
         d="M 8.7185878,4.0337352 -2.2072895,0.01601326 8.7185884,-4.0017078 c -1.7454984,2.3720609 -1.7354408,5.6174519 -6e-7,8.035443 z"
         style="fill:context-stroke;fill-rule:evenodd;stroke:context-stroke;stroke-width:0.625;stroke-linejoin:round"
         id="path885" />
    </marker>
    <marker
       style="overflow:visible"
       id="Arrow2Mend"
       refX="0"
       refY="0"
       orient="auto"
       inkscape:stockid="Arrow2Mend"
       inkscape:isstock="true">
      <path
         transform="scale(-0.6)"
         d="M 8.7185878,4.0337352 -2.2072895,0.01601326 8.7185884,-4.0017078 c -1.7454984,2.3720609 -1.7354408,5.6174519 -6e-7,8.035443 z"
         style="fill:context-stroke;fill-rule:evenodd;stroke:context-stroke;stroke-width:0.625;stroke-linejoin:round"
         id="path888" />
    </marker>
    <marker
       style="overflow:visible"
       id="Arrow2Mstart-3"
       refX="0"
       refY="0"
       orient="auto"
       inkscape:stockid="Arrow2Mstart"
       inkscape:isstock="true">
      <path
         transform="scale(0.6)"
         d="M 8.7185878,4.0337352 -2.2072895,0.01601326 8.7185884,-4.0017078 c -1.7454984,2.3720609 -1.7354408,5.6174519 -6e-7,8.035443 z"
         style="fill:context-stroke;fill-rule:evenodd;stroke:context-stroke;stroke-width:0.625;stroke-linejoin:round"
         id="path885-6" />
    </marker>
    <marker
       style="overflow:visible"
       id="Arrow2Mend-7"
       refX="0"
       refY="0"
       orient="auto"
       inkscape:stockid="Arrow2Mend"
       inkscape:isstock="true">
      <path
         transform="scale(-0.6)"
         d="M 8.7185878,4.0337352 -2.2072895,0.01601326 8.7185884,-4.0017078 c -1.7454984,2.3720609 -1.7354408,5.6174519 -6e-7,8.035443 z"
         style="fill:context-stroke;fill-rule:evenodd;stroke:context-stroke;stroke-width:0.625;stroke-linejoin:round"
         id="path888-5" />
    </marker>
    <defs
       id="id-9c685c08-86ba-4896-93a9-79c4b6dfb804">
      <g
         id="id-271663eb-4f20-402a-aa2c-bedf5dfa1296">
        <symbol
           overflow="visible"
           id="id-caa3c297-957f-4984-a0cd-d2d505d87da7">
          <path
             style="stroke:none;stroke-width:0"
             d=""
             id="id-c995868d-1315-4a95-a857-60e8e80e82b0" />
        </symbol>
        <symbol
           overflow="visible"
           id="id-1802b9d2-6038-4134-968e-e3f03cd08993">
          <path
             style="stroke:none;stroke-width:0"
             d="m 4.84375,-3.796875 c 0.046875,-0.140625 0.046875,-0.15625 0.046875,-0.234375 0,-0.171875 -0.140625,-0.265625 -0.296875,-0.265625 -0.09375,0 -0.25,0.0625 -0.34375,0.203125 -0.015625,0.0625 -0.109375,0.359375 -0.140625,0.546875 -0.078125,0.25 -0.140625,0.53125 -0.203125,0.796875 l -0.453125,1.796875 c -0.03125,0.140625 -0.46875,0.84375 -1.125,0.84375 -0.5,0 -0.609375,-0.4375 -0.609375,-0.8125 C 1.71875,-1.375 1.890625,-2 2.21875,-2.875 2.375,-3.28125 2.421875,-3.390625 2.421875,-3.59375 c 0,-0.4375 -0.3125,-0.8125 -0.8125,-0.8125 -0.953125,0 -1.3125,1.453125 -1.3125,1.53125 0,0.109375 0.09375,0.109375 0.109375,0.109375 0.109375,0 0.109375,-0.03125 0.15625,-0.1875 0.28125,-0.9375 0.671875,-1.234375 1.015625,-1.234375 0.078125,0 0.25,0 0.25,0.3125 0,0.25 -0.109375,0.515625 -0.171875,0.703125 -0.40625,1.0625 -0.578125,1.625 -0.578125,2.09375 0,0.890625 0.625,1.1875 1.21875,1.1875 0.390625,0 0.71875,-0.171875 1,-0.453125 -0.125,0.515625 -0.25,1.015625 -0.640625,1.546875 -0.265625,0.328125 -0.640625,0.625 -1.09375,0.625 -0.140625,0 -0.59375,-0.03125 -0.765625,-0.421875 0.15625,0 0.296875,0 0.421875,-0.125 C 1.328125,1.203125 1.421875,1.0625 1.421875,0.875 1.421875,0.5625 1.15625,0.53125 1.0625,0.53125 0.828125,0.53125 0.5,0.6875 0.5,1.171875 c 0,0.5 0.4375,0.875 1.0625,0.875 1.015625,0 2.046875,-0.90625 2.328125,-2.03125 z m 0,0"
             id="id-cba484cc-498d-4e73-9e25-04ed9e5abc05" />
        </symbol>
        <symbol
           overflow="visible"
           id="id-812e2a86-6a27-48bf-b964-a129a540ebe3">
          <path
             style="stroke:none;stroke-width:0"
             d="M 3.328125,-3.015625 C 3.390625,-3.265625 3.625,-4.1875 4.3125,-4.1875 c 0.046875,0 0.296875,0 0.5,0.125 C 4.53125,-4 4.34375,-3.765625 4.34375,-3.515625 c 0,0.15625 0.109375,0.34375 0.375,0.34375 0.21875,0 0.53125,-0.171875 0.53125,-0.578125 0,-0.515625 -0.578125,-0.65625 -0.921875,-0.65625 -0.578125,0 -0.921875,0.53125 -1.046875,0.75 -0.25,-0.65625 -0.78125,-0.75 -1.078125,-0.75 -1.03125,0 -1.609375,1.28125 -1.609375,1.53125 0,0.109375 0.109375,0.109375 0.125,0.109375 0.078125,0 0.109375,-0.03125 0.125,-0.109375 0.34375,-1.0625 1,-1.3125 1.34375,-1.3125 0.1875,0 0.53125,0.09375 0.53125,0.671875 0,0.3125 -0.171875,0.96875 -0.53125,2.375 -0.15625,0.609375 -0.515625,1.03125 -0.953125,1.03125 -0.0625,0 -0.28125,0 -0.5,-0.125 0.25,-0.0625 0.46875,-0.265625 0.46875,-0.546875 0,-0.265625 -0.21875,-0.34375 -0.359375,-0.34375 -0.3125,0 -0.546875,0.25 -0.546875,0.578125 0,0.453125 0.484375,0.65625 0.921875,0.65625 0.671875,0 1.03125,-0.703125 1.046875,-0.75 0.125,0.359375 0.484375,0.75 1.078125,0.75 1.03125,0 1.59375,-1.28125 1.59375,-1.53125 0,-0.109375 -0.078125,-0.109375 -0.109375,-0.109375 -0.09375,0 -0.109375,0.046875 -0.140625,0.109375 -0.328125,1.078125 -1,1.3125 -1.3125,1.3125 -0.390625,0 -0.546875,-0.3125 -0.546875,-0.65625 0,-0.21875 0.046875,-0.4375 0.15625,-0.875 z m 0,0"
             id="id-9d155d20-3cd2-4347-b865-131e34c67443" />
        </symbol>
        <symbol
           overflow="visible"
           id="id-f942eddc-ee26-4f9f-9db2-99b47f178153">
          <path
             style="stroke:none;stroke-width:0"
             d="m 5.140625,-6.8125 c 0,0 0,-0.109375 -0.125,-0.109375 -0.15625,0 -1.09375,0.09375 -1.265625,0.109375 -0.078125,0.015625 -0.140625,0.0625 -0.140625,0.1875 0,0.125 0.09375,0.125 0.234375,0.125 0.484375,0 0.5,0.0625 0.5,0.171875 L 4.3125,-6.125 3.71875,-3.765625 C 3.53125,-4.140625 3.25,-4.40625 2.796875,-4.40625 c -1.15625,0 -2.390625,1.46875 -2.390625,2.921875 0,0.9375 0.546875,1.59375 1.3125,1.59375 0.203125,0 0.703125,-0.046875 1.296875,-0.75 0.078125,0.421875 0.4375,0.75 0.90625,0.75 0.359375,0 0.578125,-0.234375 0.75,-0.546875 0.15625,-0.359375 0.296875,-0.96875 0.296875,-0.984375 0,-0.109375 -0.09375,-0.109375 -0.125,-0.109375 -0.09375,0 -0.109375,0.046875 -0.140625,0.1875 -0.171875,0.640625 -0.34375,1.234375 -0.75,1.234375 -0.28125,0 -0.296875,-0.265625 -0.296875,-0.453125 0,-0.25 0.015625,-0.3125 0.046875,-0.484375 z m -2.0625,5.625 C 3.015625,-1 3.015625,-0.984375 2.875,-0.8125 2.4375,-0.265625 2.03125,-0.109375 1.75,-0.109375 c -0.5,0 -0.640625,-0.546875 -0.640625,-0.9375 0,-0.5 0.3125,-1.71875 0.546875,-2.1875 0.3125,-0.578125 0.75,-0.953125 1.15625,-0.953125 0.640625,0 0.78125,0.8125 0.78125,0.875 0,0.0625 -0.015625,0.125 -0.03125,0.171875 z m 0,0"
             id="id-97ff2afe-98cd-4c8b-887a-bc92aef63712" />
        </symbol>
        <symbol
           overflow="visible"
           id="id-b3d34352-5b43-4cc3-8ff7-dd6f662c687f">
          <path
             style="stroke:none;stroke-width:0"
             d="M 3.71875,-3.765625 C 3.53125,-4.140625 3.25,-4.40625 2.796875,-4.40625 c -1.15625,0 -2.390625,1.46875 -2.390625,2.921875 0,0.9375 0.546875,1.59375 1.3125,1.59375 0.203125,0 0.703125,-0.046875 1.296875,-0.75 0.078125,0.421875 0.4375,0.75 0.90625,0.75 0.359375,0 0.578125,-0.234375 0.75,-0.546875 0.15625,-0.359375 0.296875,-0.96875 0.296875,-0.984375 0,-0.109375 -0.09375,-0.109375 -0.125,-0.109375 -0.09375,0 -0.109375,0.046875 -0.140625,0.1875 -0.171875,0.640625 -0.34375,1.234375 -0.75,1.234375 -0.28125,0 -0.296875,-0.265625 -0.296875,-0.453125 0,-0.21875 0.015625,-0.3125 0.125,-0.75 C 3.890625,-1.71875 3.90625,-1.828125 4,-2.203125 L 4.359375,-3.59375 c 0.0625,-0.28125 0.0625,-0.296875 0.0625,-0.34375 0,-0.171875 -0.109375,-0.265625 -0.28125,-0.265625 -0.25,0 -0.390625,0.21875 -0.421875,0.4375 z M 3.078125,-1.1875 C 3.015625,-1 3.015625,-0.984375 2.875,-0.8125 2.4375,-0.265625 2.03125,-0.109375 1.75,-0.109375 c -0.5,0 -0.640625,-0.546875 -0.640625,-0.9375 0,-0.5 0.3125,-1.71875 0.546875,-2.1875 0.3125,-0.578125 0.75,-0.953125 1.15625,-0.953125 0.640625,0 0.78125,0.8125 0.78125,0.875 0,0.0625 -0.015625,0.125 -0.03125,0.171875 z m 0,0"
             id="id-f4da8c5a-2d9c-4cfb-a725-87ca82b52a42" />
        </symbol>
        <symbol
           overflow="visible"
           id="id-3c2d50a0-9c4a-43a6-a830-ca903097ce7a">
          <path
             style="stroke:none;stroke-width:0"
             d="m 2.03125,-0.015625 c 0,-0.65625 -0.25,-1.046875 -0.640625,-1.046875 -0.328125,0 -0.53125,0.25 -0.53125,0.53125 C 0.859375,-0.265625 1.0625,0 1.390625,0 1.5,0 1.640625,-0.046875 1.734375,-0.125 1.765625,-0.15625 1.78125,-0.15625 1.78125,-0.15625 c 0.015625,0 0.015625,0 0.015625,0.140625 0,0.75 -0.34375,1.34375 -0.671875,1.671875 -0.109375,0.109375 -0.109375,0.125 -0.109375,0.15625 0,0.078125 0.046875,0.109375 0.09375,0.109375 0.109375,0 0.921875,-0.765625 0.921875,-1.9375 z m 0,0"
             id="id-bc9043b9-131c-49d3-a70d-fbb93a297fc2" />
        </symbol>
        <symbol
           overflow="visible"
           id="id-65602a96-46c5-4bda-88c8-44203fc02600">
          <path
             style="stroke:none;stroke-width:0"
             d="m 2.375,-6.8125 c 0,0 0,-0.109375 -0.125,-0.109375 -0.21875,0 -0.953125,0.078125 -1.21875,0.109375 -0.078125,0 -0.1875,0.015625 -0.1875,0.1875 0,0.125 0.09375,0.125 0.25,0.125 0.46875,0 0.484375,0.0625 0.484375,0.171875 0,0.0625 -0.078125,0.40625 -0.125,0.609375 l -0.828125,3.25 c -0.109375,0.5 -0.15625,0.671875 -0.15625,1.015625 0,0.9375 0.53125,1.5625 1.265625,1.5625 1.171875,0 2.40625,-1.484375 2.40625,-2.921875 0,-0.90625 -0.53125,-1.59375 -1.328125,-1.59375 -0.453125,0 -0.875,0.296875 -1.171875,0.59375 z M 1.453125,-3.046875 C 1.5,-3.265625 1.5,-3.28125 1.59375,-3.390625 2.078125,-4.03125 2.53125,-4.1875 2.796875,-4.1875 c 0.359375,0 0.625,0.296875 0.625,0.9375 0,0.59375 -0.328125,1.734375 -0.515625,2.109375 -0.328125,0.671875 -0.78125,1.03125 -1.171875,1.03125 -0.34375,0 -0.671875,-0.265625 -0.671875,-1 0,-0.203125 0,-0.390625 0.15625,-1.015625 z m 0,0"
             id="id-ce7fa858-0458-4223-93a5-659789d5f326" />
        </symbol>
        <symbol
           overflow="visible"
           id="id-d61d7ce6-e0bd-4838-90f0-9611ac9d289b">
          <path
             style="stroke:none;stroke-width:0"
             d=""
             id="id-f22290e4-3f37-448f-926e-33ea66dac6a9" />
        </symbol>
        <symbol
           overflow="visible"
           id="id-19a4a69a-8abe-43d4-8427-7a10e5c28d6f">
          <path
             style="stroke:none;stroke-width:0"
             d="m 2.328125,-4.4375 c 0,-0.1875 0,-0.1875 -0.203125,-0.1875 -0.453125,0.4375 -1.078125,0.4375 -1.359375,0.4375 v 0.25 c 0.15625,0 0.625,0 1,-0.1875 v 3.546875 c 0,0.234375 0,0.328125 -0.6875,0.328125 H 0.8125 V 0 c 0.125,0 0.984375,-0.03125 1.234375,-0.03125 0.21875,0 1.09375,0.03125 1.25,0.03125 V -0.25 H 3.03125 c -0.703125,0 -0.703125,-0.09375 -0.703125,-0.328125 z m 0,0"
             id="id-66970f5d-1afd-4846-9777-ab3a85264f21" />
        </symbol>
        <symbol
           overflow="visible"
           id="id-ba4c732b-1881-4f15-b57b-d27850f92216">
          <path
             style="stroke:none;stroke-width:0"
             d="M 3.515625,-1.265625 H 3.28125 c -0.015625,0.15625 -0.09375,0.5625 -0.1875,0.625 C 3.046875,-0.59375 2.515625,-0.59375 2.40625,-0.59375 H 1.125 c 0.734375,-0.640625 0.984375,-0.84375 1.390625,-1.171875 0.515625,-0.40625 1,-0.84375 1,-1.5 0,-0.84375 -0.734375,-1.359375 -1.625,-1.359375 -0.859375,0 -1.453125,0.609375 -1.453125,1.25 0,0.34375 0.296875,0.390625 0.375,0.390625 0.15625,0 0.359375,-0.125 0.359375,-0.375 0,-0.125 -0.046875,-0.375 -0.40625,-0.375 C 0.984375,-4.21875 1.453125,-4.375 1.78125,-4.375 c 0.703125,0 1.0625,0.546875 1.0625,1.109375 0,0.609375 -0.4375,1.078125 -0.65625,1.328125 L 0.515625,-0.265625 C 0.4375,-0.203125 0.4375,-0.1875 0.4375,0 h 2.875 z m 0,0"
             id="id-5608495d-6d29-4f0e-ae2f-e54f4baf7c8f" />
        </symbol>
        <symbol
           overflow="visible"
           id="id-d1a5b12f-e7a4-4b01-b3aa-1a0a0979a2d8">
          <path
             style="stroke:none;stroke-width:0"
             d=""
             id="id-2b558af3-e9a4-4a46-8895-769a125647af" />
        </symbol>
        <symbol
           overflow="visible"
           id="id-c15f303c-b367-436f-b964-239ff57b96a0">
          <path
             style="stroke:none;stroke-width:0"
             d="m 3.296875,2.390625 c 0,-0.03125 0,-0.046875 -0.171875,-0.21875 C 1.890625,0.921875 1.5625,-0.96875 1.5625,-2.5 c 0,-1.734375 0.375,-3.46875 1.609375,-4.703125 0.125,-0.125 0.125,-0.140625 0.125,-0.171875 0,-0.078125 -0.03125,-0.109375 -0.09375,-0.109375 -0.109375,0 -1,0.6875 -1.59375,1.953125 -0.5,1.09375 -0.625,2.203125 -0.625,3.03125 0,0.78125 0.109375,1.984375 0.65625,3.125 C 2.25,1.84375 3.09375,2.5 3.203125,2.5 c 0.0625,0 0.09375,-0.03125 0.09375,-0.109375 z m 0,0"
             id="id-52c38044-03ac-4d7a-a11a-3c2613f9b010" />
        </symbol>
        <symbol
           overflow="visible"
           id="id-25d1a7a1-f0ac-43bd-90e0-9d36bece9e5e">
          <path
             style="stroke:none;stroke-width:0"
             d="m 2.875,-2.5 c 0,-0.765625 -0.109375,-1.96875 -0.65625,-3.109375 -0.59375,-1.21875 -1.453125,-1.875 -1.546875,-1.875 -0.0625,0 -0.109375,0.046875 -0.109375,0.109375 0,0.03125 0,0.046875 0.1875,0.234375 0.984375,0.984375 1.546875,2.5625 1.546875,4.640625 0,1.71875 -0.359375,3.46875 -1.59375,4.71875 C 0.5625,2.34375 0.5625,2.359375 0.5625,2.390625 0.5625,2.453125 0.609375,2.5 0.671875,2.5 0.765625,2.5 1.671875,1.8125 2.25,0.546875 2.765625,-0.546875 2.875,-1.65625 2.875,-2.5 Z m 0,0"
             id="id-8ef58592-3ada-4071-ae2b-2061c147320b" />
        </symbol>
        <symbol
           overflow="visible"
           id="id-186ca405-b37b-4df5-93b7-e396a0831c64">
          <path
             style="stroke:none;stroke-width:0"
             d="m 6.84375,-3.265625 c 0.15625,0 0.34375,0 0.34375,-0.1875 C 7.1875,-3.65625 7,-3.65625 6.859375,-3.65625 h -5.96875 c -0.140625,0 -0.328125,0 -0.328125,0.203125 0,0.1875 0.1875,0.1875 0.328125,0.1875 z m 0.015625,1.9375 c 0.140625,0 0.328125,0 0.328125,-0.203125 0,-0.1875 -0.1875,-0.1875 -0.34375,-0.1875 H 0.890625 c -0.140625,0 -0.328125,0 -0.328125,0.1875 0,0.203125 0.1875,0.203125 0.328125,0.203125 z m 0,0"
             id="id-028e5f2c-d594-4041-860f-80c698810120" />
        </symbol>
        <symbol
           overflow="visible"
           id="id-4ac7159c-b997-43ea-ad8d-db8a0e6ce27c">
          <path
             style="stroke:none;stroke-width:0"
             d="m 4.078125,-2.296875 h 2.78125 C 7,-2.296875 7.1875,-2.296875 7.1875,-2.5 7.1875,-2.6875 7,-2.6875 6.859375,-2.6875 h -2.78125 v -2.796875 c 0,-0.140625 0,-0.328125 -0.203125,-0.328125 -0.203125,0 -0.203125,0.1875 -0.203125,0.328125 V -2.6875 h -2.78125 c -0.140625,0 -0.328125,0 -0.328125,0.1875 0,0.203125 0.1875,0.203125 0.328125,0.203125 h 2.78125 V 0.5 c 0,0.140625 0,0.328125 0.203125,0.328125 0.203125,0 0.203125,-0.1875 0.203125,-0.328125 z m 0,0"
             id="id-3c73a3bc-17c4-4641-aa52-79c04ec3f9e6" />
        </symbol>
        <symbol
           overflow="visible"
           id="id-1aff0ca3-dc88-428b-9b88-e3b6fdc0f664">
          <path
             style="stroke:none;stroke-width:0"
             d=""
             id="id-96e8babb-6091-48b4-a437-3dbf755ec732" />
        </symbol>
        <symbol
           overflow="visible"
           id="id-f957594a-614d-4995-ab80-17ff21670d92">
          <path
             style="stroke:none;stroke-width:0"
             d="m 4.234375,11.5625 c 0.296875,0 0.3125,-0.01563 0.40625,-0.203125 l 5.453125,-11.375 c 0.07813,-0.140625 0.07813,-0.15625 0.07813,-0.1875 0,-0.109375 -0.07813,-0.203125 -0.203125,-0.203125 -0.125,0 -0.171875,0.09375 -0.21875,0.203125 L 4.609375,10.53125 2.484375,5.578125 1.09375,6.65625 1.25,6.8125 1.953125,6.265625 Z m 0,0"
             id="id-8a6193fb-7e46-4aff-af4f-1325fc230876" />
        </symbol>
        <symbol
           overflow="visible"
           id="id-f158583a-3d65-410b-8bfb-85c61ba6c55a">
          <path
             style="stroke:none;stroke-width:0"
             d=""
             id="id-f35c51a3-a75f-441d-8ec0-c5a14899d849" />
        </symbol>
        <symbol
           overflow="visible"
           id="id-7522e121-8494-4985-8358-592e31b645f9">
          <path
             style="stroke:none;stroke-width:0"
             d="m 6.5625,-2.296875 c 0.171875,0 0.359375,0 0.359375,-0.203125 0,-0.1875 -0.1875,-0.1875 -0.359375,-0.1875 H 1.171875 c -0.171875,0 -0.34375,0 -0.34375,0.1875 0,0.203125 0.171875,0.203125 0.34375,0.203125 z m 0,0"
             id="id-0a5af838-8276-4afb-b851-d3905055f525" />
        </symbol>
      </g>
    </defs>
    <defs
       id="id-6cf0874a-1bcf-4d52-974f-a8e478b44398">
      <g
         id="id-3c04020c-484e-4344-96dd-c764b2f14c7a">
        <symbol
           overflow="visible"
           id="id-d78443ce-ba37-424c-990c-0373893851f1">
          <path
             style="stroke:none"
             d=""
             id="id-0a8135f9-d782-4634-8766-67cdf15bf2b5" />
        </symbol>
        <symbol
           overflow="visible"
           id="id-4a1c7ffc-da4e-43a2-8807-e4f7ae3ad5e2">
          <path
             style="stroke:none"
             d="m 5.140625,-6.8125 c 0,0 0,-0.109375 -0.125,-0.109375 -0.15625,0 -1.09375,0.09375 -1.265625,0.109375 -0.078125,0.015625 -0.140625,0.0625 -0.140625,0.1875 0,0.125 0.09375,0.125 0.234375,0.125 0.484375,0 0.5,0.0625 0.5,0.171875 L 4.3125,-6.125 3.71875,-3.765625 C 3.53125,-4.140625 3.25,-4.40625 2.796875,-4.40625 c -1.15625,0 -2.390625,1.46875 -2.390625,2.921875 0,0.9375 0.546875,1.59375 1.3125,1.59375 0.203125,0 0.703125,-0.046875 1.296875,-0.75 0.078125,0.421875 0.4375,0.75 0.90625,0.75 0.359375,0 0.578125,-0.234375 0.75,-0.546875 0.15625,-0.359375 0.296875,-0.96875 0.296875,-0.984375 0,-0.109375 -0.09375,-0.109375 -0.125,-0.109375 -0.09375,0 -0.109375,0.046875 -0.140625,0.1875 -0.171875,0.640625 -0.34375,1.234375 -0.75,1.234375 -0.28125,0 -0.296875,-0.265625 -0.296875,-0.453125 0,-0.25 0.015625,-0.3125 0.046875,-0.484375 z m -2.0625,5.625 C 3.015625,-1 3.015625,-0.984375 2.875,-0.8125 2.4375,-0.265625 2.03125,-0.109375 1.75,-0.109375 c -0.5,0 -0.640625,-0.546875 -0.640625,-0.9375 0,-0.5 0.3125,-1.71875 0.546875,-2.1875 0.3125,-0.578125 0.75,-0.953125 1.15625,-0.953125 0.640625,0 0.78125,0.8125 0.78125,0.875 0,0.0625 -0.015625,0.125 -0.03125,0.171875 z m 0,0"
             id="id-962893e4-ea67-490c-9d89-72084ed4af95" />
        </symbol>
        <symbol
           overflow="visible"
           id="id-0eda658d-5763-4745-8a46-0a50891e08d8">
          <path
             style="stroke:none"
             d="M 0.453125,1.21875 C 0.375,1.5625 0.34375,1.625 -0.09375,1.625 c -0.109375,0 -0.21875,0 -0.21875,0.1875 0,0.078125 0.046875,0.125 0.125,0.125 0.265625,0 0.5625,-0.03125 0.828125,-0.03125 0.34375,0 0.671875,0.03125 1,0.03125 0.046875,0 0.171875,0 0.171875,-0.203125 C 1.8125,1.625 1.71875,1.625 1.578125,1.625 c -0.5,0 -0.5,-0.0625 -0.5,-0.15625 0,-0.125 0.421875,-1.75 0.484375,-2 0.125,0.296875 0.40625,0.640625 0.921875,0.640625 1.15625,0 2.40625,-1.453125 2.40625,-2.921875 0,-0.9375 -0.578125,-1.59375 -1.328125,-1.59375 -0.5,0 -0.984375,0.359375 -1.3125,0.75 -0.09375,-0.546875 -0.53125,-0.75 -0.890625,-0.75 -0.46875,0 -0.65625,0.390625 -0.734375,0.5625 C 0.4375,-3.5 0.3125,-2.90625 0.3125,-2.875 c 0,0.109375 0.09375,0.109375 0.109375,0.109375 0.109375,0 0.109375,-0.015625 0.171875,-0.234375 0.171875,-0.703125 0.375,-1.1875 0.734375,-1.1875 0.171875,0 0.3125,0.078125 0.3125,0.453125 0,0.234375 -0.03125,0.34375 -0.078125,0.515625 z m 1.75,-4.328125 C 2.265625,-3.375 2.546875,-3.65625 2.71875,-3.8125 c 0.359375,-0.296875 0.640625,-0.375 0.8125,-0.375 0.390625,0 0.640625,0.34375 0.640625,0.9375 0,0.59375 -0.328125,1.734375 -0.515625,2.109375 -0.34375,0.703125 -0.8125,1.03125 -1.1875,1.03125 C 1.8125,-0.109375 1.6875,-0.9375 1.6875,-1 c 0,-0.015625 0,-0.03125 0.03125,-0.15625 z m 0,0"
             id="id-81ba3c51-1d8a-41fb-b17b-3c256e9be176" />
        </symbol>
        <symbol
           overflow="visible"
           id="id-e24f0ebe-0733-4f07-a38e-f6adc55de36b">
          <path
             style="stroke:none"
             d="m 2.03125,-0.015625 c 0,-0.65625 -0.25,-1.046875 -0.640625,-1.046875 -0.328125,0 -0.53125,0.25 -0.53125,0.53125 C 0.859375,-0.265625 1.0625,0 1.390625,0 1.5,0 1.640625,-0.046875 1.734375,-0.125 1.765625,-0.15625 1.78125,-0.15625 1.78125,-0.15625 c 0.015625,0 0.015625,0 0.015625,0.140625 0,0.75 -0.34375,1.34375 -0.671875,1.671875 -0.109375,0.109375 -0.109375,0.125 -0.109375,0.15625 0,0.078125 0.046875,0.109375 0.09375,0.109375 0.109375,0 0.921875,-0.765625 0.921875,-1.9375 z m 0,0"
             id="id-a70bce94-1a9d-438c-93e6-b10177f0c4fc" />
        </symbol>
        <symbol
           overflow="visible"
           id="id-3901f4f2-99b4-4dfe-af54-bc51db349e3f">
          <path
             style="stroke:none"
             d="m 4.5,-4.296875 c 0,-0.046875 -0.03125,-0.09375 -0.09375,-0.09375 -0.109375,0 -0.515625,0.390625 -0.671875,0.6875 C 3.515625,-4.25 3.125,-4.40625 2.796875,-4.40625 c -1.171875,0 -2.390625,1.46875 -2.390625,2.921875 0,0.96875 0.578125,1.59375 1.3125,1.59375 0.421875,0 0.8125,-0.234375 1.171875,-0.59375 -0.09375,0.34375 -0.421875,1.6875 -0.453125,1.78125 -0.078125,0.28125 -0.15625,0.3125 -0.71875,0.328125 -0.125,0 -0.21875,0 -0.21875,0.203125 0,0 0,0.109375 0.125,0.109375 0.3125,0 0.671875,-0.03125 1,-0.03125 0.328125,0 0.6875,0.03125 1.03125,0.03125 0.046875,0 0.171875,0 0.171875,-0.203125 C 3.828125,1.625 3.734375,1.625 3.5625,1.625 3.09375,1.625 3.09375,1.5625 3.09375,1.46875 3.09375,1.390625 3.109375,1.328125 3.125,1.25 Z m -2.75,4.1875 c -0.609375,0 -0.640625,-0.765625 -0.640625,-0.9375 0,-0.484375 0.28125,-1.5625 0.453125,-1.984375 0.3125,-0.734375 0.828125,-1.15625 1.234375,-1.15625 0.65625,0 0.796875,0.8125 0.796875,0.875 0,0.0625 -0.546875,2.25 -0.578125,2.28125 C 2.859375,-0.75 2.296875,-0.109375 1.75,-0.109375 Z m 0,0"
             id="id-bf820cb4-60b7-4989-8476-c397dd83b1b8" />
        </symbol>
        <symbol
           overflow="visible"
           id="id-33a70d42-6ff8-4e32-a4a0-d177cd9c3fac">
          <path
             style="stroke:none"
             d="m 1.90625,-0.53125 c 0,-0.28125 -0.234375,-0.53125 -0.515625,-0.53125 -0.296875,0 -0.53125,0.25 -0.53125,0.53125 C 0.859375,-0.234375 1.09375,0 1.390625,0 1.671875,0 1.90625,-0.234375 1.90625,-0.53125 Z m 0,0"
             id="id-69cd9114-436b-4d0c-858f-92940dbda8ee" />
        </symbol>
        <symbol
           overflow="visible"
           id="id-2d2a71f2-b941-4e42-8693-563475cbc8f2">
          <path
             style="stroke:none"
             d=""
             id="id-2368e9e8-ae2f-42a5-a08b-a0051f4e4ec3" />
        </symbol>
        <symbol
           overflow="visible"
           id="id-cccfef99-a6e8-4895-b5a5-9a6f9fe41647">
          <path
             style="stroke:none"
             d="m 3.296875,2.390625 c 0,-0.03125 0,-0.046875 -0.171875,-0.21875 C 1.890625,0.921875 1.5625,-0.96875 1.5625,-2.5 c 0,-1.734375 0.375,-3.46875 1.609375,-4.703125 0.125,-0.125 0.125,-0.140625 0.125,-0.171875 0,-0.078125 -0.03125,-0.109375 -0.09375,-0.109375 -0.109375,0 -1,0.6875 -1.59375,1.953125 -0.5,1.09375 -0.625,2.203125 -0.625,3.03125 0,0.78125 0.109375,1.984375 0.65625,3.125 C 2.25,1.84375 3.09375,2.5 3.203125,2.5 c 0.0625,0 0.09375,-0.03125 0.09375,-0.109375 z m 0,0"
             id="id-a37dcbba-3a37-40c2-8699-3711fb89fb3b" />
        </symbol>
        <symbol
           overflow="visible"
           id="id-089c217d-9c83-4fc7-a077-6f8036c8b93d">
          <path
             style="stroke:none"
             d="m 2.875,-2.5 c 0,-0.765625 -0.109375,-1.96875 -0.65625,-3.109375 -0.59375,-1.21875 -1.453125,-1.875 -1.546875,-1.875 -0.0625,0 -0.109375,0.046875 -0.109375,0.109375 0,0.03125 0,0.046875 0.1875,0.234375 0.984375,0.984375 1.546875,2.5625 1.546875,4.640625 0,1.71875 -0.359375,3.46875 -1.59375,4.71875 C 0.5625,2.34375 0.5625,2.359375 0.5625,2.390625 0.5625,2.453125 0.609375,2.5 0.671875,2.5 0.765625,2.5 1.671875,1.8125 2.25,0.546875 2.765625,-0.546875 2.875,-1.65625 2.875,-2.5 Z m 0,0"
             id="id-60b341a8-ee69-415f-acba-29b0708ca31a" />
        </symbol>
        <symbol
           overflow="visible"
           id="id-b954b0e9-d49d-4320-b230-685b93fe6663">
          <path
             style="stroke:none"
             d="m 6.84375,-3.265625 c 0.15625,0 0.34375,0 0.34375,-0.1875 C 7.1875,-3.65625 7,-3.65625 6.859375,-3.65625 h -5.96875 c -0.140625,0 -0.328125,0 -0.328125,0.203125 0,0.1875 0.1875,0.1875 0.328125,0.1875 z m 0.015625,1.9375 c 0.140625,0 0.328125,0 0.328125,-0.203125 0,-0.1875 -0.1875,-0.1875 -0.34375,-0.1875 H 0.890625 c -0.140625,0 -0.328125,0 -0.328125,0.1875 0,0.203125 0.1875,0.203125 0.328125,0.203125 z m 0,0"
             id="id-32e3bcae-51bc-4294-ae02-dbf285f84304" />
        </symbol>
        <symbol
           overflow="visible"
           id="id-4c0b84a9-7596-461d-b495-34bc2929941b">
          <path
             style="stroke:none"
             d="m 4.078125,-2.296875 h 2.78125 C 7,-2.296875 7.1875,-2.296875 7.1875,-2.5 7.1875,-2.6875 7,-2.6875 6.859375,-2.6875 h -2.78125 v -2.796875 c 0,-0.140625 0,-0.328125 -0.203125,-0.328125 -0.203125,0 -0.203125,0.1875 -0.203125,0.328125 V -2.6875 h -2.78125 c -0.140625,0 -0.328125,0 -0.328125,0.1875 0,0.203125 0.1875,0.203125 0.328125,0.203125 h 2.78125 V 0.5 c 0,0.140625 0,0.328125 0.203125,0.328125 0.203125,0 0.203125,-0.1875 0.203125,-0.328125 z m 0,0"
             id="id-53fd619b-0fd9-4f7e-bce1-6f73838b1fdb" />
        </symbol>
        <symbol
           overflow="visible"
           id="id-25f31711-d320-4f14-920b-143e40d6cc28">
          <path
             style="stroke:none"
             d=""
             id="id-c9fcc6b4-56f8-4b4e-9ae6-a998ae9b4ca6" />
        </symbol>
        <symbol
           overflow="visible"
           id="id-f294bfa4-2ba2-48b0-a52c-11a837d5bf40">
          <path
             style="stroke:none"
             d="m 4.234375,11.5625 c 0.296875,0 0.3125,-0.01563 0.40625,-0.203125 l 5.453125,-11.375 c 0.07813,-0.140625 0.07813,-0.15625 0.07813,-0.1875 0,-0.109375 -0.07813,-0.203125 -0.203125,-0.203125 -0.125,0 -0.171875,0.09375 -0.21875,0.203125 L 4.609375,10.53125 2.484375,5.578125 1.09375,6.65625 1.25,6.8125 1.953125,6.265625 Z m 0,0"
             id="id-a2cdf66f-1055-44d0-8b90-a74323777417" />
        </symbol>
        <symbol
           overflow="visible"
           id="id-8b6f2927-71ef-4df0-b3d4-039795e47c12">
          <path
             style="stroke:none"
             d="m 4.203125,5.328125 -3.546875,4.375 C 0.578125,9.796875 0.5625,9.8125 0.5625,9.859375 c 0,0.109375 0.09375,0.109375 0.28125,0.109375 h 8.25 L 9.953125,7.484375 h -0.25 C 9.453125,8.234375 8.796875,8.84375 7.9375,9.125 7.78125,9.1875 7.09375,9.421875 5.625,9.421875 H 1.390625 l 3.46875,-4.28125 C 4.921875,5.046875 4.9375,5.03125 4.9375,4.984375 4.9375,4.9375 4.9375,4.9375 4.875,4.84375 L 1.640625,0.40625 h 3.9375 c 1.140625,0 3.4375,0.0625 4.125,1.921875 h 0.25 L 9.09375,0 h -8.25 C 0.5625,0 0.5625,0.015625 0.5625,0.3125 Z m 0,0"
             id="id-33687ccd-6fad-4adc-bbd0-109782fb4e16" />
        </symbol>
        <symbol
           overflow="visible"
           id="id-98c03308-4d7a-495c-8e88-b9d470c0ea68">
          <path
             style="stroke:none"
             d=""
             id="id-74518a3b-b5a0-48e9-9b20-2ae52dec2385" />
        </symbol>
        <symbol
           overflow="visible"
           id="id-ac13f222-bbda-4b23-b7c2-bb0c36c308c4">
          <path
             style="stroke:none"
             d="m 0.84375,-0.4375 c -0.015625,0.09375 -0.0625,0.265625 -0.0625,0.28125 0,0.15625 0.125,0.21875 0.234375,0.21875 0.125,0 0.234375,-0.078125 0.28125,-0.140625 0.03125,-0.0625 0.078125,-0.296875 0.125,-0.4375 0.03125,-0.125 0.109375,-0.453125 0.140625,-0.625 0.046875,-0.15625 0.09375,-0.3125 0.125,-0.46875 0.078125,-0.28125 0.09375,-0.34375 0.296875,-0.625 C 2.171875,-2.515625 2.5,-2.875 3.03125,-2.875 c 0.390625,0 0.40625,0.359375 0.40625,0.484375 0,0.421875 -0.296875,1.1875 -0.40625,1.484375 -0.078125,0.203125 -0.109375,0.265625 -0.109375,0.375 0,0.375 0.296875,0.59375 0.65625,0.59375 0.703125,0 1,-0.953125 1,-1.0625 0,-0.09375 -0.078125,-0.09375 -0.109375,-0.09375 -0.09375,0 -0.09375,0.046875 -0.125,0.125 C 4.1875,-0.40625 3.875,-0.125 3.609375,-0.125 c -0.15625,0 -0.1875,-0.09375 -0.1875,-0.25 0,-0.15625 0.046875,-0.25 0.171875,-0.5625 0.078125,-0.21875 0.359375,-0.953125 0.359375,-1.34375 0,-0.671875 -0.53125,-0.796875 -0.90625,-0.796875 -0.578125,0 -0.96875,0.359375 -1.171875,0.640625 -0.046875,-0.484375 -0.453125,-0.640625 -0.75,-0.640625 -0.296875,0 -0.453125,0.21875 -0.546875,0.375 -0.15625,0.265625 -0.25,0.65625 -0.25,0.703125 0,0.078125 0.09375,0.078125 0.125,0.078125 0.09375,0 0.09375,-0.015625 0.140625,-0.203125 0.109375,-0.40625 0.25,-0.75 0.515625,-0.75 0.1875,0 0.234375,0.15625 0.234375,0.34375 0,0.125 -0.0625,0.390625 -0.125,0.578125 -0.046875,0.1875 -0.109375,0.46875 -0.140625,0.625 z m 0,0"
             id="id-a0345699-efce-4336-9e67-13185cf8cc99" />
        </symbol>
        <symbol
           overflow="visible"
           id="id-f3b911cc-cc06-4def-9d7a-99474db762ef">
          <path
             style="stroke:none"
             d="m 2.265625,-4.359375 c 0,-0.109375 -0.09375,-0.265625 -0.28125,-0.265625 -0.1875,0 -0.390625,0.1875 -0.390625,0.390625 0,0.109375 0.078125,0.265625 0.28125,0.265625 0.1875,0 0.390625,-0.203125 0.390625,-0.390625 z M 0.84375,-0.8125 c -0.03125,0.09375 -0.0625,0.171875 -0.0625,0.296875 0,0.328125 0.265625,0.578125 0.65625,0.578125 0.6875,0 1,-0.953125 1,-1.0625 0,-0.09375 -0.09375,-0.09375 -0.109375,-0.09375 -0.09375,0 -0.109375,0.046875 -0.140625,0.125 -0.15625,0.5625 -0.453125,0.84375 -0.734375,0.84375 -0.140625,0 -0.171875,-0.09375 -0.171875,-0.25 0,-0.15625 0.046875,-0.28125 0.109375,-0.4375 C 1.46875,-1 1.546875,-1.1875 1.609375,-1.375 1.671875,-1.546875 1.9375,-2.171875 1.953125,-2.265625 1.984375,-2.328125 2,-2.40625 2,-2.484375 2,-2.8125 1.71875,-3.078125 1.34375,-3.078125 0.640625,-3.078125 0.328125,-2.125 0.328125,-2 c 0,0.078125 0.09375,0.078125 0.125,0.078125 0.09375,0 0.09375,-0.03125 0.125,-0.109375 C 0.75,-2.625 1.0625,-2.875 1.3125,-2.875 c 0.109375,0 0.171875,0.046875 0.171875,0.234375 0,0.171875 -0.03125,0.265625 -0.203125,0.703125 z m 0,0"
             id="id-0977c1db-c7a1-407a-9055-eea53d1b817c" />
        </symbol>
        <symbol
           overflow="visible"
           id="id-0ca87cc4-ca2b-4911-bfcb-c3202a78739e">
          <path
             style="stroke:none"
             d=""
             id="id-92f650d3-f5ac-468d-9d9f-fb3cc37c726b" />
        </symbol>
        <symbol
           overflow="visible"
           id="id-0667a9d8-3d91-45e8-a0c0-988ac3a06e32">
          <path
             style="stroke:none"
             d="m 5.359375,-2.34375 c 0.09375,0 0.25,0 0.25,-0.171875 0,-0.171875 -0.15625,-0.171875 -0.25,-0.171875 H 0.75 c -0.09375,0 -0.265625,0 -0.265625,0.171875 0,0.171875 0.15625,0.171875 0.265625,0.171875 z m 0,1.53125 c 0.09375,0 0.25,0 0.25,-0.15625 0,-0.1875 -0.15625,-0.1875 -0.25,-0.1875 H 0.75 c -0.109375,0 -0.265625,0 -0.265625,0.1875 0,0.15625 0.171875,0.15625 0.265625,0.15625 z m 0,0"
             id="id-0c1a97f2-8c32-4aa0-ba36-250abf8a76ba" />
        </symbol>
        <symbol
           overflow="visible"
           id="id-e2d86380-aaa7-4137-b507-2ad959ddb113">
          <path
             style="stroke:none"
             d="m 2.328125,-4.4375 c 0,-0.1875 0,-0.1875 -0.203125,-0.1875 -0.453125,0.4375 -1.078125,0.4375 -1.359375,0.4375 v 0.25 c 0.15625,0 0.625,0 1,-0.1875 v 3.546875 c 0,0.234375 0,0.328125 -0.6875,0.328125 H 0.8125 V 0 c 0.125,0 0.984375,-0.03125 1.234375,-0.03125 0.21875,0 1.09375,0.03125 1.25,0.03125 V -0.25 H 3.03125 c -0.703125,0 -0.703125,-0.09375 -0.703125,-0.328125 z m 0,0"
             id="id-dfa83d22-2e7e-4e8e-b017-cab3bca1682a" />
        </symbol>
        <symbol
           overflow="visible"
           id="id-3fb5dd7e-d6ca-4f58-9210-b1ac2a6d1820">
          <path
             style="stroke:none"
             d="M 3.515625,-1.265625 H 3.28125 c -0.015625,0.15625 -0.09375,0.5625 -0.1875,0.625 C 3.046875,-0.59375 2.515625,-0.59375 2.40625,-0.59375 H 1.125 c 0.734375,-0.640625 0.984375,-0.84375 1.390625,-1.171875 0.515625,-0.40625 1,-0.84375 1,-1.5 0,-0.84375 -0.734375,-1.359375 -1.625,-1.359375 -0.859375,0 -1.453125,0.609375 -1.453125,1.25 0,0.34375 0.296875,0.390625 0.375,0.390625 0.15625,0 0.359375,-0.125 0.359375,-0.375 0,-0.125 -0.046875,-0.375 -0.40625,-0.375 C 0.984375,-4.21875 1.453125,-4.375 1.78125,-4.375 c 0.703125,0 1.0625,0.546875 1.0625,1.109375 0,0.609375 -0.4375,1.078125 -0.65625,1.328125 L 0.515625,-0.265625 C 0.4375,-0.203125 0.4375,-0.1875 0.4375,0 h 2.875 z m 0,0"
             id="id-862bc30a-45d5-4946-b8ce-a891da1ec824" />
        </symbol>
        <symbol
           overflow="visible"
           id="id-1cf3c287-1b7a-4e7b-9a0b-3a3e8fc6a085">
          <path
             style="stroke:none"
             d=""
             id="id-4a6e9ee9-7efa-4a07-ba0b-1889a42eab68" />
        </symbol>
        <symbol
           overflow="visible"
           id="id-5689e913-4271-4a15-b005-2d313df2b29e">
          <path
             style="stroke:none"
             d="m 6.5625,-2.296875 c 0.171875,0 0.359375,0 0.359375,-0.203125 0,-0.1875 -0.1875,-0.1875 -0.359375,-0.1875 H 1.171875 c -0.171875,0 -0.34375,0 -0.34375,0.1875 0,0.203125 0.171875,0.203125 0.34375,0.203125 z m 0,0"
             id="id-3cc1a448-3539-40c4-93b7-6970cd7d9198" />
        </symbol>
      </g>
    </defs>
  </defs>
  <g
     inkscape:label="Layer 1"
     inkscape:groupmode="layer"
     id="layer1"
     transform="translate(-188.63736,-55.794314)">
    <text
       xml:space="preserve"
       style="font-size:6.54389px;line-height:1.25;font-family:arial;-inkscape-font-specification:arial;letter-spacing:0px;word-spacing:0px;stroke-width:0.306745"
       x="198.06306"
       y="60.558445"
       id="text1737"><tspan
         sodipodi:role="line"
         id="tspan1735"
         style="font-weight:bold;stroke-width:0.306745"
         x="198.06306"
         y="60.558445">farm</tspan></text>
    <text
       xml:space="preserve"
       style="font-size:6.54389px;line-height:1.25;font-family:arial;-inkscape-font-specification:arial;letter-spacing:0px;word-spacing:0px;stroke-width:0.306745"
       x="229.20477"
       y="60.558445"
       id="text3933"><tspan
         sodipodi:role="line"
         id="tspan3931"
         style="font-weight:bold;stroke-width:0.306745"
         x="229.20477"
         y="60.558445">milk <tspan
   style="font-weight:normal"
   id="tspan1050">[L]</tspan></tspan></text>
    <text
       xml:space="preserve"
       style="font-size:6.54389px;line-height:1.25;font-family:arial;-inkscape-font-specification:arial;letter-spacing:0px;word-spacing:0px;stroke-width:0.306745"
       x="262.57083"
       y="60.558445"
       id="text3937"><tspan
         sodipodi:role="line"
         id="tspan3935"
         style="font-weight:bold;stroke-width:0.306745"
         x="262.57083"
         y="60.558445">outside <tspan
   style="font-weight:normal"
   id="tspan3044">[min]</tspan></tspan></text>
    <text
       xml:space="preserve"
       style="font-size:6.54389px;line-height:1.25;font-family:arial;-inkscape-font-specification:arial;letter-spacing:0px;word-spacing:0px;stroke-width:0.306745"
       x="313.04431"
       y="60.558445"
       id="text3941"><tspan
         sodipodi:role="line"
         id="tspan3939"
         style="font-weight:bold;stroke-width:0.306745"
         x="313.04431"
         y="60.558445">altitude <tspan
   style="font-weight:normal"
   id="tspan6118">[m]</tspan></tspan></text>
    <text
       xml:space="preserve"
       style="font-size:6.54389px;line-height:1.25;font-family:arial;-inkscape-font-specification:arial;letter-spacing:0px;word-spacing:0px;stroke-width:0.306745"
       x="359.03348"
       y="60.558445"
       id="text3945"><tspan
         sodipodi:role="line"
         id="tspan3943"
         style="font-weight:bold;stroke-width:0.306745"
         x="359.03348"
         y="60.558445">size <tspan
   style="font-weight:normal"
   id="tspan7842">[# cows]</tspan></tspan></text>
    <path
       style="fill:none;stroke:#000000;stroke-width:0.31299px;stroke-linecap:butt;stroke-linejoin:miter;stroke-opacity:1"
       d="M 188.63736,62.887446 H 404.75854"
       id="path7070"
       sodipodi:nodetypes="cc" />
    <path
       style="fill:none;stroke:#000000;stroke-width:0.31299px;stroke-linecap:butt;stroke-linejoin:miter;stroke-opacity:1"
       d="M 188.63736,71.743917 H 404.75854"
       id="path7265"
       sodipodi:nodetypes="cc" />
    <text
       xml:space="preserve"
       style="font-size:6.54389px;line-height:0.75;font-family:arial;-inkscape-font-specification:arial;letter-spacing:0px;word-spacing:0px;stroke-width:0.306745"
       x="204.39551"
       y="69.678001"
       id="text8743"><tspan
         sodipodi:role="line"
         id="tspan8741"
         style="stroke-width:0.306745"
         x="204.39551"
         y="69.678001">q</tspan><tspan
         sodipodi:role="line"
         style="stroke-width:0.306745"
         x="204.39551"
         y="74.585922"
         id="tspan8747" /><tspan
         sodipodi:role="line"
         style="stroke-width:0.306745"
         x="204.39551"
         y="79.493835"
         id="tspan8745">p</tspan></text>
    <text
       xml:space="preserve"
       style="font-size:6.54389px;line-height:0.75;font-family:arial;-inkscape-font-specification:arial;text-align:center;letter-spacing:0px;word-spacing:0px;text-anchor:middle;stroke-width:0.306745"
       x="240.83817"
       y="69.678001"
       id="text15351"><tspan
         sodipodi:role="line"
         id="tspan15345"
         style="text-align:center;text-anchor:middle;stroke-width:0.306745"
         x="240.83817"
         y="69.678001">112</tspan><tspan
         sodipodi:role="line"
         style="text-align:center;text-anchor:middle;stroke-width:0.306745"
         x="240.83817"
         y="74.585922"
         id="tspan15347" /><tspan
         sodipodi:role="line"
         style="text-align:center;text-anchor:middle;stroke-width:0.306745"
         x="240.83817"
         y="79.493835"
         id="tspan15349">55</tspan></text>
    <text
       xml:space="preserve"
       style="font-size:6.54389px;line-height:0.75;font-family:arial;-inkscape-font-specification:arial;text-align:center;letter-spacing:0px;word-spacing:0px;text-anchor:middle;stroke-width:0.306745"
       x="280.50665"
       y="69.678001"
       id="text15359"><tspan
         sodipodi:role="line"
         id="tspan15353"
         style="text-align:center;text-anchor:middle;stroke-width:0.306745"
         x="280.50665"
         y="69.678001">360</tspan><tspan
         sodipodi:role="line"
         style="text-align:center;text-anchor:middle;stroke-width:0.306745"
         x="280.50665"
         y="74.585922"
         id="tspan15355" /><tspan
         sodipodi:role="line"
         style="text-align:center;text-anchor:middle;stroke-width:0.306745"
         x="280.50665"
         y="79.493835"
         id="tspan15357">100</tspan></text>
    <text
       xml:space="preserve"
       style="font-size:6.54389px;line-height:0.75;font-family:arial;-inkscape-font-specification:arial;text-align:center;letter-spacing:0px;word-spacing:0px;text-anchor:middle;stroke-width:0.306745"
       x="330.46515"
       y="69.678001"
       id="text15367"><tspan
         sodipodi:role="line"
         id="tspan15361"
         style="text-align:center;text-anchor:middle;stroke-width:0.306745"
         x="330.46515"
         y="69.678001">340</tspan><tspan
         sodipodi:role="line"
         style="text-align:center;text-anchor:middle;stroke-width:0.306745"
         x="330.46515"
         y="74.585922"
         id="tspan15363" /><tspan
         sodipodi:role="line"
         style="text-align:center;text-anchor:middle;stroke-width:0.306745"
         x="330.46515"
         y="79.493835"
         id="tspan15365">600</tspan></text>
    <text
       xml:space="preserve"
       style="font-size:6.54389px;line-height:0.75;font-family:arial;-inkscape-font-specification:arial;text-align:center;letter-spacing:0px;word-spacing:0px;text-anchor:middle;stroke-width:0.306745"
       x="378.56714"
       y="69.678001"
       id="text15375"><tspan
         sodipodi:role="line"
         id="tspan15369"
         style="text-align:center;text-anchor:middle;stroke-width:0.306745"
         x="378.56714"
         y="69.678001">1200</tspan><tspan
         sodipodi:role="line"
         style="text-align:center;text-anchor:middle;stroke-width:0.306745"
         x="378.56714"
         y="74.585922"
         id="tspan15371" /><tspan
         sodipodi:role="line"
         style="text-align:center;text-anchor:middle;stroke-width:0.306745"
         x="378.56714"
         y="79.493835"
         id="tspan15373">350</tspan></text>
    <text
       xml:space="preserve"
       transform="matrix(0.26458333,0,0,0.26458333,163.95277,55.794314)"
       id="text4936"
       style="font-size:21.3333px;line-height:1.25;font-family:arial;-inkscape-font-specification:arial;letter-spacing:0px;word-spacing:0px;white-space:pre;shape-inside:url(#rect4938)" />
  </g>
</svg>
