<?xml version="1.0" encoding="UTF-8" standalone="no"?>
<!-- Created with Inkscape (http://www.inkscape.org/) -->

<svg
   width="142.47455mm"
   height="70.370361mm"
   viewBox="0 0 142.47455 70.370361"
   version="1.1"
   id="svg5"
   xml:space="preserve"
   sodipodi:docname="reinforcement_learning_3.svg"
   inkscape:version="1.2.2 (b0a8486541, 2022-12-01)"
   xmlns:inkscape="http://www.inkscape.org/namespaces/inkscape"
   xmlns:sodipodi="http://sodipodi.sourceforge.net/DTD/sodipodi-0.dtd"
   xmlns="http://www.w3.org/2000/svg"
   xmlns:svg="http://www.w3.org/2000/svg"><sodipodi:namedview
     id="namedview7"
     pagecolor="#ffffff"
     bordercolor="#000000"
     borderopacity="0.25"
     inkscape:showpageshadow="2"
     inkscape:pageopacity="0.0"
     inkscape:pagecheckerboard="0"
     inkscape:deskcolor="#d1d1d1"
     inkscape:document-units="mm"
     showgrid="false"
     inkscape:zoom="2.8284271"
     inkscape:cx="310.95021"
     inkscape:cy="161.39712"
     inkscape:window-width="2560"
     inkscape:window-height="1440"
     inkscape:window-x="0"
     inkscape:window-y="0"
     inkscape:window-maximized="1"
     inkscape:current-layer="layer1"><inkscape:grid
       type="xygrid"
       id="grid1792"
       originx="-79.765773"
       originy="-66.538983" /></sodipodi:namedview><defs
     id="defs2"><marker
   style="overflow:visible"
   id="RoundedArrow"
   refX="0"
   refY="0"
   orient="auto-start-reverse"
   inkscape:stockid="RoundedArrow"
   markerWidth="6.1347523"
   markerHeight="5.9304948"
   viewBox="0 0 6.1347524 5.9304951"
   inkscape:isstock="true"
   inkscape:collect="always"
   preserveAspectRatio="xMidYMid"><path
     transform="scale(0.7)"
     d="m -0.21114562,-4.1055728 6.42229122,3.21114561 a 1,1 90 0 1 0,1.78885438 L -0.21114562,4.1055728 A 1.236068,1.236068 31.717474 0 1 -2,3 v -6 a 1.236068,1.236068 148.28253 0 1 1.78885438,-1.1055728 z"
     style="fill:context-stroke;fill-rule:evenodd;stroke:none"
     id="path1367" /></marker><style
   id="style1016">.cls-1{fill:none;}</style>
	
	
	
	
	
	
	
	
	
	
</defs><g
     inkscape:label="Layer 1"
     inkscape:groupmode="layer"
     id="layer1"
     transform="translate(-79.765775,-66.53898)"><g
       id="g1076"
       transform="matrix(0.27869343,0,0,0.27869343,58.928037,63.395448)"
       style="fill:#f6a968;fill-opacity:1"><path
         d="m 129.56799,120.42201 -0.4781,-1.58591 c -0.0434,-0.14314 0.0209,-0.33047 0.13838,-0.42466 0.33364,-0.26511 0.63897,-0.57044 0.9099,-0.91096 0.0939,-0.11721 0.28152,-0.18071 0.42651,-0.13705 l 1.58379,0.47757 c 0.14473,0.0442 0.32412,-0.0262 0.39661,-0.15849 0.13547,-0.24712 0.26009,-0.50482 0.37069,-0.77179 0.1098,-0.26696 0.20346,-0.5371 0.2831,-0.8075 0.0421,-0.14605 -0.036,-0.322 -0.16854,-0.39238 l -1.45865,-0.78184 c -0.13255,-0.0714 -0.21987,-0.24898 -0.20373,-0.3982 0.0495,-0.43233 0.0482,-0.8644 5.3e-4,-1.28932 -0.0167,-0.14896 0.0714,-0.32702 0.204,-0.39846 l 1.45759,-0.78184 c 0.13282,-0.0712 0.21087,-0.24633 0.1688,-0.39238 -0.054,-0.18468 -0.11562,-0.36989 -0.18415,-0.55324 -0.0526,-0.14182 -0.14579,-0.36751 -0.20849,-0.50324 -0.0815,-0.17912 -0.16854,-0.35375 -0.26194,-0.52335 -0.0725,-0.13123 -0.25188,-0.20161 -0.39582,-0.15742 l -1.58432,0.47704 c -0.1442,0.0437 -0.33232,-0.0191 -0.42572,-0.13732 -0.26564,-0.33337 -0.57017,-0.63817 -0.9099,-0.90937 -0.118,-0.0942 -0.18283,-0.28258 -0.1389,-0.42572 l 0.47836,-1.58564 c 0.0426,-0.14447 -0.0265,-0.32412 -0.15848,-0.39609 -0.24712,-0.13573 -0.50456,-0.25929 -0.77179,-0.37068 -0.2675,-0.11033 -0.53605,-0.20399 -0.80857,-0.2839 -0.1442,-0.0426 -0.32041,0.0355 -0.39158,0.16881 l -0.78238,1.45918 c -0.0714,0.13255 -0.24897,0.22013 -0.39819,0.20293 -0.4326,-0.0497 -0.86334,-0.0487 -1.28747,-5.3e-4 -0.14896,0.0175 -0.32781,-0.0706 -0.39925,-0.20267 l -0.78185,-1.45865 c -0.0714,-0.13229 -0.24818,-0.2114 -0.39264,-0.17012 -0.18547,0.0558 -0.36936,0.11641 -0.55404,0.18547 -0.14102,0.0524 -0.36618,0.14552 -0.50297,0.20955 -0.17859,0.0799 -0.35269,0.16722 -0.52229,0.26061 -0.13255,0.0725 -0.20161,0.25136 -0.15848,0.39635 l 0.47837,1.58485 c 0.0434,0.14341 -0.0214,0.331 -0.13865,0.42545 -0.33311,0.26565 -0.6387,0.57045 -0.90963,0.91096 -0.0945,0.11721 -0.28099,0.18098 -0.42598,0.13626 l -1.58459,-0.47677 c -0.14552,-0.0442 -0.32412,0.0262 -0.39688,0.15822 -0.1352,0.24738 -0.26008,0.50429 -0.37068,0.77232 -0.11033,0.26696 -0.20346,0.5371 -0.28443,0.80645 -0.0413,0.14605 0.0365,0.32226 0.16987,0.39343 l 1.45838,0.78105 c 0.13229,0.0717 0.2204,0.2495 0.20294,0.39926 -0.049,0.4318 -0.0484,0.8636 -2.7e-4,1.28958 0.0164,0.14869 -0.0714,0.32649 -0.20346,0.39819 l -1.45759,0.78158 c -0.13335,0.0704 -0.21167,0.24633 -0.16907,0.39264 0.0542,0.18442 0.11615,0.37042 0.18415,0.55298 0.0524,0.14261 0.14631,0.36751 0.20823,0.50298 0.0823,0.17938 0.16986,0.35401 0.2622,0.52281 0.0725,0.13203 0.25135,0.20241 0.39608,0.15822 l 1.58379,-0.47757 c 0.14473,-0.0426 0.33259,0.0201 0.42651,0.13706 0.26538,0.33469 0.57018,0.63923 0.91017,0.91122 0.11747,0.0939 0.18256,0.28125 0.13838,0.42439 l -0.47784,1.58671 c -0.0439,0.14446 0.0257,0.32385 0.15822,0.39555 0.24659,0.13573 0.50456,0.25903 0.77205,0.37068 0.26697,0.11007 0.53579,0.204 0.80778,0.28443 0.14419,0.0415 0.32041,-0.036 0.39158,-0.16881 l 0.78211,-1.45997 c 0.0722,-0.13255 0.24977,-0.22013 0.39899,-0.2032 0.4318,0.049 0.86307,0.0484 1.2872,0.001 0.15028,-0.0177 0.32835,0.0701 0.39899,0.20294 l 0.7829,1.45865 c 0.0701,0.13282 0.24765,0.21113 0.39159,0.16959 0.1852,-0.0558 0.37068,-0.11641 0.55403,-0.18573 0.14155,-0.0516 0.36724,-0.14579 0.50403,-0.20797 0.17833,-0.0807 0.35243,-0.16827 0.52203,-0.26167 0.13202,-0.0722 0.20267,-0.25188 0.15848,-0.39661 z m -1.28825,-5.43084 c -0.61093,1.47241 -2.2987,2.17091 -3.77111,1.56157 -1.47241,-0.61065 -2.17249,-2.29843 -1.56236,-3.77243 0.61039,-1.47161 2.29922,-2.17064 3.77137,-1.56104 1.47161,0.60881 2.17196,2.29844 1.5621,3.7719 z"
         id="path870"
         style="fill:#f6a968;fill-opacity:1;stroke-width:0.264583" /><path
         d="m 141.80153,113.42616 c -0.009,-0.0815 -0.0841,-0.15293 -0.16457,-0.1606 l -0.88662,-0.0884 c -0.0807,-0.008 -0.1606,-0.0786 -0.18309,-0.1561 -0.0646,-0.22517 -0.15425,-0.43974 -0.26538,-0.64109 -0.0389,-0.0706 -0.032,-0.17727 0.0193,-0.24024 l 0.56383,-0.68898 c 0.0513,-0.0627 0.054,-0.16589 0.003,-0.22992 -0.0648,-0.0807 -0.13335,-0.16007 -0.20532,-0.23707 -0.0556,-0.0595 -0.14843,-0.15266 -0.20717,-0.20717 -0.0775,-0.0722 -0.1569,-0.14128 -0.23812,-0.20637 -0.063,-0.0503 -0.16669,-0.0484 -0.22913,0.003 l -0.68977,0.56357 c -0.0627,0.0513 -0.16907,0.059 -0.23972,0.0193 -0.20081,-0.11112 -0.41486,-0.19976 -0.64002,-0.26458 -0.0781,-0.0225 -0.14896,-0.10292 -0.1569,-0.18309 l -0.0886,-0.88715 c -0.008,-0.0807 -0.0799,-0.15558 -0.16007,-0.16431 -0.15081,-0.0167 -0.30453,-0.0251 -0.46037,-0.0254 -0.15558,2.7e-4 -0.30851,0.009 -0.46064,0.0254 -0.0804,0.009 -0.15187,0.0839 -0.15981,0.16457 l -0.0886,0.88689 c -0.008,0.0807 -0.0786,0.1606 -0.15637,0.18282 -0.22542,0.0643 -0.4392,0.15373 -0.64029,0.26485 -0.0706,0.0394 -0.1778,0.0326 -0.24024,-0.0185 l -0.68924,-0.56436 c -0.0627,-0.0513 -0.16695,-0.054 -0.23019,-0.004 -0.0807,0.0659 -0.1598,0.13388 -0.23733,0.20638 -0.0593,0.055 -0.15187,0.14763 -0.2069,0.20769 -0.0722,0.0765 -0.14076,0.15584 -0.20585,0.23707 -0.0508,0.0635 -0.0487,0.16669 0.003,0.22966 l 0.56436,0.68977 c 0.0511,0.0624 0.0577,0.16907 0.0188,0.24024 -0.11112,0.20082 -0.20028,0.41513 -0.26458,0.64029 -0.023,0.0778 -0.10266,0.1479 -0.18388,0.15558 l -0.88609,0.0892 c -0.0818,0.008 -0.15584,0.0799 -0.16484,0.16034 -0.0164,0.15081 -0.0257,0.30427 -0.0254,0.46064 2.7e-4,0.15531 0.009,0.30877 0.0246,0.45958 0.01,0.0812 0.0844,0.15266 0.16563,0.1606 l 0.88635,0.0881 c 0.0804,0.008 0.16087,0.0786 0.18283,0.15663 0.0648,0.2249 0.15399,0.43947 0.26564,0.64109 0.0386,0.0706 0.0317,0.177 -0.0191,0.23997 l -0.56383,0.68898 c -0.0519,0.0624 -0.0548,0.16616 -0.003,0.23019 0.0651,0.0804 0.13441,0.16033 0.20558,0.23706 0.0553,0.0601 0.14844,0.15267 0.20691,0.20717 0.078,0.0722 0.15769,0.14102 0.23812,0.20585 0.0632,0.0505 0.16669,0.0489 0.22966,-0.003 l 0.68898,-0.56383 c 0.0632,-0.0511 0.16959,-0.0585 0.24024,-0.0198 0.20108,0.11191 0.41513,0.20055 0.64029,0.2659 0.0781,0.0225 0.14896,0.10213 0.15637,0.1823 l 0.0892,0.88741 c 0.008,0.081 0.0796,0.15584 0.16008,0.16404 0.15054,0.0167 0.30427,0.0251 0.46037,0.0254 0.15558,-2.6e-4 0.30851,-0.009 0.46038,-0.0249 0.0804,-0.009 0.15187,-0.0839 0.1598,-0.16483 l 0.0884,-0.88715 c 0.008,-0.081 0.0788,-0.16087 0.15636,-0.18309 0.2249,-0.0648 0.43921,-0.15373 0.64056,-0.26459 0.0712,-0.0397 0.17754,-0.0328 0.23998,0.0188 l 0.68977,0.56409 c 0.0622,0.0516 0.16668,0.054 0.22965,0.004 0.0807,-0.0659 0.16034,-0.13415 0.23707,-0.20638 0.0598,-0.055 0.15267,-0.14843 0.2077,-0.20743 0.072,-0.077 0.14049,-0.15637 0.20558,-0.2376 0.0505,-0.0627 0.0489,-0.16642 -0.003,-0.22939 l -0.56462,-0.6903 c -0.0511,-0.0622 -0.0577,-0.16854 -0.0185,-0.23945 0.11139,-0.20055 0.20029,-0.41566 0.26485,-0.64055 0.0225,-0.0775 0.10265,-0.14791 0.18362,-0.15584 l 0.88609,-0.0889 c 0.0812,-0.008 0.15584,-0.0796 0.16483,-0.16061 0.0167,-0.15028 0.0257,-0.30427 0.0257,-0.45984 -5.3e-4,-0.15531 -0.01,-0.30877 -0.0257,-0.45985 z m -4.2291,2.01375 c -0.85804,-2.7e-4 -1.5539,-0.69533 -1.55416,-1.55443 5.3e-4,-0.85752 0.69638,-1.55311 1.55416,-1.55311 0.85699,-5.2e-4 1.55337,0.69533 1.55364,1.5539 -2.7e-4,0.85831 -0.69586,1.55337 -1.55364,1.55364 z"
         id="path872"
         style="fill:#f6a968;fill-opacity:1;stroke-width:0.264583" /><path
         d="m 140.82945,122.74426 -1.20306,-0.12012 c -0.10954,-0.0111 -0.21801,-0.10637 -0.24844,-0.21193 -0.0876,-0.3056 -0.20929,-0.59664 -0.3601,-0.87022 -0.0529,-0.0958 -0.0434,-0.24077 0.0262,-0.32597 l 0.76544,-0.93503 c 0.0696,-0.0849 0.0733,-0.22516 0.004,-0.31221 -0.0881,-0.10954 -0.18124,-0.21722 -0.27887,-0.32173 -0.0754,-0.081 -0.20135,-0.20744 -0.28125,-0.28126 -0.10504,-0.0982 -0.21273,-0.19208 -0.32359,-0.28019 -0.0855,-0.0683 -0.22595,-0.0656 -0.31088,0.005 l -0.9361,0.76491 c -0.0849,0.0699 -0.22966,0.0799 -0.32543,0.0262 -0.27253,-0.15055 -0.5633,-0.2712 -0.86837,-0.35904 -0.10583,-0.0307 -0.20267,-0.1397 -0.21299,-0.24845 l -0.12038,-1.20385 c -0.0116,-0.10954 -0.10822,-0.2114 -0.21749,-0.22304 -0.20452,-0.0225 -0.41328,-0.0341 -0.62442,-0.0344 -0.2114,2.6e-4 -0.41883,0.0119 -0.62494,0.0344 -0.10927,0.0116 -0.20638,0.11377 -0.21696,0.2233 l -0.12012,1.20359 c -0.0114,0.10954 -0.10663,0.21802 -0.2122,0.24818 -0.30586,0.0873 -0.59637,0.20849 -0.86915,0.35931 -0.0955,0.0534 -0.24104,0.0442 -0.32597,-0.0251 l -0.9353,-0.76597 c -0.0852,-0.0696 -0.22649,-0.0733 -0.31274,-0.005 -0.10927,0.0894 -0.21643,0.18203 -0.32226,0.28019 -0.0804,0.0746 -0.20611,0.20055 -0.28099,0.28178 -0.0979,0.10372 -0.19129,0.2114 -0.27966,0.32173 -0.0691,0.086 -0.0656,0.22596 0.004,0.31195 l 0.76624,0.93583 c 0.0693,0.0847 0.0781,0.22939 0.0254,0.32597 -0.15055,0.27225 -0.27146,0.56356 -0.35904,0.86889 -0.031,0.10557 -0.13891,0.20082 -0.24924,0.21113 l -1.20279,0.12145 c -0.1106,0.0106 -0.21141,0.10821 -0.22384,0.21749 -0.022,0.20478 -0.0347,0.41301 -0.0341,0.62494 2.6e-4,0.21087 0.0127,0.4191 0.0333,0.62362 0.013,0.11007 0.11483,0.20717 0.2249,0.21776 l 1.20253,0.11959 c 0.10927,0.0114 0.21855,0.10663 0.24844,0.21272 0.0879,0.30507 0.20876,0.59637 0.36037,0.87022 0.0526,0.0955 0.0431,0.24024 -0.0262,0.32544 l -0.76517,0.93503 c -0.0707,0.0847 -0.0741,0.22569 -0.005,0.31248 0.0881,0.109 0.18203,0.21722 0.27887,0.32173 0.0751,0.0815 0.20161,0.20717 0.28125,0.28125 0.10557,0.0979 0.21379,0.19129 0.32332,0.2794 0.0857,0.0691 0.22596,0.0664 0.31168,-0.004 l 0.93531,-0.76517 c 0.0857,-0.0693 0.22992,-0.0794 0.32596,-0.0272 0.27279,0.15187 0.56356,0.27225 0.86916,0.36089 0.10557,0.0304 0.20188,0.13837 0.21193,0.24765 l 0.12118,1.20438 c 0.0109,0.1098 0.10795,0.21167 0.21722,0.22304 0.20426,0.0228 0.41328,0.0339 0.62468,0.0344 0.21114,-2.6e-4 0.41857,-0.0122 0.62468,-0.0339 0.10901,-0.0124 0.20638,-0.11377 0.21723,-0.22357 l 0.11959,-1.20385 c 0.0116,-0.10981 0.10716,-0.21829 0.21246,-0.24845 0.30506,-0.0878 0.59637,-0.20875 0.86916,-0.35904 0.0963,-0.054 0.24103,-0.0447 0.32596,0.0254 l 0.9361,0.76571 c 0.0844,0.0701 0.22595,0.073 0.31168,0.005 0.10927,-0.0897 0.21748,-0.18203 0.322,-0.28045 0.0812,-0.0743 0.20716,-0.20109 0.28204,-0.28126 0.0976,-0.10451 0.19077,-0.21219 0.27914,-0.32279 0.0688,-0.0849 0.0661,-0.22595 -0.004,-0.31141 l -0.76623,-0.93663 c -0.0693,-0.0844 -0.0783,-0.22886 -0.0254,-0.32517 0.15108,-0.27226 0.27173,-0.56383 0.3593,-0.86942 0.0304,-0.10504 0.13944,-0.20056 0.24924,-0.21167 l 1.2028,-0.12065 c 0.11006,-0.0106 0.21113,-0.10795 0.22357,-0.21775 0.022,-0.20426 0.0344,-0.41328 0.0344,-0.62415 -5.3e-4,-0.21088 -0.013,-0.41937 -0.0347,-0.62415 -0.0124,-0.11007 -0.11404,-0.20717 -0.22358,-0.21749 z m -5.51603,2.95037 c -1.16443,-5.3e-4 -2.10899,-0.94351 -2.10926,-2.10926 5.3e-4,-1.16364 0.94509,-2.10794 2.10926,-2.10794 1.16311,-5.3e-4 2.10846,0.94377 2.10873,2.109 -5.3e-4,1.16469 -0.94483,2.10767 -2.10873,2.1082 z"
         id="path874"
         style="fill:#f6a968;fill-opacity:1;stroke-width:0.264583" /></g><path
       d="m 111.24065,102.3611 a 1.3998555,1.3998555 0 0 0 -0.84992,0.0625 c -0.38432,0.10465 -0.75269,0.2759 -1.12788,0.41862 0.0661,-0.0972 -0.26677,-0.64833 -0.4635,-0.60929 a 1.284683,1.284683 0 0 0 -0.70632,0.5093 7.5744811,7.5744811 0 0 0 -0.5315,1.10313 1.4445638,1.4445638 0 0 1 -0.28888,0.53038 c -0.86319,0.66715 -1.73625,1.32312 -2.62919,1.94882 a 2.8876757,2.8876757 0 0 1 -3.51552,0.0296 c -0.60749,-0.40852 -1.136468,-0.9287 -1.723006,-1.36964 a 6.2247268,6.2247268 0 0 1 -2.382446,-4.08827 7.7953783,7.7953783 0 0 0 1.221816,-0.8351 c 0.999493,-0.998923 2.001356,-2.013663 2.182856,-3.475597 a 3.9933491,3.9933491 0 0 0 0.15365,-0.522941 3.3709116,3.3709116 0 0 0 0.0304,-0.891291 2.1920726,2.1920726 0 0 0 -0.39236,-1.408019 5.8557093,5.8557093 0 0 0 -5.094808,-2.566416 c -0.298952,0.0098 -0.839767,-0.0927 -0.850938,-0.200568 a 2.8154537,2.8154537 0 0 1 0.221519,-1.069812 c 0.03959,-0.124057 0.196532,-0.209937 0.279648,-0.327193 0.154435,-0.217796 0.49372,-0.446038 0.144832,-0.710615 -0.338149,-0.256424 -0.624951,-0.02528 -0.801296,0.277179 -0.237414,0.407252 -0.424793,0.842432 -0.633632,1.265579 a 9.3672122,9.3672122 0 0 1 0.414053,-1.472321 c 0.0439,-0.135425 0.08212,-0.354945 0.01372,-0.419639 a 0.47238809,0.47238809 0 0 0 -0.424715,-0.01764 0.73005481,0.73005481 0 0 0 -0.376463,0.355806 c -0.183048,0.579679 -0.318904,1.172742 -0.476474,1.777232 -0.04135,-0.05919 -0.15953,-0.148163 -0.154238,-0.233925 a 8.2811759,8.2811759 0 0 1 0.164821,-1.557006 c 0.08094,-0.313925 0.121314,-0.555611 -0.200863,-0.613661 a 0.723459,0.723459 0 0 0 -0.567252,0.270143 1.5336072,1.5336072 0 0 0 -0.194219,0.697052 2.628246,2.628246 0 0 0 0.652779,2.355361 7.5764621,7.5764621 0 0 0 -0.981658,1.043687 8.8801183,8.8801183 0 0 0 -1.064305,2.053998 1.1705165,1.1705165 0 0 0 -0.04527,0.241549 c -0.0039,0.0078 -0.0078,0.0098 -0.01176,0.01764 -0.455817,1.205588 0.0733,2.441143 0.583226,3.552777 a 3.4277433,3.4277433 0 0 0 2.508169,2.139801 c -0.07702,0.16149 -0.151887,0.31575 -0.208252,0.47191 -0.420481,1.16559 -0.773622,2.35816 -1.270282,3.49222 a 7.9210098,7.9210098 0 0 1 -1.306853,2.06524 c -0.781109,0.87671 -1.839926,0.87679 -2.817726,0.50199 a 22.841671,22.841671 0 0 1 -3.131526,-1.484 1.6071773,1.6071773 0 0 1 -0.967499,-1.31175 9.6998492,9.6998492 0 0 1 -0.262566,-1.02899 c -0.0027,-0.0118 -0.0027,-0.0231 -0.0045,-0.0349 -0.02665,-0.0533 -0.05274,-0.10642 -0.07647,-0.15855 -0.237564,-0.52269 -0.573716,-0.64006 -0.925985,-0.19011 -0.707389,-0.29971 -1.358124,-0.57973 -2.012586,-0.85135 a 0.88960374,0.88960374 0 0 0 -0.115434,-0.0382 c -0.327487,0.0747 -0.445226,0.46424 -0.458272,0.82395 a 2.068396,2.068396 0 0 0 0.477538,1.25662 3.4473234,3.4473234 0 0 0 0.49739,0.57203 c 0.449977,0.2383 0.930699,0.43803 1.39676,0.64126 0.516029,0.22505 1.126737,0.25011 1.635605,0.48576 1.282198,0.59387 2.493415,1.34409 3.804895,1.86268 a 3.3000276,3.3000276 0 0 0 3.109549,-0.28449 9.1952598,9.1952598 0 0 0 0.737346,-0.586 c -0.409075,2.08212 -0.896602,4.16412 -1.209312,6.26614 -0.31959,2.14824 -0.546303,4.31454 -0.665833,6.47594 a 3.9351847,3.9351847 0 0 0 2.193774,3.7947 8.0599313,8.0599313 0 0 0 0.778424,0.38287 c -0.510045,3.63852 -1.019522,7.27323 -1.542581,11.00487 a 16.48649,16.48649 0 0 0 -2.009922,0.0176 c -0.776411,0.0956 -1.608157,0.16012 -2.197117,0.80397 -0.194963,0.21315 -0.421572,0.59788 -0.352124,0.79804 a 0.99215501,0.99215501 0 0 0 0.733131,0.47851 6.8568142,6.8568142 0 0 0 1.765409,0.004 13.707183,13.707183 0 0 0 2.070618,-0.4965 c 0.201451,-0.061 0.484411,-0.29188 0.507341,-0.4665 0.183636,-1.39758 0.267458,-2.8054 0.4703,-4.20035 0.370956,-2.5504 0.797003,-5.09481 1.213898,-7.63994 0.002,-0.0176 0.0039,-0.0333 0.0059,-0.0498 a 11.394244,11.394244 0 0 0 4.73765,0.38491 c 0.267419,-0.0269 0.533897,-0.0674 0.816974,-0.10367 0.04841,0.94309 0.0633,1.79495 0.141108,2.63883 0.208878,2.26605 0.389516,4.53781 0.686234,6.78992 0.259893,1.97279 0.23708,2.63723 2.07648,2.73745 a 9.2145598,9.2145598 0 0 0 2.34244,-0.12895 1.0127617,1.0127617 0 0 0 0.56714,-1.53208 c -0.41651,-0.50107 -1.90515,-0.78693 -2.53622,-0.51024 -0.52039,0.2281 -1.05488,0.42175 -1.64294,0.65435 a 5.1181876,5.1181876 0 0 1 -0.17011,-0.63003 c -0.1854,-1.43655 -0.412331,-2.86889 -0.526334,-4.3139 -0.139148,-1.76292 -0.18344,-3.53674 -0.262284,-5.30631 a 0.76850958,0.76850958 0 0 1 0.465655,-0.77701 3.74415,3.74415 0 0 0 1.813133,-2.60697 9.6770282,9.6770282 0 0 0 0.0915,-3.74566 c -0.31474,-1.67487 -0.3304,-3.42149 -0.71396,-5.07394 a 42.059601,42.059601 0 0 0 -1.607352,-4.75946 c -0.329095,-0.90738 -0.728665,-1.78709 -1.090802,-2.66533 0.939091,0.68631 1.865344,1.32457 2.745854,2.0197 a 2.9164339,2.9164339 0 0 0 2.11752,0.48198 c 1.20596,-0.0739 2.12821,-0.82777 3.02915,-1.52812 a 7.8709293,7.8709293 0 0 1 3.11442,-1.54977 10.450236,10.450236 0 0 0 1.96528,-0.63183 c 0.26259,-0.11837 0.5952,-0.53938 0.56384,-0.76547 a 1.2012088,1.2012088 0 0 0 -0.67197,-0.717 z m -30.677529,1.56241 a 0.87080675,0.87080675 0 0 1 -0.336769,-0.46941 1.9436618,1.9436618 0 0 1 -0.0086,-0.57978 1.9087383,1.9087383 0 0 1 0.55942,0.0157 2.0535764,2.0535764 0 0 1 1.555882,1.95163 c -0.6477,-0.33072 -1.221924,-0.60223 -1.769941,-0.91747 z m 6.454687,32.31632 c 1.118145,-1.01881 2.29252,-0.92023 3.447035,-0.86099 0.121117,0.006 0.221029,0.25658 0.387164,0.46415 a 8.4473259,8.4473259 0 0 1 -3.834199,0.39684 z m 16.907922,-1.04743 c 0.0851,0.0598 0.19896,0.22454 0.17344,0.26636 -0.0886,0.14483 -0.22894,0.3553 -0.35659,0.36481 -0.71872,0.0537 -1.44041,0.0751 -2.15902,0.0651 a 3.5928252,3.5928252 0 0 1 -0.81208,-0.21852 c 0.75177,-0.83185 2.35048,-1.04318 3.15427,-0.47781 z M 91.319681,97.802812 c -1.041962,-1.427029 -0.662638,-3.333727 0.609467,-4.613377 a 1.6684945,1.6684945 0 0 1 0.597297,-0.585225 4.6234349,4.6234349 0 0 1 2.668033,-0.694642 5.5109802,5.5109802 0 0 1 4.060902,1.611097 2.0740948,2.0740948 0 0 1 0.677532,1.721768 5.7940553,5.7940553 0 0 1 -2.908836,4.775537 c -0.649213,0.40762 -2.732785,0.10485 -3.072737,-0.03254 a 3.4932192,3.4932192 0 0 1 -2.631658,-2.182563 z m 8.251505,11.453498 a 40.997686,40.997686 0 0 1 1.248904,4.81169 41.954768,41.954768 0 0 1 0.54361,4.36013 c 0.15463,1.72584 -0.14385,3.39248 -1.448622,4.68303 a 3.111399,3.111399 0 0 1 -1.757398,0.70804 c -1.950559,0.20896 -3.856767,0.11779 -5.653459,-0.77542 a 3.7309792,3.7309792 0 0 1 -2.293352,-3.61391 40.446801,40.446801 0 0 1 1.245863,-9.37705 c 0.641119,-2.64665 1.367294,-5.27578 2.077457,-7.90756 a 12.845,12.845 0 0 1 0.534936,-1.37405 c 0.711809,0.0994 1.346069,0.16678 1.967177,0.29044 0.14052,0.028 0.284881,0.23164 0.344088,0.38834 0.607056,1.60571 1.163001,3.23306 1.803747,4.82393 0.409781,1.01746 1.047705,1.9446 1.387049,2.9824 z m 9.724184,-5.37625 -0.0759,-0.2369 1.88783,-0.67387 q 0.0376,0.11798 0.0752,0.23585 -0.94367,0.33746 -1.88733,0.67492 z"
       id="path1038"
       style="fill:#689cce;fill-opacity:1;stroke-width:0.518537" /><path
       style="fill:none;stroke:#9fcb81;stroke-width:0.5;stroke-linejoin:round;stroke-dasharray:none;stroke-opacity:1;marker-end:url(#RoundedArrow)"
       d="m 175.94791,120.38542 c 0,0 -35.71875,15.87499 -70.11458,0"
       id="path1794" /><path
       style="fill:none;stroke:#689cce;stroke-width:0.5;stroke-linejoin:round;stroke-dasharray:none;stroke-opacity:1;marker-end:url(#RoundedArrow)"
       d="m 103.75317,99.911156 c 0,0 35.71875,-15.87499 70.11458,0"
       id="path2015" /><path
       style="fill:#f6a968;fill-opacity:1;stroke:#f6a968;stroke-width:0.499999;stroke-linejoin:round;stroke-dasharray:none;stroke-opacity:1;marker-end:url(#RoundedArrow)"
       d="M 175.94791,111.125 H 105.83333"
       id="path2023" /><text
       xml:space="preserve"
       style="font-size:4.93889px;line-height:1.3;font-family:Arial;-inkscape-font-specification:Arial;text-align:center;text-anchor:middle;fill:#689cce;fill-opacity:1;stroke:none;stroke-width:0.499999;stroke-linejoin:round;stroke-dasharray:none;stroke-opacity:1"
       x="138.97522"
       y="90.895889"
       id="text2045"><tspan
         sodipodi:role="line"
         id="tspan2043"
         style="font-size:4.93889px;fill:#689cce;fill-opacity:1;stroke:none;stroke-width:0.5"
         x="138.97522"
         y="90.895889">generierter Text</tspan></text><text
       xml:space="preserve"
       style="font-size:4.93889px;line-height:1.3;font-family:Arial;-inkscape-font-specification:Arial;text-align:center;text-anchor:middle;fill:#9fcb81;fill-opacity:1;stroke:none;stroke-width:0.499999;stroke-linejoin:round;stroke-dasharray:none;stroke-opacity:1"
       x="138.97522"
       y="133.41483"
       id="text2879"><tspan
         sodipodi:role="line"
         id="tspan2877"
         style="font-size:4.93889px;fill:#9fcb81;fill-opacity:1;stroke:none;stroke-width:0.5"
         x="138.97522"
         y="133.41483">Prompt</tspan></text><text
       xml:space="preserve"
       style="font-size:4.93889px;line-height:1.3;font-family:Arial;-inkscape-font-specification:Arial;text-align:center;text-anchor:middle;fill:#f6a968;fill-opacity:1;stroke:none;stroke-width:0.499999;stroke-linejoin:round;stroke-dasharray:none;stroke-opacity:1"
       x="138.97522"
       y="116.16468"
       id="text2883"><tspan
         sodipodi:role="line"
         id="tspan2881"
         style="font-size:4.93889px;fill:#f6a968;fill-opacity:1;stroke:none;stroke-width:0.5"
         x="138.97522"
         y="116.16468">Belohnung</tspan></text><text
       xml:space="preserve"
       style="font-size:7.05556px;line-height:1.3;font-family:Arial;-inkscape-font-specification:Arial;text-align:center;text-anchor:middle;fill:#689cce;fill-opacity:1;stroke:none;stroke-width:0.499999;stroke-linejoin:round;stroke-dasharray:none;stroke-opacity:1"
       x="103.04749"
       y="83.891289"
       id="text4429-3"><tspan
         sodipodi:role="line"
         id="tspan4427-6"
         style="font-size:7.05556px;fill:#689cce;fill-opacity:1;stroke:none;stroke-width:0.5"
         x="103.04749"
         y="83.891289">Sprachmodell</tspan></text><rect
       style="fill:none;stroke:#9fcb81;stroke-width:0.712;stroke-linejoin:round;stroke-dasharray:none;stroke-opacity:1"
       id="rect1130-6"
       width="43.586834"
       height="36.521507"
       x="178.32713"
       y="93.622253"
       ry="6.3036914" /><text
       xml:space="preserve"
       style="font-size:6.69884px;line-height:1.3;font-family:Arial;-inkscape-font-specification:Arial;text-align:center;text-anchor:middle;fill:#9fcb81;fill-opacity:1;stroke:none;stroke-width:0.47472;stroke-linejoin:round;stroke-dasharray:none;stroke-opacity:1"
       x="200.09306"
       y="101.6898"
       id="text4429-7"><tspan
         sodipodi:role="line"
         id="tspan4427-5"
         style="font-size:6.69884px;fill:#9fcb81;fill-opacity:1;stroke:none;stroke-width:0.474721"
         x="200.09306"
         y="101.6898">menschliches</tspan><tspan
         sodipodi:role="line"
         style="font-size:6.69884px;fill:#9fcb81;fill-opacity:1;stroke:none;stroke-width:0.474721"
         x="200.09306"
         y="110.39828"
         id="tspan468">Feedback</tspan></text><text
       xml:space="preserve"
       style="font-size:4.23333px;line-height:1.3;font-family:Arial;-inkscape-font-specification:Arial;text-align:start;text-anchor:start;fill:#9fcb81;fill-opacity:1;stroke:none;stroke-width:1.094;stroke-linejoin:round"
       x="189.84131"
       y="116.66117"
       id="text479"><tspan
         sodipodi:role="line"
         id="tspan477"
         style="text-align:start;text-anchor:start;fill:#9fcb81;fill-opacity:1;stroke:none;stroke-width:1.094"
         x="189.84131"
         y="116.66117">- hilfreich?</tspan><tspan
         sodipodi:role="line"
         style="text-align:start;text-anchor:start;fill:#9fcb81;fill-opacity:1;stroke:none;stroke-width:1.094"
         x="189.84131"
         y="122.1645"
         id="tspan481">- ehrlich?</tspan><tspan
         sodipodi:role="line"
         style="text-align:start;text-anchor:start;fill:#9fcb81;fill-opacity:1;stroke:none;stroke-width:1.094"
         x="189.84131"
         y="127.66783"
         id="tspan483">- harmlos?</tspan></text><g
       inkscape:label="Layer 1"
       id="layer1-5"
       transform="matrix(0.47385273,0,0,0.47385273,167.09976,25.781358)"><rect
         style="fill:#fdd205;stroke-width:0.573093;stroke-linecap:round"
         id="rect234"
         width="63.31081"
         height="25.78281"
         x="38.165623"
         y="86.013268"
         ry="4.3253841" /><text
         xml:space="preserve"
         style="font-weight:bold;font-size:7.05556px;line-height:1.3;font-family:Arial;-inkscape-font-specification:'Arial Bold';text-align:center;text-anchor:middle;fill:#fdffff;fill-opacity:1;stroke-width:0.706001;stroke-linecap:round"
         x="69.70562"
         y="96.84037"
         id="text290"><tspan
           sodipodi:role="line"
           id="tspan288"
           style="font-size:7.05556px;fill:#fdffff;fill-opacity:1;stroke-width:0.706"
           x="69.70562"
           y="96.84037">Ethische Aspekte</tspan><tspan
           sodipodi:role="line"
           style="font-size:7.05556px;fill:#fdffff;fill-opacity:1;stroke-width:0.706"
           x="69.70562"
           y="106.0126"
           id="tspan292">der KI</tspan></text></g><g
       inkscape:label="Layer 1"
       id="layer1-1"
       transform="matrix(0.47385273,0,0,0.47385273,167.09997,39.481522)"><rect
         style="fill:#f1ae95;fill-opacity:1;stroke-width:0.573093;stroke-linecap:round"
         id="rect234-2"
         width="63.31081"
         height="25.78281"
         x="38.165623"
         y="86.013268"
         ry="4.3253841" /><text
         xml:space="preserve"
         style="font-weight:bold;font-size:7.05556px;line-height:1.3;font-family:Arial;-inkscape-font-specification:'Arial Bold';text-align:center;text-anchor:middle;fill:#fdffff;fill-opacity:1;stroke-width:0.706001;stroke-linecap:round"
         x="69.70562"
         y="96.84037"
         id="text290-7"><tspan
           sodipodi:role="line"
           style="font-size:7.05556px;fill:#fdffff;fill-opacity:1;stroke-width:0.706"
           x="69.70562"
           y="96.84037"
           id="tspan292-0">Rechtliche </tspan><tspan
           sodipodi:role="line"
           style="font-size:7.05556px;fill:#fdffff;fill-opacity:1;stroke-width:0.706"
           x="69.70562"
           y="106.0126"
           id="tspan5565">Aspekte der KI</tspan></text></g></g></svg>
