<?xml version="1.0" encoding="UTF-8" standalone="no"?>
<!-- Creator: fig2dev Version 3.2 Patchlevel 5 -->

<!-- CreationDate: Sun May 27 22:05:56 2007 -->

<!-- Magnification: 1.050 -->

<svg
   width="3.6535108in"
   height="3.3009994in"
   viewBox="2197 2433 4397.1772 3943.5154"
   version="1.1"
   id="svg34"
   sodipodi:docname="KnnClassification_9.svg"
   inkscape:version="1.2.2 (b0a8486541, 2022-12-01)"
   xmlns:inkscape="http://www.inkscape.org/namespaces/inkscape"
   xmlns:sodipodi="http://sodipodi.sourceforge.net/DTD/sodipodi-0.dtd"
   xmlns="http://www.w3.org/2000/svg"
   xmlns:svg="http://www.w3.org/2000/svg">
  <defs
     id="defs38">
    <marker
       style="overflow:visible"
       id="RoundedArrow"
       refX="0"
       refY="0"
       orient="auto-start-reverse"
       inkscape:stockid="RoundedArrow"
       markerWidth="6.1347523"
       markerHeight="5.9304948"
       viewBox="0 0 6.1347524 5.9304951"
       inkscape:isstock="true"
       inkscape:collect="always"
       preserveAspectRatio="xMidYMid">
      <path
         transform="scale(0.7)"
         d="m -0.21114562,-4.1055728 6.42229122,3.21114561 a 1,1 90 0 1 0,1.78885438 L -0.21114562,4.1055728 A 1.236068,1.236068 31.717474 0 1 -2,3 v -6 a 1.236068,1.236068 148.28253 0 1 1.78885438,-1.1055728 z"
         style="fill:context-stroke;fill-rule:evenodd;stroke:none"
         id="path1367" />
    </marker>
    <defs
       id="id-30093b9f-8b99-43bf-b9c6-7e0eb135c8c6">
      <g
         id="id-ebf7e818-98f0-46ac-b400-b005f7bb10e0">
        <g
           id="id-abd13d8a-155d-4be8-8313-7b56d85434b2">
          <path
             d="m 3.296875,2.390625 c 0,-0.03125 0,-0.046875 -0.171875,-0.21875 C 1.890625,0.921875 1.5625,-0.96875 1.5625,-2.5 c 0,-1.734375 0.375,-3.46875 1.609375,-4.703125 0.125,-0.125 0.125,-0.140625 0.125,-0.171875 0,-0.078125 -0.03125,-0.109375 -0.09375,-0.109375 -0.109375,0 -1,0.6875 -1.59375,1.953125 -0.5,1.09375 -0.625,2.203125 -0.625,3.03125 0,0.78125 0.109375,1.984375 0.65625,3.125 C 2.25,1.84375 3.09375,2.5 3.203125,2.5 c 0.0625,0 0.09375,-0.03125 0.09375,-0.109375 z m 0,0"
             id="id-e33f011a-b6f1-40ad-a951-f69a023c50dc" />
        </g>
        <g
           id="id-1d663dcb-9403-4181-b3a1-7c225ece8794">
          <path
             d="m 2.875,-2.5 c 0,-0.765625 -0.109375,-1.96875 -0.65625,-3.109375 -0.59375,-1.21875 -1.453125,-1.875 -1.546875,-1.875 -0.0625,0 -0.109375,0.046875 -0.109375,0.109375 0,0.03125 0,0.046875 0.1875,0.234375 0.984375,0.984375 1.546875,2.5625 1.546875,4.640625 0,1.71875 -0.359375,3.46875 -1.59375,4.71875 C 0.5625,2.34375 0.5625,2.359375 0.5625,2.390625 0.5625,2.453125 0.609375,2.5 0.671875,2.5 0.765625,2.5 1.671875,1.8125 2.25,0.546875 2.765625,-0.546875 2.875,-1.65625 2.875,-2.5 Z m 0,0"
             id="id-2846733d-2f28-4710-8fd8-33c7eb27763b" />
        </g>
        <g
           id="id-bf0a9a7d-34f2-4634-a8f7-6106d04bf382">
          <path
             d="m 6.84375,-3.265625 c 0.15625,0 0.34375,0 0.34375,-0.1875 C 7.1875,-3.65625 7,-3.65625 6.859375,-3.65625 h -5.96875 c -0.140625,0 -0.328125,0 -0.328125,0.203125 0,0.1875 0.1875,0.1875 0.328125,0.1875 z m 0.015625,1.9375 c 0.140625,0 0.328125,0 0.328125,-0.203125 0,-0.1875 -0.1875,-0.1875 -0.34375,-0.1875 H 0.890625 c -0.140625,0 -0.328125,0 -0.328125,0.1875 0,0.203125 0.1875,0.203125 0.328125,0.203125 z m 0,0"
             id="id-1d980270-6017-4f4c-bfb3-a27c5d642144" />
        </g>
        <g
           id="id-27cc5f14-9a39-4fc9-8a95-34e8f899e989">
          <path
             d="m 4.078125,-2.296875 h 2.78125 C 7,-2.296875 7.1875,-2.296875 7.1875,-2.5 7.1875,-2.6875 7,-2.6875 6.859375,-2.6875 h -2.78125 v -2.796875 c 0,-0.140625 0,-0.328125 -0.203125,-0.328125 -0.203125,0 -0.203125,0.1875 -0.203125,0.328125 V -2.6875 h -2.78125 c -0.140625,0 -0.328125,0 -0.328125,0.1875 0,0.203125 0.1875,0.203125 0.328125,0.203125 h 2.78125 V 0.5 c 0,0.140625 0,0.328125 0.203125,0.328125 0.203125,0 0.203125,-0.1875 0.203125,-0.328125 z m 0,0"
             id="id-a80a5495-4899-4c3c-a5d6-839933279c30" />
        </g>
        <g
           id="id-b526893e-5099-490e-bc5f-1e091e0c25fa">
          <path
             d="M 3.328125,-3.015625 C 3.390625,-3.265625 3.625,-4.1875 4.3125,-4.1875 c 0.046875,0 0.296875,0 0.5,0.125 C 4.53125,-4 4.34375,-3.765625 4.34375,-3.515625 c 0,0.15625 0.109375,0.34375 0.375,0.34375 0.21875,0 0.53125,-0.171875 0.53125,-0.578125 0,-0.515625 -0.578125,-0.65625 -0.921875,-0.65625 -0.578125,0 -0.921875,0.53125 -1.046875,0.75 -0.25,-0.65625 -0.78125,-0.75 -1.078125,-0.75 -1.03125,0 -1.609375,1.28125 -1.609375,1.53125 0,0.109375 0.109375,0.109375 0.125,0.109375 0.078125,0 0.109375,-0.03125 0.125,-0.109375 0.34375,-1.0625 1,-1.3125 1.34375,-1.3125 0.1875,0 0.53125,0.09375 0.53125,0.671875 0,0.3125 -0.171875,0.96875 -0.53125,2.375 -0.15625,0.609375 -0.515625,1.03125 -0.953125,1.03125 -0.0625,0 -0.28125,0 -0.5,-0.125 0.25,-0.0625 0.46875,-0.265625 0.46875,-0.546875 0,-0.265625 -0.21875,-0.34375 -0.359375,-0.34375 -0.3125,0 -0.546875,0.25 -0.546875,0.578125 0,0.453125 0.484375,0.65625 0.921875,0.65625 0.671875,0 1.03125,-0.703125 1.046875,-0.75 0.125,0.359375 0.484375,0.75 1.078125,0.75 1.03125,0 1.59375,-1.28125 1.59375,-1.53125 0,-0.109375 -0.078125,-0.109375 -0.109375,-0.109375 -0.09375,0 -0.109375,0.046875 -0.140625,0.109375 -0.328125,1.078125 -1,1.3125 -1.3125,1.3125 -0.390625,0 -0.546875,-0.3125 -0.546875,-0.65625 0,-0.21875 0.046875,-0.4375 0.15625,-0.875 z m 0,0"
             id="id-686e6b33-368c-4a6c-b632-4f9561c32cd6" />
        </g>
        <g
           id="id-adabcbbc-871d-4b7e-8352-b8ea5ec94c0d">
          <path
             d="m 2.03125,-0.015625 c 0,-0.65625 -0.25,-1.046875 -0.640625,-1.046875 -0.328125,0 -0.53125,0.25 -0.53125,0.53125 C 0.859375,-0.265625 1.0625,0 1.390625,0 1.5,0 1.640625,-0.046875 1.734375,-0.125 1.765625,-0.15625 1.78125,-0.15625 1.78125,-0.15625 c 0.015625,0 0.015625,0 0.015625,0.140625 0,0.75 -0.34375,1.34375 -0.671875,1.671875 -0.109375,0.109375 -0.109375,0.125 -0.109375,0.15625 0,0.078125 0.046875,0.109375 0.09375,0.109375 0.109375,0 0.921875,-0.765625 0.921875,-1.9375 z m 0,0"
             id="id-91072b1a-8729-45bd-a436-c50324e2dc05" />
        </g>
        <g
           id="id-33c3ad4b-6f5d-4bf4-b83f-384b1ae26071">
          <path
             d="m 4.84375,-3.796875 c 0.046875,-0.140625 0.046875,-0.15625 0.046875,-0.234375 0,-0.171875 -0.140625,-0.265625 -0.296875,-0.265625 -0.09375,0 -0.25,0.0625 -0.34375,0.203125 -0.015625,0.0625 -0.109375,0.359375 -0.140625,0.546875 -0.078125,0.25 -0.140625,0.53125 -0.203125,0.796875 l -0.453125,1.796875 c -0.03125,0.140625 -0.46875,0.84375 -1.125,0.84375 -0.5,0 -0.609375,-0.4375 -0.609375,-0.8125 C 1.71875,-1.375 1.890625,-2 2.21875,-2.875 2.375,-3.28125 2.421875,-3.390625 2.421875,-3.59375 c 0,-0.4375 -0.3125,-0.8125 -0.8125,-0.8125 -0.953125,0 -1.3125,1.453125 -1.3125,1.53125 0,0.109375 0.09375,0.109375 0.109375,0.109375 0.109375,0 0.109375,-0.03125 0.15625,-0.1875 0.28125,-0.9375 0.671875,-1.234375 1.015625,-1.234375 0.078125,0 0.25,0 0.25,0.3125 0,0.25 -0.109375,0.515625 -0.171875,0.703125 -0.40625,1.0625 -0.578125,1.625 -0.578125,2.09375 0,0.890625 0.625,1.1875 1.21875,1.1875 0.390625,0 0.71875,-0.171875 1,-0.453125 -0.125,0.515625 -0.25,1.015625 -0.640625,1.546875 -0.265625,0.328125 -0.640625,0.625 -1.09375,0.625 -0.140625,0 -0.59375,-0.03125 -0.765625,-0.421875 0.15625,0 0.296875,0 0.421875,-0.125 C 1.328125,1.203125 1.421875,1.0625 1.421875,0.875 1.421875,0.5625 1.15625,0.53125 1.0625,0.53125 0.828125,0.53125 0.5,0.6875 0.5,1.171875 c 0,0.5 0.4375,0.875 1.0625,0.875 1.015625,0 2.046875,-0.90625 2.328125,-2.03125 z m 0,0"
             id="id-3b1c9d7b-39eb-42ac-8983-dd462ed8f096" />
        </g>
        <g
           id="id-0987153f-8d64-4228-99b9-17b3991d3099">
          <path
             d="m 5.140625,-6.8125 c 0,0 0,-0.109375 -0.125,-0.109375 -0.15625,0 -1.09375,0.09375 -1.265625,0.109375 -0.078125,0.015625 -0.140625,0.0625 -0.140625,0.1875 0,0.125 0.09375,0.125 0.234375,0.125 0.484375,0 0.5,0.0625 0.5,0.171875 L 4.3125,-6.125 3.71875,-3.765625 C 3.53125,-4.140625 3.25,-4.40625 2.796875,-4.40625 c -1.15625,0 -2.390625,1.46875 -2.390625,2.921875 0,0.9375 0.546875,1.59375 1.3125,1.59375 0.203125,0 0.703125,-0.046875 1.296875,-0.75 0.078125,0.421875 0.4375,0.75 0.90625,0.75 0.359375,0 0.578125,-0.234375 0.75,-0.546875 0.15625,-0.359375 0.296875,-0.96875 0.296875,-0.984375 0,-0.109375 -0.09375,-0.109375 -0.125,-0.109375 -0.09375,0 -0.109375,0.046875 -0.140625,0.1875 -0.171875,0.640625 -0.34375,1.234375 -0.75,1.234375 -0.28125,0 -0.296875,-0.265625 -0.296875,-0.453125 0,-0.25 0.015625,-0.3125 0.046875,-0.484375 z m -2.0625,5.625 C 3.015625,-1 3.015625,-0.984375 2.875,-0.8125 2.4375,-0.265625 2.03125,-0.109375 1.75,-0.109375 c -0.5,0 -0.640625,-0.546875 -0.640625,-0.9375 0,-0.5 0.3125,-1.71875 0.546875,-2.1875 0.3125,-0.578125 0.75,-0.953125 1.15625,-0.953125 0.640625,0 0.78125,0.8125 0.78125,0.875 0,0.0625 -0.015625,0.125 -0.03125,0.171875 z m 0,0"
             id="id-41785c67-3950-4ba8-a35b-ca6acb6088cc" />
        </g>
        <g
           id="id-d6737682-6b77-44da-a466-f401dab64e53">
          <path
             d="m 1.90625,-0.53125 c 0,-0.28125 -0.234375,-0.53125 -0.515625,-0.53125 -0.296875,0 -0.53125,0.25 -0.53125,0.53125 C 0.859375,-0.234375 1.09375,0 1.390625,0 1.671875,0 1.90625,-0.234375 1.90625,-0.53125 Z m 0,0"
             id="id-aa2ebf54-c02f-4590-91f6-f072f6e95b6b" />
        </g>
        <g
           id="id-d5fb1509-e0c6-4419-8a32-ecde5a344dd1">
          <path
             d="m 2.328125,-4.4375 c 0,-0.1875 0,-0.1875 -0.203125,-0.1875 -0.453125,0.4375 -1.078125,0.4375 -1.359375,0.4375 v 0.25 c 0.15625,0 0.625,0 1,-0.1875 v 3.546875 c 0,0.234375 0,0.328125 -0.6875,0.328125 H 0.8125 V 0 c 0.125,0 0.984375,-0.03125 1.234375,-0.03125 0.21875,0 1.09375,0.03125 1.25,0.03125 V -0.25 H 3.03125 c -0.703125,0 -0.703125,-0.09375 -0.703125,-0.328125 z m 0,0"
             id="id-f05f4a57-1263-4d25-a208-1859bb263764" />
        </g>
        <g
           id="id-39e9a914-6134-4874-96b6-8229ea5c960e">
          <path
             d="M 3.515625,-1.265625 H 3.28125 c -0.015625,0.15625 -0.09375,0.5625 -0.1875,0.625 C 3.046875,-0.59375 2.515625,-0.59375 2.40625,-0.59375 H 1.125 c 0.734375,-0.640625 0.984375,-0.84375 1.390625,-1.171875 0.515625,-0.40625 1,-0.84375 1,-1.5 0,-0.84375 -0.734375,-1.359375 -1.625,-1.359375 -0.859375,0 -1.453125,0.609375 -1.453125,1.25 0,0.34375 0.296875,0.390625 0.375,0.390625 0.15625,0 0.359375,-0.125 0.359375,-0.375 0,-0.125 -0.046875,-0.375 -0.40625,-0.375 C 0.984375,-4.21875 1.453125,-4.375 1.78125,-4.375 c 0.703125,0 1.0625,0.546875 1.0625,1.109375 0,0.609375 -0.4375,1.078125 -0.65625,1.328125 L 0.515625,-0.265625 C 0.4375,-0.203125 0.4375,-0.1875 0.4375,0 h 2.875 z m 0,0"
             id="id-7f961c37-351a-4599-941d-25aeba74d14f" />
        </g>
        <g
           id="id-3284969d-9678-49e5-8bd0-682e83b90d14">
          <path
             d="m 6.5625,-2.296875 c 0.171875,0 0.359375,0 0.359375,-0.203125 0,-0.1875 -0.1875,-0.1875 -0.359375,-0.1875 H 1.171875 c -0.171875,0 -0.34375,0 -0.34375,0.1875 0,0.203125 0.171875,0.203125 0.34375,0.203125 z m 0,0"
             id="id-3b8cee80-28d2-49e7-9a03-928f56852a19" />
        </g>
        <g
           id="id-f946eb4c-3165-427f-b04d-7f7ed9b2286b">
          <path
             d="m 4.234375,11.5625 c 0.296875,0 0.3125,-0.01563 0.40625,-0.203125 l 5.453125,-11.375 c 0.07813,-0.140625 0.07813,-0.15625 0.07813,-0.1875 0,-0.109375 -0.07813,-0.203125 -0.203125,-0.203125 -0.125,0 -0.171875,0.09375 -0.21875,0.203125 L 4.609375,10.53125 2.484375,5.578125 1.09375,6.65625 1.25,6.8125 1.953125,6.265625 Z m 0,0"
             id="id-8292d185-6598-48d0-9f24-299cd07ddef3" />
        </g>
      </g>
    </defs>
    <defs
       id="id-28e577ed-8230-467f-b6ef-32b6676c3f2f">
      <g
         id="id-03d146b0-224e-425d-a3bc-53c5533c7542">
        <g
           id="id-0e488c77-9aba-4a06-9f8f-dbd71c3a4463">
          <path
             d="m 5.140625,-6.8125 c 0,0 0,-0.109375 -0.125,-0.109375 -0.15625,0 -1.09375,0.09375 -1.265625,0.109375 -0.078125,0.015625 -0.140625,0.0625 -0.140625,0.1875 0,0.125 0.09375,0.125 0.234375,0.125 0.484375,0 0.5,0.0625 0.5,0.171875 L 4.3125,-6.125 3.71875,-3.765625 C 3.53125,-4.140625 3.25,-4.40625 2.796875,-4.40625 c -1.15625,0 -2.390625,1.46875 -2.390625,2.921875 0,0.9375 0.546875,1.59375 1.3125,1.59375 0.203125,0 0.703125,-0.046875 1.296875,-0.75 0.078125,0.421875 0.4375,0.75 0.90625,0.75 0.359375,0 0.578125,-0.234375 0.75,-0.546875 0.15625,-0.359375 0.296875,-0.96875 0.296875,-0.984375 0,-0.109375 -0.09375,-0.109375 -0.125,-0.109375 -0.09375,0 -0.109375,0.046875 -0.140625,0.1875 -0.171875,0.640625 -0.34375,1.234375 -0.75,1.234375 -0.28125,0 -0.296875,-0.265625 -0.296875,-0.453125 0,-0.25 0.015625,-0.3125 0.046875,-0.484375 z m -2.0625,5.625 C 3.015625,-1 3.015625,-0.984375 2.875,-0.8125 2.4375,-0.265625 2.03125,-0.109375 1.75,-0.109375 c -0.5,0 -0.640625,-0.546875 -0.640625,-0.9375 0,-0.5 0.3125,-1.71875 0.546875,-2.1875 0.3125,-0.578125 0.75,-0.953125 1.15625,-0.953125 0.640625,0 0.78125,0.8125 0.78125,0.875 0,0.0625 -0.015625,0.125 -0.03125,0.171875 z m 0,0"
             id="id-f5243367-dc3e-4a69-b09c-07185b607bb3" />
        </g>
        <g
           id="id-b4f9e201-43df-4511-be2d-cf631adf4f27">
          <path
             d="m 6.84375,-3.265625 c 0.15625,0 0.34375,0 0.34375,-0.1875 C 7.1875,-3.65625 7,-3.65625 6.859375,-3.65625 h -5.96875 c -0.140625,0 -0.328125,0 -0.328125,0.203125 0,0.1875 0.1875,0.1875 0.328125,0.1875 z m 0.015625,1.9375 c 0.140625,0 0.328125,0 0.328125,-0.203125 0,-0.1875 -0.1875,-0.1875 -0.34375,-0.1875 H 0.890625 c -0.140625,0 -0.328125,0 -0.328125,0.1875 0,0.203125 0.1875,0.203125 0.328125,0.203125 z m 0,0"
             id="id-1170cc83-ec9d-4e6f-bd1c-39b3b50ace6e" />
        </g>
        <g
           id="id-47c0a655-d3ae-491d-b7c2-d3dc419dedd0">
          <path
             d="m 2.9375,-6.375 c 0,-0.25 0,-0.265625 -0.234375,-0.265625 C 2.078125,-6 1.203125,-6 0.890625,-6 v 0.3125 c 0.203125,0 0.78125,0 1.296875,-0.265625 v 5.171875 c 0,0.359375 -0.03125,0.46875 -0.921875,0.46875 h -0.3125 V 0 c 0.34375,-0.03125 1.203125,-0.03125 1.609375,-0.03125 0.390625,0 1.265625,0 1.609375,0.03125 v -0.3125 h -0.3125 c -0.90625,0 -0.921875,-0.109375 -0.921875,-0.46875 z m 0,0"
             id="id-509601e1-6f36-415d-888b-165d3fcb55d4" />
        </g>
        <g
           id="id-9e939cff-04b1-49ae-954e-49be85ce0219">
          <path
             d="m 1.265625,-0.765625 1.0625,-1.03125 c 1.546875,-1.375 2.140625,-1.90625 2.140625,-2.90625 0,-1.140625 -0.890625,-1.9375 -2.109375,-1.9375 -1.125,0 -1.859375,0.921875 -1.859375,1.8125 0,0.546875 0.5,0.546875 0.53125,0.546875 0.171875,0 0.515625,-0.109375 0.515625,-0.53125 0,-0.25 -0.1875,-0.515625 -0.53125,-0.515625 -0.078125,0 -0.09375,0 -0.125,0.015625 0.21875,-0.65625 0.765625,-1.015625 1.34375,-1.015625 0.90625,0 1.328125,0.8125 1.328125,1.625 C 3.5625,-3.90625 3.078125,-3.125 2.515625,-2.5 l -1.90625,2.125 C 0.5,-0.265625 0.5,-0.234375 0.5,0 H 4.203125 L 4.46875,-1.734375 H 4.234375 C 4.171875,-1.4375 4.109375,-1 4,-0.84375 3.9375,-0.765625 3.28125,-0.765625 3.0625,-0.765625 Z m 0,0"
             id="id-937ea4b4-e8f4-464d-8667-5d18a6b087be" />
        </g>
        <g
           id="id-01b37b4d-7528-426b-9bc1-2542917d62f5">
          <path
             d="m 2.890625,-3.515625 c 0.8125,-0.265625 1.390625,-0.953125 1.390625,-1.75 0,-0.8125 -0.875,-1.375 -1.828125,-1.375 -1,0 -1.765625,0.59375 -1.765625,1.359375 0,0.328125 0.21875,0.515625 0.515625,0.515625 0.296875,0 0.5,-0.21875 0.5,-0.515625 0,-0.484375 -0.46875,-0.484375 -0.609375,-0.484375 0.296875,-0.5 0.953125,-0.625 1.3125,-0.625 0.421875,0 0.96875,0.21875 0.96875,1.109375 0,0.125 -0.03125,0.703125 -0.28125,1.140625 C 2.796875,-3.65625 2.453125,-3.625 2.203125,-3.625 2.125,-3.609375 1.890625,-3.59375 1.8125,-3.59375 c -0.078125,0.015625 -0.140625,0.03125 -0.140625,0.125 0,0.109375 0.0625,0.109375 0.234375,0.109375 h 0.4375 c 0.8125,0 1.1875,0.671875 1.1875,1.65625 0,1.359375 -0.6875,1.640625 -1.125,1.640625 -0.4375,0 -1.1875,-0.171875 -1.53125,-0.75 0.34375,0.046875 0.65625,-0.171875 0.65625,-0.546875 0,-0.359375 -0.265625,-0.5625 -0.546875,-0.5625 -0.25,0 -0.5625,0.140625 -0.5625,0.578125 0,0.90625 0.921875,1.5625 2.015625,1.5625 1.21875,0 2.125,-0.90625 2.125,-1.921875 0,-0.8125 -0.640625,-1.59375 -1.671875,-1.8125 z m 0,0"
             id="id-79acb837-4322-402e-89ac-fa7b1a0a82fa" />
        </g>
        <g
           id="id-e45314a0-5cf8-4d64-abfa-744a6294a3a5">
          <path
             d="m 1.3125,-3.265625 v -0.25 c 0,-2.515625 1.234375,-2.875 1.75,-2.875 0.234375,0 0.65625,0.0625 0.875,0.40625 -0.15625,0 -0.546875,0 -0.546875,0.4375 0,0.3125 0.234375,0.46875 0.453125,0.46875 0.15625,0 0.46875,-0.09375 0.46875,-0.484375 0,-0.59375 -0.4375,-1.078125 -1.265625,-1.078125 -1.28125,0 -2.625,1.28125 -2.625,3.484375 0,2.671875 1.15625,3.375 2.078125,3.375 1.109375,0 2.0625,-0.9375 2.0625,-2.25 0,-1.265625 -0.890625,-2.21875 -2,-2.21875 -0.671875,0 -1.046875,0.5 -1.25,0.984375 z M 2.5,-0.0625 c -0.625,0 -0.921875,-0.59375 -0.984375,-0.75 -0.1875,-0.46875 -0.1875,-1.265625 -0.1875,-1.4375 0,-0.78125 0.328125,-1.78125 1.21875,-1.78125 0.171875,0 0.625,0 0.9375,0.625 0.171875,0.359375 0.171875,0.875 0.171875,1.359375 0,0.484375 0,0.984375 -0.171875,1.34375 C 3.1875,-0.109375 2.734375,-0.0625 2.5,-0.0625 Z m 0,0"
             id="id-84248c78-9e4c-4403-b1c6-4e3d12b1695b" />
        </g>
        <g
           id="id-a797afe6-4ed2-4d1f-b572-acf015ad529c">
          <path
             d="m 4.75,-6.078125 c 0.078125,-0.109375 0.078125,-0.125 0.078125,-0.34375 H 2.40625 c -1.203125,0 -1.234375,-0.125 -1.265625,-0.3125 h -0.25 L 0.5625,-4.6875 h 0.25 c 0.03125,-0.15625 0.109375,-0.78125 0.25,-0.90625 0.0625,-0.0625 0.84375,-0.0625 0.96875,-0.0625 h 2.0625 C 3.984375,-5.5 3.203125,-4.40625 2.984375,-4.078125 2.078125,-2.734375 1.75,-1.34375 1.75,-0.328125 c 0,0.09375 0,0.546875 0.46875,0.546875 0.453125,0 0.453125,-0.453125 0.453125,-0.546875 V -0.84375 c 0,-0.546875 0.03125,-1.09375 0.109375,-1.625 0.046875,-0.234375 0.171875,-1.09375 0.625,-1.703125 z m 0,0"
             id="id-50c74c7f-7b64-4a5c-8d13-63aca6360e8c" />
        </g>
      </g>
    </defs>
    <defs
       id="id-64197772-6cc2-4168-b40a-c41b2a48d7b3">
      <g
         id="id-7bc346c7-cabc-4c40-b3a6-af41ed237622">
        <g
           id="id-86f86723-9ae2-49fa-a4d1-5224349d2d1a">
          <path
             d="M 3.015625,-3.15625 H 4.71875 c 1.40625,0 2.796875,-1.03125 2.796875,-2.140625 0,-0.78125 -0.65625,-1.515625 -1.96875,-1.515625 h -3.21875 c -0.1875,0 -0.296875,0 -0.296875,0.1875 0,0.125 0.078125,0.125 0.28125,0.125 0.125,0 0.3125,0.015625 0.421875,0.015625 0.171875,0.03125 0.21875,0.046875 0.21875,0.171875 0,0.03125 0,0.0625 -0.03125,0.1875 l -1.34375,5.34375 c -0.09375,0.390625 -0.109375,0.46875 -0.90625,0.46875 -0.15625,0 -0.265625,0 -0.265625,0.1875 C 0.40625,0 0.515625,0 0.546875,0 0.828125,0 1.53125,-0.03125 1.8125,-0.03125 c 0.21875,0 0.4375,0.015625 0.640625,0.015625 0.21875,0 0.4375,0.015625 0.640625,0.015625 0.078125,0 0.203125,0 0.203125,-0.203125 0,-0.109375 -0.09375,-0.109375 -0.28125,-0.109375 -0.359375,0 -0.640625,0 -0.640625,-0.171875 0,-0.0625 0.015625,-0.109375 0.03125,-0.171875 z M 3.734375,-6.125 C 3.828125,-6.46875 3.84375,-6.5 4.28125,-6.5 h 0.953125 c 0.828125,0 1.359375,0.265625 1.359375,0.953125 0,0.390625 -0.203125,1.25 -0.59375,1.609375 -0.5,0.453125 -1.09375,0.53125 -1.53125,0.53125 H 3.0625 Z m 0,0"
             id="id-4219e60e-eef5-46c5-883a-bd69cd052ebc" />
        </g>
        <g
           id="id-8efae23e-d84c-423c-ad1c-c3d7666377d7">
          <path
             d="m 1.90625,-0.53125 c 0,-0.28125 -0.234375,-0.53125 -0.515625,-0.53125 -0.296875,0 -0.53125,0.25 -0.53125,0.53125 C 0.859375,-0.234375 1.09375,0 1.390625,0 1.671875,0 1.90625,-0.234375 1.90625,-0.53125 Z m 0,0"
             id="id-7e23a002-19cc-4473-8b36-2f84e6a0eb6c" />
        </g>
        <g
           id="id-1fcd4af5-200c-459e-969e-07477f6bd7ff">
          <path
             d="M 6.734375,-2.265625 C 6.84375,-2.328125 6.921875,-2.375 6.921875,-2.5 c 0,-0.109375 -0.078125,-0.15625 -0.1875,-0.21875 L 1.203125,-5.3125 C 1.078125,-5.390625 1.0625,-5.390625 1.03125,-5.390625 c -0.109375,0 -0.203125,0.09375 -0.203125,0.203125 0,0.09375 0.046875,0.15625 0.1875,0.21875 L 6.25,-2.5 1.015625,-0.015625 c -0.140625,0.0625 -0.1875,0.125 -0.1875,0.21875 0,0.109375 0.09375,0.203125 0.203125,0.203125 0.03125,0 0.046875,0 0.171875,-0.078125 z m 0,0"
             id="id-e9b22245-7ccd-4682-ac6d-3f0a4947c56a" />
        </g>
        <g
           id="id-077963cd-9426-487e-b61f-41b36fa0e678">
          <path
             d="m 3.296875,2.390625 c 0,-0.03125 0,-0.046875 -0.171875,-0.21875 C 1.890625,0.921875 1.5625,-0.96875 1.5625,-2.5 c 0,-1.734375 0.375,-3.46875 1.609375,-4.703125 0.125,-0.125 0.125,-0.140625 0.125,-0.171875 0,-0.078125 -0.03125,-0.109375 -0.09375,-0.109375 -0.109375,0 -1,0.6875 -1.59375,1.953125 -0.5,1.09375 -0.625,2.203125 -0.625,3.03125 0,0.78125 0.109375,1.984375 0.65625,3.125 C 2.25,1.84375 3.09375,2.5 3.203125,2.5 c 0.0625,0 0.09375,-0.03125 0.09375,-0.109375 z m 0,0"
             id="id-5e2a27cd-05fa-4fc8-9283-30f2f4694c00" />
        </g>
        <g
           id="id-9b2e9c50-dc09-4bfa-9c8a-2406fb8f5c7b">
          <path
             d="m 2.875,-2.5 c 0,-0.765625 -0.109375,-1.96875 -0.65625,-3.109375 -0.59375,-1.21875 -1.453125,-1.875 -1.546875,-1.875 -0.0625,0 -0.109375,0.046875 -0.109375,0.109375 0,0.03125 0,0.046875 0.1875,0.234375 0.984375,0.984375 1.546875,2.5625 1.546875,4.640625 0,1.71875 -0.359375,3.46875 -1.59375,4.71875 C 0.5625,2.34375 0.5625,2.359375 0.5625,2.390625 0.5625,2.453125 0.609375,2.5 0.671875,2.5 0.765625,2.5 1.671875,1.8125 2.25,0.546875 2.765625,-0.546875 2.875,-1.65625 2.875,-2.5 Z m 0,0"
             id="id-4efca841-57a7-4162-8918-5f4a5441cb5b" />
        </g>
        <g
           id="id-9d1c1007-0c34-4c0a-9ddf-d4bfd23b2258">
          <path
             d="m 6.84375,-3.265625 c 0.15625,0 0.34375,0 0.34375,-0.1875 C 7.1875,-3.65625 7,-3.65625 6.859375,-3.65625 h -5.96875 c -0.140625,0 -0.328125,0 -0.328125,0.203125 0,0.1875 0.1875,0.1875 0.328125,0.1875 z m 0.015625,1.9375 c 0.140625,0 0.328125,0 0.328125,-0.203125 0,-0.1875 -0.1875,-0.1875 -0.34375,-0.1875 H 0.890625 c -0.140625,0 -0.328125,0 -0.328125,0.1875 0,0.203125 0.1875,0.203125 0.328125,0.203125 z m 0,0"
             id="id-9c23f715-1f85-44ab-bd94-8e7a2d2af51f" />
        </g>
        <g
           id="id-856237bd-3371-438a-a7ed-1938d032ee08">
          <path
             d="m 4.078125,-2.296875 h 2.78125 C 7,-2.296875 7.1875,-2.296875 7.1875,-2.5 7.1875,-2.6875 7,-2.6875 6.859375,-2.6875 h -2.78125 v -2.796875 c 0,-0.140625 0,-0.328125 -0.203125,-0.328125 -0.203125,0 -0.203125,0.1875 -0.203125,0.328125 V -2.6875 h -2.78125 c -0.140625,0 -0.328125,0 -0.328125,0.1875 0,0.203125 0.1875,0.203125 0.328125,0.203125 h 2.78125 V 0.5 c 0,0.140625 0,0.328125 0.203125,0.328125 0.203125,0 0.203125,-0.1875 0.203125,-0.328125 z m 0,0"
             id="id-1e678be2-dc5a-4e6e-a666-699ae2eb4076" />
        </g>
        <g
           id="id-2bd010be-45c3-4478-a59b-fdd58c626880">
          <path
             d="m 2.9375,-6.375 c 0,-0.25 0,-0.265625 -0.234375,-0.265625 C 2.078125,-6 1.203125,-6 0.890625,-6 v 0.3125 c 0.203125,0 0.78125,0 1.296875,-0.265625 v 5.171875 c 0,0.359375 -0.03125,0.46875 -0.921875,0.46875 h -0.3125 V 0 c 0.34375,-0.03125 1.203125,-0.03125 1.609375,-0.03125 0.390625,0 1.265625,0 1.609375,0.03125 v -0.3125 h -0.3125 c -0.90625,0 -0.921875,-0.109375 -0.921875,-0.46875 z m 0,0"
             id="id-9595628a-7e9c-49c8-a9ef-b6eee5e51ed0" />
        </g>
        <g
           id="id-3d7d8dcd-5421-4e50-941a-73446f8d6bb7">
          <path
             d="m 4.46875,-2 c 0,-1.1875 -0.8125,-2.1875 -1.890625,-2.1875 -0.46875,0 -0.90625,0.15625 -1.265625,0.515625 V -5.625 c 0.203125,0.0625 0.53125,0.125 0.84375,0.125 1.234375,0 1.9375,-0.90625 1.9375,-1.03125 0,-0.0625 -0.03125,-0.109375 -0.109375,-0.109375 0,0 -0.03125,0 -0.078125,0.03125 C 3.703125,-6.515625 3.21875,-6.3125 2.546875,-6.3125 2.15625,-6.3125 1.6875,-6.390625 1.21875,-6.59375 1.140625,-6.625 1.125,-6.625 1.109375,-6.625 1,-6.625 1,-6.546875 1,-6.390625 V -3.4375 c 0,0.171875 0,0.25 0.140625,0.25 0.078125,0 0.09375,-0.015625 0.140625,-0.078125 C 1.390625,-3.421875 1.75,-3.96875 2.5625,-3.96875 c 0.515625,0 0.765625,0.453125 0.84375,0.640625 0.15625,0.375 0.1875,0.75 0.1875,1.25 0,0.359375 0,0.953125 -0.25,1.375 C 3.109375,-0.3125 2.734375,-0.0625 2.28125,-0.0625 c -0.71875,0 -1.296875,-0.53125 -1.46875,-1.109375 0.03125,0 0.0625,0.015625 0.171875,0.015625 0.328125,0 0.5,-0.25 0.5,-0.484375 0,-0.25 -0.171875,-0.5 -0.5,-0.5 C 0.84375,-2.140625 0.5,-2.0625 0.5,-1.609375 0.5,-0.75 1.1875,0.21875 2.296875,0.21875 3.453125,0.21875 4.46875,-0.734375 4.46875,-2 Z m 0,0"
             id="id-d8bd7456-3828-4ba1-85e1-e02efe491ea5" />
        </g>
        <g
           id="id-53a81bad-500d-43f3-be45-09c789298ddb">
          <path
             d="m 4.578125,-3.1875 c 0,-0.796875 -0.046875,-1.59375 -0.390625,-2.328125 -0.453125,-0.96875 -1.28125,-1.125 -1.6875,-1.125 -0.609375,0 -1.328125,0.265625 -1.75,1.1875 -0.3125,0.6875 -0.359375,1.46875 -0.359375,2.265625 0,0.75 0.03125,1.640625 0.453125,2.40625 0.421875,0.796875 1.15625,1 1.640625,1 0.53125,0 1.296875,-0.203125 1.734375,-1.15625 0.3125,-0.6875 0.359375,-1.46875 0.359375,-2.25 z M 2.484375,0 C 2.09375,0 1.5,-0.25 1.328125,-1.203125 1.21875,-1.796875 1.21875,-2.71875 1.21875,-3.3125 c 0,-0.640625 0,-1.296875 0.078125,-1.828125 0.1875,-1.1875 0.9375,-1.28125 1.1875,-1.28125 0.328125,0 0.984375,0.1875 1.171875,1.171875 0.109375,0.5625 0.109375,1.3125 0.109375,1.9375 0,0.75 0,1.421875 -0.109375,2.0625 C 3.5,-0.296875 2.9375,0 2.484375,0 Z m 0,0"
             id="id-12225806-75d0-4ebf-967c-8ba8160af1e7" />
        </g>
        <g
           id="id-26a457fb-c696-44bf-a480-0acb5bee18a5">
          <path
             d="m 1.3125,-3.265625 v -0.25 c 0,-2.515625 1.234375,-2.875 1.75,-2.875 0.234375,0 0.65625,0.0625 0.875,0.40625 -0.15625,0 -0.546875,0 -0.546875,0.4375 0,0.3125 0.234375,0.46875 0.453125,0.46875 0.15625,0 0.46875,-0.09375 0.46875,-0.484375 0,-0.59375 -0.4375,-1.078125 -1.265625,-1.078125 -1.28125,0 -2.625,1.28125 -2.625,3.484375 0,2.671875 1.15625,3.375 2.078125,3.375 1.109375,0 2.0625,-0.9375 2.0625,-2.25 0,-1.265625 -0.890625,-2.21875 -2,-2.21875 -0.671875,0 -1.046875,0.5 -1.25,0.984375 z M 2.5,-0.0625 c -0.625,0 -0.921875,-0.59375 -0.984375,-0.75 -0.1875,-0.46875 -0.1875,-1.265625 -0.1875,-1.4375 0,-0.78125 0.328125,-1.78125 1.21875,-1.78125 0.171875,0 0.625,0 0.9375,0.625 0.171875,0.359375 0.171875,0.875 0.171875,1.359375 0,0.484375 0,0.984375 -0.171875,1.34375 C 3.1875,-0.109375 2.734375,-0.0625 2.5,-0.0625 Z m 0,0"
             id="id-3cd93c06-70b3-40bf-8d5b-52aeba10c7c6" />
        </g>
        <g
           id="id-1f10e2f1-3029-468d-abca-fd7518ae5141">
          <path
             d="m 2.9375,-1.640625 v 0.859375 c 0,0.359375 -0.03125,0.46875 -0.765625,0.46875 H 1.96875 V 0 C 2.375,-0.03125 2.890625,-0.03125 3.3125,-0.03125 c 0.421875,0 0.9375,0 1.359375,0.03125 v -0.3125 h -0.21875 c -0.734375,0 -0.75,-0.109375 -0.75,-0.46875 V -1.640625 H 4.6875 v -0.3125 H 3.703125 v -4.53125 c 0,-0.203125 0,-0.265625 -0.171875,-0.265625 -0.078125,0 -0.109375,0 -0.1875,0.125 l -3.0625,4.671875 v 0.3125 z m 0.046875,-0.3125 H 0.5625 l 2.421875,-3.71875 z m 0,0"
             id="id-d7598abc-dd56-41f5-a4c0-6c59b9fb09f0" />
        </g>
        <g
           id="id-287b60f5-38e5-4629-ae10-3ab406eb2d12">
          <path
             d="m 2.328125,-4.4375 c 0,-0.1875 0,-0.1875 -0.203125,-0.1875 -0.453125,0.4375 -1.078125,0.4375 -1.359375,0.4375 v 0.25 c 0.15625,0 0.625,0 1,-0.1875 v 3.546875 c 0,0.234375 0,0.328125 -0.6875,0.328125 H 0.8125 V 0 c 0.125,0 0.984375,-0.03125 1.234375,-0.03125 0.21875,0 1.09375,0.03125 1.25,0.03125 V -0.25 H 3.03125 c -0.703125,0 -0.703125,-0.09375 -0.703125,-0.328125 z m 0,0"
             id="id-2cd9674f-5cf2-4712-a56c-3feb7f1d2c3f" />
        </g>
        <g
           id="id-2141b1ca-7ca7-498e-9f5b-03efa33edcaa">
          <path
             d="M 3.515625,-1.265625 H 3.28125 c -0.015625,0.15625 -0.09375,0.5625 -0.1875,0.625 C 3.046875,-0.59375 2.515625,-0.59375 2.40625,-0.59375 H 1.125 c 0.734375,-0.640625 0.984375,-0.84375 1.390625,-1.171875 0.515625,-0.40625 1,-0.84375 1,-1.5 0,-0.84375 -0.734375,-1.359375 -1.625,-1.359375 -0.859375,0 -1.453125,0.609375 -1.453125,1.25 0,0.34375 0.296875,0.390625 0.375,0.390625 0.15625,0 0.359375,-0.125 0.359375,-0.375 0,-0.125 -0.046875,-0.375 -0.40625,-0.375 C 0.984375,-4.21875 1.453125,-4.375 1.78125,-4.375 c 0.703125,0 1.0625,0.546875 1.0625,1.109375 0,0.609375 -0.4375,1.078125 -0.65625,1.328125 L 0.515625,-0.265625 C 0.4375,-0.203125 0.4375,-0.1875 0.4375,0 h 2.875 z m 0,0"
             id="id-15fbf43a-4598-4f68-bb5b-524294c276a5" />
        </g>
        <g
           id="id-2f694140-2a3a-4858-be5b-044e1cb9a6d6">
          <path
             d="m 1.90625,-2.328125 c 0.546875,0 0.9375,0.375 0.9375,1.125 0,0.859375 -0.515625,1.125 -0.90625,1.125 -0.28125,0 -0.90625,-0.078125 -1.1875,-0.5 0.328125,0 0.40625,-0.234375 0.40625,-0.390625 0,-0.21875 -0.171875,-0.375 -0.390625,-0.375 -0.1875,0 -0.390625,0.125 -0.390625,0.40625 0,0.65625 0.71875,1.078125 1.5625,1.078125 0.96875,0 1.640625,-0.65625 1.640625,-1.34375 0,-0.546875 -0.4375,-1.09375 -1.203125,-1.25 0.71875,-0.265625 0.984375,-0.78125 0.984375,-1.21875 0,-0.546875 -0.625,-0.953125 -1.40625,-0.953125 -0.765625,0 -1.359375,0.375 -1.359375,0.9375 0,0.234375 0.15625,0.359375 0.359375,0.359375 0.21875,0 0.359375,-0.15625 0.359375,-0.34375 0,-0.203125 -0.140625,-0.359375 -0.359375,-0.375 0.25,-0.296875 0.71875,-0.375 0.984375,-0.375 0.3125,0 0.75,0.15625 0.75,0.75 0,0.296875 -0.09375,0.625 -0.28125,0.828125 -0.21875,0.265625 -0.421875,0.28125 -0.765625,0.3125 -0.171875,0.015625 -0.1875,0.015625 -0.21875,0.015625 -0.015625,0 -0.078125,0.015625 -0.078125,0.09375 0,0.09375 0.0625,0.09375 0.1875,0.09375 z m 0,0"
             id="id-2b3a0117-d6de-46c7-a4cd-a467edda1f7d" />
        </g>
        <g
           id="id-d7eb39c2-f7b3-493a-a808-7744c82e3932">
          <path
             d="m 1.046875,-2.28125 c 0,-0.5625 0.046875,-1.078125 0.3125,-1.515625 0.234375,-0.375 0.609375,-0.625 1.0625,-0.625 0.203125,0 0.484375,0.046875 0.625,0.234375 C 2.875,-4.171875 2.71875,-4.046875 2.71875,-3.84375 c 0,0.171875 0.125,0.328125 0.328125,0.328125 0.21875,0 0.34375,-0.140625 0.34375,-0.34375 0,-0.40625 -0.296875,-0.765625 -0.984375,-0.765625 -1,0 -2.03125,0.921875 -2.03125,2.421875 0,1.796875 0.84375,2.34375 1.625,2.34375 0.84375,0 1.578125,-0.65625 1.578125,-1.5625 0,-0.890625 -0.703125,-1.546875 -1.515625,-1.546875 -0.5625,0 -0.859375,0.375 -1.015625,0.6875 z M 2,-0.078125 c -0.359375,0 -0.625,-0.203125 -0.78125,-0.515625 C 1.125,-0.796875 1.0625,-1.15625 1.0625,-1.5625 c 0,-0.6875 0.40625,-1.203125 0.96875,-1.203125 0.3125,0 0.53125,0.125 0.703125,0.375 0.171875,0.265625 0.171875,0.5625 0.171875,0.96875 0,0.390625 0,0.6875 -0.1875,0.96875 -0.15625,0.234375 -0.390625,0.375 -0.71875,0.375 z m 0,0"
             id="id-59209da7-5949-4d1e-88c0-b4de06ddb9aa" />
        </g>
        <g
           id="id-24ccc1ef-2c17-40a2-bee1-b836b80ea3af">
          <path
             d="m 3.734375,-4.203125 c 0.0625,-0.09375 0.0625,-0.109375 0.0625,-0.28125 H 1.96875 C 1.6875,-4.484375 1.609375,-4.5 1.359375,-4.515625 1,-4.546875 0.984375,-4.59375 0.96875,-4.703125 H 0.734375 l -0.25,1.484375 H 0.71875 c 0.015625,-0.109375 0.09375,-0.5625 0.203125,-0.640625 0.046875,-0.03125 0.625,-0.03125 0.71875,-0.03125 H 3.15625 c -0.21875,0.28125 -0.578125,0.71875 -0.71875,0.921875 -0.90625,1.1875 -1,2.296875 -1,2.703125 0,0.078125 0,0.40625 0.328125,0.40625 0.34375,0 0.34375,-0.3125 0.34375,-0.40625 v -0.28125 c 0,-1.34375 0.28125,-1.96875 0.578125,-2.34375 z m 0,0"
             id="id-4428f3f7-1ece-4afa-8ed2-7ed3de3a7b73" />
        </g>
      </g>
    </defs>
  </defs>
  <sodipodi:namedview
     id="namedview36"
     pagecolor="#ffffff"
     bordercolor="#000000"
     borderopacity="0.25"
     inkscape:showpageshadow="2"
     inkscape:pageopacity="0.0"
     inkscape:pagecheckerboard="0"
     inkscape:deskcolor="#d1d1d1"
     inkscape:document-units="in"
     showgrid="false"
     inkscape:zoom="5.403264"
     inkscape:cx="113.63502"
     inkscape:cy="172.3958"
     inkscape:window-width="2560"
     inkscape:window-height="1440"
     inkscape:window-x="0"
     inkscape:window-y="0"
     inkscape:window-maximized="1"
     inkscape:current-layer="g32">
    <inkscape:grid
       type="xygrid"
       id="grid375"
       originx="459.43372"
       originy="175.34773" />
  </sodipodi:namedview>
  <g
     style="fill:none;stroke:#000000;stroke-width:0.025in"
     id="g32"
     transform="translate(459.434, 176.655)">
    <!-- Circle -->
    <circle
       cx="4157"
       cy="4299"
       r="106"
       style="fill:none;fill-opacity:1;stroke:#000000;stroke-width:15.64612994;stroke-opacity:1;stroke-dasharray:none"
       id="circle2" />
    <!-- Circle -->
    <!-- Circle -->
    <!-- Line: box -->
    <rect
       x="2220"
       y="4251"
       width="188"
       height="188"
       rx="0"
       style="fill:#0000d1;stroke:#0000d1;stroke-width:16;stroke-linecap:butt;stroke-linejoin:miter"
       id="rect8" />
    <!-- Line: box -->
    <rect
       x="2220"
       y="3779"
       width="188"
       height="188"
       rx="0"
       style="fill:#0000d1;stroke:#0000d1;stroke-width:16;stroke-linecap:butt;stroke-linejoin:miter"
       id="rect10" />
    <!-- Line: box -->
    <rect
       x="2267"
       y="2787"
       width="188"
       height="188"
       rx="0"
       style="fill:#0000d1;stroke:#0000d1;stroke-width:16;stroke-linecap:butt;stroke-linejoin:miter"
       id="rect12" />
    <!-- Line: box -->
    <rect
       x="2834"
       y="3779"
       width="188"
       height="188"
       rx="0"
       style="fill:#0000d1;stroke:#0000d1;stroke-width:16;stroke-linecap:butt;stroke-linejoin:miter"
       id="rect14" />
    <rect
       x="3411.9277"
       y="5032.7051"
       width="133.0983"
       height="133.0983"
       rx="0"
       style="fill:#0000d1;stroke:#0000d1;stroke-width:11.3275;stroke-linecap:butt;stroke-linejoin:miter"
       id="rect14-7" />
    <!-- Line: box -->
    <rect
       x="4204"
       y="3070"
       width="188"
       height="188"
       rx="0"
       style="fill:#0000d1;stroke:#0000d1;stroke-width:16;stroke-linecap:butt;stroke-linejoin:miter"
       id="rect16" />
    <!-- Line -->
    <polygon
       points="4582,3968 4677,4157 4488,4157 "
       style="fill:#ff0000;stroke:#ff0000;stroke-width:16;stroke-linecap:butt;stroke-linejoin:miter"
       id="polygon18" />
    <!-- Line -->
    <polygon
       points="4771,2456 4866,2645 4677,2645 "
       style="fill:#ff0000;stroke:#ff0000;stroke-width:16;stroke-linecap:butt;stroke-linejoin:miter"
       id="polygon20" />
    <!-- Line -->
    <polygon
       points="5811,2787 5905,2976 5716,2976 "
       style="fill:#ff0000;stroke:#ff0000;stroke-width:16;stroke-linecap:butt;stroke-linejoin:miter"
       id="polygon22" />
    <!-- Line -->
    <polygon
       points="3685,2551 3779,2740 3590,2740 "
       style="fill:#ff0000;stroke:#ff0000;stroke-width:16;stroke-linecap:butt;stroke-linejoin:miter"
       id="polygon24" />
    <!-- Line: box -->
    <rect
       x="3401"
       y="4251"
       width="188"
       height="188"
       rx="0"
       style="fill:#0000d1;stroke:#0000d1;stroke-width:16;stroke-linecap:butt;stroke-linejoin:miter"
       id="rect26" />
    <!-- Line -->
    <polygon
       points="4346,4346 4440,4535 4251,4535 "
       style="fill:#ff0000;stroke:#ff0000;stroke-width:16;stroke-linecap:butt;stroke-linejoin:miter"
       id="polygon28" />
    <polygon
       points="4251,4535 4346,4346 4440,4535 "
       style="fill:#ff0000;stroke:#ff0000;stroke-width:16;stroke-linecap:butt;stroke-linejoin:miter"
       id="polygon28-2"
       transform="matrix(0.67209627,0,0,0.67209627,557.90296,1823.5709)" />
    <!-- Text -->
    <path
       style="fill:none;stroke:#000000;stroke-width:24.071;stroke-linecap:round;stroke-linejoin:round;stroke-dasharray:none;stroke-opacity:1;marker-start:url(#RoundedArrow);marker-end:url(#RoundedArrow)"
       d="M 2071.6304,2357.8474 V 5930.8818 H 6020.7737"
       id="path377" />
    <text
       xml:space="preserve"
       style="font-size:334.319px;line-height:1.3;font-family:Arial;-inkscape-font-specification:Arial;text-align:center;text-anchor:middle;fill:#000000;fill-opacity:1;stroke:none;stroke-width:24.071;stroke-linecap:round;stroke-linejoin:round;stroke-dasharray:none;stroke-opacity:1"
       x="4067.4988"
       y="6216.79"
       id="text1877"><tspan
         sodipodi:role="line"
         id="tspan1875"
         style="font-size:334.319px;fill:#000000;fill-opacity:1;stroke:none;stroke-width:24.071"
         x="4067.4988"
         y="6216.79">x</tspan></text>
    <text
       xml:space="preserve"
       style="font-size:334.319px;line-height:1.3;font-family:Arial;-inkscape-font-specification:Arial;text-align:center;text-anchor:middle;fill:#000000;fill-opacity:1;stroke:none;stroke-width:24.071;stroke-linecap:round;stroke-linejoin:round;stroke-dasharray:none;stroke-opacity:1"
       x="-4203.709"
       y="1910.929"
       id="text1877-3"
       transform="rotate(-90)"><tspan
         sodipodi:role="line"
         id="tspan1875-6"
         style="font-size:334.319px;fill:#000000;fill-opacity:1;stroke:none;stroke-width:24.071"
         x="-4203.709"
         y="1910.929">y</tspan></text>
    <circle
       style="fill:none;fill-opacity:1;stroke:#000000;stroke-width:24.071;stroke-linecap:round;stroke-linejoin:round;stroke-dasharray:72.21299742,72.21299742;stroke-opacity:1;stroke-dashoffset:0"
       id="path1265"
       cx="4149.0161"
       cy="4323.1206"
       r="1540.3274" />
    <path
       style="fill:#ff0000;fill-opacity:1;stroke:#b4b4b4;stroke-width:15.6461;stroke-linecap:round;stroke-linejoin:round;stroke-dasharray:46.93830017, 46.93830017;stroke-dashoffset:0;stroke-opacity:1"
       d="m 4157.0001,4299 188.4693,182.1163"
       id="path5644" />
    <path
       style="fill:none;fill-opacity:1;stroke:#b4b4b4;stroke-width:15.6461;stroke-linecap:round;stroke-linejoin:round;stroke-dasharray:46.9383, 46.9383;stroke-dashoffset:0;stroke-opacity:1"
       d="M 4582.5307,4090.8034 4157.0001,4299 4298,3173.3981"
       id="path6132" />
    <path
       style="fill:none;fill-opacity:1;stroke:#b4b4b4;stroke-width:15.6461;stroke-linecap:round;stroke-linejoin:round;stroke-dasharray:46.9383, 46.9383;stroke-dashoffset:0;stroke-opacity:1"
       d="M 4157.0001,4299 3495,4345"
       id="path6188" />
    <path
       style="fill:none;fill-opacity:1;stroke:#b4b4b4;stroke-width:15.6461;stroke-linecap:round;stroke-linejoin:round;stroke-dasharray:46.9383, 46.9383;stroke-dashoffset:0;stroke-opacity:1"
       d="M 4157.0001,4299 2928,3873"
       id="path6190" />
    <g
       id="g6706"
       transform="translate(-301.80546,1096.8875)">
      <g
         fill="#000000"
         fill-opacity="1"
         id="id-42370dc6-ef9d-4720-a743-509312e582bc"
         transform="matrix(15.076045,0,0,15.076045,2556.4691,1480.1778)"
         style="fill:#b4b4b4;fill-opacity:1;stroke:none">
        <g
           transform="translate(148.712,134.765)"
           id="g6413"
           style="fill:#b4b4b4;fill-opacity:1;stroke:none">
          <path
             d="m 5.140625,-6.8125 c 0,0 0,-0.109375 -0.125,-0.109375 -0.15625,0 -1.09375,0.09375 -1.265625,0.109375 -0.078125,0.015625 -0.140625,0.0625 -0.140625,0.1875 0,0.125 0.09375,0.125 0.234375,0.125 0.484375,0 0.5,0.0625 0.5,0.171875 L 4.3125,-6.125 3.71875,-3.765625 C 3.53125,-4.140625 3.25,-4.40625 2.796875,-4.40625 c -1.15625,0 -2.390625,1.46875 -2.390625,2.921875 0,0.9375 0.546875,1.59375 1.3125,1.59375 0.203125,0 0.703125,-0.046875 1.296875,-0.75 0.078125,0.421875 0.4375,0.75 0.90625,0.75 0.359375,0 0.578125,-0.234375 0.75,-0.546875 0.15625,-0.359375 0.296875,-0.96875 0.296875,-0.984375 0,-0.109375 -0.09375,-0.109375 -0.125,-0.109375 -0.09375,0 -0.109375,0.046875 -0.140625,0.1875 -0.171875,0.640625 -0.34375,1.234375 -0.75,1.234375 -0.28125,0 -0.296875,-0.265625 -0.296875,-0.453125 0,-0.25 0.015625,-0.3125 0.046875,-0.484375 z m -2.0625,5.625 C 3.015625,-1 3.015625,-0.984375 2.875,-0.8125 2.4375,-0.265625 2.03125,-0.109375 1.75,-0.109375 c -0.5,0 -0.640625,-0.546875 -0.640625,-0.9375 0,-0.5 0.3125,-1.71875 0.546875,-2.1875 0.3125,-0.578125 0.75,-0.953125 1.15625,-0.953125 0.640625,0 0.78125,0.8125 0.78125,0.875 0,0.0625 -0.015625,0.125 -0.03125,0.171875 z m 0,0"
             id="id-56f4cce6-2110-4feb-912a-1c11064e1594"
             style="fill:#b4b4b4;fill-opacity:1;stroke:none" />
        </g>
      </g>
      <g
         fill="#000000"
         fill-opacity="1"
         id="id-cf917874-2cd6-46cd-8d8a-4cad0255e9e7"
         transform="matrix(15.076045,0,0,15.076045,2556.4691,1480.1778)"
         style="fill:#b4b4b4;fill-opacity:1;stroke:none">
        <g
           transform="translate(156.665,134.765)"
           id="g6417"
           style="fill:#b4b4b4;fill-opacity:1;stroke:none">
          <path
             d="m 6.84375,-3.265625 c 0.15625,0 0.34375,0 0.34375,-0.1875 C 7.1875,-3.65625 7,-3.65625 6.859375,-3.65625 h -5.96875 c -0.140625,0 -0.328125,0 -0.328125,0.203125 0,0.1875 0.1875,0.1875 0.328125,0.1875 z m 0.015625,1.9375 c 0.140625,0 0.328125,0 0.328125,-0.203125 0,-0.1875 -0.1875,-0.1875 -0.34375,-0.1875 H 0.890625 c -0.140625,0 -0.328125,0 -0.328125,0.1875 0,0.203125 0.1875,0.203125 0.328125,0.203125 z m 0,0"
             id="id-e895484b-a30c-4b09-adcb-f5649bc100cb"
             style="fill:#b4b4b4;fill-opacity:1;stroke:none" />
        </g>
      </g>
      <g
         fill="#000000"
         fill-opacity="1"
         id="id-1898bdbb-d36d-48cc-8c9a-3f46323ceefe"
         transform="matrix(15.076045,0,0,15.076045,2556.4691,1480.1778)"
         style="fill:#b4b4b4;fill-opacity:1;stroke:none">
        <g
           transform="translate(167.184,134.765)"
           id="g6421"
           style="fill:#b4b4b4;fill-opacity:1;stroke:none">
          <path
             d="m 2.9375,-6.375 c 0,-0.25 0,-0.265625 -0.234375,-0.265625 C 2.078125,-6 1.203125,-6 0.890625,-6 v 0.3125 c 0.203125,0 0.78125,0 1.296875,-0.265625 v 5.171875 c 0,0.359375 -0.03125,0.46875 -0.921875,0.46875 h -0.3125 V 0 c 0.34375,-0.03125 1.203125,-0.03125 1.609375,-0.03125 0.390625,0 1.265625,0 1.609375,0.03125 v -0.3125 h -0.3125 c -0.90625,0 -0.921875,-0.109375 -0.921875,-0.46875 z m 0,0"
             id="id-2a26492c-2624-426c-95d7-84e210fed15b"
             style="fill:#b4b4b4;fill-opacity:1;stroke:none" />
        </g>
      </g>
    </g>
    <g
       id="g6695"
       transform="translate(-134.17774,376.89865)">
      <g
         fill="#000000"
         fill-opacity="1"
         id="id-e7550886-8428-4d25-bfce-e026e24534af"
         transform="matrix(15.076045,0,0,15.076045,2556.4691,1480.1778)"
         style="fill:#b4b4b4;fill-opacity:1;stroke:none">
        <g
           transform="translate(148.712,146.72)"
           id="g6425"
           style="fill:#b4b4b4;fill-opacity:1;stroke:none">
          <path
             d="m 5.140625,-6.8125 c 0,0 0,-0.109375 -0.125,-0.109375 -0.15625,0 -1.09375,0.09375 -1.265625,0.109375 -0.078125,0.015625 -0.140625,0.0625 -0.140625,0.1875 0,0.125 0.09375,0.125 0.234375,0.125 0.484375,0 0.5,0.0625 0.5,0.171875 L 4.3125,-6.125 3.71875,-3.765625 C 3.53125,-4.140625 3.25,-4.40625 2.796875,-4.40625 c -1.15625,0 -2.390625,1.46875 -2.390625,2.921875 0,0.9375 0.546875,1.59375 1.3125,1.59375 0.203125,0 0.703125,-0.046875 1.296875,-0.75 0.078125,0.421875 0.4375,0.75 0.90625,0.75 0.359375,0 0.578125,-0.234375 0.75,-0.546875 0.15625,-0.359375 0.296875,-0.96875 0.296875,-0.984375 0,-0.109375 -0.09375,-0.109375 -0.125,-0.109375 -0.09375,0 -0.109375,0.046875 -0.140625,0.1875 -0.171875,0.640625 -0.34375,1.234375 -0.75,1.234375 -0.28125,0 -0.296875,-0.265625 -0.296875,-0.453125 0,-0.25 0.015625,-0.3125 0.046875,-0.484375 z m -2.0625,5.625 C 3.015625,-1 3.015625,-0.984375 2.875,-0.8125 2.4375,-0.265625 2.03125,-0.109375 1.75,-0.109375 c -0.5,0 -0.640625,-0.546875 -0.640625,-0.9375 0,-0.5 0.3125,-1.71875 0.546875,-2.1875 0.3125,-0.578125 0.75,-0.953125 1.15625,-0.953125 0.640625,0 0.78125,0.8125 0.78125,0.875 0,0.0625 -0.015625,0.125 -0.03125,0.171875 z m 0,0"
             id="id-59f8843a-a868-4319-83b5-a9b898e379e1"
             style="fill:#b4b4b4;fill-opacity:1;stroke:none" />
        </g>
      </g>
      <g
         fill="#000000"
         fill-opacity="1"
         id="id-2a4398d7-55a7-498f-9783-aac34ee7dc7f"
         transform="matrix(15.076045,0,0,15.076045,2556.4691,1480.1778)"
         style="fill:#b4b4b4;fill-opacity:1;stroke:none">
        <g
           transform="translate(156.665,146.72)"
           id="g6429"
           style="fill:#b4b4b4;fill-opacity:1;stroke:none">
          <path
             d="m 6.84375,-3.265625 c 0.15625,0 0.34375,0 0.34375,-0.1875 C 7.1875,-3.65625 7,-3.65625 6.859375,-3.65625 h -5.96875 c -0.140625,0 -0.328125,0 -0.328125,0.203125 0,0.1875 0.1875,0.1875 0.328125,0.1875 z m 0.015625,1.9375 c 0.140625,0 0.328125,0 0.328125,-0.203125 0,-0.1875 -0.1875,-0.1875 -0.34375,-0.1875 H 0.890625 c -0.140625,0 -0.328125,0 -0.328125,0.1875 0,0.203125 0.1875,0.203125 0.328125,0.203125 z m 0,0"
             id="id-e9fb7c89-186e-4705-ac23-e4798537d159"
             style="fill:#b4b4b4;fill-opacity:1;stroke:none" />
        </g>
      </g>
      <g
         fill="#000000"
         fill-opacity="1"
         id="id-cd34e590-e76d-4fc5-a6f1-3021b96208d5"
         transform="matrix(15.076045,0,0,15.076045,2556.4691,1480.1778)"
         style="fill:#b4b4b4;fill-opacity:1;stroke:none">
        <g
           transform="translate(167.184,146.72)"
           id="g6433"
           style="fill:#b4b4b4;fill-opacity:1;stroke:none">
          <path
             d="m 1.265625,-0.765625 1.0625,-1.03125 c 1.546875,-1.375 2.140625,-1.90625 2.140625,-2.90625 0,-1.140625 -0.890625,-1.9375 -2.109375,-1.9375 -1.125,0 -1.859375,0.921875 -1.859375,1.8125 0,0.546875 0.5,0.546875 0.53125,0.546875 0.171875,0 0.515625,-0.109375 0.515625,-0.53125 0,-0.25 -0.1875,-0.515625 -0.53125,-0.515625 -0.078125,0 -0.09375,0 -0.125,0.015625 0.21875,-0.65625 0.765625,-1.015625 1.34375,-1.015625 0.90625,0 1.328125,0.8125 1.328125,1.625 C 3.5625,-3.90625 3.078125,-3.125 2.515625,-2.5 l -1.90625,2.125 C 0.5,-0.265625 0.5,-0.234375 0.5,0 H 4.203125 L 4.46875,-1.734375 H 4.234375 C 4.171875,-1.4375 4.109375,-1 4,-0.84375 3.9375,-0.765625 3.28125,-0.765625 3.0625,-0.765625 Z m 0,0"
             id="id-c3098ac6-016b-470c-a7c1-9db1fe53df08"
             style="fill:#b4b4b4;fill-opacity:1;stroke:none" />
        </g>
      </g>
    </g>
    <g
       id="g6684"
       transform="translate(-1155.0663,590.98213)">
      <g
         fill="#000000"
         fill-opacity="1"
         id="id-9a69a9a2-dc39-406c-8ebf-12b12d71f587"
         transform="matrix(15.076045,0,0,15.076045,2556.4691,1480.1778)"
         style="fill:#b4b4b4;fill-opacity:1;stroke:none">
        <g
           transform="translate(148.712,158.675)"
           id="g6437"
           style="fill:#b4b4b4;fill-opacity:1;stroke:none">
          <path
             d="m 5.140625,-6.8125 c 0,0 0,-0.109375 -0.125,-0.109375 -0.15625,0 -1.09375,0.09375 -1.265625,0.109375 -0.078125,0.015625 -0.140625,0.0625 -0.140625,0.1875 0,0.125 0.09375,0.125 0.234375,0.125 0.484375,0 0.5,0.0625 0.5,0.171875 L 4.3125,-6.125 3.71875,-3.765625 C 3.53125,-4.140625 3.25,-4.40625 2.796875,-4.40625 c -1.15625,0 -2.390625,1.46875 -2.390625,2.921875 0,0.9375 0.546875,1.59375 1.3125,1.59375 0.203125,0 0.703125,-0.046875 1.296875,-0.75 0.078125,0.421875 0.4375,0.75 0.90625,0.75 0.359375,0 0.578125,-0.234375 0.75,-0.546875 0.15625,-0.359375 0.296875,-0.96875 0.296875,-0.984375 0,-0.109375 -0.09375,-0.109375 -0.125,-0.109375 -0.09375,0 -0.109375,0.046875 -0.140625,0.1875 -0.171875,0.640625 -0.34375,1.234375 -0.75,1.234375 -0.28125,0 -0.296875,-0.265625 -0.296875,-0.453125 0,-0.25 0.015625,-0.3125 0.046875,-0.484375 z m -2.0625,5.625 C 3.015625,-1 3.015625,-0.984375 2.875,-0.8125 2.4375,-0.265625 2.03125,-0.109375 1.75,-0.109375 c -0.5,0 -0.640625,-0.546875 -0.640625,-0.9375 0,-0.5 0.3125,-1.71875 0.546875,-2.1875 0.3125,-0.578125 0.75,-0.953125 1.15625,-0.953125 0.640625,0 0.78125,0.8125 0.78125,0.875 0,0.0625 -0.015625,0.125 -0.03125,0.171875 z m 0,0"
             id="id-f7c8981d-cf5a-4354-81f9-56c138337fa8"
             style="fill:#b4b4b4;fill-opacity:1;stroke:none" />
        </g>
      </g>
      <g
         fill="#000000"
         fill-opacity="1"
         id="id-042b952c-172b-430c-83de-d5b3b0aadab8"
         transform="matrix(15.076045,0,0,15.076045,2556.4691,1480.1778)"
         style="fill:#b4b4b4;fill-opacity:1;stroke:none">
        <g
           transform="translate(156.665,158.675)"
           id="g6441"
           style="fill:#b4b4b4;fill-opacity:1;stroke:none">
          <path
             d="m 6.84375,-3.265625 c 0.15625,0 0.34375,0 0.34375,-0.1875 C 7.1875,-3.65625 7,-3.65625 6.859375,-3.65625 h -5.96875 c -0.140625,0 -0.328125,0 -0.328125,0.203125 0,0.1875 0.1875,0.1875 0.328125,0.1875 z m 0.015625,1.9375 c 0.140625,0 0.328125,0 0.328125,-0.203125 0,-0.1875 -0.1875,-0.1875 -0.34375,-0.1875 H 0.890625 c -0.140625,0 -0.328125,0 -0.328125,0.1875 0,0.203125 0.1875,0.203125 0.328125,0.203125 z m 0,0"
             id="id-caf7255a-be61-4af5-a1bf-2394265ef5bd"
             style="fill:#b4b4b4;fill-opacity:1;stroke:none" />
        </g>
      </g>
      <g
         fill="#000000"
         fill-opacity="1"
         id="id-1ce481aa-5a3d-419e-8bc9-4f5b13520742"
         transform="matrix(15.076045,0,0,15.076045,2556.4691,1480.1778)"
         style="fill:#b4b4b4;fill-opacity:1;stroke:none">
        <g
           transform="translate(167.184,158.675)"
           id="g6445"
           style="fill:#b4b4b4;fill-opacity:1;stroke:none">
          <path
             d="m 2.890625,-3.515625 c 0.8125,-0.265625 1.390625,-0.953125 1.390625,-1.75 0,-0.8125 -0.875,-1.375 -1.828125,-1.375 -1,0 -1.765625,0.59375 -1.765625,1.359375 0,0.328125 0.21875,0.515625 0.515625,0.515625 0.296875,0 0.5,-0.21875 0.5,-0.515625 0,-0.484375 -0.46875,-0.484375 -0.609375,-0.484375 0.296875,-0.5 0.953125,-0.625 1.3125,-0.625 0.421875,0 0.96875,0.21875 0.96875,1.109375 0,0.125 -0.03125,0.703125 -0.28125,1.140625 C 2.796875,-3.65625 2.453125,-3.625 2.203125,-3.625 2.125,-3.609375 1.890625,-3.59375 1.8125,-3.59375 c -0.078125,0.015625 -0.140625,0.03125 -0.140625,0.125 0,0.109375 0.0625,0.109375 0.234375,0.109375 h 0.4375 c 0.8125,0 1.1875,0.671875 1.1875,1.65625 0,1.359375 -0.6875,1.640625 -1.125,1.640625 -0.4375,0 -1.1875,-0.171875 -1.53125,-0.75 0.34375,0.046875 0.65625,-0.171875 0.65625,-0.546875 0,-0.359375 -0.265625,-0.5625 -0.546875,-0.5625 -0.25,0 -0.5625,0.140625 -0.5625,0.578125 0,0.90625 0.921875,1.5625 2.015625,1.5625 1.21875,0 2.125,-0.90625 2.125,-1.921875 0,-0.8125 -0.640625,-1.59375 -1.671875,-1.8125 z m 0,0"
             id="id-a3c085c8-0b0c-46ad-b215-55cc85755342"
             style="fill:#b4b4b4;fill-opacity:1;stroke:none" />
        </g>
      </g>
    </g>
    <g
       id="g6673"
       transform="translate(-931.97787,-617.4336)">
      <g
         fill="#000000"
         fill-opacity="1"
         id="id-23da7b6e-4152-44a1-95dd-4a97bc3072c4"
         transform="matrix(15.076045,0,0,15.076045,2556.4691,1480.1778)"
         style="fill:#b4b4b4;fill-opacity:1;stroke:none">
        <g
           transform="translate(148.712,170.63)"
           id="g6449"
           style="fill:#b4b4b4;fill-opacity:1;stroke:none">
          <path
             d="m 5.140625,-6.8125 c 0,0 0,-0.109375 -0.125,-0.109375 -0.15625,0 -1.09375,0.09375 -1.265625,0.109375 -0.078125,0.015625 -0.140625,0.0625 -0.140625,0.1875 0,0.125 0.09375,0.125 0.234375,0.125 0.484375,0 0.5,0.0625 0.5,0.171875 L 4.3125,-6.125 3.71875,-3.765625 C 3.53125,-4.140625 3.25,-4.40625 2.796875,-4.40625 c -1.15625,0 -2.390625,1.46875 -2.390625,2.921875 0,0.9375 0.546875,1.59375 1.3125,1.59375 0.203125,0 0.703125,-0.046875 1.296875,-0.75 0.078125,0.421875 0.4375,0.75 0.90625,0.75 0.359375,0 0.578125,-0.234375 0.75,-0.546875 0.15625,-0.359375 0.296875,-0.96875 0.296875,-0.984375 0,-0.109375 -0.09375,-0.109375 -0.125,-0.109375 -0.09375,0 -0.109375,0.046875 -0.140625,0.1875 -0.171875,0.640625 -0.34375,1.234375 -0.75,1.234375 -0.28125,0 -0.296875,-0.265625 -0.296875,-0.453125 0,-0.25 0.015625,-0.3125 0.046875,-0.484375 z m -2.0625,5.625 C 3.015625,-1 3.015625,-0.984375 2.875,-0.8125 2.4375,-0.265625 2.03125,-0.109375 1.75,-0.109375 c -0.5,0 -0.640625,-0.546875 -0.640625,-0.9375 0,-0.5 0.3125,-1.71875 0.546875,-2.1875 0.3125,-0.578125 0.75,-0.953125 1.15625,-0.953125 0.640625,0 0.78125,0.8125 0.78125,0.875 0,0.0625 -0.015625,0.125 -0.03125,0.171875 z m 0,0"
             id="id-473be7a7-4dba-47bf-bf29-2aa1327085d3"
             style="fill:#b4b4b4;fill-opacity:1;stroke:none" />
        </g>
      </g>
      <g
         fill="#000000"
         fill-opacity="1"
         id="id-043bd024-5d8a-49b9-a0c2-2b2016eb2aee"
         transform="matrix(15.076045,0,0,15.076045,2556.4691,1480.1778)"
         style="fill:#b4b4b4;fill-opacity:1;stroke:none">
        <g
           transform="translate(156.665,170.63)"
           id="g6453"
           style="fill:#b4b4b4;fill-opacity:1;stroke:none">
          <path
             d="m 6.84375,-3.265625 c 0.15625,0 0.34375,0 0.34375,-0.1875 C 7.1875,-3.65625 7,-3.65625 6.859375,-3.65625 h -5.96875 c -0.140625,0 -0.328125,0 -0.328125,0.203125 0,0.1875 0.1875,0.1875 0.328125,0.1875 z m 0.015625,1.9375 c 0.140625,0 0.328125,0 0.328125,-0.203125 0,-0.1875 -0.1875,-0.1875 -0.34375,-0.1875 H 0.890625 c -0.140625,0 -0.328125,0 -0.328125,0.1875 0,0.203125 0.1875,0.203125 0.328125,0.203125 z m 0,0"
             id="id-e956ca9b-1b34-47a9-aa58-39db234a2842"
             style="fill:#b4b4b4;fill-opacity:1;stroke:none" />
        </g>
      </g>
      <g
         fill="#000000"
         fill-opacity="1"
         id="id-9206933f-b41a-4cec-8261-4b2d57b3432a"
         transform="matrix(15.076045,0,0,15.076045,2556.4691,1480.1778)"
         style="fill:#b4b4b4;fill-opacity:1;stroke:none">
        <g
           transform="translate(167.184,170.63)"
           id="g6457"
           style="fill:#b4b4b4;fill-opacity:1;stroke:none">
          <path
             d="m 1.3125,-3.265625 v -0.25 c 0,-2.515625 1.234375,-2.875 1.75,-2.875 0.234375,0 0.65625,0.0625 0.875,0.40625 -0.15625,0 -0.546875,0 -0.546875,0.4375 0,0.3125 0.234375,0.46875 0.453125,0.46875 0.15625,0 0.46875,-0.09375 0.46875,-0.484375 0,-0.59375 -0.4375,-1.078125 -1.265625,-1.078125 -1.28125,0 -2.625,1.28125 -2.625,3.484375 0,2.671875 1.15625,3.375 2.078125,3.375 1.109375,0 2.0625,-0.9375 2.0625,-2.25 0,-1.265625 -0.890625,-2.21875 -2,-2.21875 -0.671875,0 -1.046875,0.5 -1.25,0.984375 z M 2.5,-0.0625 c -0.625,0 -0.921875,-0.59375 -0.984375,-0.75 -0.1875,-0.46875 -0.1875,-1.265625 -0.1875,-1.4375 0,-0.78125 0.328125,-1.78125 1.21875,-1.78125 0.171875,0 0.625,0 0.9375,0.625 0.171875,0.359375 0.171875,0.875 0.171875,1.359375 0,0.484375 0,0.984375 -0.171875,1.34375 C 3.1875,-0.109375 2.734375,-0.0625 2.5,-0.0625 Z m 0,0"
             id="id-1956a4d4-a2b7-482a-b7d2-d124e352ac25"
             style="fill:#b4b4b4;fill-opacity:1;stroke:none" />
        </g>
      </g>
    </g>
    <g
       id="g6662"
       transform="translate(-1662.5547,-324.61384)">
      <g
         fill="#000000"
         fill-opacity="1"
         id="id-cdd905f4-5b3e-46ba-8fa5-537eabb9ae40"
         transform="matrix(15.076045,0,0,15.076045,2556.4691,1480.1778)"
         style="fill:#b4b4b4;fill-opacity:1;stroke:none">
        <g
           transform="translate(148.712,182.585)"
           id="g6461"
           style="fill:#b4b4b4;fill-opacity:1;stroke:none">
          <path
             d="m 5.140625,-6.8125 c 0,0 0,-0.109375 -0.125,-0.109375 -0.15625,0 -1.09375,0.09375 -1.265625,0.109375 -0.078125,0.015625 -0.140625,0.0625 -0.140625,0.1875 0,0.125 0.09375,0.125 0.234375,0.125 0.484375,0 0.5,0.0625 0.5,0.171875 L 4.3125,-6.125 3.71875,-3.765625 C 3.53125,-4.140625 3.25,-4.40625 2.796875,-4.40625 c -1.15625,0 -2.390625,1.46875 -2.390625,2.921875 0,0.9375 0.546875,1.59375 1.3125,1.59375 0.203125,0 0.703125,-0.046875 1.296875,-0.75 0.078125,0.421875 0.4375,0.75 0.90625,0.75 0.359375,0 0.578125,-0.234375 0.75,-0.546875 0.15625,-0.359375 0.296875,-0.96875 0.296875,-0.984375 0,-0.109375 -0.09375,-0.109375 -0.125,-0.109375 -0.09375,0 -0.109375,0.046875 -0.140625,0.1875 -0.171875,0.640625 -0.34375,1.234375 -0.75,1.234375 -0.28125,0 -0.296875,-0.265625 -0.296875,-0.453125 0,-0.25 0.015625,-0.3125 0.046875,-0.484375 z m -2.0625,5.625 C 3.015625,-1 3.015625,-0.984375 2.875,-0.8125 2.4375,-0.265625 2.03125,-0.109375 1.75,-0.109375 c -0.5,0 -0.640625,-0.546875 -0.640625,-0.9375 0,-0.5 0.3125,-1.71875 0.546875,-2.1875 0.3125,-0.578125 0.75,-0.953125 1.15625,-0.953125 0.640625,0 0.78125,0.8125 0.78125,0.875 0,0.0625 -0.015625,0.125 -0.03125,0.171875 z m 0,0"
             id="id-b0e6f53e-4171-47de-95f3-f02a491ae607"
             style="fill:#b4b4b4;fill-opacity:1;stroke:none" />
        </g>
      </g>
      <g
         fill="#000000"
         fill-opacity="1"
         id="id-731a050d-36a3-4c09-aea3-b9a3f10bac58"
         transform="matrix(15.076045,0,0,15.076045,2556.4691,1480.1778)"
         style="fill:#b4b4b4;fill-opacity:1;stroke:none">
        <g
           transform="translate(156.665,182.585)"
           id="g6465"
           style="fill:#b4b4b4;fill-opacity:1;stroke:none">
          <path
             d="m 6.84375,-3.265625 c 0.15625,0 0.34375,0 0.34375,-0.1875 C 7.1875,-3.65625 7,-3.65625 6.859375,-3.65625 h -5.96875 c -0.140625,0 -0.328125,0 -0.328125,0.203125 0,0.1875 0.1875,0.1875 0.328125,0.1875 z m 0.015625,1.9375 c 0.140625,0 0.328125,0 0.328125,-0.203125 0,-0.1875 -0.1875,-0.1875 -0.34375,-0.1875 H 0.890625 c -0.140625,0 -0.328125,0 -0.328125,0.1875 0,0.203125 0.1875,0.203125 0.328125,0.203125 z m 0,0"
             id="id-e8b5c4a8-4b15-4c98-b4cc-a3640da4eceb"
             style="fill:#b4b4b4;fill-opacity:1;stroke:none" />
        </g>
      </g>
      <g
         fill="#000000"
         fill-opacity="1"
         id="id-ba6f297c-dccd-4fb3-a5d2-086f2d913890"
         transform="matrix(15.076045,0,0,15.076045,2556.4691,1480.1778)"
         style="fill:#b4b4b4;fill-opacity:1;stroke:none">
        <g
           transform="translate(167.184,182.585)"
           id="g6469"
           style="fill:#b4b4b4;fill-opacity:1;stroke:none">
          <path
             d="m 4.75,-6.078125 c 0.078125,-0.109375 0.078125,-0.125 0.078125,-0.34375 H 2.40625 c -1.203125,0 -1.234375,-0.125 -1.265625,-0.3125 h -0.25 L 0.5625,-4.6875 h 0.25 c 0.03125,-0.15625 0.109375,-0.78125 0.25,-0.90625 0.0625,-0.0625 0.84375,-0.0625 0.96875,-0.0625 h 2.0625 C 3.984375,-5.5 3.203125,-4.40625 2.984375,-4.078125 2.078125,-2.734375 1.75,-1.34375 1.75,-0.328125 c 0,0.09375 0,0.546875 0.46875,0.546875 0.453125,0 0.453125,-0.453125 0.453125,-0.546875 V -0.84375 c 0,-0.546875 0.03125,-1.09375 0.109375,-1.625 0.046875,-0.234375 0.171875,-1.09375 0.625,-1.703125 z m 0,0"
             id="id-75fa6bff-f19c-4446-bb17-80b7551d6e35"
             style="fill:#b4b4b4;fill-opacity:1;stroke:none" />
        </g>
      </g>
    </g>
    <path
       d="m 3748.5188,4808.8213 c 2.9496,0 6.4892,0 6.4892,-3.5396 0,-3.8346 -3.5396,-3.8346 -6.1943,-3.8346 h -112.677 c -2.6547,0 -6.1943,0 -6.1943,3.8346 0,3.5396 3.5396,3.5396 6.1943,3.5396 z m 0.2949,36.5758 c 2.6547,0 6.1943,0 6.1943,-3.8346 0,-3.5396 -3.5396,-3.5396 -6.4892,-3.5396 h -112.3821 c -2.6547,0 -6.1943,0 -6.1943,3.5396 0,3.8346 3.5396,3.8346 6.1943,3.8346 z m 0,0"
       id="id-54eaffbb-4df0-4012-b2c5-86c0844f9623"
       style="fill:#000000;fill-opacity:1;stroke:none;stroke-width:0.471946in" />
    <g
       fill="#000000"
       fill-opacity="1"
       id="id-966a7c7d-422e-41c3-b088-7172b2327c6b"
       transform="matrix(18.877832,0,0,18.877832,466.51795,2326.3982)"
       style="stroke:none">
      <g
         transform="translate(178.72,130.842)"
         id="g7410"
         style="stroke:none">
        <path
           d="m 2.328125,-4.4375 c 0,-0.1875 0,-0.1875 -0.203125,-0.1875 -0.453125,0.4375 -1.078125,0.4375 -1.359375,0.4375 v 0.25 c 0.15625,0 0.625,0 1,-0.1875 v 3.546875 c 0,0.234375 0,0.328125 -0.6875,0.328125 H 0.8125 V 0 c 0.125,0 0.984375,-0.03125 1.234375,-0.03125 0.21875,0 1.09375,0.03125 1.25,0.03125 V -0.25 H 3.03125 c -0.703125,0 -0.703125,-0.09375 -0.703125,-0.328125 z m 0,0"
           id="id-ba059387-56a3-48fa-a689-89667fb5d46f"
           style="stroke:none" />
      </g>
    </g>
    <path
       fill="none"
       stroke-width="7.51338"
       stroke-linecap="butt"
       stroke-linejoin="miter"
       stroke="#000000"
       stroke-opacity="1"
       stroke-miterlimit="10"
       d="m 3840.3357,4823.434 h 74.9951"
       id="id-43ec9d21-e1bd-468e-9057-f0d13fc78d2b"
       style="stroke:none" />
    <g
       fill="#000000"
       fill-opacity="1"
       id="id-4f505370-4487-4ae8-a46a-5f4cfd2f10af"
       transform="matrix(18.877832,0,0,18.877832,466.51795,2326.3982)"
       style="stroke:none">
      <g
         transform="translate(178.72,138.2)"
         id="g7415"
         style="stroke:none">
        <path
           d="m 2.328125,-4.4375 c 0,-0.1875 0,-0.1875 -0.203125,-0.1875 -0.453125,0.4375 -1.078125,0.4375 -1.359375,0.4375 v 0.25 c 0.15625,0 0.625,0 1,-0.1875 v 3.546875 c 0,0.234375 0,0.328125 -0.6875,0.328125 H 0.8125 V 0 c 0.125,0 0.984375,-0.03125 1.234375,-0.03125 0.21875,0 1.09375,0.03125 1.25,0.03125 V -0.25 H 3.03125 c -0.703125,0 -0.703125,-0.09375 -0.703125,-0.328125 z m 0,0"
           id="id-4847663c-b70d-4696-956e-7783cf734fc4"
           style="stroke:none" />
      </g>
    </g>
    <g
       fill="#000000"
       fill-opacity="1"
       id="id-1ea8d30f-5ee4-422b-b242-d2a438161006"
       transform="matrix(18.877832,0,0,18.877832,466.51795,2326.3982)"
       style="stroke:none">
      <g
         transform="translate(186.1,134.765)"
         id="g7419"
         style="stroke:none">
        <path
           d="m 4.078125,-2.296875 h 2.78125 C 7,-2.296875 7.1875,-2.296875 7.1875,-2.5 7.1875,-2.6875 7,-2.6875 6.859375,-2.6875 h -2.78125 v -2.796875 c 0,-0.140625 0,-0.328125 -0.203125,-0.328125 -0.203125,0 -0.203125,0.1875 -0.203125,0.328125 V -2.6875 h -2.78125 c -0.140625,0 -0.328125,0 -0.328125,0.1875 0,0.203125 0.1875,0.203125 0.328125,0.203125 h 2.78125 V 0.5 c 0,0.140625 0,0.328125 0.203125,0.328125 0.203125,0 0.203125,-0.1875 0.203125,-0.328125 z m 0,0"
           id="id-7b610481-5140-4aee-b734-294d008ac040"
           style="stroke:none" />
      </g>
    </g>
    <g
       fill="#000000"
       fill-opacity="1"
       id="id-3c1fdc37-355e-42b3-b33c-d1b787a9ff5f"
       transform="matrix(18.877832,0,0,18.877832,466.51795,2326.3982)"
       style="stroke:none">
      <g
         transform="translate(197.259,130.842)"
         id="g7423"
         style="stroke:none">
        <path
           d="m 2.328125,-4.4375 c 0,-0.1875 0,-0.1875 -0.203125,-0.1875 -0.453125,0.4375 -1.078125,0.4375 -1.359375,0.4375 v 0.25 c 0.15625,0 0.625,0 1,-0.1875 v 3.546875 c 0,0.234375 0,0.328125 -0.6875,0.328125 H 0.8125 V 0 c 0.125,0 0.984375,-0.03125 1.234375,-0.03125 0.21875,0 1.09375,0.03125 1.25,0.03125 V -0.25 H 3.03125 c -0.703125,0 -0.703125,-0.09375 -0.703125,-0.328125 z m 0,0"
           id="id-f3e05403-502d-46aa-bf8e-c7b5bff51969"
           style="stroke:none" />
      </g>
    </g>
    <path
       fill="none"
       stroke-width="7.51338"
       stroke-linecap="butt"
       stroke-linejoin="miter"
       stroke="#000000"
       stroke-opacity="1"
       stroke-miterlimit="10"
       d="m 4190.313,4823.434 h 74.9951"
       id="id-7ab55241-0b5a-4894-ab65-59d384013342"
       style="stroke:none" />
    <g
       fill="#000000"
       fill-opacity="1"
       id="id-3654666c-7002-44a7-8469-57e920d23969"
       transform="matrix(18.877832,0,0,18.877832,466.51795,2326.3982)"
       style="stroke:none">
      <g
         transform="translate(197.259,138.2)"
         id="g7428"
         style="stroke:none">
        <path
           d="M 3.515625,-1.265625 H 3.28125 c -0.015625,0.15625 -0.09375,0.5625 -0.1875,0.625 C 3.046875,-0.59375 2.515625,-0.59375 2.40625,-0.59375 H 1.125 c 0.734375,-0.640625 0.984375,-0.84375 1.390625,-1.171875 0.515625,-0.40625 1,-0.84375 1,-1.5 0,-0.84375 -0.734375,-1.359375 -1.625,-1.359375 -0.859375,0 -1.453125,0.609375 -1.453125,1.25 0,0.34375 0.296875,0.390625 0.375,0.390625 0.15625,0 0.359375,-0.125 0.359375,-0.375 0,-0.125 -0.046875,-0.375 -0.40625,-0.375 C 0.984375,-4.21875 1.453125,-4.375 1.78125,-4.375 c 0.703125,0 1.0625,0.546875 1.0625,1.109375 0,0.609375 -0.4375,1.078125 -0.65625,1.328125 L 0.515625,-0.265625 C 0.4375,-0.203125 0.4375,-0.1875 0.4375,0 h 2.875 z m 0,0"
           id="id-9609152b-36b0-4c38-8926-fd4239db079d"
           style="stroke:none" />
      </g>
    </g>
    <g
       fill="#000000"
       fill-opacity="1"
       id="id-2e9b1afc-357f-48fd-9bc1-3d9a32850583"
       transform="matrix(18.877832,0,0,18.877832,466.51795,2326.3982)"
       style="stroke:none">
      <g
         transform="translate(205.193,134.765)"
         id="g7432"
         style="stroke:none">
        <path
           d="m 6.84375,-3.265625 c 0.15625,0 0.34375,0 0.34375,-0.1875 C 7.1875,-3.65625 7,-3.65625 6.859375,-3.65625 h -5.96875 c -0.140625,0 -0.328125,0 -0.328125,0.203125 0,0.1875 0.1875,0.1875 0.328125,0.1875 z m 0.015625,1.9375 c 0.140625,0 0.328125,0 0.328125,-0.203125 0,-0.1875 -0.1875,-0.1875 -0.34375,-0.1875 H 0.890625 c -0.140625,0 -0.328125,0 -0.328125,0.1875 0,0.203125 0.1875,0.203125 0.328125,0.203125 z m 0,0"
           id="id-268724ee-3c33-477c-8c2f-6f4220e6bb70"
           style="stroke:none" />
      </g>
    </g>
    <g
       fill="#000000"
       fill-opacity="1"
       id="id-e68e3d7c-56e1-4c46-8f65-44573600c3bf"
       transform="matrix(18.877832,0,0,18.877832,466.51795,2326.3982)"
       style="stroke:none">
      <g
         transform="translate(215.712,134.765)"
         id="g7436"
         style="stroke:none">
        <path
           d="m 2.9375,-6.375 c 0,-0.25 0,-0.265625 -0.234375,-0.265625 C 2.078125,-6 1.203125,-6 0.890625,-6 v 0.3125 c 0.203125,0 0.78125,0 1.296875,-0.265625 v 5.171875 c 0,0.359375 -0.03125,0.46875 -0.921875,0.46875 h -0.3125 V 0 c 0.34375,-0.03125 1.203125,-0.03125 1.609375,-0.03125 0.390625,0 1.265625,0 1.609375,0.03125 v -0.3125 h -0.3125 c -0.90625,0 -0.921875,-0.109375 -0.921875,-0.46875 z m 0,0"
           id="id-ed725998-524e-4166-a8c8-551336e669e5"
           style="stroke:none" />
      </g>
    </g>
    <g
       fill="#000000"
       fill-opacity="1"
       id="id-e86a02c5-9c9a-4d88-8928-8005e180aac3"
       transform="matrix(18.877832,0,0,18.877832,466.51795,2326.3982)"
       style="stroke:none">
      <g
         transform="translate(220.69,134.765)"
         id="g7440"
         style="stroke:none">
        <path
           d="m 1.90625,-0.53125 c 0,-0.28125 -0.234375,-0.53125 -0.515625,-0.53125 -0.296875,0 -0.53125,0.25 -0.53125,0.53125 C 0.859375,-0.234375 1.09375,0 1.390625,0 1.671875,0 1.90625,-0.234375 1.90625,-0.53125 Z m 0,0"
           id="id-532f630f-59b1-44a0-a71f-f950d93f4692"
           style="stroke:none" />
      </g>
    </g>
    <g
       fill="#000000"
       fill-opacity="1"
       id="id-cbbed65a-b5e7-4dca-8a57-c9b51e6a21ac"
       transform="matrix(18.877832,0,0,18.877832,466.51795,2326.3982)"
       style="stroke:none">
      <g
         transform="translate(223.457,134.765)"
         id="g7444"
         style="stroke:none">
        <path
           d="m 4.46875,-2 c 0,-1.1875 -0.8125,-2.1875 -1.890625,-2.1875 -0.46875,0 -0.90625,0.15625 -1.265625,0.515625 V -5.625 c 0.203125,0.0625 0.53125,0.125 0.84375,0.125 1.234375,0 1.9375,-0.90625 1.9375,-1.03125 0,-0.0625 -0.03125,-0.109375 -0.109375,-0.109375 0,0 -0.03125,0 -0.078125,0.03125 C 3.703125,-6.515625 3.21875,-6.3125 2.546875,-6.3125 2.15625,-6.3125 1.6875,-6.390625 1.21875,-6.59375 1.140625,-6.625 1.125,-6.625 1.109375,-6.625 1,-6.625 1,-6.546875 1,-6.390625 V -3.4375 c 0,0.171875 0,0.25 0.140625,0.25 0.078125,0 0.09375,-0.015625 0.140625,-0.078125 C 1.390625,-3.421875 1.75,-3.96875 2.5625,-3.96875 c 0.515625,0 0.765625,0.453125 0.84375,0.640625 0.15625,0.375 0.1875,0.75 0.1875,1.25 0,0.359375 0,0.953125 -0.25,1.375 C 3.109375,-0.3125 2.734375,-0.0625 2.28125,-0.0625 c -0.71875,0 -1.296875,-0.53125 -1.46875,-1.109375 0.03125,0 0.0625,0.015625 0.171875,0.015625 0.328125,0 0.5,-0.25 0.5,-0.484375 0,-0.25 -0.171875,-0.5 -0.5,-0.5 C 0.84375,-2.140625 0.5,-2.0625 0.5,-1.609375 0.5,-0.75 1.1875,0.21875 2.296875,0.21875 3.453125,0.21875 4.46875,-0.734375 4.46875,-2 Z m 0,0"
           id="id-872d2d9b-11d0-4ff5-9e80-faf8dbb3a62d"
           style="stroke:none" />
      </g>
    </g>
    <g
       fill="#000000"
       fill-opacity="1"
       id="id-48d3fef3-c1a2-4703-ac28-de53f2bc8d85"
       transform="matrix(18.877832,0,0,18.877832,466.51795,2376.546)"
       style="stroke:none">
      <g
         transform="translate(167.011,146.72)"
         id="g7459"
         style="stroke:none">
        <path
           d="m 6.84375,-3.265625 c 0.15625,0 0.34375,0 0.34375,-0.1875 C 7.1875,-3.65625 7,-3.65625 6.859375,-3.65625 h -5.96875 c -0.140625,0 -0.328125,0 -0.328125,0.203125 0,0.1875 0.1875,0.1875 0.328125,0.1875 z m 0.015625,1.9375 c 0.140625,0 0.328125,0 0.328125,-0.203125 0,-0.1875 -0.1875,-0.1875 -0.34375,-0.1875 H 0.890625 c -0.140625,0 -0.328125,0 -0.328125,0.1875 0,0.203125 0.1875,0.203125 0.328125,0.203125 z m 0,0"
           id="id-86f707b5-35f3-416f-8e28-a7c48bd07114"
           style="stroke:none" />
      </g>
    </g>
    <g
       fill="#000000"
       fill-opacity="1"
       id="id-77d27b79-3a1a-4a7a-be8b-664967599ccb"
       transform="matrix(18.877832,0,0,18.877832,466.51795,2376.546)"
       style="stroke:none">
      <g
         transform="translate(178.72,142.797)"
         id="g7463"
         style="stroke:none">
        <path
           d="m 2.328125,-4.4375 c 0,-0.1875 0,-0.1875 -0.203125,-0.1875 -0.453125,0.4375 -1.078125,0.4375 -1.359375,0.4375 v 0.25 c 0.15625,0 0.625,0 1,-0.1875 v 3.546875 c 0,0.234375 0,0.328125 -0.6875,0.328125 H 0.8125 V 0 c 0.125,0 0.984375,-0.03125 1.234375,-0.03125 0.21875,0 1.09375,0.03125 1.25,0.03125 V -0.25 H 3.03125 c -0.703125,0 -0.703125,-0.09375 -0.703125,-0.328125 z m 0,0"
           id="id-87170d98-0248-4e25-81c9-1db4b4d42f7f"
           style="stroke:none" />
      </g>
    </g>
    <path
       fill="none"
       stroke-width="7.51338"
       stroke-linecap="butt"
       stroke-linejoin="miter"
       stroke="#000000"
       stroke-opacity="1"
       stroke-miterlimit="10"
       d="m 3840.3357,5099.3046 h 74.9951"
       id="id-011e634f-02df-4877-8d8c-b1afac8cdeba"
       style="stroke:none" />
    <g
       fill="#000000"
       fill-opacity="1"
       id="id-b278c26d-fa01-4e36-a117-f53e04a9cbba"
       transform="matrix(18.877832,0,0,18.877832,466.51795,2376.546)"
       style="stroke:none">
      <g
         transform="translate(178.72,150.155)"
         id="g7468"
         style="stroke:none">
        <path
           d="m 1.90625,-2.328125 c 0.546875,0 0.9375,0.375 0.9375,1.125 0,0.859375 -0.515625,1.125 -0.90625,1.125 -0.28125,0 -0.90625,-0.078125 -1.1875,-0.5 0.328125,0 0.40625,-0.234375 0.40625,-0.390625 0,-0.21875 -0.171875,-0.375 -0.390625,-0.375 -0.1875,0 -0.390625,0.125 -0.390625,0.40625 0,0.65625 0.71875,1.078125 1.5625,1.078125 0.96875,0 1.640625,-0.65625 1.640625,-1.34375 0,-0.546875 -0.4375,-1.09375 -1.203125,-1.25 0.71875,-0.265625 0.984375,-0.78125 0.984375,-1.21875 0,-0.546875 -0.625,-0.953125 -1.40625,-0.953125 -0.765625,0 -1.359375,0.375 -1.359375,0.9375 0,0.234375 0.15625,0.359375 0.359375,0.359375 0.21875,0 0.359375,-0.15625 0.359375,-0.34375 0,-0.203125 -0.140625,-0.359375 -0.359375,-0.375 0.25,-0.296875 0.71875,-0.375 0.984375,-0.375 0.3125,0 0.75,0.15625 0.75,0.75 0,0.296875 -0.09375,0.625 -0.28125,0.828125 -0.21875,0.265625 -0.421875,0.28125 -0.765625,0.3125 -0.171875,0.015625 -0.1875,0.015625 -0.21875,0.015625 -0.015625,0 -0.078125,0.015625 -0.078125,0.09375 0,0.09375 0.0625,0.09375 0.1875,0.09375 z m 0,0"
           id="id-8a2f8ff7-40c2-4920-8590-d84cb9a65607"
           style="stroke:none" />
      </g>
    </g>
    <g
       fill="#000000"
       fill-opacity="1"
       id="id-2cd66a3e-6de3-434d-bdc1-8985871c9d6f"
       transform="matrix(18.877832,0,0,18.877832,466.51795,2376.546)"
       style="stroke:none">
      <g
         transform="translate(186.1,146.72)"
         id="g7472"
         style="stroke:none">
        <path
           d="m 4.078125,-2.296875 h 2.78125 C 7,-2.296875 7.1875,-2.296875 7.1875,-2.5 7.1875,-2.6875 7,-2.6875 6.859375,-2.6875 h -2.78125 v -2.796875 c 0,-0.140625 0,-0.328125 -0.203125,-0.328125 -0.203125,0 -0.203125,0.1875 -0.203125,0.328125 V -2.6875 h -2.78125 c -0.140625,0 -0.328125,0 -0.328125,0.1875 0,0.203125 0.1875,0.203125 0.328125,0.203125 h 2.78125 V 0.5 c 0,0.140625 0,0.328125 0.203125,0.328125 0.203125,0 0.203125,-0.1875 0.203125,-0.328125 z m 0,0"
           id="id-0a548e89-3260-4457-b808-253635ef1728"
           style="stroke:none" />
      </g>
    </g>
    <g
       fill="#000000"
       fill-opacity="1"
       id="id-c294e1b3-8dcc-423b-a1d2-db3001ed8c9c"
       transform="matrix(18.877832,0,0,18.877832,466.51795,2376.546)"
       style="stroke:none">
      <g
         transform="translate(197.259,142.797)"
         id="g7476"
         style="stroke:none">
        <path
           d="m 2.328125,-4.4375 c 0,-0.1875 0,-0.1875 -0.203125,-0.1875 -0.453125,0.4375 -1.078125,0.4375 -1.359375,0.4375 v 0.25 c 0.15625,0 0.625,0 1,-0.1875 v 3.546875 c 0,0.234375 0,0.328125 -0.6875,0.328125 H 0.8125 V 0 c 0.125,0 0.984375,-0.03125 1.234375,-0.03125 0.21875,0 1.09375,0.03125 1.25,0.03125 V -0.25 H 3.03125 c -0.703125,0 -0.703125,-0.09375 -0.703125,-0.328125 z m 0,0"
           id="id-143ef3e0-56b5-4b14-9f5c-1d6b6ef22603"
           style="stroke:none" />
      </g>
    </g>
    <path
       fill="none"
       stroke-width="7.51338"
       stroke-linecap="butt"
       stroke-linejoin="miter"
       stroke="#000000"
       stroke-opacity="1"
       stroke-miterlimit="10"
       d="m 4190.313,5099.3046 h 74.9951"
       id="id-c202efe7-91d8-4c7f-a86c-a0ba5e44be39"
       style="stroke:none" />
    <g
       fill="#000000"
       fill-opacity="1"
       id="id-22057c44-f29a-4de6-a20a-b2bd8117eaf0"
       transform="matrix(18.877832,0,0,18.877832,466.51795,2376.546)"
       style="stroke:none">
      <g
         transform="translate(197.259,150.155)"
         id="g7481"
         style="stroke:none">
        <path
           d="m 1.046875,-2.28125 c 0,-0.5625 0.046875,-1.078125 0.3125,-1.515625 0.234375,-0.375 0.609375,-0.625 1.0625,-0.625 0.203125,0 0.484375,0.046875 0.625,0.234375 C 2.875,-4.171875 2.71875,-4.046875 2.71875,-3.84375 c 0,0.171875 0.125,0.328125 0.328125,0.328125 0.21875,0 0.34375,-0.140625 0.34375,-0.34375 0,-0.40625 -0.296875,-0.765625 -0.984375,-0.765625 -1,0 -2.03125,0.921875 -2.03125,2.421875 0,1.796875 0.84375,2.34375 1.625,2.34375 0.84375,0 1.578125,-0.65625 1.578125,-1.5625 0,-0.890625 -0.703125,-1.546875 -1.515625,-1.546875 -0.5625,0 -0.859375,0.375 -1.015625,0.6875 z M 2,-0.078125 c -0.359375,0 -0.625,-0.203125 -0.78125,-0.515625 C 1.125,-0.796875 1.0625,-1.15625 1.0625,-1.5625 c 0,-0.6875 0.40625,-1.203125 0.96875,-1.203125 0.3125,0 0.53125,0.125 0.703125,0.375 0.171875,0.265625 0.171875,0.5625 0.171875,0.96875 0,0.390625 0,0.6875 -0.1875,0.96875 -0.15625,0.234375 -0.390625,0.375 -0.71875,0.375 z m 0,0"
           id="id-9d316caf-718d-4004-b5be-1f17d9d35fba"
           style="stroke:none" />
      </g>
    </g>
    <g
       fill="#000000"
       fill-opacity="1"
       id="id-20c2f2b0-3ede-45b8-bed1-a46499b6c3c5"
       transform="matrix(18.877832,0,0,18.877832,466.51795,2376.546)"
       style="stroke:none">
      <g
         transform="translate(204.639,146.72)"
         id="g7485"
         style="stroke:none">
        <path
           d="m 4.078125,-2.296875 h 2.78125 C 7,-2.296875 7.1875,-2.296875 7.1875,-2.5 7.1875,-2.6875 7,-2.6875 6.859375,-2.6875 h -2.78125 v -2.796875 c 0,-0.140625 0,-0.328125 -0.203125,-0.328125 -0.203125,0 -0.203125,0.1875 -0.203125,0.328125 V -2.6875 h -2.78125 c -0.140625,0 -0.328125,0 -0.328125,0.1875 0,0.203125 0.1875,0.203125 0.328125,0.203125 h 2.78125 V 0.5 c 0,0.140625 0,0.328125 0.203125,0.328125 0.203125,0 0.203125,-0.1875 0.203125,-0.328125 z m 0,0"
           id="id-ef79e567-236d-494f-81ba-26aafd65e9b4"
           style="stroke:none" />
      </g>
    </g>
    <g
       fill="#000000"
       fill-opacity="1"
       id="id-7c375bc5-8b29-4302-b36f-f188b3034e17"
       transform="matrix(18.877832,0,0,18.877832,466.51795,2376.546)"
       style="stroke:none">
      <g
         transform="translate(215.797,142.797)"
         id="g7489"
         style="stroke:none">
        <path
           d="m 2.328125,-4.4375 c 0,-0.1875 0,-0.1875 -0.203125,-0.1875 -0.453125,0.4375 -1.078125,0.4375 -1.359375,0.4375 v 0.25 c 0.15625,0 0.625,0 1,-0.1875 v 3.546875 c 0,0.234375 0,0.328125 -0.6875,0.328125 H 0.8125 V 0 c 0.125,0 0.984375,-0.03125 1.234375,-0.03125 0.21875,0 1.09375,0.03125 1.25,0.03125 V -0.25 H 3.03125 c -0.703125,0 -0.703125,-0.09375 -0.703125,-0.328125 z m 0,0"
           id="id-6f9f40d8-b42c-40b7-9618-681de7de53da"
           style="stroke:none" />
      </g>
    </g>
    <path
       fill="none"
       stroke-width="7.51338"
       stroke-linecap="butt"
       stroke-linejoin="miter"
       stroke="#000000"
       stroke-opacity="1"
       stroke-miterlimit="10"
       d="m 4540.2903,5099.3046 h 74.9951"
       id="id-e61558f9-ea2a-46cc-80a3-1a952f9665f3"
       style="stroke:none" />
    <g
       fill="#000000"
       fill-opacity="1"
       id="id-922dee3a-ee7b-4892-9e4b-ce7952366795"
       transform="matrix(18.877832,0,0,18.877832,466.51795,2376.546)"
       style="stroke:none">
      <g
         transform="translate(215.797,150.155)"
         id="g7494"
         style="stroke:none">
        <path
           d="m 3.734375,-4.203125 c 0.0625,-0.09375 0.0625,-0.109375 0.0625,-0.28125 H 1.96875 C 1.6875,-4.484375 1.609375,-4.5 1.359375,-4.515625 1,-4.546875 0.984375,-4.59375 0.96875,-4.703125 H 0.734375 l -0.25,1.484375 H 0.71875 c 0.015625,-0.109375 0.09375,-0.5625 0.203125,-0.640625 0.046875,-0.03125 0.625,-0.03125 0.71875,-0.03125 H 3.15625 c -0.21875,0.28125 -0.578125,0.71875 -0.71875,0.921875 -0.90625,1.1875 -1,2.296875 -1,2.703125 0,0.078125 0,0.40625 0.328125,0.40625 0.34375,0 0.34375,-0.3125 0.34375,-0.40625 v -0.28125 c 0,-1.34375 0.28125,-1.96875 0.578125,-2.34375 z m 0,0"
           id="id-33c8b992-4f49-4b37-bdce-c60a99095533"
           style="stroke:none" />
      </g>
    </g>
    <g
       fill="#000000"
       fill-opacity="1"
       id="id-9dbbd711-45f0-4cc0-82bc-ab5b87a7bef3"
       transform="matrix(18.877832,0,0,18.877832,466.51795,2376.546)"
       style="stroke:none">
      <g
         transform="translate(223.731,146.72)"
         id="g7498"
         style="stroke:none">
        <path
           d="m 6.84375,-3.265625 c 0.15625,0 0.34375,0 0.34375,-0.1875 C 7.1875,-3.65625 7,-3.65625 6.859375,-3.65625 h -5.96875 c -0.140625,0 -0.328125,0 -0.328125,0.203125 0,0.1875 0.1875,0.1875 0.328125,0.1875 z m 0.015625,1.9375 c 0.140625,0 0.328125,0 0.328125,-0.203125 0,-0.1875 -0.1875,-0.1875 -0.34375,-0.1875 H 0.890625 c -0.140625,0 -0.328125,0 -0.328125,0.1875 0,0.203125 0.1875,0.203125 0.328125,0.203125 z m 0,0"
           id="id-82f3ceef-b60a-4b65-ae6d-5235241605c8"
           style="stroke:none" />
      </g>
    </g>
    <g
       fill="#000000"
       fill-opacity="1"
       id="id-74253cc7-45fa-4b5e-91d5-ff15dab0e7f5"
       transform="matrix(18.877832,0,0,18.877832,466.51795,2376.546)"
       style="stroke:none">
      <g
         transform="translate(234.25,146.72)"
         id="g7502"
         style="stroke:none">
        <path
           d="m 4.578125,-3.1875 c 0,-0.796875 -0.046875,-1.59375 -0.390625,-2.328125 -0.453125,-0.96875 -1.28125,-1.125 -1.6875,-1.125 -0.609375,0 -1.328125,0.265625 -1.75,1.1875 -0.3125,0.6875 -0.359375,1.46875 -0.359375,2.265625 0,0.75 0.03125,1.640625 0.453125,2.40625 0.421875,0.796875 1.15625,1 1.640625,1 0.53125,0 1.296875,-0.203125 1.734375,-1.15625 0.3125,-0.6875 0.359375,-1.46875 0.359375,-2.25 z M 2.484375,0 C 2.09375,0 1.5,-0.25 1.328125,-1.203125 1.21875,-1.796875 1.21875,-2.71875 1.21875,-3.3125 c 0,-0.640625 0,-1.296875 0.078125,-1.828125 0.1875,-1.1875 0.9375,-1.28125 1.1875,-1.28125 0.328125,0 0.984375,0.1875 1.171875,1.171875 0.109375,0.5625 0.109375,1.3125 0.109375,1.9375 0,0.75 0,1.421875 -0.109375,2.0625 C 3.5,-0.296875 2.9375,0 2.484375,0 Z m 0,0"
           id="id-c7d6ee21-73bc-49aa-b628-dc4d4a73413e"
           style="stroke:none" />
      </g>
    </g>
    <g
       fill="#000000"
       fill-opacity="1"
       id="id-eb3ee094-cd0f-4ef6-a7ce-d65c37f195a5"
       transform="matrix(18.877832,0,0,18.877832,466.51795,2376.546)"
       style="stroke:none">
      <g
         transform="translate(239.229,146.72)"
         id="g7506"
         style="stroke:none">
        <path
           d="m 1.90625,-0.53125 c 0,-0.28125 -0.234375,-0.53125 -0.515625,-0.53125 -0.296875,0 -0.53125,0.25 -0.53125,0.53125 C 0.859375,-0.234375 1.09375,0 1.390625,0 1.671875,0 1.90625,-0.234375 1.90625,-0.53125 Z m 0,0"
           id="id-aad1379c-75e9-4deb-b992-597135857a14"
           style="stroke:none" />
      </g>
    </g>
    <g
       fill="#000000"
       fill-opacity="1"
       id="id-0d9e0040-fde8-4c13-8962-4e29bfb6bcdf"
       transform="matrix(18.877832,0,0,18.877832,466.51795,2376.546)"
       style="stroke:none">
      <g
         transform="translate(241.996,146.72)"
         id="g7510"
         style="stroke:none">
        <path
           d="m 1.3125,-3.265625 v -0.25 c 0,-2.515625 1.234375,-2.875 1.75,-2.875 0.234375,0 0.65625,0.0625 0.875,0.40625 -0.15625,0 -0.546875,0 -0.546875,0.4375 0,0.3125 0.234375,0.46875 0.453125,0.46875 0.15625,0 0.46875,-0.09375 0.46875,-0.484375 0,-0.59375 -0.4375,-1.078125 -1.265625,-1.078125 -1.28125,0 -2.625,1.28125 -2.625,3.484375 0,2.671875 1.15625,3.375 2.078125,3.375 1.109375,0 2.0625,-0.9375 2.0625,-2.25 0,-1.265625 -0.890625,-2.21875 -2,-2.21875 -0.671875,0 -1.046875,0.5 -1.25,0.984375 z M 2.5,-0.0625 c -0.625,0 -0.921875,-0.59375 -0.984375,-0.75 -0.1875,-0.46875 -0.1875,-1.265625 -0.1875,-1.4375 0,-0.78125 0.328125,-1.78125 1.21875,-1.78125 0.171875,0 0.625,0 0.9375,0.625 0.171875,0.359375 0.171875,0.875 0.171875,1.359375 0,0.484375 0,0.984375 -0.171875,1.34375 C 3.1875,-0.109375 2.734375,-0.0625 2.5,-0.0625 Z m 0,0"
           id="id-d1401db9-14b0-47a9-af33-005720091013"
           style="stroke:none" />
      </g>
      <g
         transform="translate(246.977,146.72)"
         id="g7513"
         style="stroke:none">
        <path
           d="m 2.9375,-1.640625 v 0.859375 c 0,0.359375 -0.03125,0.46875 -0.765625,0.46875 H 1.96875 V 0 C 2.375,-0.03125 2.890625,-0.03125 3.3125,-0.03125 c 0.421875,0 0.9375,0 1.359375,0.03125 v -0.3125 h -0.21875 c -0.734375,0 -0.75,-0.109375 -0.75,-0.46875 V -1.640625 H 4.6875 v -0.3125 H 3.703125 v -4.53125 c 0,-0.203125 0,-0.265625 -0.171875,-0.265625 -0.078125,0 -0.109375,0 -0.1875,0.125 l -3.0625,4.671875 v 0.3125 z m 0.046875,-0.3125 H 0.5625 l 2.421875,-3.71875 z m 0,0"
           id="id-b658884e-9c2b-413b-b2b0-3183ac4aa7d1"
           style="stroke:none" />
      </g>
    </g>
    <path
       d="m 3933.8769,4827.1211 c 2.9496,0 6.4892,0 6.4892,-3.5396 0,-3.8346 -3.5396,-3.8346 -6.1943,-3.8346 h -112.6771 c -2.6547,0 -6.1943,0 -6.1943,3.8346 0,3.5396 3.5396,3.5396 6.1943,3.5396 z"
       id="id-54eaffbb-4df0-4012-b2c5-86c0844f9623-3"
       style="fill:#000000;fill-opacity:1;stroke:none;stroke-width:0.471946in"
       sodipodi:nodetypes="sssssss" />
    <path
       d="m 4289.095,4827.1211 c 2.9496,0 6.4892,0 6.4892,-3.5396 0,-3.8346 -3.5396,-3.8346 -6.1943,-3.8346 h -112.6771 c -2.6547,0 -6.1943,0 -6.1943,3.8346 0,3.5396 3.5396,3.5396 6.1943,3.5396 z"
       id="path612"
       style="fill:#000000;fill-opacity:1;stroke:none;stroke-width:0.471946in"
       sodipodi:nodetypes="sssssss" />
    <path
       d="m 4289.095,5101.614 c 2.9496,0 6.4892,0 6.4892,-3.5396 0,-3.8346 -3.5396,-3.8346 -6.1943,-3.8346 h -112.6771 c -2.6547,0 -6.1943,0 -6.1943,3.8346 0,3.5396 3.5396,3.5396 6.1943,3.5396 z"
       id="path614"
       style="fill:#000000;fill-opacity:1;stroke:none;stroke-width:0.471946in"
       sodipodi:nodetypes="sssssss" />
    <path
       d="m 3933.8769,5101.614 c 2.9496,0 6.4892,0 6.4892,-3.5396 0,-3.8346 -3.5396,-3.8346 -6.1943,-3.8346 h -112.6771 c -2.6547,0 -6.1943,0 -6.1943,3.8346 0,3.5396 3.5396,3.5396 6.1943,3.5396 z"
       id="path616"
       style="fill:#000000;fill-opacity:1;stroke:none;stroke-width:0.471946in"
       sodipodi:nodetypes="sssssss" />
    <path
       d="m 4633.8315,5101.614 c 2.9496,0 6.4892,0 6.4892,-3.5396 0,-3.8346 -3.5396,-3.8346 -6.1943,-3.8346 h -112.6771 c -2.6547,0 -6.1943,0 -6.1943,3.8346 0,3.5396 3.5396,3.5396 6.1943,3.5396 z"
       id="path618"
       style="fill:#000000;fill-opacity:1;stroke:none;stroke-width:0.471946in"
       sodipodi:nodetypes="sssssss" />
  </g>
</svg>
