<?xml version="1.0" encoding="UTF-8" standalone="no"?>
<!-- Creator: fig2dev Version 3.2 Patchlevel 5 -->

<!-- CreationDate: Sun May 27 22:05:56 2007 -->

<!-- Magnification: 1.050 -->

<svg
   width="3.6535108in"
   height="3.3009994in"
   viewBox="2197 2433 4397.1772 3943.5154"
   version="1.1"
   id="svg34"
   sodipodi:docname="KnnClassification_0.svg"
   inkscape:version="1.2.2 (b0a8486541, 2022-12-01)"
   xmlns:inkscape="http://www.inkscape.org/namespaces/inkscape"
   xmlns:sodipodi="http://sodipodi.sourceforge.net/DTD/sodipodi-0.dtd"
   xmlns="http://www.w3.org/2000/svg"
   xmlns:svg="http://www.w3.org/2000/svg">
  <defs
     id="defs38">
    <marker
       style="overflow:visible"
       id="RoundedArrow"
       refX="0"
       refY="0"
       orient="auto-start-reverse"
       inkscape:stockid="RoundedArrow"
       markerWidth="6.1347523"
       markerHeight="5.9304948"
       viewBox="0 0 6.1347524 5.9304951"
       inkscape:isstock="true"
       inkscape:collect="always"
       preserveAspectRatio="xMidYMid">
      <path
         transform="scale(0.7)"
         d="m -0.21114562,-4.1055728 6.42229122,3.21114561 a 1,1 90 0 1 0,1.78885438 L -0.21114562,4.1055728 A 1.236068,1.236068 31.717474 0 1 -2,3 v -6 a 1.236068,1.236068 148.28253 0 1 1.78885438,-1.1055728 z"
         style="fill:context-stroke;fill-rule:evenodd;stroke:none"
         id="path1367" />
    </marker>
    <defs
       id="id-30093b9f-8b99-43bf-b9c6-7e0eb135c8c6">
      <g
         id="id-ebf7e818-98f0-46ac-b400-b005f7bb10e0">
        <g
           id="id-abd13d8a-155d-4be8-8313-7b56d85434b2">
          <path
             d="m 3.296875,2.390625 c 0,-0.03125 0,-0.046875 -0.171875,-0.21875 C 1.890625,0.921875 1.5625,-0.96875 1.5625,-2.5 c 0,-1.734375 0.375,-3.46875 1.609375,-4.703125 0.125,-0.125 0.125,-0.140625 0.125,-0.171875 0,-0.078125 -0.03125,-0.109375 -0.09375,-0.109375 -0.109375,0 -1,0.6875 -1.59375,1.953125 -0.5,1.09375 -0.625,2.203125 -0.625,3.03125 0,0.78125 0.109375,1.984375 0.65625,3.125 C 2.25,1.84375 3.09375,2.5 3.203125,2.5 c 0.0625,0 0.09375,-0.03125 0.09375,-0.109375 z m 0,0"
             id="id-e33f011a-b6f1-40ad-a951-f69a023c50dc" />
        </g>
        <g
           id="id-1d663dcb-9403-4181-b3a1-7c225ece8794">
          <path
             d="m 2.875,-2.5 c 0,-0.765625 -0.109375,-1.96875 -0.65625,-3.109375 -0.59375,-1.21875 -1.453125,-1.875 -1.546875,-1.875 -0.0625,0 -0.109375,0.046875 -0.109375,0.109375 0,0.03125 0,0.046875 0.1875,0.234375 0.984375,0.984375 1.546875,2.5625 1.546875,4.640625 0,1.71875 -0.359375,3.46875 -1.59375,4.71875 C 0.5625,2.34375 0.5625,2.359375 0.5625,2.390625 0.5625,2.453125 0.609375,2.5 0.671875,2.5 0.765625,2.5 1.671875,1.8125 2.25,0.546875 2.765625,-0.546875 2.875,-1.65625 2.875,-2.5 Z m 0,0"
             id="id-2846733d-2f28-4710-8fd8-33c7eb27763b" />
        </g>
        <g
           id="id-bf0a9a7d-34f2-4634-a8f7-6106d04bf382">
          <path
             d="m 6.84375,-3.265625 c 0.15625,0 0.34375,0 0.34375,-0.1875 C 7.1875,-3.65625 7,-3.65625 6.859375,-3.65625 h -5.96875 c -0.140625,0 -0.328125,0 -0.328125,0.203125 0,0.1875 0.1875,0.1875 0.328125,0.1875 z m 0.015625,1.9375 c 0.140625,0 0.328125,0 0.328125,-0.203125 0,-0.1875 -0.1875,-0.1875 -0.34375,-0.1875 H 0.890625 c -0.140625,0 -0.328125,0 -0.328125,0.1875 0,0.203125 0.1875,0.203125 0.328125,0.203125 z m 0,0"
             id="id-1d980270-6017-4f4c-bfb3-a27c5d642144" />
        </g>
        <g
           id="id-27cc5f14-9a39-4fc9-8a95-34e8f899e989">
          <path
             d="m 4.078125,-2.296875 h 2.78125 C 7,-2.296875 7.1875,-2.296875 7.1875,-2.5 7.1875,-2.6875 7,-2.6875 6.859375,-2.6875 h -2.78125 v -2.796875 c 0,-0.140625 0,-0.328125 -0.203125,-0.328125 -0.203125,0 -0.203125,0.1875 -0.203125,0.328125 V -2.6875 h -2.78125 c -0.140625,0 -0.328125,0 -0.328125,0.1875 0,0.203125 0.1875,0.203125 0.328125,0.203125 h 2.78125 V 0.5 c 0,0.140625 0,0.328125 0.203125,0.328125 0.203125,0 0.203125,-0.1875 0.203125,-0.328125 z m 0,0"
             id="id-a80a5495-4899-4c3c-a5d6-839933279c30" />
        </g>
        <g
           id="id-b526893e-5099-490e-bc5f-1e091e0c25fa">
          <path
             d="M 3.328125,-3.015625 C 3.390625,-3.265625 3.625,-4.1875 4.3125,-4.1875 c 0.046875,0 0.296875,0 0.5,0.125 C 4.53125,-4 4.34375,-3.765625 4.34375,-3.515625 c 0,0.15625 0.109375,0.34375 0.375,0.34375 0.21875,0 0.53125,-0.171875 0.53125,-0.578125 0,-0.515625 -0.578125,-0.65625 -0.921875,-0.65625 -0.578125,0 -0.921875,0.53125 -1.046875,0.75 -0.25,-0.65625 -0.78125,-0.75 -1.078125,-0.75 -1.03125,0 -1.609375,1.28125 -1.609375,1.53125 0,0.109375 0.109375,0.109375 0.125,0.109375 0.078125,0 0.109375,-0.03125 0.125,-0.109375 0.34375,-1.0625 1,-1.3125 1.34375,-1.3125 0.1875,0 0.53125,0.09375 0.53125,0.671875 0,0.3125 -0.171875,0.96875 -0.53125,2.375 -0.15625,0.609375 -0.515625,1.03125 -0.953125,1.03125 -0.0625,0 -0.28125,0 -0.5,-0.125 0.25,-0.0625 0.46875,-0.265625 0.46875,-0.546875 0,-0.265625 -0.21875,-0.34375 -0.359375,-0.34375 -0.3125,0 -0.546875,0.25 -0.546875,0.578125 0,0.453125 0.484375,0.65625 0.921875,0.65625 0.671875,0 1.03125,-0.703125 1.046875,-0.75 0.125,0.359375 0.484375,0.75 1.078125,0.75 1.03125,0 1.59375,-1.28125 1.59375,-1.53125 0,-0.109375 -0.078125,-0.109375 -0.109375,-0.109375 -0.09375,0 -0.109375,0.046875 -0.140625,0.109375 -0.328125,1.078125 -1,1.3125 -1.3125,1.3125 -0.390625,0 -0.546875,-0.3125 -0.546875,-0.65625 0,-0.21875 0.046875,-0.4375 0.15625,-0.875 z m 0,0"
             id="id-686e6b33-368c-4a6c-b632-4f9561c32cd6" />
        </g>
        <g
           id="id-adabcbbc-871d-4b7e-8352-b8ea5ec94c0d">
          <path
             d="m 2.03125,-0.015625 c 0,-0.65625 -0.25,-1.046875 -0.640625,-1.046875 -0.328125,0 -0.53125,0.25 -0.53125,0.53125 C 0.859375,-0.265625 1.0625,0 1.390625,0 1.5,0 1.640625,-0.046875 1.734375,-0.125 1.765625,-0.15625 1.78125,-0.15625 1.78125,-0.15625 c 0.015625,0 0.015625,0 0.015625,0.140625 0,0.75 -0.34375,1.34375 -0.671875,1.671875 -0.109375,0.109375 -0.109375,0.125 -0.109375,0.15625 0,0.078125 0.046875,0.109375 0.09375,0.109375 0.109375,0 0.921875,-0.765625 0.921875,-1.9375 z m 0,0"
             id="id-91072b1a-8729-45bd-a436-c50324e2dc05" />
        </g>
        <g
           id="id-33c3ad4b-6f5d-4bf4-b83f-384b1ae26071">
          <path
             d="m 4.84375,-3.796875 c 0.046875,-0.140625 0.046875,-0.15625 0.046875,-0.234375 0,-0.171875 -0.140625,-0.265625 -0.296875,-0.265625 -0.09375,0 -0.25,0.0625 -0.34375,0.203125 -0.015625,0.0625 -0.109375,0.359375 -0.140625,0.546875 -0.078125,0.25 -0.140625,0.53125 -0.203125,0.796875 l -0.453125,1.796875 c -0.03125,0.140625 -0.46875,0.84375 -1.125,0.84375 -0.5,0 -0.609375,-0.4375 -0.609375,-0.8125 C 1.71875,-1.375 1.890625,-2 2.21875,-2.875 2.375,-3.28125 2.421875,-3.390625 2.421875,-3.59375 c 0,-0.4375 -0.3125,-0.8125 -0.8125,-0.8125 -0.953125,0 -1.3125,1.453125 -1.3125,1.53125 0,0.109375 0.09375,0.109375 0.109375,0.109375 0.109375,0 0.109375,-0.03125 0.15625,-0.1875 0.28125,-0.9375 0.671875,-1.234375 1.015625,-1.234375 0.078125,0 0.25,0 0.25,0.3125 0,0.25 -0.109375,0.515625 -0.171875,0.703125 -0.40625,1.0625 -0.578125,1.625 -0.578125,2.09375 0,0.890625 0.625,1.1875 1.21875,1.1875 0.390625,0 0.71875,-0.171875 1,-0.453125 -0.125,0.515625 -0.25,1.015625 -0.640625,1.546875 -0.265625,0.328125 -0.640625,0.625 -1.09375,0.625 -0.140625,0 -0.59375,-0.03125 -0.765625,-0.421875 0.15625,0 0.296875,0 0.421875,-0.125 C 1.328125,1.203125 1.421875,1.0625 1.421875,0.875 1.421875,0.5625 1.15625,0.53125 1.0625,0.53125 0.828125,0.53125 0.5,0.6875 0.5,1.171875 c 0,0.5 0.4375,0.875 1.0625,0.875 1.015625,0 2.046875,-0.90625 2.328125,-2.03125 z m 0,0"
             id="id-3b1c9d7b-39eb-42ac-8983-dd462ed8f096" />
        </g>
        <g
           id="id-0987153f-8d64-4228-99b9-17b3991d3099">
          <path
             d="m 5.140625,-6.8125 c 0,0 0,-0.109375 -0.125,-0.109375 -0.15625,0 -1.09375,0.09375 -1.265625,0.109375 -0.078125,0.015625 -0.140625,0.0625 -0.140625,0.1875 0,0.125 0.09375,0.125 0.234375,0.125 0.484375,0 0.5,0.0625 0.5,0.171875 L 4.3125,-6.125 3.71875,-3.765625 C 3.53125,-4.140625 3.25,-4.40625 2.796875,-4.40625 c -1.15625,0 -2.390625,1.46875 -2.390625,2.921875 0,0.9375 0.546875,1.59375 1.3125,1.59375 0.203125,0 0.703125,-0.046875 1.296875,-0.75 0.078125,0.421875 0.4375,0.75 0.90625,0.75 0.359375,0 0.578125,-0.234375 0.75,-0.546875 0.15625,-0.359375 0.296875,-0.96875 0.296875,-0.984375 0,-0.109375 -0.09375,-0.109375 -0.125,-0.109375 -0.09375,0 -0.109375,0.046875 -0.140625,0.1875 -0.171875,0.640625 -0.34375,1.234375 -0.75,1.234375 -0.28125,0 -0.296875,-0.265625 -0.296875,-0.453125 0,-0.25 0.015625,-0.3125 0.046875,-0.484375 z m -2.0625,5.625 C 3.015625,-1 3.015625,-0.984375 2.875,-0.8125 2.4375,-0.265625 2.03125,-0.109375 1.75,-0.109375 c -0.5,0 -0.640625,-0.546875 -0.640625,-0.9375 0,-0.5 0.3125,-1.71875 0.546875,-2.1875 0.3125,-0.578125 0.75,-0.953125 1.15625,-0.953125 0.640625,0 0.78125,0.8125 0.78125,0.875 0,0.0625 -0.015625,0.125 -0.03125,0.171875 z m 0,0"
             id="id-41785c67-3950-4ba8-a35b-ca6acb6088cc" />
        </g>
        <g
           id="id-d6737682-6b77-44da-a466-f401dab64e53">
          <path
             d="m 1.90625,-0.53125 c 0,-0.28125 -0.234375,-0.53125 -0.515625,-0.53125 -0.296875,0 -0.53125,0.25 -0.53125,0.53125 C 0.859375,-0.234375 1.09375,0 1.390625,0 1.671875,0 1.90625,-0.234375 1.90625,-0.53125 Z m 0,0"
             id="id-aa2ebf54-c02f-4590-91f6-f072f6e95b6b" />
        </g>
        <g
           id="id-d5fb1509-e0c6-4419-8a32-ecde5a344dd1">
          <path
             d="m 2.328125,-4.4375 c 0,-0.1875 0,-0.1875 -0.203125,-0.1875 -0.453125,0.4375 -1.078125,0.4375 -1.359375,0.4375 v 0.25 c 0.15625,0 0.625,0 1,-0.1875 v 3.546875 c 0,0.234375 0,0.328125 -0.6875,0.328125 H 0.8125 V 0 c 0.125,0 0.984375,-0.03125 1.234375,-0.03125 0.21875,0 1.09375,0.03125 1.25,0.03125 V -0.25 H 3.03125 c -0.703125,0 -0.703125,-0.09375 -0.703125,-0.328125 z m 0,0"
             id="id-f05f4a57-1263-4d25-a208-1859bb263764" />
        </g>
        <g
           id="id-39e9a914-6134-4874-96b6-8229ea5c960e">
          <path
             d="M 3.515625,-1.265625 H 3.28125 c -0.015625,0.15625 -0.09375,0.5625 -0.1875,0.625 C 3.046875,-0.59375 2.515625,-0.59375 2.40625,-0.59375 H 1.125 c 0.734375,-0.640625 0.984375,-0.84375 1.390625,-1.171875 0.515625,-0.40625 1,-0.84375 1,-1.5 0,-0.84375 -0.734375,-1.359375 -1.625,-1.359375 -0.859375,0 -1.453125,0.609375 -1.453125,1.25 0,0.34375 0.296875,0.390625 0.375,0.390625 0.15625,0 0.359375,-0.125 0.359375,-0.375 0,-0.125 -0.046875,-0.375 -0.40625,-0.375 C 0.984375,-4.21875 1.453125,-4.375 1.78125,-4.375 c 0.703125,0 1.0625,0.546875 1.0625,1.109375 0,0.609375 -0.4375,1.078125 -0.65625,1.328125 L 0.515625,-0.265625 C 0.4375,-0.203125 0.4375,-0.1875 0.4375,0 h 2.875 z m 0,0"
             id="id-7f961c37-351a-4599-941d-25aeba74d14f" />
        </g>
        <g
           id="id-3284969d-9678-49e5-8bd0-682e83b90d14">
          <path
             d="m 6.5625,-2.296875 c 0.171875,0 0.359375,0 0.359375,-0.203125 0,-0.1875 -0.1875,-0.1875 -0.359375,-0.1875 H 1.171875 c -0.171875,0 -0.34375,0 -0.34375,0.1875 0,0.203125 0.171875,0.203125 0.34375,0.203125 z m 0,0"
             id="id-3b8cee80-28d2-49e7-9a03-928f56852a19" />
        </g>
        <g
           id="id-f946eb4c-3165-427f-b04d-7f7ed9b2286b">
          <path
             d="m 4.234375,11.5625 c 0.296875,0 0.3125,-0.01563 0.40625,-0.203125 l 5.453125,-11.375 c 0.07813,-0.140625 0.07813,-0.15625 0.07813,-0.1875 0,-0.109375 -0.07813,-0.203125 -0.203125,-0.203125 -0.125,0 -0.171875,0.09375 -0.21875,0.203125 L 4.609375,10.53125 2.484375,5.578125 1.09375,6.65625 1.25,6.8125 1.953125,6.265625 Z m 0,0"
             id="id-8292d185-6598-48d0-9f24-299cd07ddef3" />
        </g>
      </g>
    </defs>
  </defs>
  <sodipodi:namedview
     id="namedview36"
     pagecolor="#ffffff"
     bordercolor="#000000"
     borderopacity="0.25"
     inkscape:showpageshadow="2"
     inkscape:pageopacity="0.0"
     inkscape:pagecheckerboard="0"
     inkscape:deskcolor="#d1d1d1"
     inkscape:document-units="in"
     showgrid="false"
     inkscape:zoom="3.8206846"
     inkscape:cx="144.08413"
     inkscape:cy="123.14547"
     inkscape:window-width="2560"
     inkscape:window-height="1440"
     inkscape:window-x="0"
     inkscape:window-y="0"
     inkscape:window-maximized="1"
     inkscape:current-layer="g32">
    <inkscape:grid
       type="xygrid"
       id="grid375"
       originx="459.43372"
       originy="175.34773" />
  </sodipodi:namedview>
  <g
     style="fill:none;stroke:#000000;stroke-width:0.025in"
     id="g32"
     transform="translate(459.43373,176.65488)">
    <!-- Circle -->
    <circle
       cx="4157"
       cy="4299"
       r="106"
       style="fill:none;stroke:#000000;stroke-width:16;stroke-opacity:1"
       id="circle2" />
    <!-- Circle -->
    <!-- Circle -->
    <!-- Line: box -->
    <rect
       x="2220"
       y="4251"
       width="188"
       height="188"
       rx="0"
       style="fill:#0000d1;stroke:#0000d1;stroke-width:16;stroke-linecap:butt;stroke-linejoin:miter"
       id="rect8" />
    <!-- Line: box -->
    <rect
       x="2220"
       y="3779"
       width="188"
       height="188"
       rx="0"
       style="fill:#0000d1;stroke:#0000d1;stroke-width:16;stroke-linecap:butt;stroke-linejoin:miter"
       id="rect10" />
    <!-- Line: box -->
    <rect
       x="2267"
       y="2787"
       width="188"
       height="188"
       rx="0"
       style="fill:#0000d1;stroke:#0000d1;stroke-width:16;stroke-linecap:butt;stroke-linejoin:miter"
       id="rect12" />
    <!-- Line: box -->
    <rect
       x="2834"
       y="3779"
       width="188"
       height="188"
       rx="0"
       style="fill:#0000d1;stroke:#0000d1;stroke-width:16;stroke-linecap:butt;stroke-linejoin:miter"
       id="rect14" />
    <!-- Line: box -->
    <rect
       x="4204"
       y="3070"
       width="188"
       height="188"
       rx="0"
       style="fill:#0000d1;stroke:#0000d1;stroke-width:16;stroke-linecap:butt;stroke-linejoin:miter"
       id="rect16" />
    <!-- Line -->
    <polygon
       points="4582,3968 4677,4157 4488,4157 "
       style="fill:#ff0000;stroke:#ff0000;stroke-width:16;stroke-linecap:butt;stroke-linejoin:miter"
       id="polygon18" />
    <!-- Line -->
    <polygon
       points="4771,2456 4866,2645 4677,2645 "
       style="fill:#ff0000;stroke:#ff0000;stroke-width:16;stroke-linecap:butt;stroke-linejoin:miter"
       id="polygon20" />
    <!-- Line -->
    <polygon
       points="5811,2787 5905,2976 5716,2976 "
       style="fill:#ff0000;stroke:#ff0000;stroke-width:16;stroke-linecap:butt;stroke-linejoin:miter"
       id="polygon22" />
    <!-- Line -->
    <polygon
       points="3685,2551 3779,2740 3590,2740 "
       style="fill:#ff0000;stroke:#ff0000;stroke-width:16;stroke-linecap:butt;stroke-linejoin:miter"
       id="polygon24" />
    <!-- Line: box -->
    <rect
       x="3401"
       y="4251"
       width="188"
       height="188"
       rx="0"
       style="fill:#0000d1;stroke:#0000d1;stroke-width:16;stroke-linecap:butt;stroke-linejoin:miter"
       id="rect26" />
    <!-- Line -->
    <polygon
       points="4346,4346 4440,4535 4251,4535 "
       style="fill:#ff0000;stroke:#ff0000;stroke-width:16;stroke-linecap:butt;stroke-linejoin:miter"
       id="polygon28" />
    <!-- Text -->
    <text
       xml:space="preserve"
       x="4067"
       y="4110"
       stroke="#008f00"
       fill="#008f00"
       font-family="Times"
       font-style="normal"
       font-weight="normal"
       font-size="252px"
       text-anchor="start"
       id="text30"
       style="stroke:none;stroke-opacity:1;fill:#000000;fill-opacity:1">?</text>
    <path
       style="fill:none;stroke:#000000;stroke-width:24.071;stroke-linecap:round;stroke-linejoin:round;stroke-dasharray:none;stroke-opacity:1;marker-start:url(#RoundedArrow);marker-end:url(#RoundedArrow)"
       d="M 2071.6304,2357.8474 V 5930.8818 H 6020.7737"
       id="path377" />
    <text
       xml:space="preserve"
       style="font-size:334.319px;line-height:1.3;font-family:Arial;-inkscape-font-specification:Arial;text-align:center;text-anchor:middle;fill:#000000;fill-opacity:1;stroke:none;stroke-width:24.071;stroke-linecap:round;stroke-linejoin:round;stroke-dasharray:none;stroke-opacity:1"
       x="4067.4988"
       y="6216.79"
       id="text1877"><tspan
         sodipodi:role="line"
         id="tspan1875"
         style="font-size:334.319px;fill:#000000;fill-opacity:1;stroke:none;stroke-width:24.071"
         x="4067.4988"
         y="6216.79">x</tspan></text>
    <text
       xml:space="preserve"
       style="font-size:334.319px;line-height:1.3;font-family:Arial;-inkscape-font-specification:Arial;text-align:center;text-anchor:middle;fill:#000000;fill-opacity:1;stroke:none;stroke-width:24.071;stroke-linecap:round;stroke-linejoin:round;stroke-dasharray:none;stroke-opacity:1"
       x="-4203.709"
       y="1910.929"
       id="text1877-3"
       transform="rotate(-90)"><tspan
         sodipodi:role="line"
         id="tspan1875-6"
         style="font-size:334.319px;fill:#000000;fill-opacity:1;stroke:none;stroke-width:24.071"
         x="-4203.709"
         y="1910.929">y</tspan></text>
  </g>
</svg>
