<?xml version="1.0" encoding="UTF-8" standalone="no"?>
<!-- Created with Inkscape (http://www.inkscape.org/) -->

<svg
   width="184.81105mm"
   height="68.439888mm"
   viewBox="0 0 184.81105 68.439887"
   version="1.1"
   id="svg5"
   xml:space="preserve"
   inkscape:version="1.2.2 (b0a8486541, 2022-12-01)"
   sodipodi:docname="recommender_3.svg"
   xmlns:inkscape="http://www.inkscape.org/namespaces/inkscape"
   xmlns:sodipodi="http://sodipodi.sourceforge.net/DTD/sodipodi-0.dtd"
   xmlns="http://www.w3.org/2000/svg"
   xmlns:svg="http://www.w3.org/2000/svg"><sodipodi:namedview
     id="namedview7"
     pagecolor="#ffffff"
     bordercolor="#000000"
     borderopacity="0.25"
     inkscape:showpageshadow="2"
     inkscape:pageopacity="0.0"
     inkscape:pagecheckerboard="0"
     inkscape:deskcolor="#d1d1d1"
     inkscape:document-units="mm"
     showgrid="false"
     inkscape:zoom="3.7522728"
     inkscape:cx="189.75166"
     inkscape:cy="81.950332"
     inkscape:window-width="2560"
     inkscape:window-height="1440"
     inkscape:window-x="1920"
     inkscape:window-y="0"
     inkscape:window-maximized="1"
     inkscape:current-layer="layer1"><inkscape:grid
       type="xygrid"
       id="grid3156"
       originx="-0.76823777"
       originy="-48.624338" /></sodipodi:namedview><defs
     id="defs2"><marker
       style="overflow:visible"
       id="RoundedArrow"
       refX="0"
       refY="0"
       orient="auto-start-reverse"
       inkscape:stockid="RoundedArrow"
       markerWidth="6.1347523"
       markerHeight="5.9304948"
       viewBox="0 0 6.1347524 5.9304951"
       inkscape:isstock="true"
       inkscape:collect="always"
       preserveAspectRatio="xMidYMid"><path
         transform="scale(0.7)"
         d="m -0.21114562,-4.1055728 6.42229122,3.21114561 a 1,1 90 0 1 0,1.78885438 L -0.21114562,4.1055728 A 1.236068,1.236068 31.717474 0 1 -2,3 v -6 a 1.236068,1.236068 148.28253 0 1 1.78885438,-1.1055728 z"
         style="fill:context-stroke;fill-rule:evenodd;stroke:none"
         id="path1367" /></marker><style
       id="style1016">.cls-1{fill:none;}</style><style
       id="style1016-6">.cls-1{fill:none;}</style><marker
       style="overflow:visible"
       id="RoundedArrow-3"
       refX="0"
       refY="0"
       orient="auto-start-reverse"
       inkscape:stockid="RoundedArrow"
       markerWidth="6.1347523"
       markerHeight="5.9304948"
       viewBox="0 0 6.1347524 5.9304951"
       inkscape:isstock="true"
       inkscape:collect="always"
       preserveAspectRatio="xMidYMid"><path
         transform="scale(0.7)"
         d="m -0.21114562,-4.1055728 6.42229122,3.21114561 a 1,1 90 0 1 0,1.78885438 L -0.21114562,4.1055728 A 1.236068,1.236068 31.717474 0 1 -2,3 v -6 a 1.236068,1.236068 148.28253 0 1 1.78885438,-1.1055728 z"
         style="fill:context-stroke;fill-rule:evenodd;stroke:none"
         id="path1367-5" /></marker><style
       id="style1016-62">.cls-1{fill:none;}</style></defs><g
     inkscape:label="Layer 1"
     inkscape:groupmode="layer"
     id="layer1"
     transform="translate(-0.76823781,-48.624337)"><path
       d="m 8.552821,94.262493 a 0.27453806,0.27453806 0 0 0 -0.166685,0.01225 c -0.075376,0.0205 -0.1476169,0.05414 -0.2211982,0.08209 0.012958,-0.01908 -0.052318,-0.127144 -0.090902,-0.119494 a 0.25195057,0.25195057 0 0 0 -0.1385227,0.09989 1.4854987,1.4854987 0 0 0 -0.1042364,0.216347 0.2833062,0.2833062 0 0 1 -0.056649,0.104015 C 7.6053396,94.788427 7.4341159,94.91708 7.2589934,95.039787 a 0.56632766,0.56632766 0 0 1 -0.6894601,0.0062 C 6.4503935,94.965857 6.3466503,94.863857 6.2316199,94.777388 A 1.2207863,1.2207863 0 0 1 5.7643774,93.975598 1.5288206,1.5288206 0 0 0 6.003998,93.811818 C 6.2000176,93.61591 6.3965024,93.416896 6.4320967,93.130187 a 0.78317109,0.78317109 0 0 0 0.030131,-0.10256 0.6610993,0.6610993 0 0 0 0.00595,-0.174794 0.42990678,0.42990678 0 0 0 -0.076947,-0.276138 1.1484151,1.1484151 0 0 0 -0.9991877,-0.503322 c -0.05863,0.0018 -0.1646941,-0.01819 -0.1668855,-0.03932 a 0.55216357,0.55216357 0 0 1 0.043443,-0.209806 c 0.00777,-0.02432 0.038545,-0.04118 0.054843,-0.06417 0.03029,-0.04269 0.096828,-0.08751 0.028405,-0.139356 -0.066317,-0.05023 -0.122564,-0.0053 -0.1571496,0.0544 -0.046558,0.07988 -0.083309,0.165218 -0.1242663,0.248209 a 1.8370869,1.8370869 0 0 1 0.081203,-0.28875 c 0.00861,-0.02654 0.016104,-0.06958 0.00266,-0.08227 a 0.09264421,0.09264421 0 0 0 -0.083294,-0.0035 0.14317752,0.14317752 0 0 0 -0.073831,0.06976 c -0.035901,0.11369 -0.062543,0.229997 -0.093446,0.34855 -0.00811,-0.01154 -0.031288,-0.02902 -0.03025,-0.04588 a 1.6240948,1.6240948 0 0 1 0.032325,-0.305412 c 0.015871,-0.06159 0.023792,-0.108959 -0.039391,-0.120354 a 0.14188396,0.14188396 0 0 0 -0.1112488,0.05298 0.30076931,0.30076931 0 0 0 -0.038086,0.136702 0.51544862,0.51544862 0 0 0 0.1280221,0.461929 1.4858871,1.4858871 0 0 0 -0.1925215,0.204685 1.7415586,1.7415586 0 0 0 -0.2087302,0.40283 0.22956037,0.22956037 0 0 0 -0.00888,0.04739 c -7.377e-4,8.87e-4 -0.00154,0.0018 -0.00233,0.0036 -0.089394,0.236449 0.014378,0.478764 0.1143816,0.696771 a 0.67224514,0.67224514 0 0 0 0.4918995,0.419657 c -0.015105,0.03168 -0.02979,0.06195 -0.040844,0.09255 -0.082464,0.228595 -0.1517221,0.462479 -0.2491262,0.684888 a 1.5534595,1.5534595 0 0 1 -0.2562985,0.405039 c -0.1531905,0.171937 -0.3608443,0.171954 -0.5526095,0.09845 a 4.4796825,4.4796825 0 0 1 -0.6141464,-0.291082 0.31519778,0.31519778 0 0 1 -0.1897451,-0.257262 1.9023234,1.9023234 0 0 1 -0.051494,-0.2018 c -5.192e-4,-0.0027 -5.192e-4,-0.0044 -9.053e-4,-0.0071 -0.00522,-0.01047 -0.010344,-0.02086 -0.014997,-0.03106 -0.046591,-0.102507 -0.1125166,-0.125529 -0.181603,-0.03736 -0.1387319,-0.05875 -0.266354,-0.113698 -0.3947059,-0.166966 a 0.17446807,0.17446807 0 0 0 -0.02264,-0.0071 c -0.064226,0.01464 -0.087317,0.09104 -0.089876,0.161589 a 0.40565147,0.40565147 0 0 0 0.093654,0.246451 0.67608517,0.67608517 0 0 0 0.097548,0.11218 c 0.088249,0.04677 0.182528,0.08591 0.2739315,0.12576 0.1012031,0.04411 0.2209736,0.04899 0.3207729,0.09527 0.2514629,0.116467 0.4890056,0.263598 0.7462114,0.365306 a 0.64719764,0.64719764 0 0 0 0.6098411,-0.05574 1.8033639,1.8033639 0 0 0 0.1446076,-0.114923 c -0.080228,0.408341 -0.1758413,0.816665 -0.2371693,1.228901 -0.062678,0.42131 -0.1071407,0.846179 -0.1305824,1.270056 a 0.7717639,0.7717639 0 0 0 0.4302401,0.744217 1.5807045,1.5807045 0 0 0 0.152664,0.0751 c -0.1000297,0.713574 -0.1999481,1.426411 -0.3025295,2.158248 a 3.2333116,3.2333116 0 0 0 -0.3941837,0.004 c -0.1522685,0.0187 -0.3153897,0.0314 -0.4308955,0.15768 -0.038234,0.0418 -0.082679,0.11725 -0.069058,0.1565 a 0.1945803,0.1945803 0 0 0 0.1437808,0.0939 1.3447506,1.3447506 0 0 0 0.3462296,8.9e-4 2.6882372,2.6882372 0 0 0 0.4060874,-0.0974 c 0.03951,-0.0119 0.095003,-0.0572 0.0995,-0.0915 0.036015,-0.2741 0.052453,-0.55019 0.092234,-0.82377 0.072752,-0.500177 0.1563075,-0.999174 0.2380687,-1.498328 4.011e-4,-0.004 7.377e-4,-0.006 0.00114,-0.01 a 2.2346261,2.2346261 0 0 0 0.9291427,0.0755 c 0.052448,-0.005 0.104707,-0.0132 0.1602243,-0.0203 0.0095,0.18495 0.012416,0.35202 0.027672,0.517514 0.040967,0.444427 0.076388,0.889947 0.1345831,1.331634 0.050969,0.3869 0.046496,0.51721 0.407237,0.53686 a 1.807149,1.807149 0 0 0 0.4593967,-0.0253 0.19862167,0.19862167 0 0 0 0.1112274,-0.30048 c -0.081686,-0.0983 -0.373637,-0.15433 -0.4974013,-0.10006 -0.1020578,0.0447 -0.2068819,0.0827 -0.3222114,0.12833 a 1.0037731,1.0037731 0 0 1 -0.033361,-0.12356 c -0.036361,-0.28173 -0.080869,-0.562637 -0.1032248,-0.846027 -0.027291,-0.345737 -0.035971,-0.693617 -0.05144,-1.040661 a 0.15071922,0.15071922 0 0 1 0.091324,-0.1524 0.7342984,0.7342984 0 0 0 0.3555896,-0.511267 1.8978478,1.8978478 0 0 0 0.017945,-0.734584 C 6.6369944,96.914318 6.6339234,96.571769 6.5586996,96.247689 a 8.248681,8.248681 0 0 0 -0.315235,-0.933653 c -0.064539,-0.177954 -0.1429052,-0.350485 -0.213927,-0.522723 0.1841733,0.134608 0.3658297,0.259773 0.5385133,0.396102 a 0.5719677,0.5719677 0 0 0 0.4152859,0.09453 c 0.2365112,-0.01447 0.4173821,-0.162342 0.5940737,-0.299692 a 1.5436377,1.5436377 0 0 1 0.6107959,-0.303944 2.0494884,2.0494884 0 0 0 0.3854284,-0.123914 c 0.051502,-0.02325 0.11673,-0.105781 0.1105805,-0.150121 A 0.23557971,0.23557971 0 0 0 8.5524288,94.263655 Z m -6.0164415,0.306411 a 0.17078163,0.17078163 0 0 1 -0.066046,-0.09206 0.38118875,0.38118875 0 0 1 -0.0017,-0.113707 0.37433959,0.37433959 0 0 1 0.1097129,0.0036 0.40274507,0.40274507 0 0 1 0.3051373,0.382763 C 2.7564535,94.684573 2.6438372,94.63134 2.5363606,94.569507 Z m 1.265886,6.337826 c 0.2192889,-0.1998 0.4496058,-0.18047 0.676028,-0.16886 0.023752,8.9e-4 0.043346,0.0503 0.075931,0.091 a 1.65668,1.65668 0 0 1 -0.7519588,0.0778 z m 3.3159623,-0.20543 c 0.016685,0.0117 0.039015,0.044 0.034009,0.0523 -0.017377,0.0284 -0.044899,0.0697 -0.069935,0.0715 -0.1409545,0.0105 -0.282492,0.0147 -0.4234243,0.0128 A 0.70462078,0.70462078 0 0 1 6.4996129,100.795 c 0.1474359,-0.16314 0.4609738,-0.20459 0.6186115,-0.0937 z M 4.6459433,93.368527 C 4.4415954,93.088652 4.515988,92.71471 4.7654715,92.463751 a 0.32722324,0.32722324 0 0 1 0.117141,-0.114773 0.9067428,0.9067428 0 0 1 0.5232518,-0.136232 1.0808071,1.0808071 0 0 1 0.7964191,0.31597 0.40676911,0.40676911 0 0 1 0.1328764,0.337669 1.1363235,1.1363235 0 0 1 -0.5704769,0.936567 c -0.1273226,0.07996 -0.5359508,0.02059 -0.6026217,-0.0062 A 0.68508622,0.68508622 0 0 1 4.6459433,93.368704 Z m 1.6182756,2.24624 a 8.0404201,8.0404201 0 0 1 0.2449336,0.943662 8.2281212,8.2281212 0 0 1 0.1066125,0.855106 c 0.030326,0.33846 -0.028214,0.665327 -0.284102,0.918417 a 0.61020401,0.61020401 0 0 1 -0.3446589,0.138867 c -0.3825411,0.041 -0.7563847,0.0231 -1.1087499,-0.152077 a 0.7317154,0.7317154 0 0 1 -0.4497693,-0.708757 7.9323806,7.9323806 0 0 1 0.244337,-1.839 C 4.7985573,95.251919 4.940974,94.736296 5.0802506,94.22015 a 2.5191468,2.5191468 0 0 1 0.1049106,-0.269473 c 0.1395996,0.01944 0.2639895,0.03275 0.3858006,0.05698 0.027561,0.0053 0.055869,0.04535 0.067482,0.07615 0.119055,0.314913 0.2280865,0.63406 0.3537487,0.946062 0.080365,0.199547 0.2054747,0.38137 0.2720261,0.584911 z m 1.9070956,-1.054383 -0.014883,-0.0465 0.3702396,-0.132159 q 0.00737,0.02316 0.01475,0.04624 -0.1850714,0.06621 -0.3701411,0.132372 z"
       id="path1038-4"
       style="fill:#000000;fill-opacity:1;stroke-width:0.101695" /><path
       d="m 18.104373,92.85357 a 0.27453806,0.27453806 0 0 0 -0.166685,0.01225 c -0.07538,0.0205 -0.147617,0.05414 -0.221198,0.08209 0.01296,-0.01908 -0.05232,-0.127144 -0.0909,-0.119493 a 0.25195057,0.25195057 0 0 0 -0.138523,0.09989 1.4854987,1.4854987 0 0 0 -0.104236,0.216347 0.2833062,0.2833062 0 0 1 -0.05665,0.104016 c -0.169288,0.130836 -0.340512,0.259489 -0.515634,0.382195 a 0.56632766,0.56632766 0 0 1 -0.68946,0.0062 c -0.11914,-0.08014 -0.222883,-0.182143 -0.337914,-0.268613 a 1.2207863,1.2207863 0 0 1 -0.467242,-0.801789 1.5288206,1.5288206 0 0 0 0.23962,-0.163781 c 0.19602,-0.195908 0.392505,-0.394922 0.428099,-0.68163 a 0.78317109,0.78317109 0 0 0 0.03013,-0.10256 0.6610993,0.6610993 0 0 0 0.0059,-0.174794 0.42990678,0.42990678 0 0 0 -0.07695,-0.276139 1.1484151,1.1484151 0 0 0 -0.999188,-0.503322 c -0.05863,0.0018 -0.164694,-0.01819 -0.166885,-0.03932 a 0.55216357,0.55216357 0 0 1 0.04344,-0.209806 c 0.0078,-0.02432 0.03854,-0.04118 0.05484,-0.06417 0.03029,-0.04269 0.09683,-0.08751 0.02841,-0.139356 -0.06631,-0.05023 -0.122564,-0.0053 -0.157149,0.0544 -0.04656,0.07988 -0.08331,0.165218 -0.124267,0.248209 a 1.8370869,1.8370869 0 0 1 0.08121,-0.28875 c 0.0086,-0.02654 0.01611,-0.06958 0.0027,-0.08227 a 0.09264421,0.09264421 0 0 0 -0.08329,-0.0035 0.14317752,0.14317752 0 0 0 -0.07383,0.06976 c -0.0359,0.113689 -0.06254,0.229997 -0.09344,0.34855 -0.0081,-0.01154 -0.03129,-0.02902 -0.03025,-0.04588 a 1.6240948,1.6240948 0 0 1 0.03232,-0.305364 c 0.01587,-0.06159 0.02379,-0.108959 -0.03939,-0.120355 a 0.14188396,0.14188396 0 0 0 -0.111249,0.05298 0.30076931,0.30076931 0 0 0 -0.03808,0.136703 0.51544862,0.51544862 0 0 0 0.128021,0.461928 1.4858871,1.4858871 0 0 0 -0.192521,0.204686 1.7415586,1.7415586 0 0 0 -0.20873,0.402829 0.22956037,0.22956037 0 0 0 -0.0089,0.04739 c -7.38e-4,8.88e-4 -0.0015,0.0018 -0.0023,0.0036 -0.08939,0.236449 0.01438,0.478765 0.114382,0.696772 a 0.67224514,0.67224514 0 0 0 0.4919,0.419657 c -0.01511,0.03168 -0.02979,0.06195 -0.04084,0.09255 -0.08247,0.228594 -0.151723,0.462478 -0.249127,0.684887 a 1.5534595,1.5534595 0 0 1 -0.256298,0.40504 c -0.15319,0.171936 -0.360844,0.171954 -0.552609,0.09845 a 4.4796825,4.4796825 0 0 1 -0.61414,-0.291118 0.31519778,0.31519778 0 0 1 -0.189745,-0.257261 1.9023234,1.9023234 0 0 1 -0.05149,-0.201801 c -5.19e-4,-0.0027 -5.19e-4,-0.0044 -8.88e-4,-0.0071 -0.0052,-0.01047 -0.01034,-0.02086 -0.015,-0.03106 -0.04659,-0.102507 -0.112516,-0.125529 -0.181603,-0.03736 -0.138731,-0.05875 -0.266353,-0.113699 -0.394705,-0.166967 a 0.17446807,0.17446807 0 0 0 -0.02264,-0.0071 c -0.06423,0.01464 -0.08732,0.09104 -0.08988,0.161588 a 0.40565147,0.40565147 0 0 0 0.09365,0.246452 0.67608517,0.67608517 0 0 0 0.09755,0.11218 c 0.08825,0.04677 0.182528,0.08591 0.273931,0.12576 0.101203,0.04411 0.220974,0.04899 0.320773,0.09527 0.251463,0.116468 0.489006,0.263598 0.746212,0.365306 a 0.64719764,0.64719764 0 0 0 0.609841,-0.05573 1.8033639,1.8033639 0 0 0 0.144607,-0.114923 c -0.08023,0.408341 -0.17584,0.816664 -0.237169,1.228902 -0.06268,0.421307 -0.10714,0.846174 -0.130582,1.270054 a 0.7717639,0.7717639 0 0 0 0.430241,0.744219 1.5807045,1.5807045 0 0 0 0.152664,0.0751 c -0.10003,0.713577 -0.199949,1.426401 -0.30253,2.158248 a 3.2333116,3.2333116 0 0 0 -0.394184,0.004 c -0.152268,0.0187 -0.315389,0.0314 -0.430895,0.15767 -0.03823,0.0418 -0.08268,0.117257 -0.06906,0.156497 a 0.1945803,0.1945803 0 0 0 0.143781,0.0939 1.3447506,1.3447506 0 0 0 0.346229,8.9e-4 2.6882372,2.6882372 0 0 0 0.406088,-0.0974 c 0.03951,-0.0119 0.095,-0.0572 0.0995,-0.0915 0.03601,-0.2741 0.05245,-0.550187 0.09224,-0.823777 0.07275,-0.500177 0.156307,-0.999174 0.238069,-1.498321 4.01e-4,-0.004 7.37e-4,-0.006 0.0012,-0.01 a 2.2346261,2.2346261 0 0 0 0.929143,0.0755 c 0.05245,-0.005 0.104707,-0.0132 0.160224,-0.0203 0.0095,0.18496 0.01242,0.352027 0.02767,0.517507 0.04097,0.444427 0.07639,0.889954 0.134583,1.331631 0.05097,0.3869 0.0465,0.517217 0.407237,0.536867 a 1.807149,1.807149 0 0 0 0.459397,-0.0253 0.19862167,0.19862167 0 0 0 0.111228,-0.300467 c -0.08169,-0.0983 -0.373637,-0.15433 -0.497402,-0.10007 -0.102058,0.0447 -0.206882,0.0827 -0.322211,0.12833 a 1.0037731,1.0037731 0 0 1 -0.03336,-0.12355 c -0.03636,-0.281727 -0.08087,-0.562647 -0.103224,-0.846034 -0.02729,-0.34573 -0.03597,-0.693617 -0.05144,-1.040654 a 0.15071922,0.15071922 0 0 1 0.09132,-0.15239 0.7342984,0.7342984 0 0 0 0.35559,-0.511279 1.8978478,1.8978478 0 0 0 0.01795,-0.734587 c -0.06173,-0.328474 -0.0648,-0.671025 -0.140021,-0.995106 a 8.248681,8.248681 0 0 0 -0.315276,-0.933664 c -0.06454,-0.177953 -0.142905,-0.350484 -0.213927,-0.522723 0.184173,0.134608 0.36583,0.259773 0.538513,0.396103 a 0.5719677,0.5719677 0 0 0 0.415286,0.09453 c 0.236511,-0.01447 0.417382,-0.162342 0.594074,-0.299693 a 1.5436377,1.5436377 0 0 1 0.610796,-0.303944 2.0494884,2.0494884 0 0 0 0.385429,-0.123913 c 0.0515,-0.02325 0.11673,-0.105782 0.11058,-0.150122 a 0.23557971,0.23557971 0 0 0 -0.131787,-0.140616 z m -6.016442,0.306411 a 0.17078163,0.17078163 0 0 1 -0.06605,-0.09206 0.38118875,0.38118875 0 0 1 -0.0017,-0.113707 0.37433959,0.37433959 0 0 1 0.109713,0.0035 0.40274507,0.40274507 0 0 1 0.305137,0.382763 c -0.127026,-0.06488 -0.239642,-0.118109 -0.347119,-0.179942 z m 1.265886,6.337832 c 0.219289,-0.199807 0.449607,-0.180477 0.676029,-0.168857 0.02375,8.9e-4 0.04335,0.0503 0.07593,0.091 a 1.65668,1.65668 0 0 1 -0.751959,0.0778 z m 3.315962,-0.205427 c 0.01669,0.0117 0.03901,0.044 0.03401,0.0523 -0.01738,0.0284 -0.0449,0.0697 -0.06994,0.0715 -0.140954,0.0105 -0.282492,0.0147 -0.423424,0.0128 a 0.70462078,0.70462078 0 0 1 -0.159265,-0.0429 c 0.147436,-0.16315 0.460974,-0.20459 0.618612,-0.0937 z m -2.472284,-7.332783 c -0.204348,-0.279874 -0.129955,-0.653816 0.119529,-0.904776 a 0.32722324,0.32722324 0 0 1 0.117141,-0.114772 0.9067428,0.9067428 0 0 1 0.523251,-0.136232 1.0808071,1.0808071 0 0 1 0.796419,0.31597 0.40676911,0.40676911 0 0 1 0.132876,0.337669 1.1363235,1.1363235 0 0 1 -0.570476,0.936566 c -0.127323,0.07996 -0.535951,0.02059 -0.602622,-0.0062 a 0.68508622,0.68508622 0 0 1 -0.516118,-0.428035 z m 1.618275,2.24624 a 8.0404201,8.0404201 0 0 1 0.244934,0.943667 8.2281212,8.2281212 0 0 1 0.106613,0.855102 c 0.03033,0.338467 -0.02821,0.665337 -0.284102,0.918426 a 0.61020401,0.61020401 0 0 1 -0.344659,0.13887 c -0.382541,0.041 -0.756385,0.0231 -1.10875,-0.15209 a 0.7317154,0.7317154 0 0 1 -0.449769,-0.708749 7.9323806,7.9323806 0 0 1 0.244336,-1.839007 c 0.125736,-0.519066 0.268153,-1.034689 0.407429,-1.550835 a 2.5191468,2.5191468 0 0 1 0.104911,-0.269474 c 0.1396,0.01944 0.26399,0.03275 0.385801,0.05698 0.02756,0.0053 0.05587,0.04535 0.06749,0.07615 0.119056,0.314914 0.228087,0.634061 0.353749,0.946063 0.08036,0.199547 0.205475,0.38137 0.272026,0.58491 z m 1.907096,-1.054382 -0.01488,-0.04651 0.37024,-0.132158 q 0.0074,0.02316 0.01475,0.04624 -0.185072,0.06621 -0.370141,0.132371 z"
       id="path1038-4-7"
       style="fill:#000000;fill-opacity:1;stroke-width:0.101695" /><path
       d="m 26.045771,94.937068 a 0.27453806,0.27453806 0 0 0 -0.166685,0.01225 c -0.07538,0.0205 -0.147617,0.05414 -0.221198,0.0821 0.01296,-0.01908 -0.05232,-0.127144 -0.0909,-0.119494 a 0.25195057,0.25195057 0 0 0 -0.138523,0.09989 1.4854987,1.4854987 0 0 0 -0.104237,0.216347 0.2833062,0.2833062 0 0 1 -0.05665,0.104015 c -0.169288,0.130836 -0.340512,0.259489 -0.515634,0.382195 a 0.56632766,0.56632766 0 0 1 -0.68946,0.0062 c -0.11914,-0.08014 -0.222883,-0.182143 -0.337914,-0.268612 a 1.2207863,1.2207863 0 0 1 -0.467242,-0.80179 1.5288206,1.5288206 0 0 0 0.23962,-0.16378 c 0.19602,-0.195908 0.392505,-0.394922 0.428099,-0.681631 a 0.78317109,0.78317109 0 0 0 0.03013,-0.10256 0.6610993,0.6610993 0 0 0 0.0059,-0.174794 0.42990678,0.42990678 0 0 0 -0.07695,-0.276139 1.1484151,1.1484151 0 0 0 -0.999188,-0.503321 c -0.05863,0.0018 -0.164694,-0.01819 -0.166885,-0.03932 a 0.55216357,0.55216357 0 0 1 0.04344,-0.209806 c 0.0078,-0.02432 0.03854,-0.04118 0.05484,-0.06417 0.03029,-0.04269 0.09683,-0.08751 0.02841,-0.139356 -0.06631,-0.05023 -0.122564,-0.0053 -0.157149,0.0544 -0.04656,0.07988 -0.08331,0.165218 -0.124267,0.248209 a 1.8370869,1.8370869 0 0 1 0.08121,-0.28875 c 0.0086,-0.02654 0.01611,-0.06958 0.0027,-0.08227 a 0.09264421,0.09264421 0 0 0 -0.08329,-0.0036 0.14317752,0.14317752 0 0 0 -0.07383,0.06976 c -0.0359,0.11369 -0.06254,0.229997 -0.09344,0.34855 -0.0081,-0.01154 -0.03129,-0.02902 -0.03025,-0.04588 a 1.6240948,1.6240948 0 0 1 0.03232,-0.305364 c 0.01587,-0.06159 0.02379,-0.108959 -0.03939,-0.120354 a 0.14188396,0.14188396 0 0 0 -0.111249,0.05298 0.30076931,0.30076931 0 0 0 -0.03808,0.136702 0.51544862,0.51544862 0 0 0 0.128022,0.461929 1.4858871,1.4858871 0 0 0 -0.192521,0.204685 1.7415586,1.7415586 0 0 0 -0.20873,0.40283 0.22956037,0.22956037 0 0 0 -0.0089,0.04739 c -7.38e-4,8.88e-4 -0.0015,0.0018 -0.0023,0.0036 -0.08939,0.236449 0.01438,0.478764 0.114382,0.696771 a 0.67224514,0.67224514 0 0 0 0.491899,0.419657 c -0.01511,0.03168 -0.02979,0.06195 -0.04084,0.09255 -0.08247,0.228594 -0.151722,0.462479 -0.249126,0.684888 a 1.5534595,1.5534595 0 0 1 -0.256298,0.405039 c -0.15319,0.171936 -0.360844,0.171954 -0.552609,0.09845 a 4.4796825,4.4796825 0 0 1 -0.614152,-0.29104 0.31519778,0.31519778 0 0 1 -0.189745,-0.257261 1.9023234,1.9023234 0 0 1 -0.05149,-0.201801 c -5.2e-4,-0.0027 -5.2e-4,-0.0044 -8.88e-4,-0.0071 -0.0052,-0.01047 -0.01034,-0.02086 -0.015,-0.03106 -0.04659,-0.102507 -0.112516,-0.125529 -0.181603,-0.03736 -0.138731,-0.05875 -0.266353,-0.113699 -0.394705,-0.166967 a 0.17446807,0.17446807 0 0 0 -0.02264,-0.0071 c -0.06423,0.01464 -0.08732,0.09104 -0.08987,0.161588 a 0.40565147,0.40565147 0 0 0 0.09365,0.246452 0.67608517,0.67608517 0 0 0 0.09755,0.11218 c 0.08825,0.04677 0.182528,0.08591 0.273931,0.12576 0.101203,0.04411 0.220974,0.04899 0.320773,0.09527 0.251463,0.116467 0.489006,0.263597 0.746212,0.365306 a 0.64719764,0.64719764 0 0 0 0.609841,-0.05574 1.8033639,1.8033639 0 0 0 0.144607,-0.114923 c -0.08023,0.408341 -0.17584,0.816671 -0.237169,1.2289 -0.06267,0.421307 -0.10714,0.846174 -0.130582,1.270044 a 0.7717639,0.7717639 0 0 0 0.43024,0.744214 1.5807045,1.5807045 0 0 0 0.152665,0.0751 c -0.10003,0.713567 -0.199949,1.426404 -0.30253,2.158254 a 3.2333116,3.2333116 0 0 0 -0.394184,0.004 c -0.152268,0.0187 -0.315389,0.0314 -0.430895,0.15767 -0.03823,0.0418 -0.08268,0.11726 -0.06906,0.15649 a 0.1945803,0.1945803 0 0 0 0.143781,0.0939 1.3447506,1.3447506 0 0 0 0.346229,8.7e-4 2.6882372,2.6882372 0 0 0 0.406088,-0.0974 c 0.03951,-0.0119 0.095,-0.0572 0.0995,-0.0915 0.03601,-0.27409 0.05245,-0.55019 0.09223,-0.82377 0.07275,-0.50018 0.156307,-0.999177 0.238069,-1.498324 4.01e-4,-0.004 7.37e-4,-0.006 0.0012,-0.01 a 2.2346261,2.2346261 0 0 0 0.929143,0.0755 c 0.05245,-0.005 0.104707,-0.0132 0.160224,-0.0203 0.0095,0.18496 0.01242,0.352027 0.02767,0.517507 0.04097,0.444427 0.07639,0.889957 0.134583,1.331637 0.05097,0.3869 0.0465,0.51721 0.407237,0.53686 a 1.807149,1.807149 0 0 0 0.459397,-0.0253 0.19862167,0.19862167 0 0 0 0.111227,-0.30047 c -0.08169,-0.0983 -0.373637,-0.15434 -0.497401,-0.10008 -0.102058,0.0447 -0.206882,0.0827 -0.322211,0.12834 a 1.0037731,1.0037731 0 0 1 -0.03336,-0.12356 c -0.03636,-0.28173 -0.08087,-0.56264 -0.103225,-0.84603 -0.02729,-0.34573 -0.03597,-0.693617 -0.05144,-1.040654 a 0.15071922,0.15071922 0 0 1 0.09132,-0.15239 0.7342984,0.7342984 0 0 0 0.35559,-0.511277 1.8978478,1.8978478 0 0 0 0.01795,-0.734587 c -0.06173,-0.328467 -0.0648,-0.671014 -0.140021,-0.995094 a 8.248681,8.248681 0 0 0 -0.315231,-0.933423 c -0.06454,-0.177953 -0.142905,-0.350484 -0.213927,-0.522722 0.184173,0.134608 0.36583,0.259772 0.538513,0.396102 a 0.5719677,0.5719677 0 0 0 0.415286,0.09453 c 0.236511,-0.01447 0.417382,-0.162342 0.594074,-0.299692 a 1.5436377,1.5436377 0 0 1 0.610796,-0.303944 2.0494884,2.0494884 0 0 0 0.385428,-0.123914 c 0.0515,-0.02325 0.11673,-0.105782 0.110581,-0.150121 a 0.23557971,0.23557971 0 0 0 -0.131787,-0.140617 z m -6.016442,0.306411 a 0.17078163,0.17078163 0 0 1 -0.06605,-0.09206 0.38118875,0.38118875 0 0 1 -0.0017,-0.113707 0.37433959,0.37433959 0 0 1 0.109713,0.0036 0.40274507,0.40274507 0 0 1 0.305137,0.382763 c -0.127026,-0.06488 -0.239642,-0.118109 -0.347119,-0.179942 z m 1.265886,6.337821 c 0.219289,-0.1998 0.449606,-0.18047 0.676028,-0.16885 0.02375,8.9e-4 0.04335,0.0503 0.07593,0.091 a 1.65668,1.65668 0 0 1 -0.75196,0.0778 z m 3.315962,-0.20543 c 0.01669,0.0117 0.03902,0.044 0.03401,0.0523 -0.01738,0.0284 -0.0449,0.0697 -0.06994,0.0715 -0.140954,0.0105 -0.282492,0.0147 -0.423424,0.0128 a 0.70462078,0.70462078 0 0 1 -0.159265,-0.0429 c 0.147436,-0.16314 0.460974,-0.20458 0.618612,-0.0937 z m -2.472284,-7.332768 c -0.204348,-0.279875 -0.129955,-0.653817 0.119529,-0.904776 a 0.32722324,0.32722324 0 0 1 0.11714,-0.114773 0.9067428,0.9067428 0 0 1 0.523252,-0.136232 1.0808071,1.0808071 0 0 1 0.796419,0.31597 0.40676911,0.40676911 0 0 1 0.132876,0.337669 1.1363235,1.1363235 0 0 1 -0.570477,0.936566 c -0.127322,0.07997 -0.535951,0.02059 -0.602621,-0.0062 a 0.68508622,0.68508622 0 0 1 -0.516118,-0.428047 z m 1.618275,2.246237 a 8.0404201,8.0404201 0 0 1 0.244934,0.943669 8.2281212,8.2281212 0 0 1 0.106612,0.855094 c 0.03033,0.338467 -0.02821,0.665337 -0.284102,0.918424 a 0.61020401,0.61020401 0 0 1 -0.344659,0.13887 c -0.38254,0.041 -0.756384,0.0231 -1.108749,-0.15209 a 0.7317154,0.7317154 0 0 1 -0.449769,-0.708744 7.9323806,7.9323806 0 0 1 0.244336,-1.839003 c 0.125736,-0.519065 0.268153,-1.034688 0.407429,-1.550834 a 2.5191468,2.5191468 0 0 1 0.104911,-0.269473 c 0.139599,0.01944 0.263989,0.03275 0.3858,0.05698 0.02756,0.0053 0.05587,0.04535 0.06749,0.07615 0.119056,0.314914 0.228086,0.634061 0.353749,0.946063 0.08036,0.199547 0.205475,0.381364 0.272026,0.584904 z m 1.907096,-1.05438 -0.01488,-0.0465 0.370239,-0.132159 q 0.0074,0.02316 0.01475,0.04624 -0.185072,0.06621 -0.370141,0.132372 z"
       id="path1038-4-7-7"
       style="fill:#000000;fill-opacity:1;stroke-width:0.101695" /><path
       d="m 22.202755,106.49766 a 0.27453806,0.27453806 0 0 0 -0.166685,0.0122 c -0.07538,0.0205 -0.147617,0.0541 -0.221198,0.0821 0.01296,-0.0191 -0.05232,-0.12715 -0.0909,-0.11949 a 0.25195057,0.25195057 0 0 0 -0.138522,0.0999 1.4854987,1.4854987 0 0 0 -0.104237,0.21635 0.2833062,0.2833062 0 0 1 -0.05665,0.10402 c -0.169288,0.13083 -0.340512,0.25949 -0.515635,0.38219 a 0.56632766,0.56632766 0 0 1 -0.68946,0.006 c -0.119139,-0.0801 -0.222883,-0.18214 -0.337913,-0.26861 a 1.2207863,1.2207863 0 0 1 -0.467242,-0.80179 1.5288206,1.5288206 0 0 0 0.23962,-0.16378 c 0.19602,-0.19591 0.392505,-0.39492 0.428099,-0.68163 a 0.78317109,0.78317109 0 0 0 0.03013,-0.10256 0.6610993,0.6610993 0 0 0 0.0059,-0.17479 0.42990678,0.42990678 0 0 0 -0.07695,-0.27614 1.1484151,1.1484151 0 0 0 -0.999188,-0.50332 c -0.05863,0.002 -0.164693,-0.0182 -0.166885,-0.0393 a 0.55216357,0.55216357 0 0 1 0.04344,-0.20981 c 0.0078,-0.0243 0.03854,-0.0412 0.05484,-0.0642 0.03029,-0.0427 0.09683,-0.0875 0.02841,-0.13936 -0.06631,-0.0502 -0.122564,-0.005 -0.157149,0.0544 -0.04656,0.0799 -0.08331,0.16521 -0.124266,0.2482 a 1.8370869,1.8370869 0 0 1 0.08121,-0.28875 c 0.0086,-0.0265 0.01611,-0.0696 0.0027,-0.0823 a 0.09264421,0.09264421 0 0 0 -0.08329,-0.004 0.14317752,0.14317752 0 0 0 -0.07383,0.0698 c -0.0359,0.11369 -0.06254,0.23 -0.09345,0.34855 -0.0081,-0.0115 -0.03128,-0.029 -0.03025,-0.0459 a 1.6240948,1.6240948 0 0 1 0.03232,-0.30537 c 0.01587,-0.0616 0.02379,-0.10896 -0.03939,-0.12035 a 0.14188396,0.14188396 0 0 0 -0.111249,0.053 0.30076931,0.30076931 0 0 0 -0.03808,0.1367 0.51544862,0.51544862 0 0 0 0.128022,0.46193 1.4858871,1.4858871 0 0 0 -0.192521,0.20469 1.7415586,1.7415586 0 0 0 -0.208731,0.40283 0.22956037,0.22956037 0 0 0 -0.0089,0.0474 c -7.37e-4,8.9e-4 -0.0015,0.002 -0.0023,0.004 -0.08939,0.23645 0.01438,0.47877 0.114381,0.69677 a 0.67224514,0.67224514 0 0 0 0.4919,0.41966 c -0.0151,0.0317 -0.02979,0.0619 -0.04084,0.0926 -0.08247,0.22859 -0.151722,0.46248 -0.249126,0.68489 a 1.5534595,1.5534595 0 0 1 -0.256299,0.40504 c -0.153191,0.17193 -0.360844,0.17195 -0.552609,0.0984 a 4.4796825,4.4796825 0 0 1 -0.614152,-0.29104 0.31519778,0.31519778 0 0 1 -0.189745,-0.25726 1.9023234,1.9023234 0 0 1 -0.05149,-0.20181 c -5.19e-4,-0.003 -5.19e-4,-0.004 -8.87e-4,-0.007 -0.0052,-0.0105 -0.01035,-0.0208 -0.015,-0.0311 -0.04659,-0.1025 -0.112516,-0.12553 -0.181603,-0.0374 -0.138732,-0.0588 -0.266354,-0.1137 -0.394706,-0.16697 a 0.17446807,0.17446807 0 0 0 -0.02264,-0.007 c -0.06423,0.0147 -0.08732,0.091 -0.08988,0.16159 a 0.40565147,0.40565147 0 0 0 0.09365,0.24645 0.67608517,0.67608517 0 0 0 0.09755,0.11218 c 0.08824,0.0468 0.182528,0.0859 0.273931,0.12576 0.101203,0.0441 0.220974,0.049 0.320773,0.0953 0.251463,0.11647 0.489005,0.2636 0.746211,0.36531 a 0.64719764,0.64719764 0 0 0 0.609841,-0.0557 1.8033639,1.8033639 0 0 0 0.144608,-0.11493 c -0.08023,0.40834 -0.175841,0.81667 -0.237169,1.2289 -0.06268,0.42131 -0.107141,0.84618 -0.130582,1.27006 a 0.7717639,0.7717639 0 0 0 0.43024,0.74422 1.5807045,1.5807045 0 0 0 0.152663,0.0751 c -0.100029,0.71357 -0.199947,1.42641 -0.302529,2.15825 a 3.2333116,3.2333116 0 0 0 -0.394183,0.004 c -0.152269,0.0187 -0.31539,0.0314 -0.430896,0.15768 -0.03823,0.0418 -0.08268,0.11725 -0.06906,0.1565 a 0.1945803,0.1945803 0 0 0 0.143782,0.0939 1.3447506,1.3447506 0 0 0 0.346229,8.9e-4 2.6882372,2.6882372 0 0 0 0.406087,-0.0974 c 0.03951,-0.0119 0.095,-0.0572 0.0995,-0.0915 0.03601,-0.2741 0.05245,-0.55019 0.09223,-0.82377 0.07275,-0.50018 0.156308,-0.99918 0.238068,-1.49833 4.02e-4,-0.004 7.39e-4,-0.006 0.0012,-0.01 a 2.2346261,2.2346261 0 0 0 0.929143,0.0755 c 0.05245,-0.005 0.104707,-0.0132 0.160224,-0.0203 0.0095,0.18495 0.01242,0.35203 0.02767,0.51751 0.04097,0.44443 0.07639,0.88996 0.134583,1.33164 0.05097,0.3869 0.0465,0.51721 0.407237,0.53686 a 1.807149,1.807149 0 0 0 0.459397,-0.0253 0.19862167,0.19862167 0 0 0 0.111227,-0.30048 c -0.08169,-0.0983 -0.373637,-0.15433 -0.497401,-0.10006 -0.102058,0.0447 -0.206882,0.0827 -0.322212,0.12833 a 1.0037731,1.0037731 0 0 1 -0.03336,-0.12356 c -0.03636,-0.28173 -0.08087,-0.56264 -0.103225,-0.84603 -0.02729,-0.34574 -0.03597,-0.69362 -0.05144,-1.04066 a 0.15071922,0.15071922 0 0 1 0.09132,-0.1524 0.7342984,0.7342984 0 0 0 0.355589,-0.51127 1.8978478,1.8978478 0 0 0 0.01795,-0.73459 c -0.06173,-0.32847 -0.0648,-0.67102 -0.140021,-0.9951 a 8.248681,8.248681 0 0 0 -0.315231,-0.93342 c -0.06454,-0.17795 -0.142906,-0.35048 -0.213927,-0.52272 0.184173,0.1346 0.365829,0.25977 0.538513,0.3961 a 0.5719677,0.5719677 0 0 0 0.415286,0.0945 c 0.236511,-0.0145 0.417382,-0.16234 0.594074,-0.2997 a 1.5436377,1.5436377 0 0 1 0.610796,-0.30394 2.0494884,2.0494884 0 0 0 0.385428,-0.12391 c 0.0515,-0.0233 0.11673,-0.10578 0.110581,-0.15012 a 0.23557971,0.23557971 0 0 0 -0.131787,-0.14062 z m -6.016441,0.30641 a 0.17078163,0.17078163 0 0 1 -0.06605,-0.0921 0.38118875,0.38118875 0 0 1 -0.0017,-0.11371 0.37433959,0.37433959 0 0 1 0.109713,0.004 0.40274507,0.40274507 0 0 1 0.305137,0.38276 c -0.127026,-0.0649 -0.239642,-0.11811 -0.347118,-0.17994 z m 1.265885,6.33784 c 0.21929,-0.1998 0.449606,-0.18047 0.676028,-0.16886 0.02375,8.9e-4 0.04335,0.0503 0.07593,0.091 a 1.65668,1.65668 0 0 1 -0.751958,0.0778 z m 3.315963,-0.20543 c 0.01668,0.0117 0.03901,0.044 0.03401,0.0523 -0.01738,0.0284 -0.0449,0.0697 -0.06993,0.0715 -0.140955,0.0105 -0.282492,0.0147 -0.423425,0.0128 a 0.70462078,0.70462078 0 0 1 -0.159264,-0.0429 c 0.147436,-0.16314 0.460974,-0.20459 0.618611,-0.0937 z m -2.472284,-7.33279 c -0.204348,-0.27987 -0.129956,-0.65382 0.119527,-0.90478 a 0.32722324,0.32722324 0 0 1 0.117142,-0.11477 0.9067428,0.9067428 0 0 1 0.523252,-0.13623 1.0808071,1.0808071 0 0 1 0.796419,0.31597 0.40676911,0.40676911 0 0 1 0.132876,0.33767 1.1363235,1.1363235 0 0 1 -0.570477,0.93657 c -0.127322,0.08 -0.535951,0.0206 -0.602622,-0.006 a 0.68508622,0.68508622 0 0 1 -0.516117,-0.42803 z m 1.618275,2.24624 a 8.0404201,8.0404201 0 0 1 0.244934,0.94367 8.2281212,8.2281212 0 0 1 0.106612,0.8551 c 0.03033,0.33847 -0.02821,0.66534 -0.284102,0.91843 a 0.61020401,0.61020401 0 0 1 -0.344659,0.13886 c -0.382541,0.041 -0.756384,0.0231 -1.108749,-0.15208 a 0.7317154,0.7317154 0 0 1 -0.44977,-0.70875 7.9323806,7.9323806 0 0 1 0.244337,-1.83901 c 0.125735,-0.51907 0.268153,-1.03469 0.407429,-1.55084 a 2.5191468,2.5191468 0 0 1 0.104911,-0.26947 c 0.139599,0.0194 0.263989,0.0327 0.3858,0.057 0.02756,0.005 0.05587,0.0453 0.06749,0.0761 0.119055,0.31491 0.228086,0.63406 0.353749,0.94606 0.08036,0.19955 0.205474,0.38137 0.272026,0.58491 z m 1.907096,-1.05438 -0.01488,-0.0465 0.37024,-0.13216 q 0.0074,0.0232 0.01475,0.0462 -0.185071,0.0662 -0.370141,0.13237 z"
       id="path1038-4-4"
       style="fill:#000000;fill-opacity:1;stroke-width:0.101695" /><path
       d="m 13.798477,103.80434 a 0.27453806,0.27453806 0 0 0 -0.166685,0.0122 c -0.07537,0.0205 -0.147617,0.0541 -0.221198,0.0821 0.01296,-0.0191 -0.05232,-0.12715 -0.0909,-0.1195 a 0.25195057,0.25195057 0 0 0 -0.138522,0.0999 1.4854987,1.4854987 0 0 0 -0.104237,0.21635 0.2833062,0.2833062 0 0 1 -0.05665,0.10402 c -0.169288,0.13083 -0.340512,0.25948 -0.515635,0.38219 a 0.56632766,0.56632766 0 0 1 -0.68946,0.006 c -0.119139,-0.0801 -0.222883,-0.18214 -0.337913,-0.26861 a 1.2207863,1.2207863 0 0 1 -0.467242,-0.80179 1.5288206,1.5288206 0 0 0 0.23962,-0.16378 c 0.19602,-0.19591 0.392505,-0.39492 0.428099,-0.68163 a 0.78317109,0.78317109 0 0 0 0.03013,-0.10256 0.6610993,0.6610993 0 0 0 0.0059,-0.17479 0.42990678,0.42990678 0 0 0 -0.07695,-0.27614 1.1484151,1.1484151 0 0 0 -0.999187,-0.50332 c -0.05863,0.002 -0.164694,-0.0182 -0.166885,-0.0393 a 0.55216357,0.55216357 0 0 1 0.04344,-0.20981 c 0.0077,-0.0243 0.03854,-0.0412 0.05484,-0.0642 0.03029,-0.0427 0.09683,-0.0875 0.02841,-0.13936 -0.06631,-0.0502 -0.122565,-0.005 -0.15715,0.0544 -0.04656,0.0799 -0.08331,0.16522 -0.124266,0.24821 a 1.8370869,1.8370869 0 0 1 0.08121,-0.28875 c 0.0086,-0.0265 0.0161,-0.0696 0.0027,-0.0823 a 0.09264421,0.09264421 0 0 0 -0.08329,-0.004 0.14317752,0.14317752 0 0 0 -0.07383,0.0698 c -0.0359,0.11369 -0.06254,0.23 -0.09344,0.34855 -0.0081,-0.0115 -0.03129,-0.029 -0.03025,-0.0459 a 1.6240948,1.6240948 0 0 1 0.03232,-0.30537 c 0.01587,-0.0616 0.02379,-0.10896 -0.03939,-0.12035 a 0.14188396,0.14188396 0 0 0 -0.111249,0.053 0.30076931,0.30076931 0 0 0 -0.03808,0.1367 0.51544862,0.51544862 0 0 0 0.128022,0.46193 1.4858871,1.4858871 0 0 0 -0.192521,0.20469 1.7415586,1.7415586 0 0 0 -0.208731,0.40283 0.22956037,0.22956037 0 0 0 -0.0089,0.0474 c -7.37e-4,8.9e-4 -0.0015,0.002 -0.0023,0.004 -0.08939,0.23645 0.01438,0.47876 0.114381,0.69677 a 0.67224514,0.67224514 0 0 0 0.4919,0.41966 c -0.01511,0.0317 -0.02979,0.0619 -0.04084,0.0926 -0.08247,0.22859 -0.151722,0.46248 -0.249126,0.68489 a 1.5534595,1.5534595 0 0 1 -0.256298,0.40503 c -0.153192,0.17194 -0.360846,0.17196 -0.552611,0.0985 A 4.4796825,4.4796825 0 0 1 8.571562,104.45356 0.31519778,0.31519778 0 0 1 8.381817,104.1963 1.9023234,1.9023234 0 0 1 8.330324,103.99449 c -5.192e-4,-0.003 -5.192e-4,-0.004 -8.875e-4,-0.007 -0.00524,-0.0105 -0.010339,-0.0208 -0.014999,-0.0311 -0.046594,-0.10251 -0.112517,-0.12553 -0.1816031,-0.0374 -0.1387322,-0.0588 -0.2663545,-0.1137 -0.394706,-0.16697 a 0.17446807,0.17446807 0 0 0 -0.02264,-0.007 c -0.064226,0.0146 -0.087317,0.091 -0.089876,0.16159 a 0.40565147,0.40565147 0 0 0 0.093654,0.24645 0.67608517,0.67608517 0 0 0 0.097548,0.11218 c 0.088249,0.0468 0.1825284,0.0859 0.2739316,0.12576 0.1012031,0.0441 0.2209737,0.049 0.3207728,0.0953 0.2514631,0.11647 0.4890058,0.2636 0.7462108,0.36531 a 0.64719764,0.64719764 0 0 0 0.609842,-0.0557 1.8033639,1.8033639 0 0 0 0.144608,-0.11492 c -0.08023,0.40834 -0.175841,0.81667 -0.237169,1.2289 -0.06268,0.42131 -0.107141,0.84618 -0.130583,1.27006 a 0.7717639,0.7717639 0 0 0 0.430241,0.74422 1.5807045,1.5807045 0 0 0 0.1526644,0.0751 c -0.100029,0.71357 -0.1999484,1.42641 -0.3025304,2.15825 a 3.2333116,3.2333116 0 0 0 -0.394184,0.004 c -0.152269,0.0187 -0.315389,0.0314 -0.430896,0.15768 -0.03823,0.0418 -0.08268,0.11725 -0.06906,0.1565 a 0.1945803,0.1945803 0 0 0 0.143781,0.0939 1.3447506,1.3447506 0 0 0 0.346229,8.9e-4 2.6882372,2.6882372 0 0 0 0.406089,-0.0974 c 0.03951,-0.0119 0.095,-0.0572 0.0995,-0.0915 0.03601,-0.2741 0.05245,-0.55019 0.09223,-0.82377 0.07275,-0.50018 0.156308,-0.99918 0.238069,-1.49833 4.01e-4,-0.004 7.38e-4,-0.006 0.0012,-0.01 a 2.2346261,2.2346261 0 0 0 0.929142,0.0755 c 0.05245,-0.005 0.104707,-0.0132 0.160224,-0.0203 0.0095,0.18495 0.01242,0.35203 0.02767,0.51751 0.04097,0.44443 0.07639,0.88995 0.134583,1.33164 0.05097,0.3869 0.0465,0.51721 0.407237,0.53686 a 1.807149,1.807149 0 0 0 0.459397,-0.0253 0.19862167,0.19862167 0 0 0 0.111227,-0.30048 c -0.08169,-0.0983 -0.373637,-0.15433 -0.497401,-0.10006 -0.102058,0.0447 -0.206882,0.0827 -0.322212,0.12833 a 1.0037731,1.0037731 0 0 1 -0.03336,-0.12356 c -0.03636,-0.28173 -0.08087,-0.56264 -0.103225,-0.84603 -0.02729,-0.34574 -0.03597,-0.69362 -0.05144,-1.04066 a 0.15071922,0.15071922 0 0 1 0.09132,-0.1524 0.7342984,0.7342984 0 0 0 0.355589,-0.51127 1.8978478,1.8978478 0 0 0 0.01795,-0.73459 c -0.06173,-0.32847 -0.0648,-0.67102 -0.140021,-0.99511 a 8.248681,8.248681 0 0 0 -0.315231,-0.93341 c -0.06454,-0.17795 -0.142906,-0.35049 -0.213927,-0.52272 0.184173,0.1346 0.365829,0.25977 0.538513,0.3961 a 0.5719677,0.5719677 0 0 0 0.415286,0.0945 c 0.236511,-0.0145 0.417382,-0.16235 0.594074,-0.2997 a 1.5436377,1.5436377 0 0 1 0.610796,-0.30394 2.0494884,2.0494884 0 0 0 0.385428,-0.12391 c 0.0515,-0.0233 0.11673,-0.10578 0.110581,-0.15012 a 0.23557971,0.23557971 0 0 0 -0.131787,-0.14062 z m -6.0164419,0.30641 a 0.17078163,0.17078163 0 0 1 -0.066046,-0.0921 0.38118875,0.38118875 0 0 1 -0.0017,-0.11371 0.37433959,0.37433959 0 0 1 0.1097128,0.004 0.40274507,0.40274507 0 0 1 0.3051374,0.38276 C 8.0021134,104.2268 7.889497,104.17359 7.7820205,104.11176 Z m 1.2658855,6.33784 c 0.219289,-0.1998 0.449606,-0.18047 0.676029,-0.16886 0.02375,8.9e-4 0.04335,0.0503 0.07594,0.091 a 1.65668,1.65668 0 0 1 -0.75196,0.0778 z m 3.3159634,-0.20543 c 0.01669,0.0117 0.03902,0.044 0.03401,0.0523 -0.01738,0.0284 -0.0449,0.0697 -0.06994,0.0715 -0.140955,0.0105 -0.282492,0.0147 -0.423425,0.0128 a 0.70462078,0.70462078 0 0 1 -0.159264,-0.0429 c 0.147436,-0.16314 0.460974,-0.20459 0.618611,-0.0937 z m -2.4722844,-7.33279 c -0.204348,-0.27987 -0.129956,-0.65382 0.1195284,-0.90478 a 0.32722324,0.32722324 0 0 1 0.117141,-0.11477 0.9067428,0.9067428 0 0 1 0.523252,-0.13623 1.0808071,1.0808071 0 0 1 0.796419,0.31597 0.40676911,0.40676911 0 0 1 0.132876,0.33767 1.1363235,1.1363235 0 0 1 -0.570477,0.93657 c -0.127322,0.08 -0.535951,0.0206 -0.602621,-0.006 a 0.68508622,0.68508622 0 0 1 -0.5161184,-0.42803 z m 1.6182754,2.24624 a 8.0404201,8.0404201 0 0 1 0.244934,0.94367 8.2281212,8.2281212 0 0 1 0.106612,0.8551 c 0.03033,0.33847 -0.02821,0.66534 -0.284102,0.91842 a 0.61020401,0.61020401 0 0 1 -0.344659,0.13887 c -0.38254,0.041 -0.756384,0.0231 -1.108749,-0.15208 a 0.7317154,0.7317154 0 0 1 -0.4497694,-0.70875 7.9323806,7.9323806 0 0 1 0.244336,-1.83901 c 0.1257354,-0.51907 0.2681534,-1.03469 0.4074294,-1.55084 a 2.5191468,2.5191468 0 0 1 0.104911,-0.26947 c 0.139599,0.0194 0.263989,0.0327 0.3858,0.057 0.02756,0.005 0.05587,0.0453 0.06749,0.0761 0.119055,0.31491 0.228086,0.63406 0.353749,0.94606 0.08036,0.19955 0.205474,0.38137 0.272026,0.58491 z m 1.907096,-1.05438 -0.01488,-0.0465 0.37024,-0.13216 q 0.0074,0.0232 0.01475,0.0462 -0.185071,0.0662 -0.370141,0.13237 z"
       id="path1038-4-5"
       style="fill:#000000;fill-opacity:1;stroke-width:0.101695" /><path
       d="m 6.9411396,107.71946 a 0.27453806,0.27453806 0 0 0 -0.1666841,0.0122 c -0.075376,0.0205 -0.1476169,0.0541 -0.2211982,0.0821 0.012958,-0.0191 -0.052318,-0.12714 -0.090902,-0.11949 a 0.25195057,0.25195057 0 0 0 -0.1385231,0.0999 1.4854987,1.4854987 0 0 0 -0.1042366,0.21634 0.2833062,0.2833062 0 0 1 -0.056649,0.10402 c -0.1692881,0.13083 -0.3405118,0.25949 -0.5156343,0.38219 a 0.56632766,0.56632766 0 0 1 -0.6894602,0.006 C 4.8387126,108.42262 4.7349694,108.32057 4.619939,108.2341 a 1.2207863,1.2207863 0 0 1 -0.4672425,-0.80179 1.5288206,1.5288206 0 0 0 0.2396206,-0.16378 c 0.1960196,-0.1959 0.3925044,-0.39492 0.4280986,-0.68163 a 0.78317109,0.78317109 0 0 0 0.030131,-0.10256 0.6610993,0.6610993 0 0 0 0.00595,-0.17479 0.42990678,0.42990678 0 0 0 -0.076947,-0.27613 1.1484151,1.1484151 0 0 0 -0.9991876,-0.50333 c -0.05863,0.002 -0.1646942,-0.0182 -0.1668855,-0.0393 a 0.55216357,0.55216357 0 0 1 0.043442,-0.2098 c 0.00777,-0.0243 0.038545,-0.0412 0.054843,-0.0642 0.03029,-0.0427 0.096828,-0.0875 0.028405,-0.13936 -0.066317,-0.0502 -0.1225641,-0.005 -0.1571496,0.0544 -0.046558,0.0799 -0.083309,0.16522 -0.1242663,0.24821 a 1.8370869,1.8370869 0 0 1 0.081203,-0.28875 c 0.00861,-0.0265 0.016104,-0.0696 0.00266,-0.0823 a 0.09264421,0.09264421 0 0 0 -0.083294,-0.004 0.14317752,0.14317752 0 0 0 -0.073832,0.0698 c -0.035901,0.11369 -0.062543,0.23 -0.093446,0.34855 -0.00811,-0.0115 -0.031288,-0.029 -0.03025,-0.0459 a 1.6240948,1.6240948 0 0 1 0.032326,-0.30537 c 0.015871,-0.0616 0.023792,-0.10895 -0.039391,-0.12035 a 0.14188396,0.14188396 0 0 0 -0.1112488,0.053 0.30076931,0.30076931 0 0 0 -0.038086,0.13671 0.51544862,0.51544862 0 0 0 0.1280222,0.46193 1.4858871,1.4858871 0 0 0 -0.1925215,0.20468 1.7415586,1.7415586 0 0 0 -0.2087302,0.40283 0.22956037,0.22956037 0 0 0 -0.00888,0.0474 c -7.377e-4,8.9e-4 -0.00154,0.002 -0.00233,0.004 -0.089394,0.23646 0.014378,0.47878 0.1143816,0.69677 a 0.67224514,0.67224514 0 0 0 0.4918995,0.41966 c -0.015105,0.0317 -0.02979,0.0619 -0.040844,0.0926 -0.082464,0.22858 -0.1517221,0.46247 -0.2491262,0.68488 a 1.5534595,1.5534595 0 0 1 -0.2562985,0.40504 c -0.1531906,0.17193 -0.3608443,0.17195 -0.5526095,0.0984 a 4.4796825,4.4796825 0 0 1 -0.6141514,-0.29104 0.31519778,0.31519778 0 0 1 -0.189745,-0.25726 1.9023234,1.9023234 0 0 1 -0.051494,-0.2018 c -5.192e-4,-0.003 -5.192e-4,-0.004 -9.053e-4,-0.007 -0.00522,-0.0105 -0.010344,-0.0209 -0.014997,-0.0311 -0.046591,-0.10249 -0.1125165,-0.12552 -0.1816029,-0.0374 -0.1387319,-0.0588 -0.266354,-0.1137 -0.39470589,-0.16697 a 0.17446807,0.17446807 0 0 0 -0.02264,-0.007 c -0.064226,0.0147 -0.087317,0.091 -0.089876,0.16159 a 0.40565147,0.40565147 0 0 0 0.093654,0.24646 0.67608517,0.67608517 0 0 0 0.097548,0.11217 c 0.088249,0.0468 0.18252799,0.0859 0.27393149,0.12577 0.1012031,0.0441 0.2209736,0.049 0.3207729,0.0953 0.2514628,0.11645 0.4890055,0.26359 0.7462114,0.36529 a 0.64719764,0.64719764 0 0 0 0.6098411,-0.0557 1.8033639,1.8033639 0 0 0 0.1446076,-0.11493 c -0.080228,0.40835 -0.1758407,0.81667 -0.2371688,1.22891 -0.062678,0.4213 -0.1071406,0.84617 -0.1305823,1.27005 a 0.7717639,0.7717639 0 0 0 0.43024,0.74422 1.5807045,1.5807045 0 0 0 0.1526641,0.0751 c -0.1000297,0.71357 -0.1999481,1.42641 -0.3025295,2.15825 a 3.2333116,3.2333116 0 0 0 -0.3941838,0.004 c -0.1522684,0.0187 -0.3153896,0.0314 -0.4308954,0.15768 -0.038234,0.0418 -0.082679,0.11726 -0.069059,0.1565 a 0.1945803,0.1945803 0 0 0 0.1437809,0.0939 1.3447506,1.3447506 0 0 0 0.3462295,8.8e-4 2.6882372,2.6882372 0 0 0 0.4060874,-0.0974 c 0.03951,-0.0119 0.095003,-0.0572 0.0995,-0.0915 0.036015,-0.2741 0.052453,-0.5502 0.092234,-0.82377 0.072752,-0.50018 0.1563075,-0.99919 0.2380686,-1.49834 4.012e-4,-0.004 7.377e-4,-0.006 0.00114,-0.01 a 2.2346261,2.2346261 0 0 0 0.9291428,0.0755 c 0.052448,-0.005 0.1047069,-0.0132 0.1602243,-0.0203 0.0095,0.18496 0.012416,0.35203 0.027672,0.51751 0.040967,0.44444 0.076388,0.88996 0.1345831,1.33164 0.050969,0.38691 0.046496,0.51721 0.407237,0.53687 a 1.807149,1.807149 0 0 0 0.4593967,-0.0253 0.19862167,0.19862167 0 0 0 0.1112274,-0.30048 c -0.081686,-0.0983 -0.373637,-0.15432 -0.4974014,-0.10006 -0.1020577,0.0447 -0.2068818,0.0827 -0.3222114,0.12833 a 1.0037731,1.0037731 0 0 1 -0.033361,-0.12356 c -0.036361,-0.28173 -0.08087,-0.56264 -0.1032248,-0.84603 -0.027291,-0.34573 -0.035971,-0.69362 -0.05144,-1.04065 a 0.15071922,0.15071922 0 0 1 0.091324,-0.15241 0.7342984,0.7342984 0 0 0 0.3555896,-0.51126 1.8978478,1.8978478 0 0 0 0.017945,-0.73459 c -0.061726,-0.32848 -0.064797,-0.67102 -0.1400208,-0.9951 a 8.248681,8.248681 0 0 0 -0.3152292,-0.93358 c -0.064539,-0.17794 -0.1429052,-0.35048 -0.213927,-0.52272 0.1841734,0.13461 0.3658297,0.25977 0.5385134,0.3961 a 0.5719677,0.5719677 0 0 0 0.4152858,0.0945 c 0.2365113,-0.0145 0.4173822,-0.16234 0.5940738,-0.29969 a 1.5436377,1.5436377 0 0 1 0.6107966,-0.30395 2.0494884,2.0494884 0 0 0 0.3854275,-0.12391 c 0.051502,-0.0233 0.11673,-0.10578 0.1105805,-0.15012 A 0.23557971,0.23557971 0 0 0 6.9407474,107.7206 Z m -6.01644129,0.30641 a 0.17078163,0.17078163 0 0 1 -0.066046,-0.0921 0.38118875,0.38118875 0 0 1 -0.0017,-0.11371 0.37433959,0.37433959 0 0 1 0.1097129,0.004 0.40274507,0.40274507 0 0 1 0.30513729,0.38277 c -0.1270258,-0.0649 -0.2396421,-0.11811 -0.34711869,-0.17995 z m 1.26588589,6.33784 c 0.219289,-0.1998 0.4496059,-0.18047 0.6760281,-0.16885 0.023752,8.8e-4 0.043346,0.0503 0.075931,0.091 a 1.65668,1.65668 0 0 1 -0.7519588,0.0778 z m 3.3159624,-0.20543 c 0.016685,0.0117 0.039015,0.044 0.034009,0.0523 -0.017377,0.0284 -0.044899,0.0697 -0.069935,0.0715 -0.1409545,0.0105 -0.282492,0.0147 -0.4234243,0.0128 a 0.70462078,0.70462078 0 0 1 -0.1592646,-0.0429 c 0.1474359,-0.16314 0.4609737,-0.20459 0.6186115,-0.0937 z m -2.4722845,-7.33279 c -0.2043479,-0.27987 -0.1299554,-0.65381 0.1195282,-0.90477 a 0.32722324,0.32722324 0 0 1 0.117141,-0.11478 0.9067428,0.9067428 0 0 1 0.5232517,-0.13623 1.0808071,1.0808071 0 0 1 0.7964192,0.31597 0.40676911,0.40676911 0 0 1 0.1328764,0.33767 1.1363235,1.1363235 0 0 1 -0.570477,0.93657 c -0.1273225,0.08 -0.5359508,0.0206 -0.6026216,-0.006 a 0.68508622,0.68508622 0 0 1 -0.5161179,-0.42804 z m 1.6182755,2.24624 a 8.0404201,8.0404201 0 0 1 0.2449337,0.94367 8.2281212,8.2281212 0 0 1 0.1066125,0.8551 c 0.030326,0.33847 -0.028214,0.66534 -0.284102,0.91843 a 0.61020401,0.61020401 0 0 1 -0.3446589,0.13887 c -0.3825412,0.041 -0.7563848,0.0231 -1.10875,-0.15209 a 0.7317154,0.7317154 0 0 1 -0.4497692,-0.70875 7.9323806,7.9323806 0 0 1 0.244337,-1.83901 c 0.1257353,-0.51906 0.268152,-1.03469 0.4074287,-1.55083 A 2.5191468,2.5191468 0 0 1 3.57348,107.40764 c 0.1395995,0.0194 0.2639895,0.0327 0.3858006,0.057 0.02756,0.005 0.055869,0.0453 0.067482,0.0761 0.119055,0.31491 0.2280864,0.63406 0.3537486,0.94606 0.080365,0.19955 0.2054748,0.38137 0.2720261,0.58491 z m 1.9070964,-1.05438 -0.014883,-0.0465 0.3702388,-0.13215 q 0.00737,0.0232 0.01475,0.0462 -0.1850705,0.0662 -0.3701402,0.13237 z"
       id="path1038-4-2"
       style="fill:#000000;fill-opacity:1;stroke-width:0.101695" /><text
       xml:space="preserve"
       style="font-size:5.29167px;line-height:1;font-family:Arial;-inkscape-font-specification:Arial;text-align:center;text-anchor:middle;fill:#000000;fill-opacity:1;stroke:none;stroke-width:0.499999;stroke-linejoin:miter;stroke-dasharray:none;stroke-opacity:1"
       x="52.809666"
       y="111.71054"
       id="text24782"><tspan
         sodipodi:role="line"
         style="font-size:5.29167px;fill:#000000;fill-opacity:1;stroke:none;stroke-width:0.5"
         x="52.809666"
         y="111.71054"
         id="tspan24780">community</tspan><tspan
         sodipodi:role="line"
         style="font-size:5.29167px;fill:#000000;fill-opacity:1;stroke:none;stroke-width:0.5"
         x="52.809666"
         y="117.00221"
         id="tspan24786">information</tspan></text><path
       d="m 26.782479,58.970804 a 1.0264166,1.0264166 0 0 0 -0.623187,0.04583 c -0.281795,0.07673 -0.551895,0.202298 -0.826996,0.306945 0.04847,-0.07127 -0.195604,-0.475375 -0.339853,-0.44675 a 0.94196866,0.94196866 0 0 0 -0.517895,0.373434 5.55384,5.55384 0 0 0 -0.389712,0.808849 1.0591981,1.0591981 0 0 1 -0.211815,0.388891 c -0.632918,0.489174 -1.273072,0.970151 -1.927802,1.428934 a 2.1173317,2.1173317 0 0 1 -2.577687,0.0217 c -0.44543,-0.299539 -0.833293,-0.680951 -1.26336,-1.004261 a 4.5641591,4.5641591 0 0 1 -1.746882,-2.997644 5.7158085,5.7158085 0 0 0 0.895873,-0.612321 c 0.732858,-0.732441 1.467455,-1.476479 1.600536,-2.548414 a 2.9280451,2.9280451 0 0 0 0.112661,-0.383436 2.4716549,2.4716549 0 0 0 0.02229,-0.653521 1.6072943,1.6072943 0 0 0 -0.28769,-1.032403 4.2935842,4.2935842 0 0 0 -3.735668,-1.881774 c -0.219201,0.0072 -0.615743,-0.06797 -0.623934,-0.147063 a 2.0643763,2.0643763 0 0 1 0.162424,-0.784418 c 0.02903,-0.09096 0.144104,-0.153933 0.205047,-0.239908 0.113236,-0.159695 0.36201,-0.327049 0.106195,-0.521045 -0.247941,-0.188018 -0.458233,-0.01854 -0.587535,0.203236 -0.174079,0.29861 -0.311471,0.617697 -0.464598,0.927961 a 6.868325,6.868325 0 0 1 0.303596,-1.07955 c 0.03219,-0.0993 0.06021,-0.260257 0.01006,-0.307692 a 0.34636932,0.34636932 0 0 0 -0.311414,-0.01293 0.5352984,0.5352984 0 0 0 -0.276034,0.260888 c -0.134216,0.425039 -0.23383,0.85989 -0.349366,1.303121 -0.03032,-0.0434 -0.116972,-0.108638 -0.113092,-0.171521 a 6.0720101,6.0720101 0 0 1 0.120852,-1.141644 c 0.05935,-0.23018 0.08895,-0.407391 -0.147279,-0.449955 a 0.53046215,0.53046215 0 0 0 -0.415926,0.198077 1.1244875,1.1244875 0 0 0 -0.142408,0.5111 1.9271099,1.9271099 0 0 0 0.478638,1.727022 5.5552925,5.5552925 0 0 0 -0.719782,0.765263 6.5111729,6.5111729 0 0 0 -0.780382,1.506054 0.85825831,0.85825831 0 0 0 -0.03319,0.177111 c -0.0029,0.0057 -0.0057,0.0072 -0.0086,0.01293 -0.334219,0.883974 0.05375,1.78992 0.42764,2.605004 a 2.5133257,2.5133257 0 0 0 1.839067,1.568968 c -0.05647,0.118409 -0.111368,0.231517 -0.152697,0.346018 -0.308309,0.854646 -0.567244,1.729075 -0.93141,2.560602 a 5.8079254,5.8079254 0 0 1 -0.958224,1.514297 c -0.572734,0.64283 -1.349091,0.642889 -2.0660437,0.368074 a 16.748208,16.748208 0 0 1 -2.2961304,-1.088114 1.1784313,1.1784313 0 0 1 -0.7094,-0.961815 7.1122245,7.1122245 0 0 1 -0.192521,-0.754486 c -0.002,-0.0087 -0.002,-0.01694 -0.0033,-0.02559 -0.01954,-0.03908 -0.03867,-0.07803 -0.05607,-0.116254 -0.174189,-0.383252 -0.420666,-0.469311 -0.67896,-0.139394 -0.518679,-0.219757 -0.995818,-0.425076 -1.4756891,-0.624236 a 0.65228453,0.65228453 0 0 0 -0.08464,-0.02801 c -0.240123,0.05477 -0.326453,0.340395 -0.336019,0.604145 a 1.5166109,1.5166109 0 0 0 0.350145,0.921392 2.5276824,2.5276824 0 0 0 0.3647021,0.41943 c 0.329937,0.174728 0.682417,0.321177 1.024147,0.470191 0.378368,0.165014 0.826158,0.183388 1.199275,0.356174 0.940147,0.435444 1.828248,0.985528 2.7898647,1.365774 A 2.4196806,2.4196806 0 0 0 11.712318,62.675473 6.7422442,6.7422442 0 0 0 12.252962,62.2458 c -0.299946,1.526674 -0.657416,3.053259 -0.886705,4.594524 -0.234333,1.575155 -0.400566,3.163552 -0.488209,4.748357 a 2.8853971,2.8853971 0 0 0 1.608543,2.782389 5.9097868,5.9097868 0 0 0 0.570764,0.280732 c -0.373981,2.667874 -0.747545,5.332954 -1.131067,8.069106 a 12.088396,12.088396 0 0 0 -1.473737,0.0129 c -0.5692877,0.0701 -1.1791504,0.117405 -1.6109931,0.589496 -0.142953,0.156288 -0.30911,0.438383 -0.258188,0.585147 a 0.72747824,0.72747824 0 0 0 0.5375537,0.350858 5.0276248,5.0276248 0 0 0 1.2944514,0.0029 10.050524,10.050524 0 0 0 1.518241,-0.364049 c 0.14771,-0.04473 0.355185,-0.214015 0.371998,-0.342052 0.134648,-1.024748 0.196109,-2.057005 0.344838,-3.079824 0.271997,-1.870031 0.584388,-3.73567 0.890068,-5.601837 0.0015,-0.01291 0.0029,-0.02442 0.0043,-0.03652 a 8.3546064,8.3546064 0 0 0 3.47379,0.282228 c 0.196079,-0.01972 0.391469,-0.04942 0.59903,-0.07601 0.0355,0.691502 0.04641,1.316112 0.103464,1.93487 0.153156,1.661537 0.285605,3.327261 0.503168,4.978576 0.190562,1.44651 0.173834,1.933698 1.522538,2.007182 a 6.7563956,6.7563956 0 0 0 1.717549,-0.09455 0.74258769,0.74258769 0 0 0 0.415844,-1.123368 c -0.305398,-0.3674 -1.396914,-0.577001 -1.859634,-0.374123 -0.381565,0.16725 -0.77347,0.30924 -1.204653,0.479789 a 3.7528109,3.7528109 0 0 1 -0.12473,-0.461957 c -0.135941,-1.053284 -0.302334,-2.10352 -0.385924,-3.163045 -0.102028,-1.292626 -0.134504,-2.593245 -0.192315,-3.890748 a 0.5634946,0.5634946 0 0 1 0.341433,-0.569727 2.7453247,2.7453247 0 0 0 1.329444,-1.91151 7.0954915,7.0954915 0 0 0 0.06709,-2.746432 c -0.230777,-1.228065 -0.242259,-2.50874 -0.523497,-3.720367 a 30.839379,30.839379 0 0 0 -1.178559,-3.489781 c -0.241303,-0.665318 -0.534279,-1.310349 -0.799809,-1.954301 0.68857,0.503224 1.367727,0.971215 2.013343,1.480906 a 2.1384181,2.1384181 0 0 0 1.55263,0.353402 c 0.884247,-0.05419 1.560469,-0.606946 2.221065,-1.120464 a 5.7712048,5.7712048 0 0 1 2.283588,-1.136339 7.662431,7.662431 0 0 0 1.441003,-0.463276 c 0.192539,-0.08679 0.436419,-0.39549 0.413425,-0.561266 A 0.88076284,0.88076284 0 0 0 26.781394,58.971889 Z M 4.2887789,60.116411 a 0.638502,0.638502 0 0 1 -0.2469291,-0.344186 1.425152,1.425152 0 0 1 -0.0063,-0.425112 1.399545,1.399545 0 0 1 0.4101841,0.01151 1.5057447,1.5057447 0 0 1 1.14082,1.430995 C 5.1116409,60.547124 4.6906019,60.348045 4.2887789,60.116901 Z M 9.0215516,83.81172 c 0.8198587,-0.747023 1.6809464,-0.674741 2.5274714,-0.631304 0.08881,0.0044 0.162066,0.188132 0.283882,0.340329 A 6.1938363,6.1938363 0 0 1 9.0215516,83.81172 Z M 21.418957,83.043712 c 0.0624,0.04385 0.145884,0.16464 0.127172,0.195303 -0.06497,0.106194 -0.167866,0.260517 -0.261463,0.26749 -0.526987,0.03938 -1.056153,0.05507 -1.583059,0.04773 a 2.6343687,2.6343687 0 0 1 -0.595442,-0.160226 c 0.551221,-0.609938 1.723443,-0.764891 2.312807,-0.350345 z m -9.24314,-27.415183 c -0.763999,-1.046341 -0.485866,-2.44439 0.44688,-3.382669 a 1.2233909,1.2233909 0 0 1 0.437956,-0.429104 3.3900431,3.3900431 0 0 1 1.956284,-0.509333 4.0408183,4.0408183 0 0 1 2.977577,1.181305 1.5207894,1.5207894 0 0 1 0.496787,1.262453 4.2483776,4.2483776 0 0 1 -2.132847,3.501569 c -0.476022,0.298879 -2.003761,0.07688 -2.253024,-0.02386 a 2.5613346,2.5613346 0 0 1 -1.929613,-1.600322 z m 6.050256,8.398053 a 30.060751,30.060751 0 0 1 0.915734,3.528077 30.762512,30.762512 0 0 1 0.398592,3.19698 c 0.113379,1.265439 -0.105476,2.48747 -1.062174,3.433741 a 2.2813724,2.2813724 0 0 1 -1.288578,0.519156 c -1.430209,0.153216 -2.827899,0.08637 -4.145289,-0.568562 a 2.7356675,2.7356675 0 0 1 -1.681556,-2.649828 29.656825,29.656825 0 0 1 0.913505,-6.875539 c 0.470088,-1.940604 1.002543,-3.868362 1.523256,-5.798063 a 9.4183448,9.4183448 0 0 1 0.392231,-1.007495 c 0.52192,0.07288 0.986979,0.122288 1.442394,0.212959 0.103034,0.02053 0.208884,0.169845 0.252296,0.284743 0.445112,1.177355 0.852748,2.370578 1.322562,3.537052 0.300464,0.746033 0.76821,1.42584 1.017027,2.186786 z m 7.130067,-3.94203 -0.05565,-0.173702 1.384215,-0.494102 q 0.02757,0.08651 0.05514,0.172932 -0.691928,0.247436 -1.383848,0.494872 z"
       id="path1038"
       style="fill:#000000;fill-opacity:1;stroke-width:0.380207" /><g
       id="g6891"
       transform="matrix(0.76126584,0,0,0.76126584,0.040837,39.641081)"><rect
         style="fill:#000000;fill-opacity:1;stroke:#ffffff;stroke-width:0.5;stroke-linejoin:miter;stroke-dasharray:none;stroke-opacity:1"
         id="rect2374"
         width="48.882847"
         height="30.211264"
         x="92.807098"
         y="45.6119"
         ry="0" /><path
         style="fill:#000000;fill-opacity:1;stroke:#ffffff;stroke-width:0.499999;stroke-linejoin:miter;stroke-dasharray:none;stroke-opacity:1"
         d="m 141.55208,75.935416 13.22917,-5.291667 V 41.275 l -13.22917,3.96875 z"
         id="path3158"
         sodipodi:nodetypes="ccccc" /><path
         style="fill:#000000;fill-opacity:1;stroke:#ffffff;stroke-width:0.499999;stroke-linejoin:miter;stroke-dasharray:none;stroke-opacity:1"
         d="m 92.604166,45.508333 h 48.947914 l 13.22917,-3.96875 h -48.94792 z"
         id="path3160" /></g><text
       xml:space="preserve"
       style="font-size:5.29167px;line-height:1.3;font-family:Arial;-inkscape-font-specification:Arial;text-align:center;text-anchor:middle;fill:#ffffff;fill-opacity:1;stroke:none;stroke-width:0.499999;stroke-linejoin:miter;stroke-dasharray:none;stroke-opacity:1"
       x="89.163086"
       y="84.184265"
       id="text6947"><tspan
         sodipodi:role="line"
         style="font-size:5.29167px;fill:#ffffff;fill-opacity:1;stroke:none;stroke-width:0.5"
         x="89.163086"
         y="84.184265"
         id="tspan7725">recommender</tspan><tspan
         sodipodi:role="line"
         style="font-size:5.29167px;fill:#ffffff;fill-opacity:1;stroke:none;stroke-width:0.5"
         x="89.163086"
         y="91.063438"
         id="tspan434">system</tspan></text><text
       xml:space="preserve"
       style="font-size:5.29167px;line-height:1;font-family:Arial;-inkscape-font-specification:Arial;text-align:center;text-anchor:middle;fill:#000000;fill-opacity:1;stroke:none;stroke-width:0.499999;stroke-linejoin:miter;stroke-dasharray:none;stroke-opacity:1"
       x="168.94954"
       y="63.53896"
       id="text6947-2"><tspan
         sodipodi:role="line"
         style="font-size:5.29167px;fill:#000000;fill-opacity:1;stroke:none;stroke-width:0.5"
         x="168.94954"
         y="63.53896"
         id="tspan16784">recommended</tspan><tspan
         sodipodi:role="line"
         style="font-size:5.29167px;fill:#000000;fill-opacity:1;stroke:none;stroke-width:0.5"
         x="168.94954"
         y="68.830627"
         id="tspan430">items</tspan></text><text
       xml:space="preserve"
       style="font-size:5.29167px;line-height:1;font-family:Arial;-inkscape-font-specification:Arial;text-align:center;text-anchor:middle;fill:#000000;fill-opacity:1;stroke:none;stroke-width:0.499999;stroke-linejoin:miter;stroke-dasharray:none;stroke-opacity:1"
       x="52.442482"
       y="59.305027"
       id="text6947-2-3"><tspan
         sodipodi:role="line"
         style="font-size:5.29167px;fill:#000000;fill-opacity:1;stroke:none;stroke-width:0.5"
         x="52.442482"
         y="59.305027"
         id="tspan422">user profile</tspan></text><path
       style="fill:#b4b4b4;fill-opacity:1;stroke:#b4b4b4;stroke-width:0.5;stroke-linejoin:miter;stroke-dasharray:none;stroke-opacity:1;marker-end:url(#RoundedArrow)"
       d="m 121.5867,84.666666 h 21.16667"
       id="path8353" /><rect
       style="fill:#000000;fill-opacity:1;stroke-width:0.395092;stroke-linecap:round;stroke-linejoin:round;stroke-dasharray:none"
       id="rect5992"
       width="33.891106"
       height="4.0191803"
       x="151.43826"
       y="71.292961"
       ry="0" /><rect
       style="fill:#b4b4b4;fill-opacity:1;stroke-width:0.395092;stroke-linecap:round;stroke-linejoin:round;stroke-dasharray:none"
       id="rect5994"
       width="33.859615"
       height="3.96875"
       x="151.46976"
       y="75.312141" /><rect
       style="fill:#dcdcdc;fill-opacity:1;stroke-width:0.395092;stroke-linecap:round;stroke-linejoin:round;stroke-dasharray:none"
       id="rect5996"
       width="33.859615"
       height="3.96875"
       x="151.46976"
       y="79.280891" /><rect
       style="fill:#b4b4b4;fill-opacity:1;stroke-width:0.395092;stroke-linecap:round;stroke-linejoin:round;stroke-dasharray:none"
       id="rect5998"
       width="33.859623"
       height="3.96875"
       x="151.46976"
       y="83.249641" /><rect
       style="fill:#dcdcdc;fill-opacity:1;stroke-width:0.395092;stroke-linecap:round;stroke-linejoin:round;stroke-dasharray:none"
       id="rect6000"
       width="33.859615"
       height="3.96875"
       x="151.46976"
       y="87.218391"
       ry="0" /><rect
       style="fill:#b4b4b4;fill-opacity:1;stroke-width:0.395092;stroke-linecap:round;stroke-linejoin:round;stroke-dasharray:none"
       id="rect6002"
       width="33.859623"
       height="3.9687519"
       x="151.46976"
       y="91.187141" /><rect
       style="fill:#dcdcdc;fill-opacity:1;stroke-width:0.499999;stroke-linecap:round;stroke-linejoin:round;stroke-dasharray:none"
       id="rect6004"
       width="33.840679"
       height="3.8431792"
       x="151.48869"
       y="95.155891"
       ry="1.9073486e-06" /><path
       style="fill:none;fill-opacity:1;stroke:#ffffff;stroke-width:0.499999;stroke-linecap:round;stroke-dasharray:none;stroke-opacity:1"
       d="m 151.48861,75.312146 h 33.84068"
       id="path1437"
       sodipodi:nodetypes="cc" /><path
       style="fill:none;fill-opacity:1;stroke:#ffffff;stroke-width:0.499999;stroke-linecap:round;stroke-dasharray:none;stroke-opacity:1"
       d="m 151.48861,79.280896 h 33.84068"
       id="path1439"
       sodipodi:nodetypes="cc" /><path
       style="fill:none;fill-opacity:1;stroke:#ffffff;stroke-width:0.499999;stroke-linecap:round;stroke-dasharray:none;stroke-opacity:1"
       d="m 151.48861,83.249646 h 33.84068"
       id="path1441"
       sodipodi:nodetypes="cc" /><path
       style="fill:none;fill-opacity:1;stroke:#ffffff;stroke-width:0.499999;stroke-linecap:round;stroke-dasharray:none;stroke-opacity:1"
       d="m 151.48861,87.218396 h 33.84068"
       id="path1443"
       sodipodi:nodetypes="cc" /><path
       style="fill:none;fill-opacity:1;stroke:#ffffff;stroke-width:0.499999;stroke-linecap:round;stroke-dasharray:none;stroke-opacity:1"
       d="m 151.48861,91.187146 h 33.84068"
       id="path1445"
       sodipodi:nodetypes="cc" /><path
       style="fill:none;fill-opacity:1;stroke:#ffffff;stroke-width:0.499999;stroke-linecap:round;stroke-dasharray:none;stroke-opacity:1"
       d="m 168.68653,71.343396 v 27.9681"
       id="path1451"
       sodipodi:nodetypes="cc" /><text
       xml:space="preserve"
       style="font-size:3.175px;line-height:1.3;font-family:Arial;-inkscape-font-specification:Arial;fill:#ffffff;fill-opacity:1;stroke:none;stroke-width:0.499999;stroke-linecap:round;stroke-dasharray:none;stroke-opacity:1"
       x="156.26512"
       y="74.475334"
       id="text1511"><tspan
         sodipodi:role="line"
         id="tspan1509"
         style="font-weight:bold;font-size:3.175px;fill:#ffffff;fill-opacity:1;stroke:none;stroke-width:0.5"
         x="156.26512"
         y="74.475334">ITEM</tspan></text><text
       xml:space="preserve"
       style="font-size:3.175px;line-height:1.3;font-family:Arial;-inkscape-font-specification:Arial;fill:#ffffff;fill-opacity:1;stroke:none;stroke-width:0.499999;stroke-linecap:round;stroke-dasharray:none;stroke-opacity:1"
       x="171.1763"
       y="74.475334"
       id="text1565"><tspan
         sodipodi:role="line"
         id="tspan1563"
         style="font-weight:bold;font-size:3.175px;fill:#ffffff;fill-opacity:1;stroke:none;stroke-width:0.5"
         x="171.1763"
         y="74.475334">SCORE</tspan></text><text
       xml:space="preserve"
       style="font-size:3.175px;line-height:1.3;font-family:Arial;-inkscape-font-specification:Arial;fill:#000000;fill-opacity:1;stroke:none;stroke-width:0.499999;stroke-linecap:round;stroke-dasharray:none;stroke-opacity:1"
       x="159.10164"
       y="78.444084"
       id="text1573"><tspan
         sodipodi:role="line"
         id="tspan1571"
         style="font-weight:normal;font-size:3.175px;fill:#000000;fill-opacity:1;stroke:none;stroke-width:0.5"
         x="159.10164"
         y="78.444084">i1</tspan></text><text
       xml:space="preserve"
       style="font-size:3.175px;line-height:1.3;font-family:Arial;-inkscape-font-specification:Arial;fill:#000000;fill-opacity:1;stroke:none;stroke-width:0.499999;stroke-linecap:round;stroke-dasharray:none;stroke-opacity:1"
       x="159.10162"
       y="82.455894"
       id="text3759"><tspan
         sodipodi:role="line"
         id="tspan3757"
         style="font-weight:normal;font-size:3.175px;fill:#000000;fill-opacity:1;stroke:none;stroke-width:0.5"
         x="159.10162"
         y="82.455894">i2</tspan></text><text
       xml:space="preserve"
       style="font-size:3.175px;line-height:1.3;font-family:Arial;-inkscape-font-specification:Arial;fill:#000000;fill-opacity:1;stroke:none;stroke-width:0.499999;stroke-linecap:round;stroke-dasharray:none;stroke-opacity:1"
       x="159.10162"
       y="86.424644"
       id="text3763"><tspan
         sodipodi:role="line"
         id="tspan3761"
         style="font-weight:normal;font-size:3.175px;fill:#000000;fill-opacity:1;stroke:none;stroke-width:0.5"
         x="159.10162"
         y="86.424644">i3</tspan></text><text
       xml:space="preserve"
       style="font-size:3.175px;line-height:1.3;font-family:Arial;-inkscape-font-specification:Arial;fill:#000000;fill-opacity:1;stroke:none;stroke-width:0.499999;stroke-linecap:round;stroke-dasharray:none;stroke-opacity:1"
       x="159.10164"
       y="90.393394"
       id="text3767"><tspan
         sodipodi:role="line"
         id="tspan3765"
         style="font-weight:normal;font-size:3.175px;fill:#000000;fill-opacity:1;stroke:none;stroke-width:0.5"
         x="159.10164"
         y="90.393394">i4</tspan></text><text
       xml:space="preserve"
       style="font-size:3.175px;line-height:1.3;font-family:Arial;-inkscape-font-specification:Arial;fill:#000000;fill-opacity:1;stroke:none;stroke-width:0.499999;stroke-linecap:round;stroke-dasharray:none;stroke-opacity:1"
       x="159.10162"
       y="94.362144"
       id="text3771"><tspan
         sodipodi:role="line"
         id="tspan3769"
         style="font-weight:normal;font-size:3.175px;fill:#000000;fill-opacity:1;stroke:none;stroke-width:0.5"
         x="159.10162"
         y="94.362144">i5</tspan></text><text
       xml:space="preserve"
       style="font-size:3.175px;line-height:1.3;font-family:Arial;-inkscape-font-specification:Arial;fill:#000000;fill-opacity:1;stroke:none;stroke-width:0.499999;stroke-linecap:round;stroke-dasharray:none;stroke-opacity:1"
       x="174.97667"
       y="78.444084"
       id="text4509"><tspan
         sodipodi:role="line"
         id="tspan4507"
         style="font-weight:normal;font-size:3.175px;fill:#000000;fill-opacity:1;stroke:none;stroke-width:0.5"
         x="174.97667"
         y="78.444084">0.9</tspan></text><text
       xml:space="preserve"
       style="font-size:3.175px;line-height:1.3;font-family:Arial;-inkscape-font-specification:Arial;fill:#000000;fill-opacity:1;stroke:none;stroke-width:0.499999;stroke-linecap:round;stroke-dasharray:none;stroke-opacity:1"
       x="174.97667"
       y="82.455894"
       id="text4513"><tspan
         sodipodi:role="line"
         id="tspan4511"
         style="font-weight:normal;font-size:3.175px;fill:#000000;fill-opacity:1;stroke:none;stroke-width:0.5"
         x="174.97667"
         y="82.455894">1.0</tspan></text><text
       xml:space="preserve"
       style="font-size:3.175px;line-height:1.3;font-family:Arial;-inkscape-font-specification:Arial;fill:#000000;fill-opacity:1;stroke:none;stroke-width:0.499999;stroke-linecap:round;stroke-dasharray:none;stroke-opacity:1"
       x="174.97667"
       y="86.424652"
       id="text4517"><tspan
         sodipodi:role="line"
         id="tspan4515"
         style="font-weight:normal;font-size:3.175px;fill:#000000;fill-opacity:1;stroke:none;stroke-width:0.5"
         x="174.97667"
         y="86.424652">0.3</tspan></text><text
       xml:space="preserve"
       style="font-size:3.175px;line-height:1.3;font-family:Arial;-inkscape-font-specification:Arial;fill:#000000;fill-opacity:1;stroke:none;stroke-width:0.499999;stroke-linecap:round;stroke-dasharray:none;stroke-opacity:1"
       x="174.97667"
       y="90.393394"
       id="text4521"><tspan
         sodipodi:role="line"
         id="tspan4519"
         style="font-weight:normal;font-size:3.175px;fill:#000000;fill-opacity:1;stroke:none;stroke-width:0.5"
         x="174.97667"
         y="90.393394">0.4</tspan></text><text
       xml:space="preserve"
       style="font-size:3.175px;line-height:1.3;font-family:Arial;-inkscape-font-specification:Arial;fill:#000000;fill-opacity:1;stroke:none;stroke-width:0.499999;stroke-linecap:round;stroke-dasharray:none;stroke-opacity:1"
       x="174.97667"
       y="94.362152"
       id="text4525"><tspan
         sodipodi:role="line"
         id="tspan4523"
         style="font-weight:normal;font-size:3.175px;fill:#000000;fill-opacity:1;stroke:none;stroke-width:0.5"
         x="174.97667"
         y="94.362152">0.8</tspan></text><path
       style="fill:none;fill-opacity:1;stroke:#ffffff;stroke-width:0.499999;stroke-linecap:round;stroke-dasharray:none;stroke-opacity:1"
       d="m 151.48861,95.155896 h 33.84068"
       id="path5151"
       sodipodi:nodetypes="cc" /><text
       xml:space="preserve"
       style="font-size:3.175px;line-height:1.3;font-family:Arial;-inkscape-font-specification:Arial;fill:#000000;fill-opacity:1;stroke:none;stroke-width:0.499999;stroke-linecap:round;stroke-dasharray:none;stroke-opacity:1"
       x="158.82181"
       y="97.395294"
       id="text16642"><tspan
         sodipodi:role="line"
         id="tspan16640"
         style="font-weight:normal;font-size:3.175px;fill:#000000;fill-opacity:1;stroke:none;stroke-width:0.5"
         x="158.82181"
         y="97.395294">...</tspan></text><text
       xml:space="preserve"
       style="font-size:3.175px;line-height:1.3;font-family:Arial;-inkscape-font-specification:Arial;fill:#000000;fill-opacity:1;stroke:none;stroke-width:0.499999;stroke-linecap:round;stroke-dasharray:none;stroke-opacity:1"
       x="176.22325"
       y="97.395294"
       id="text16646"><tspan
         sodipodi:role="line"
         id="tspan16644"
         style="font-weight:normal;font-size:3.175px;fill:#000000;fill-opacity:1;stroke:none;stroke-width:0.5"
         x="176.22325"
         y="97.395294">...</tspan></text><path
       style="fill:none;fill-opacity:1;stroke:#b4b4b4;stroke-width:0.5;stroke-linejoin:miter;stroke-dasharray:none;stroke-opacity:1;marker-end:url(#RoundedArrow)"
       d="m 28.720939,71.07343 c 0,0 20.304226,-14.230116 45.558807,-1.331645"
       id="path17594"
       sodipodi:nodetypes="cc" /><path
       style="fill:none;fill-opacity:1;stroke:#b4b4b4;stroke-width:0.5;stroke-linejoin:miter;stroke-dasharray:none;stroke-opacity:1;marker-end:url(#RoundedArrow)"
       d="m 28.720939,98.238239 c 0,0 20.304226,14.230111 45.558807,1.331645"
       id="path461"
       sodipodi:nodetypes="cc" /><text
       xml:space="preserve"
       style="font-size:4.23333px;line-height:1.3;font-family:Arial;-inkscape-font-specification:Arial;text-align:center;text-anchor:middle;fill:#000000;stroke-width:0.499999"
       x="120.18877"
       y="57.696438"
       id="text415"><tspan
         sodipodi:role="line"
         style="stroke-width:0.5"
         x="120.18877"
         y="57.696438"
         id="tspan417">&quot;show me items that</tspan><tspan
         sodipodi:role="line"
         style="stroke-width:0.5"
         x="120.18877"
         y="63.199768"
         id="tspan426">my friends like&quot;</tspan></text><text
       xml:space="preserve"
       style="font-size:5.29167px;line-height:1;font-family:Arial;-inkscape-font-specification:Arial;text-align:center;text-anchor:middle;fill:#000000;fill-opacity:1;stroke:none;stroke-width:0.499999;stroke-linejoin:miter;stroke-dasharray:none;stroke-opacity:1"
       x="44.761574"
       y="87.555428"
       id="text6947-2-6"><tspan
         sodipodi:role="line"
         style="font-size:5.29167px;fill:#000000;fill-opacity:1;stroke:none;stroke-width:0.5"
         x="44.761574"
         y="87.555428"
         id="tspan16784-6">item properties</tspan></text><path
       style="fill:#b4b4b4;fill-opacity:1;stroke:#b4b4b4;stroke-width:0.5;stroke-linejoin:miter;stroke-dasharray:none;stroke-opacity:1;marker-end:url(#RoundedArrow-3)"
       d="m 63.153107,86.187289 h 4.391062"
       id="path22356"
       sodipodi:nodetypes="cc" /></g></svg>
